<?xml version="1.0" encoding="utf-8"?>
<!-- Generator: Adobe Illustrator 21.1.0, SVG Export Plug-In . SVG Version: 6.00 Build 0)  -->
<svg version="1.1" xmlns="http://www.w3.org/2000/svg" xmlns:xlink="http://www.w3.org/1999/xlink" x="0px" y="0px"
	 viewBox="0 0 600.2 658" style="enable-background:new 0 0 600.2 658;" xml:space="preserve">
<style type="text/css">
	.st0{display:none;}
	.st1{display:inline;fill:#483F92;}
	.st2{display:inline;fill:#4C4A9A;}
	.st3{display:inline;fill:#3F52A1;}
	.st4{display:inline;fill:#4E6AB1;}
	.st5{display:inline;fill:#688DCA;}
	.st6{display:inline;fill:#95B9E2;}
	.st7{display:inline;opacity:0.58;fill:#B0DBFF;}
	.st8{display:inline;fill:#6666FF;}
	.st9{display:inline;opacity:0.58;fill:#6AA2E5;}
	.st10{fill:#6C8EC5;}
	.st11{fill:#FFFFFF;}
	.st12{fill:#8E1611;}
	.st13{fill:none;stroke:#4936FF;stroke-miterlimit:10;}
	.st14{fill:#8E3232;fill-opacity:0.63;}
	.st15{opacity:0.62;fill:#B71818;}
	.st16{fill:#751313;}
	.st17{fill:#AD4A4A;}
	.st18{fill:#B75459;}
	.st19{fill:#C49196;}
	.st20{fill:#91444C;}
	.st21{fill:#F7F6E8;}
	.st22{fill:#79A15A;}
	.st23{fill:#E2E1DF;}
	.st24{fill:#CCCCCC;}
	.st25{fill:#CEC8AE;}
	.st26{fill:#BB9B52;}
	.st27{fill:#D4B46D;}
	.st28{fill:#D6C3C6;}
	.st29{fill:#494949;}
	.st30{fill:#D3D2D1;}
	.st31{fill:#CD263B;}
	.st32{fill:#D6D6D6;}
	.st33{font-family:'Baskerville-SemiBold';}
	.st34{font-size:5.9629px;}
	.st35{fill:#9D1D20;}
	.st36{fill:#BF9EA4;}
	.st37{fill:#751414;}
	.st38{fill:#3A683A;}
	.st39{fill:#397F3D;}
</style>
<g id="couleurs" class="st0">
	<rect x="1137.9" y="519.1" class="st1" width="68" height="68"/>
	<rect x="1227.9" y="519.1" class="st2" width="69" height="68"/>
	<rect x="1318.9" y="519.1" class="st3" width="68" height="68"/>
	<rect x="1408.9" y="519.1" class="st4" width="69" height="68"/>
	<rect x="1120.9" y="610.1" class="st5" width="68" height="69"/>
	<rect x="1154.9" y="781.1" class="st6" width="69" height="69"/>
</g>
<g id="cercle_3" class="st0">
	<path class="st7" d="M9,359.4C0,452.8,83.4,722.6,291.3,642c94.9-36.8,134.5-156.6,184.8-223.7C839.1-66,297.1,18,214.9,77.6
		S31.7,124.9,9,359.4z"/>
	<path class="st8" d="M914.3,445.2"/>
</g>
<g id="cercle_2" class="st0">
	<path class="st9" d="M297.8,0C88.6-29.3-169.5,299.2,150.7,562C337,723,580.5,685.2,478.3,420.2C409.3,241.2,609.6,43.6,297.8,0z"
		/>
</g>
<g id="Calque_9">
	<g>
		<path class="st10" d="M45.6,286.9C35.1,426.7,200.5,553.9,280,592.1c64.6,31.1,220.2,28.5,192.2-138.2
			c-31.1-185.2,36.6-155.3,91.7-284.3C622,31.4,465.3-10.8,326.6,20.5C204.2,48.2,62.7,89,45.6,286.9z"/>
		<g>
			<path class="st11" d="M252.1,167.4h10.3V186h19.1v-18.6h10.3v47h-10.3v-18.9h-19.1v18.9h-10.3V167.4z"/>
			<path class="st11" d="M303.1,167.4h35.4v9.2h-25.2v9.5h22.2v9.2h-22.2v9.9h25.5v9.2h-35.8V167.4z"/>
			<path class="st11" d="M348.5,167.4h10.3v47h-10.3V167.4z"/>
			<path class="st11" d="M370.6,167.4h9.5l22,28.9v-28.9h10.2v47h-8.8l-22.8-29.9v29.9h-10.2V167.4z"/>
			<path class="st11" d="M422.2,206.6l25.8-30.1h-25v-9.1h38.3v7.9l-25.8,30.1h25.8v9.1h-39.1V206.6z"/>
			<path class="st11" d="M236.2,256.1c-2.6-2.6-3.9-5.8-3.9-9.7c0-3.8,1.3-7.1,3.9-9.7c2.6-2.6,5.9-3.9,9.9-3.9
				c2.3,0,4.2,0.4,5.8,1.1c1.6,0.8,3.1,1.8,4.4,3.2l-3.5,4c-1.1-1-2.2-1.8-3.2-2.3c-1-0.5-2.2-0.7-3.6-0.7c-2.2,0-4,0.8-5.5,2.4
				c-1.5,1.6-2.2,3.6-2.2,5.9c0,2.3,0.7,4.3,2.2,5.9c1.4,1.6,3.2,2.4,5.5,2.4c1.4,0,2.6-0.3,3.6-0.8c1-0.5,2.1-1.3,3.3-2.3l3.7,3.9
				c-1.4,1.5-3,2.7-4.6,3.4c-1.7,0.7-3.8,1.1-6.2,1.1C242,260,238.8,258.7,236.2,256.1z"/>
			<path class="st11" d="M270.3,233h5.3l11.3,26.5h-6.1l-2.4-5.9h-11.1l-2.4,5.9H259L270.3,233z M276.4,248.5l-3.5-8.5l-3.5,8.5
				H276.4z"/>
			<path class="st11" d="M289.2,255.7l3.4-4.1c2.6,2.1,5.2,3.2,7.9,3.2c1.2,0,2.1-0.2,2.8-0.7c0.7-0.5,1-1.1,1-1.9
				c0-0.8-0.4-1.4-1.1-1.8c-0.7-0.5-2.1-1-4.3-1.5c-1.5-0.4-2.7-0.8-3.6-1.1c-0.9-0.3-1.8-0.8-2.6-1.4c-0.9-0.6-1.5-1.4-1.8-2.3
				c-0.4-0.9-0.6-2-0.6-3.3c0-2.4,0.9-4.3,2.6-5.8c1.7-1.5,3.9-2.2,6.6-2.2c3.7,0,7,1.1,9.8,3.3l-3,4.4c-2.5-1.7-4.8-2.6-6.8-2.6
				c-1.1,0-1.9,0.2-2.5,0.6c-0.6,0.5-0.9,1-0.9,1.7c0,0.9,0.4,1.5,1.1,1.9c0.8,0.4,2.3,0.9,4.6,1.5c2.8,0.8,4.9,1.7,6.3,2.9
				c1.4,1.2,2,2.8,2,5.1c0,2.6-0.9,4.6-2.6,6c-1.8,1.5-4.1,2.2-7,2.2C296,259.9,292.3,258.5,289.2,255.7z"/>
			<path class="st11" d="M315,233.2h19.9v5.2h-14.1v5.3h12.4v5.2h-12.4v5.5h14.3v5.2H315V233.2z"/>
			<path class="st11" d="M349.7,255.7l3.4-4.1c2.6,2.1,5.2,3.2,7.9,3.2c1.2,0,2.1-0.2,2.8-0.7c0.7-0.5,1-1.1,1-1.9
				c0-0.8-0.4-1.4-1.1-1.8c-0.7-0.5-2.1-1-4.3-1.5c-1.5-0.4-2.7-0.8-3.6-1.1c-0.9-0.3-1.8-0.8-2.6-1.4c-0.9-0.6-1.5-1.4-1.8-2.3
				c-0.4-0.9-0.6-2-0.6-3.3c0-2.4,0.9-4.3,2.6-5.8c1.7-1.5,3.9-2.2,6.6-2.2c3.7,0,7,1.1,9.8,3.3l-3,4.4c-2.5-1.7-4.8-2.6-6.8-2.6
				c-1.1,0-1.9,0.2-2.5,0.6c-0.6,0.5-0.9,1-0.9,1.7c0,0.9,0.4,1.5,1.1,1.9c0.8,0.4,2.3,0.9,4.6,1.5c2.8,0.8,4.9,1.7,6.3,2.9
				c1.4,1.2,2,2.8,2,5.1c0,2.6-0.9,4.6-2.6,6c-1.8,1.5-4.1,2.2-7,2.2C356.6,259.9,352.8,258.5,349.7,255.7z"/>
			<path class="st11" d="M381.7,238.6h-8v-5.3h21.8v5.3h-8v21h-5.8V238.6z"/>
			<path class="st11" d="M399.6,248.3v-15h5.8v14.9c0,2.1,0.5,3.7,1.5,4.8c1,1.1,2.4,1.7,4.2,1.7s3.2-0.5,4.2-1.6
				c1-1.1,1.5-2.7,1.5-4.7v-15.1h5.8v14.9c0,3.9-1,6.9-3,8.9c-2.1,2-4.9,3-8.5,3c-3.6,0-6.4-1-8.4-3
				C400.6,255,399.6,252.1,399.6,248.3z"/>
			<path class="st11" d="M428.4,233.2h10.3c4.1,0,7.5,1.2,10.1,3.7c2.6,2.5,3.9,5.7,3.9,9.4c0,3.7-1.3,6.9-3.9,9.4
				c-2.6,2.5-6,3.8-10.1,3.8h-10.3V233.2z M438.7,254.3c2.4,0,4.3-0.7,5.8-2.2c1.5-1.5,2.2-3.4,2.2-5.7c0-2.4-0.7-4.3-2.2-5.7
				c-1.5-1.5-3.4-2.2-5.8-2.2h-4.5v15.9H438.7z"/>
			<path class="st11" d="M465.3,249.2l-10.1-16h6.8l6.3,10.6l6.4-10.6h6.6L471,249.1v10.5h-5.8V249.2z"/>
		</g>
		<path class="st12" d="M162.2,220.7c0.7,2.7-6.2,7.6-6.3,11.4c-0.1,3.8-1.2,72.7-22.3,121.6c-4.1,7.9-4.2,13.5-4.1,15.7
			c0.4,32.4-7.3,82.8-1,107.6c16.9,19.2,38.8,37.8,41,39.8c5.1,0.3,43.4,1.6,51-2.7c7.4-4.2,6.8-12.1,8-18.1
			c1.2-5.9,0.8-126.7,0.8-126.7s0.2-6.5-4.8-15.6c-7.7-14.1-20.2-65.1-21-121.9c0-3.1-9.4-9.6-6.5-11c0.8-0.4,4.8-1.1,5.4-1.9
			c0.7-0.8-0.4-20.7-1.1-22.8c-0.4-1.3-0.6-6.3-40.4-2.9c-4,0.3-4.2,2.7-4.2,2.7s-0.9,22.1-0.3,22.6
			C157.4,219.4,161.9,219.5,162.2,220.7z"/>
		<path class="st13" d="M128.1,369.4"/>
		<path class="st13" d="M155.5,230.6"/>
		<path class="st14" d="M154.3,262.6h22.3c0,0-2.4,101.5-11.2,110.6c-8.9,9.1,3.1,133.5-3.8,133.9c-1.7-0.1-1,0-3.4-0.1
			c-7.8-7.7-23.7-23.1-29.7-30c0.8-9.1,1.5-100.9,1.1-109.5c0-4.9,1.9-8.8,7.7-22.9c3-7.2,6.1-16.2,7.7-25.1
			C149.7,297.3,152.9,279.2,154.3,262.6z"/>
		<path class="st15" d="M158.1,507c6,0,46.2,2.2,63.2-1.9c1.7-0.4,4.4-2.2,5.3-4.3c0.9-2.2-3.9,12.1-5.3,13.1
			c-4.2,3-26.9,4.1-51.8,3C166.2,513.5,161.9,510.2,158.1,507z"/>
		<path class="st16" d="M198.9,262.2c0,0-0.8,9.7,2.1,27.5c3.6,21.8,13.4,63,18.3,68.9c5.6,6.7,3.7,50.1,3.5,58.6
			c-0.2,7-1.5,79.3-3.2,83.5c-1.6,4.2-3.5,13.6-4.8,15c4.5-0.8,5.3-0.9,6.7-2c3.8-3,6.5-7,6.9-17.9c0.5-10.8,0.8-126.7,0.8-126.7
			s0.4-8.9-4.8-15.6c-8.9-11.4-18.4-68.2-19.4-90.5C204.9,260.5,198.9,262.2,198.9,262.2"/>
		<path class="st16" d="M196.3,221.4"/>
		<path class="st16" d="M196.3,221.4c0,0,0.1,1.6,2.8,4.1c2.7,2.6,3.9,4.6,3.9,4.6l-4-0.3c0,0-4.4-3.3-5.8-8.1
			C191.8,217.1,196.3,221.4,196.3,221.4"/>
		<path class="st14" d="M162.1,221c0,0,0,2-2.7,4.8s-3.1,4.5-3.1,4.5l19.3-1.3v-7.6L162.1,221"/>
		<path class="st17" d="M166.2,262.3c0,0-1.9,15.2-7.9,25.2c-6,10.1-5.3,11-4.7,20.3c6.5,1.7,4.6,2.7,8.9-0.9
			c1.5-1.2,8.1-16.2,10.7-15.7s7.5-21.7,6-27.5S166.2,262.3,166.2,262.3z"/>
		<path class="st18" d="M218.3,361.5c0,0-5.6-0.7-7.8,0.4c-2.2,1.1-7,3-10.3,5.7c-3.3,2.7-0.9,2.5-0.9,2.5s4.6-1.7,6-3.5
			s7.7-3.3,7.7-3.3s3.6-0.6,8.3,0.7c-0.6-2.4-0.3-1.3-0.6-2.3C220.1,361.5,219,361.4,218.3,361.5z"/>
		<path class="st19" d="M134.2,364.7c0,0,8.3-1.4,11.1-1.6c5.5-0.3,11,6.1,13.8,6.4c1.3,0.2,3.5,0.4,5.2-0.9
			c1.7-1.4,12.5-5.1,15.8-5.4c7.7-0.8,18.1,6.5,18.1,6.5s3.2-0.3,1.5-2c-1.6-1.7-14.4-7-18.7-6.5c-5.4,0.6-7.4-0.3-18.3,5.4
			c-2.1,1.1-3,2.5-8.8-3.2c-5.8-5.6-18.9-0.4-18.9-0.4L134.2,364.7z"/>
		<path class="st17" d="M167.9,221.6c0,0-1.9,15.2-7.9,25.2c-6,10.1,12.3,3.2,14.9,3.8s7.5-21.7,6-27.5
			C179.4,217.3,167.9,221.6,167.9,221.6z"/>
		<path class="st20" d="M220.7,361.6c0.4,1.2,0.2,0.9,0.6,2.3c1.2,0.3,2.4,0.8,3.7,1.4l1.7,0.8c0,0,1.1,0.4-0.2-0.8
			s-3.9-3.1-3.9-3.1L220.7,361.6z"/>
		<path class="st21" d="M207.1,479.3c4.8-21,11-53.9,14.3-71.2l0,0c0.2-1.2-0.6-2.4-1.7-2.4c-2.7,0-5.3,0-7.9,0
			c-3.6-0.1-4.9-2.2-3.8-6.1c0.8-2.6,1.7-5.2,2.5-7.8c0.7-2.2,1.5-4.4,2.2-6.7c0.3-1-0.1-2.1-0.9-2.5c-7.2-3.7-15.3-6.5-21.9-7.6
			c-11-2-32-0.9-44.1,7.7c-0.7,0.5-1,1.5-0.7,2.4c1.3,3.8,2.5,6.5,3.9,10.7c2.8,7.9,1.1,10.3-4.8,10.3c-2.3,0-3.4,0-5.2,0
			c-1.1,0-1.9,1.1-1.7,2.4c1.9,11.7,10.4,58.9,12.6,70.8c0.3,1.7,1.2,2,2.7,2c4.1,0,38.2,0.3,51.4,0.3
			C206.6,481.4,206.5,480.3,207.1,479.3z M152.6,481.3c4.1,0,37.5,0.3,50.6,0.3c3.2,0,3.3-1,3.9-2.4"/>
		<path class="st22" d="M203.3,476.4c4.1-15.7,10.9-52.2,13.7-65.2l0,0c0.2-0.9-0.5-1.8-1.5-1.8c-2.3,0-4.5,0-6.6,0
			c-3.6,0-7-0.3-6.4-4.5c0.2-2.3,0.8-3.8,1.3-5.8c0.5-1.8,2.6-10.5,3.1-12.2c0.2-0.8-0.1-1.6-0.8-1.9c-6.1-2.7-12.9-4.9-18.5-5.7
			c-9.3-1.5-27-0.7-37.2,5.8c-0.6,0.4-0.9,1.2-0.6,1.8c1.1,2.9,3,10.4,3.9,13.6c1.9,5.7-1.1,9.2-5.9,9.3c-2,0-3.7,0-5.2,0
			c-0.9,0-1.6,0.9-1.5,1.8c1.6,8.8,10.4,56,12.2,64.9c0.3,1.3,1.4,1.5,2.7,1.5c3.5,0,33.5,0.3,44.6,0.3
			C202.9,478,202.9,477.1,203.3,476.4z M157.7,475.7c-1.4,0-1.9-0.4-2.1-1.7c-2.7-13.6-7.4-39.1-10.1-52.7c-0.6-3.1-1-5.1-1.5-7.4
			c-0.2-0.9,0.5-1.8,1.5-1.8c1.3,0,1.7-0.1,3.1-0.1c5.7-0.1,8.9-3.8,8.5-8.5c-0.1-0.8-3.1-12.6-3.8-15.1c-0.2-0.8,0.1-1.6,0.9-1.9
			c16.1-6.4,32.1-6.4,48.2,0c1.4,0.7,0.8,1.5,0.5,2.7c-0.4,1.4-2,8.7-2.3,9.9c-0.4,1.9-0.7,3.8-0.8,5.7c-0.3,5.4,1.1,7.1,8.9,7.3
			c1,0,1.7,0,3.2,0c1,0,1.7,0.9,1.5,1.8c-2.8,13.2-9.1,46.5-12,60.3c-0.4,1.5-0.4,1.8-3.1,1.8C188.6,476,157.7,475.7,157.7,475.7z"
			/>
		<path class="st23" d="M162.1,221c0.7,2.7,32.9,1.4,35.8,0c0.9-0.4,4.9-0.9,5.6-1.7c0.7-0.8-0.3-21.2-1.1-23.4
			c-0.5-1.3-0.7-6.4-41.7-2.9c-4.7,1.1-4.4,2.8-4.4,2.8s-0.7,22.2,0,22.8C157.4,219.4,161.8,219.8,162.1,221z"/>
		<path class="st24" d="M193.9,192.2c0,0,8.6,0.2,8.7,4.8c0.6,4.5,1.4,16.4,0.9,22.3c0,0.5-6.9,2.2-6.9,2.2
			C199.9,213.8,198,194.8,193.9,192.2z"/>
		<path class="st24" d="M196.6,221.4c3.3-7.7,0.9-24.9-2.7-29.2c0,0,8.6,0.2,8.7,4.8"/>
		<path class="st21" d="M156.3,230.3c19-1.8,27.9-1.7,45.7-0.2c2.7,1.1,1.5,32.9,1.5,32.9s-2.5-0.1-7.4,0c-3,2.2-11.4,7.9-25.4-0.1
			c-13.7,0.2-16.8,0.5-16.8,0.5S153.8,230.1,156.3,230.3z"/>
		<path class="st22" d="M176.7,251.7c1.6-3.9,3.1-4.8,6.5-4c-0.2,0.9-0.4,1.5-1.6,1.2c-1.4-0.4-1.9-0.1-2.7,1.4c0.7,0,1.4,0,2,0.1
			c1.1,0.2,1.8,0.8,1.7,2c0,1.6-1.5,2.8-3.4,3c-2.1,0.2-3.2-0.4-3.7-2.4c0.6-0.1,1.1-0.2,1.7-0.2c0.4,1.1,0.7,2.3,2.3,1.6
			c0.9-0.4,1.5-1.1,1.1-1.9c-0.3-0.5-1.2-0.8-1.9-1C178.2,251.3,177.5,251.6,176.7,251.7z"/>
		<path class="st22" d="M184.1,255.1c0.2-2.6,2-4.2,3.4-6.2c-1.3,0.1-2.4,0.1-3.5,0.2c0-1.2,0.5-1.8,1.8-1.6c0.9,0.1,1.8,0,2.6,0.1
			c0.4,0,0.8,0.3,1.1,0.4c-0.2,0.3-0.2,0.7-0.5,1c-1.3,1.6-2.4,3.3-2.8,5.4C186.2,255.7,185.1,255.1,184.1,255.1z"/>
		<path class="st25" d="M199,229.8c3.6,0.3,1.9,0.1,4,0.3c1.9,2.3,2.4,23.2,2,32.9c-0.9-0.3-6.2-0.4-6.2-0.4S198,231.3,199,229.8z"
			/>
		<path class="st26" d="M177.2,263.2c-0.2,0-0.4,0-0.6-0.1c-0.1-0.1-0.2-0.2-0.3-0.2c0,0,0,0,0,0c-0.2-0.1-0.4-0.2-0.6-0.3
			c-0.1,0-0.2,0-0.3-0.1c-0.7-0.4-1.4-0.7-2.1-1.1c-4.9-2.3-7.2-6.5-7.6-11.7c-0.4-4.8,1.5-8.7,4.7-12.2c1.7-1.1,3.3-2.2,5-3.3
			c0.9,0.5,1.8,1,2.7,1.5c-2.9,0.9-5.2,2.6-7.2,4.9c-3.8,4.6-3.9,11.7,0.5,16.3c2.4,2.5,5.3,3.5,8.5,4.4
			C179,262,178.1,262.6,177.2,263.2z"/>
		<path class="st27" d="M177.2,263.2c0.9-0.6,1.8-1.2,2.7-1.7c1.9,0.1,3.9,0.4,5.8,0.2c4.4-0.3,7.9-2.1,10.1-6.1
			c0.4,0.8,0.7,1.5,1.1,2.3c-1.2,2.2-3,3.8-5.3,4.8C186.9,264.9,182,264.9,177.2,263.2z"/>
		<path class="st27" d="M178,235.8c-0.9-0.5-1.8-1-2.7-1.5c0.1-0.2,0.2-0.3,0.4-0.5c2.7-0.4,5.4-1.2,8-1.1c4.5,0.1,8.4,1.8,11.1,5.7
			c0.2,0.4,0.4,0.8,0.6,1.2c-0.3,0.6-0.6,1.2-0.9,1.9c-0.1-0.4-0.2-1-0.5-1.3c-0.6-0.7-1.4-1.2-2.1-1.7c-0.7-0.6-1.4-1.3-2.2-1.6
			C186,234.9,182.1,234.8,178,235.8z"/>
		<path class="st26" d="M167.9,236c-4.1,0.2-8.2,0.4-12.3,0.5"/>
		<path class="st26" d="M154.8,236.6c0.2-0.8,0.1-1.6,0.3-2.4c0.1,0,1.4,0,1.5,0c0.3-0.1,0.6-0.2,1-0.2c1.7-0.1,3.4-0.2,5-0.4
			c0.3,0,0.6,0,0.9,0c1.8-0.1,3.5-0.1,5.3-0.2c1.7,0,3.3,0,5,0c-1,0.9-2,1.8-3.1,2.7c-0.9,0-1.8-0.1-2.6-0.1"/>
		<path class="st26" d="M156.9,260.6c-0.7,0-2.3,0-3,0c-0.1-1.9-0.1-1,0-2.1c4.1-0.2,6.9-0.4,11-0.6c0.8-0.1,1.6-0.4,2.3-0.6
			c0.3,0.4,0.5,0.9,0.8,1.3c0.3,0.4,0.7,0.8,1.3,1.4c-3.3,0.1-6.4,0.2-9.5,0.4c-0.8,0.1-1.5,0.1-2.3,0.2
			C157.3,260.5,157.1,260.6,156.9,260.6z"/>
		<path class="st26" d="M204.1,234.2c0.1,0.8,0.2,1.7,0.3,2.5c-1.8-0.1-8.1-0.1-9.9-0.2c-0.7-1-1.5-1.9-2.2-2.9
			C194.6,233.8,201.4,233.9,204.1,234.2z"/>
		<path class="st26" d="M205,258.1c0,0.7-0.1,1.2,0,2.1c-1.3,0-6.2,0-7.2,0c-0.3-0.1-0.5-0.1-0.9-0.2c0.3-0.7,0.7-1.3,1-1.9
			C198.8,258.1,204,258.1,205,258.1z"/>
		<path class="st22" d="M194.5,236.4c1.8,0.1,8.1,0.1,9.9,0.2c0.3,1.3-1,0.6-3.2,0.7c-0.9,0-4.3,0-5.1-0.2
			C195.5,237.1,195,236.7,194.5,236.4z"/>
		<path class="st28" d="M168.7,233.4c-1.8,0.1-3.5,0.1-5.3,0.2"/>
		<path class="st22" d="M167.3,257.3c-0.8,0.2-1.5,0.5-2.3,0.6c-4,0.3-7,0.4-11.1,0.6c-0.1-0.2,0-0.5,0-1.1c1.3-0.1,2.4-0.3,3.6-0.4
			c2.7-0.1,5.5-0.2,8.2-0.3C166.2,256.7,166.8,257.1,167.3,257.3z"/>
		<path class="st22" d="M154.8,236.6c4.1-0.2,9.2-0.4,13.2-0.5c0.9,0,1.8,0,2.6,0.1c-0.1,0.1-0.1,0.2-0.2,0.3
			c-0.9,0.2-1.8,0.5-2.7,0.5c-2.6,0.2-5.3,0.3-7.9,0.4c-1.5,0.1-3.8,0.3-5.3,0.4C154.7,237.4,154.7,236.9,154.8,236.6z"/>
		<path class="st22" d="M205,258.1c-1,0-6.2,0-7.2,0c0.1-1.2,0.9-1.2,1.7-1c0.6,0.1,4.8,0.3,5.4,0.5C205,257.8,205,257.8,205,258.1z
			"/>
		<path class="st22" d="M194.6,241.3c3,4.5,3,9.3,1.2,14.2c-2.2,4-5.7,5.8-10.1,6.1c-1.9,0.1-3.9-0.2-5.8-0.2
			c-3.1-0.9-6.1-1.9-8.5-4.4c-4.4-4.6-4.3-11.7-0.5-16.3c1.9-2.4,4.3-4,7.2-4.9c4-1.1,8-0.9,11.8,0.9c0.8,0.4,1.5,1.1,2.2,1.6
			c0.7,0.6,1.4,1.1,2.1,1.7C194.4,240.4,194.4,240.9,194.6,241.3z M183.1,260.8c7.3-0.1,12-2.9,13.1-9.5c1-5.7-2.6-12.3-7.9-14.3
			c-5.9-2.2-12.5-0.5-16.5,4.4c-4.2,5-3.4,11,0.8,15.3C175.7,259.8,179.7,260.5,183.1,260.8z"/>
		<path class="st26" d="M194.6,241.4c0.3-0.6,0.6-1.2,0.9-1.9c0.5,0.8,1,1.7,1.5,2.5c0,0.1,0.2,0.5,0.3,0.6c1.7,4.7,2.2,9.4,0,14.1
			c-0.2,0.4-0.2,0.8-0.4,1.3c-0.4-0.8-0.7-1.5-1.1-2.3C197.6,250.7,197.5,245.9,194.6,241.4z"/>
		<path class="st29" d="M186.7,241.2c0.1-0.7,0.2-1.5,0.3-2.3c0.3,0.1,0.6,0.1,0.9,0.2c-0.2,1.5-0.5,2.9-0.7,4.4
			c-0.5,0.1-0.8-0.1-1-0.7c-0.1-0.6-0.4-1.2-0.6-1.8c0,0.7-0.1,1.5-0.1,2.3c-0.3,0-0.6,0-0.9,0c0.1-1.5,0.2-3,0.3-4.4
			c0.8-0.2,0.9-0.1,1.2,0.7c0.2,0.6,0.4,1.2,0.5,1.7C186.6,241.2,186.7,241.2,186.7,241.2z"/>
		<path class="st29" d="M179.8,243.7c-0.3,0.1-0.6,0.2-0.9,0.3c-0.2-0.6-0.3-1.2-0.5-1.9c-0.3,0.1-0.6,0.2-0.9,0.4
			c0.2,0.6,0.4,1.2,0.6,1.8c-0.3,0.1-0.6,0.2-0.9,0.4c-0.5-1.4-0.9-2.8-1.4-4.2c0.3-0.1,0.6-0.2,0.9-0.4c0.2,0.5,0.3,1,0.5,1.6
			c0.3-0.1,0.6-0.2,0.9-0.3c-0.2-0.5-0.3-1-0.5-1.6c0.3-0.1,0.6-0.2,0.9-0.3C179,240.8,179.4,242.3,179.8,243.7z"/>
		<path class="st29" d="M181.1,242.6c0.5-0.1,0.9-0.2,1.4-0.3c0,0.3,0,0.5,0.1,0.9c-0.8,0.1-1.5,0.3-2.2,0.4
			c-0.2-1.5-0.5-2.9-0.7-4.5c0.8-0.1,1.6-0.3,2.4-0.4c0,0.3,0.1,0.6,0.1,0.9c-0.5,0.1-1,0.1-1.5,0.2c0.1,0.3,0.1,0.6,0.2,0.9
			c0.3,0,0.6-0.1,1-0.1c0,0.3,0.1,0.6,0.2,0.9c-0.3,0-0.6,0.1-1,0.1C181,241.9,181,242.2,181.1,242.6z"/>
		<path class="st29" d="M188.8,243.1c0.5,0.1,1,0.3,1.5,0.4c-0.1,0.3-0.2,0.6-0.3,0.9c-0.7-0.2-1.3-0.4-2-0.6
			c-0.4-0.1-0.5-0.8-0.1-1.2c0.7-0.7,1.3-1.3,2.1-2c-0.6-0.2-1.1-0.3-1.6-0.4c0.1-0.2,0.1-0.5,0.2-0.9c0.7,0.2,1.5,0.4,2.2,0.7
			c0.4,0.1,0.4,0.8,0.1,1.1C190.2,241.7,189.6,242.4,188.8,243.1z"/>
		<path class="st29" d="M183,243.2c0-1.5-0.1-3-0.1-4.5c0.3,0,0.6,0,1,0c0,1.5,0.1,3,0.1,4.5C183.7,243.1,183.4,243.2,183,243.2z"/>
		<rect x="182.3" y="196.2" class="st30" width="0.7" height="20"/>
		<rect x="179.9" y="196.2" class="st30" width="0.7" height="20"/>
		<rect x="177.6" y="196.2" class="st30" width="0.7" height="20"/>
		<rect x="161.8" y="196.2" class="st30" width="0.7" height="19.9"/>
		<rect x="175.3" y="196.2" class="st30" width="0.7" height="20"/>
		<rect x="173" y="196.2" class="st30" width="0.7" height="20"/>
		<rect x="170.8" y="196.2" class="st30" width="0.7" height="20"/>
		<rect x="168.6" y="196.2" class="st30" width="0.7" height="20"/>
		<rect x="166.1" y="196.2" class="st30" width="0.7" height="20"/>
		<rect x="163.8" y="196.2" class="st30" width="0.7" height="20"/>
		<rect x="160.3" y="196.2" class="st30" width="0.7" height="19.6"/>
		<rect x="159.1" y="196.4" class="st30" width="0.7" height="19.3"/>
		<polygon class="st30" points="158.3,215.4 157.9,215.5 157.9,196.6 158.3,196.6 		"/>
		<rect x="157.1" y="197" class="st30" width="0.4" height="18.1"/>
		
			<rect x="156.3" y="197.4" transform="matrix(-1 -2.863019e-06 2.863019e-06 -1 312.8885 412.0712)" class="st30" width="0.3" height="17.3"/>
		<path class="st29" d="M187,391.3c0.3-2,0.6-4,1-6.3c0.8,0.2,1.5,0.3,2.4,0.5c-0.7,4-1.4,8-2.1,12c-1.4,0.2-2.3-0.3-2.7-2
			c-0.4-1.7-0.9-3.3-1.7-4.9c-0.1,2-0.3,4-0.5,6.2c-0.8,0-1.6-0.1-2.4-0.1c0.4-4.1,0.7-8.2,1-12.2c2.3-0.5,2.6-0.3,3.2,2
			c0.5,1.6,0.9,3.2,1.4,4.8C186.8,391.4,186.9,391.3,187,391.3z"/>
		<path class="st29" d="M168,398c-0.8,0.2-1.7,0.5-2.6,0.7c-0.4-1.7-0.9-3.3-1.3-5.1c-0.9,0.3-1.6,0.6-2.4,0.9
			c0.6,1.7,1.1,3.2,1.6,4.8c-0.8,0.3-1.7,0.6-2.6,1c-1.2-3.8-2.5-7.6-3.8-11.6c0.8-0.3,1.6-0.7,2.5-1c0.5,1.5,0.9,2.9,1.4,4.4
			c0.8-0.3,1.6-0.6,2.5-0.9c-0.4-1.5-0.8-2.9-1.2-4.4c0.9-0.3,1.7-0.5,2.6-0.8C165.9,390,167,394,168,398z"/>
		<path class="st29" d="M171.5,394.9c1.4-0.2,2.5-0.4,3.8-0.7c0.1,0.7,0.1,1.5,0.2,2.4c-2.1,0.3-4.1,0.6-6.1,0.9
			c-0.6-4.1-1.2-8-1.9-12.3c2.2-0.4,4.3-0.7,6.7-1.1c0.1,1,0.1,1.7,0.2,2.4c-1.4,0.2-2.6,0.3-4.1,0.5c0.1,0.9,0.3,1.6,0.4,2.4
			c0.9-0.1,1.7-0.2,2.7-0.4c0.1,0.8,0.3,1.6,0.4,2.6c-0.9,0.1-1.8,0.2-2.7,0.4C171.3,393.1,171.4,393.9,171.5,394.9z"/>
		<path class="st29" d="M192.8,396.6c1.5,0.4,2.7,0.8,4.1,1.2c-0.2,0.7-0.5,1.6-0.8,2.4c-1.9-0.6-3.7-1.2-5.4-1.8
			c-1.1-0.4-1.2-2.2-0.2-3.2c1.8-1.8,3.7-3.5,5.8-5.4c-1.6-0.5-3-0.9-4.5-1.3c0.2-0.7,0.4-1.4,0.6-2.4c2,0.7,4,1.3,5.9,2
			c1,0.4,1,2.2,0.2,3C196.7,392.9,194.9,394.6,192.8,396.6z"/>
		<path class="st29" d="M176.8,396.5c0-4.1-0.1-8.1-0.1-12.3c0.9,0,1.8,0,2.7,0c0,4.1,0.1,8.1,0.1,12.3
			C178.6,396.5,177.8,396.5,176.8,396.5z"/>
		<path class="st29" d="M172.1,418.4c0.1,2.1-0.2,4.3,0.2,6.4c-0.8,0-1.6,0-2.4,0c0.4-1.5,0.2-3,0.2-4.5c0-1.4,0-2.9,0-4.3
			c0-0.9-0.1-1.7-0.1-2.6c0.5,0,1.2,0,1.8,0c0.1,0,0.3,0.2,0.3,0.3c0.8,1.4,1.5,2.8,2.2,4.2c0.1,0.1,0.1,0.3,0.2,0.4
			c0.7-1.4,1.4-2.7,2-4.1c0.3-0.7,0.7-1.1,1.5-0.9c0.3,0.1,0.7,0,0.9,0c0,1-0.1,2-0.1,3.1c0,2,0,4,0,6c0,0.8,0.1,1.6,0.1,2.4
			c-0.8,0-1.6,0-2.4,0c0.3-2.2,0.1-4.3,0.2-6.5c0,0-0.1,0-0.1,0c-0.7,1.4-1.5,2.8-2.2,4.2c-0.8-1.4-1.5-2.8-2.2-4.1
			C172.1,418.4,172.1,418.4,172.1,418.4z"/>
		<path class="st29" d="M205.3,419.1c0,1.5-0.3,2.8-1.2,4.1c-1.7,2.5-5,2.5-6.8,0.1c-1.6-2.2-1.7-5.8-0.2-8c0.9-1.3,2.2-2.1,3.9-2
			c1.7,0.1,2.8,1.1,3.6,2.6C205.1,416.9,205.3,418,205.3,419.1z M203,419.3c0-1-0.2-2-0.8-2.8c-0.9-1.4-2.6-1.4-3.3,0.1
			c-0.9,1.8-0.8,3.6,0.2,5.3c0.9,1.4,2.5,1.4,3.3-0.1C202.8,421,203,420.2,203,419.3z"/>
		<path class="st29" d="M159.5,419c0-1.6,0.5-3.2,1.8-4.5c1.9-1.9,4.8-1.6,6.3,0.6c1.1,1.6,1.3,3.4,1,5.3c-0.1,1.1-0.5,2.1-1.2,2.9
			c-1.8,2.4-5,2.3-6.7-0.1C159.9,422,159.5,420.6,159.5,419z M166.5,419.4c0-1.1-0.2-2-0.7-2.9c-0.9-1.5-2.6-1.5-3.3,0.1
			c-0.9,1.8-0.8,3.7,0.2,5.4c0.8,1.4,2.4,1.3,3.2-0.1C166.3,421.1,166.5,420.2,166.5,419.4z"/>
		<path class="st29" d="M183,413.4c1,0,2,0,3,0c0.1,2.3,1,4.5,1.5,6.7c0.3,1.4,0.7,2.7,1.1,4.1c0.1,0.2,0.2,0.4,0.3,0.6
			c-0.9,0-1.7,0-2.5,0c-0.2-0.8-0.3-1.7-0.5-2.5c0-0.1-0.2-0.2-0.3-0.2c-0.7,0-1.5,0-2.2,0c-0.1,0-0.3,0.1-0.3,0.2
			c-0.2,0.8-0.3,1.6-0.5,2.5c-0.7,0-1.5,0-2.3,0c0,0,0-0.1,0-0.1c1-2.7,1.4-5.5,2.2-8.2c0.1-0.4,0.2-0.7,0.3-1.1
			C182.8,414.8,182.9,414.2,183,413.4z M183.5,420.2c0.6,0,1.2,0,1.9,0c-0.3-1.3-0.6-2.6-0.9-3.8c0,0-0.1,0-0.1,0
			C184.1,417.6,183.8,418.9,183.5,420.2z"/>
		<path class="st29" d="M188.2,435.1c-0.6,0-1.3,0-2,0c0-1.2,0-2.5,0-3.7c-0.8,0-1.6,0-2.4,0c0,1.2,0,2.5,0,3.7c-0.6,0-1.3,0-1.9,0
			c0-3,0.1-6,0-9c0.6,0,1.3,0,2,0c0,1.1,0,2.3,0,3.5c0.8,0,1.6,0,2.4,0c0-1.2,0-2.3,0-3.5c0.6,0,1.3,0,1.9,0
			C188.1,429.1,188.1,432.1,188.2,435.1z"/>
		<path class="st29" d="M154.6,415.5c-0.9,0-1.7-0.1-2.5,0.4c0.1-0.8,0.2-1.6,0.3-2.4c2.2,0,4.4,0,6.7,0c0.1,0.8,0.2,1.6,0.3,2.4
			c-0.8-0.5-1.7-0.3-2.6-0.4c0.1,3.1-0.1,6.3,0.2,9.4c-0.8,0-1.7,0-2.5,0c0.4-3.1,0.1-6.1,0.2-9.2
			C154.6,415.6,154.6,415.6,154.6,415.5z"/>
		<path class="st29" d="M193.4,424.9c-0.8,0-1.7,0-2.5,0c0.4-3.1,0.1-6.1,0.2-9.2c0,0,0-0.1,0-0.2c-0.8,0-1.7-0.1-2.6,0.4
			c0.1-0.8,0.2-1.6,0.3-2.4c2.2,0,4.4,0,6.7,0c0.1,0.8,0.2,1.5,0.3,2.4c-0.8-0.5-1.7-0.4-2.6-0.4
			C193.4,418.6,193.1,421.7,193.4,424.9z"/>
		<path class="st29" d="M157.9,435.1c-0.6,0-1.3,0-2,0c0-0.7,0.1-1.4,0.1-2c0-1.6,0-3.3,0-4.9c0-0.7-0.1-1.4-0.1-2c0.6,0,1.4,0,2,0
			c0,1.1,0,2.3,0,3.5c0.6-1.2,1.2-2.3,1.9-3.5c0.7,0,1.4,0,2.3,0c-1.1,1.1-1.8,2.5-2.6,3.7c-0.2,0.2-0.2,0.4,0,0.7
			c0.7,1.1,1.3,2.3,2,3.4c0.2,0.4,0.5,0.8,0.8,1.2c-0.7,0-1.4,0-2.1,0c-0.1,0-0.2-0.1-0.3-0.3c-0.6-1-1.2-2.1-1.8-3.1
			c-0.1-0.1-0.2-0.3-0.2-0.4C157.9,432.6,157.9,433.9,157.9,435.1z"/>
		<path class="st29" d="M189.8,426.1c0.6,0,1.3,0,1.9,0c0,1.9,0,3.8,0,5.7c0,0.2,0,0.5,0,0.7c0.1,0.6,0.4,1,1.1,1c0.7,0,1-0.3,1.1-1
			c0-0.2,0-0.4,0-0.5c0-1.3,0-2.6,0-4c0-0.6-0.1-1.3-0.1-1.9c0.6,0,1.3,0,1.9,0c0,2,0,4.1,0,6.1c0,0.4-0.1,0.9-0.2,1.3
			c-0.2,0.7-0.7,1.3-1.4,1.5c-0.9,0.3-1.8,0.3-2.7,0c-1.1-0.4-1.5-1.3-1.5-2.4c0-1.2,0-2.4,0-3.6C189.9,428,189.9,427.1,189.8,426.1
			z"/>
		<path class="st29" d="M197.4,426.1c1,0,2.1,0,3.2,0c1,0,1.9,0.7,2.2,1.7c0.2,0.7,0.3,1.4,0.1,2.1c-0.3,1.3-1.4,2-2.8,2.1
			c-0.2,0-0.5,0-0.7,0c0,1.1,0,2.1,0,3.1c-0.6,0-1.3,0-1.9,0C197.6,432.1,197.6,429.2,197.4,426.1z M199.3,430.6
			c0.6,0,1.3,0.1,1.6-0.6c0.4-0.7,0.3-1.4-0.1-2c-0.4-0.6-0.9-0.5-1.5-0.4C199.3,428.6,199.3,429.5,199.3,430.6z"/>
		<path class="st29" d="M167.2,429.6c0,0.6,0,1.2,0,1.8c-0.7-0.1-1.4-0.1-2.2-0.2c0,0.8,0,1.6,0,2.3c0.9,0,1.8,0,2.7,0
			c-0.1,0.5-0.1,1.1-0.2,1.7c-1.5,0-3,0-4.3,0c0.1-3,0.1-6,0-9c1.4,0,2.8,0,4.3,0c0.1,0.6,0.2,1.2,0.3,1.9c-0.9-0.5-1.8-0.3-2.7-0.4
			c0,0.7,0,1.3,0,2.1C165.8,429.7,166.5,429.6,167.2,429.6z"/>
		<path class="st29" d="M180.6,432.4c0,0.6,0,1.3,0,1.9c0,0.2-0.2,0.3-0.3,0.4c-1.7,1-4.2,0.9-5.3-1.7c-0.9-2.1-0.4-4.7,1.1-6.1
			c1.3-1.2,3-1.1,4.3-0.5c0.1,0,0.2,0.2,0.2,0.3c0,0.6,0,1.3,0,1.9c-0.1-0.1-0.2-0.2-0.3-0.2c-0.6-0.5-1.3-0.7-2.1-0.7
			c-0.6,0-1,0.4-1.2,0.8c-0.8,1.3-0.8,2.7-0.1,4c0.5,1,1.4,1.2,2.5,0.7C179.8,433.1,180.2,432.7,180.6,432.4z"/>
		<path class="st29" d="M174.3,426.1c0.1,0.6,0.2,1.2,0.2,1.7c-0.7-0.1-1.3-0.1-2.1-0.2c0.1,2.5-0.1,5,0.1,7.5c-0.7,0-1.4,0-2,0
			c0-0.7,0.1-1.4,0.1-2.1c0-1.6,0-3.2,0-4.8c0-0.2,0-0.3,0-0.6c-0.7,0.1-1.4,0.1-2.1,0.2c0.1-0.5,0.2-1.1,0.3-1.7
			C170.6,426.1,172.4,426.1,174.3,426.1z"/>
		<path class="st31" d="M186.1,453c0.4,1.1,0.5,2.3,0.4,3.4c-0.2,1.8-0.8,3.5-1.8,5.1c-1.1,1.7-2.7,2.6-4.7,2.9
			c-2.7,0.4-5-0.6-6.8-2.5c-2.1-2.3-2.7-5-1.9-7.9c0.5-1.7,1.5-3,3.2-3.5c0.1,0,0.3-0.1,0.4-0.1C175.4,450.9,185.6,451.6,186.1,453z
			"/>
		<g id="XMLID_1_">
			<g>
				<path class="st32" d="M180.1,454c0.2,0.2,0,0.5-0.4,0.6c-0.7,0.1-1.4,0.2-2.2,0.2c-0.5-0.1-1.1-0.2-1.7-0.3
					c-0.1,0-0.3-0.2-0.3-0.3c0-0.1,0.2-0.4,0.3-0.4c0.5,0,1-0.1,1.4,0c0.8,0.3,1.6,0.2,2.4,0.1C179.7,453.8,179.9,453.9,180.1,454z"
					/>
				<path class="st32" d="M175,458.3c0.2,0.4,0,0.8-0.4,0.9c-0.2,0.1-0.5,0.1-0.7,0.1c-0.6,0-1-0.3-1.3-0.9
					c-0.3-0.8-0.2-1.5,0.1-2.2c0.1-0.2,0.1-0.3,0.2-0.5c0.4-1,1-1.1,1.8-0.5c0.3,0.2,0.4,0.5,0.3,1
					C174.9,456.9,174.7,457.6,175,458.3z"/>
			</g>
			<g>
			</g>
		</g>
		<path class="st31" d="M174.5,450.5c0,0,2.7-1,4-0.2c1.3,0.9,2.4-0.2,3.2-0.2c2.8,0,4.3,2.9,4.3,2.9L174.5,450.5z"/>
		<path class="st22" d="M202.2,469.7c-1.7-6.4-8.6-19-13-21.7c-0.8-0.5-1.5-0.8-2.5-0.6c-0.2,0-0.6-0.1-0.7-0.3
			c-0.3-0.5-0.7-0.6-1.1-0.6c-0.3,0-0.7,0-1,0.1c-1.1,0.1-2.3,0.3-3.3,0.8c-0.4,0.2-0.8,0.4-0.8,1c0,0.3-0.1,0.6-0.2,0.9
			c0,0.1,0,0.1,0,0.2c-0.1,0.3-0.1,0.6-0.2,1c0.3-0.1,0.5-0.3,0.8-0.4c0.5-0.2,1-0.4,1.5-0.6c0.7-0.1,1.4-0.3,2-0.1
			c0.2,0-0.5,0.2-0.7,0.3c-0.2,0.1-0.4,0.2-0.5,0.3c-0.4,0.2-0.8,0.3-1.2,0.5c0.7,0,2.1,0,2.1,0c0.1,0.2-1.2,0.3-1.8,0.4
			c-0.1,0-0.7,0.2-1,0.3c-0.4,0.1-0.8,0.3-1.1,0.4c-0.1,0.1-0.2,0.2-0.3,0.3c0,0,0.1,0,0.1,0.1c0.4-0.1,0.9-0.3,1.3-0.3
			c0.3,0,0.6,0.1,0.8,0.3c0.3,0.3,0.9,0.5,0.9,0.9c0,0,0,0,0,0c-0.2,0.2-0.4-0.1-0.6-0.2c-0.4-0.4-0.8-0.5-1.3-0.5
			c-0.2,0-0.4-0.1-0.6-0.1c-1.1,0-2.1,0-3.1-0.5c-0.1,0-0.4,0-0.4,0c-0.8-0.2-1.7-0.3-2.2-0.6c-0.6-0.4,1.4,0,2.2,0.1
			c-0.5-0.5-1-0.9-1.4-1.4c-0.1-0.2-0.6-0.5-0.3-0.5c0.4-0.1,0.6,0.3,0.9,0.4c0.4,0.4,0.8,0.7,1.5,0.8c-0.1-0.3-0.2-0.4-0.2-0.6
			c-0.4-1.1,1.2,0.6,1.3,0.9c0,0,0.1,0,0.1,0c0-0.4,0.1-0.8,0.1-1.3c0-0.1,0.2,0,0.3,0.2c0.1-0.4,0.1-0.7,0.1-1c0,0,1-1.4,1.1-1.4
			c0.5-0.2,1-0.4,1.6-0.6c0.6-0.2,1.1-0.5,1.7-0.5c1.1-0.1,2.2-0.3,3.3,0c0.1,0,0.1,0.1,0.2,0c0.1-0.1-1.5-0.4-2-0.4
			c-0.2-0.1-3.2-0.5-3.3-0.4c-0.8,0-1.5-0.1-2.3-0.1c-2.1-0.1-4.3,0-6.4,0.3c-1.8,0.3-3.4,1-5.1,1.7c-0.3,0.1-1.6,1.2-1.6,1.3
			c0.1,0.5,1,1.4,1,1.9c0.1,0.9,0.2,1.9-0.1,2.8c-0.1,0.3-0.3,0.4-0.6,0.4c-0.9-0.1-1.8-0.2-2.4-0.9c-0.1-0.1-0.2-0.2-0.4-0.3
			c-0.3-0.2-0.9-1.1-1-1.2c-0.4-0.1-0.7,0.5-0.7,0.6c0,0-1,1-1.3,1.4c-1.1,2.2,2.3,2.5,2.6,2.7c0.6,0.5-0.5,5.3-2.9,7.6
			c-3.2-1.2-3.4-7.2-2.5-8c-0.3-0.1,4.1-4.5,4.4-4.9c0,0,0.8-1,0.4-1.4c-0.1,0.1-0.3,0.3-0.4,0.4c-0.1,0.1-0.3,0.1-0.5,0.2
			c-0.1,0.1-0.4,0-0.4,0c-0.5,0.2-1.8,0.1-2-0.5c-0.1-1.1,1.3-1.4,1.8-1.8c0.1-0.1,1.7,1,1.7,1.3c0,0.3,0.2,0.5,0.4,0.4
			c0.3-0.1,1.9-1.3,1.9-1.3c0.3-0.3,2-1,2.4-1.2c-1.8-0.6-3.7-1.2-5.5-1.8c-0.3,0.2-2.2,0.7-2.2,0.7c-0.2,0-0.9-0.2-1.1-0.2
			c-0.2,0-0.4-0.1-0.6-0.1c-0.1,0-1-1.1-1.4-1.2c-0.5-0.1-0.1-0.9-0.3-1c-0.2-0.2-0.4-0.4-0.6-0.6c-0.5-0.7-0.9-1.4-0.8-2.4
			c0.8,0.2,1.6,0.4,2.4,0.6c0.7,0.2,2.3,0.1,2.7,0.4c0.3,0.2,0.5,0.5,0.8,0.7c0.3,0.3,0.6,0.7,0.8,1c0.3,0.4,0.5,0.8,0.4,1.2
			c0,0.2-0.2,0.3-0.3,0.5c0.4,0.2,0.8,0.4,1.2,0.6c1.6,0.5,3.2,1,4.9,1.4c0.2,0.1,0.5,0,0.7-0.1c2.2-1,4.6-1.7,7-1.8
			c1.8-0.1,3.5,0,5.3,0c0.6,0,1.2,0,1.8,0.1c1.4,0.2,2.7,0.4,4,0.7c0.4,0.1,0.7,0.3,1.1,0.5c0.2,0.1,0.3,0.3,0.5,0.4
			c4.7,1,15,16.1,15.2,21C203.2,468.1,202.3,470.2,202.2,469.7z M164.7,450.5"/>
		<text transform="matrix(1 0 0 1 172.0384 406.7682)" class="st31 st33 st34">1869</text>
		<g>
			<g>
				<g>
					<path class="st35" d="M115.8,255.1c-4.4-4.2-11.5-5.6-17.1-2.9c-1.2,0.6-6.2,1.1-7.5,0.7c-6-1.6-12.7,1.2-16.2,6.1
						c-4.2,5.9-5,13.3-3.3,20c2.1,8.6,7.6,14.1,16.8,15.9c5.2,1,7,0,10.5-0.3c3.5-0.3,5.5,0.3,10.3-1.7c8.7-3.6,13-10,13.5-18.8
						C123.2,267.2,121.1,260.1,115.8,255.1z"/>
					<path class="st36" d="M88.4,265.1c-0.7,2.7-2.9,7.8-4.6,5.6c-2.3-3-4.6-2-5.6-4.6c-1.2-3.1,1.8-5.3,4.6-5.6
						C85.6,260.2,89.5,260.6,88.4,265.1z"/>
					<g>
						<g>
							<path class="st37" d="M115.8,255.1c-4.4-4.2-11.5-5.6-17.1-2.9c-1.2,0.6-6.2,1.1-7.5,0.7c-2-0.5-4-0.6-6-0.2
								c3.4,0.4,3.9,4.5,14.1,2.8c9.5-1.6,17.9,11.9,13.6,24.1c-2.7,7.6-13.7,13.6-29,14.1c1.4,0.5,2.9,1,4.6,1.3
								c5.2,1,7,0,10.5-0.3c3.5-0.3,5.5,0.3,10.3-1.7c8.7-3.6,13-10,13.5-18.8C123.2,267.2,121.1,260.1,115.8,255.1z"/>
						</g>
					</g>
				</g>
				<g>
					<path class="st38" d="M94.6,250.5c-1.2-2.3-3.7-3.5-6.3-3.5c1.3,1.1,2.3,2,3,4c-1.4-0.6-5.1-0.8-7,0.8c2.7,0,4.2,0.5,5.9,2.1
						c0,0-1,1.1-1.1,2.2c-0.1,0.8,0.3,2.6,0.3,2.6c1.4-2.5,5.4-1.7,5.4-4.1c0,0,4.1,0.4,5.9,3c-0.1-3.7-1.9-4.2-1.9-4.2
						c1.6-1.4,4.8-0.8,6.7-0.4c-1.4-1.6-4.1-2.9-6.4-2.3c0.8-1.8,2.4-3,4.3-3.3C100.4,246.6,96.2,247,94.6,250.5L94.6,250.5z"/>
				</g>
				<g>
					<path class="st39" d="M95.6,240.6c-3,2.8-2,9-1.4,11.9c0.2,0.1,0.5,0.1,0.8-0.1c-0.2-1.8-0.3-4.6,0.2-6.5
						c0.7-2.8,2.1-3.7,2.1-3.7C97.2,240.3,95.6,240.6,95.6,240.6z"/>
				</g>
			</g>
		</g>
		<g>
			<g>
				<g>
					<path class="st35" d="M171.6,110c-5.7-2.1-12.8-0.5-16.8,4.2c-0.9,1-5.3,3.4-6.5,3.6c-6.1,1-11.1,6.1-12.4,12.1
						c-1.5,7.1,0.8,14.2,5,19.7c5.4,7,12.6,9.9,21.8,7.8c5.1-1.1,6.4-2.8,9.5-4.5c3-1.7,5.1-1.9,8.8-5.7c6.6-6.7,7.9-14.4,4.8-22.6
						C183.3,118.1,178.4,112.5,171.6,110z"/>
					<path class="st36" d="M150.5,130.1c0.5,2.8,0.5,8.3-2,7c-3.3-1.8-5,0-7-2c-2.3-2.3-0.5-5.6,2-7
						C146,126.7,149.7,125.5,150.5,130.1z"/>
					<g>
						<g>
							<path class="st37" d="M171.6,110c-5.7-2.1-12.8-0.5-16.8,4.2c-0.9,1-5.3,3.4-6.5,3.6c-2,0.3-3.9,1.1-5.6,2.2
								c3.2-1,5.4,2.6,14-3.1c8-5.3,21.2,3.7,22.1,16.6c0.6,8-7.1,18-20.9,24.5c1.5-0.1,3.1-0.3,4.7-0.6c5.1-1.1,6.4-2.8,9.5-4.5
								c3-1.7,5.1-1.9,8.8-5.7c6.6-6.7,7.9-14.4,4.8-22.6C183.3,118.1,178.4,112.5,171.6,110z"/>
						</g>
					</g>
				</g>
				<g>
					<path class="st38" d="M150.3,114.2c-2-1.6-4.8-1.8-7.1-0.7c1.7,0.4,2.9,0.9,4.3,2.5c-1.5,0-5,1.3-6.1,3.5
						c2.5-1,4.1-1.2,6.3-0.4c0,0-0.5,1.4-0.1,2.5c0.2,0.8,1.3,2.2,1.3,2.2c0.3-2.8,4.3-3.7,3.3-5.9c0,0,3.9-1.3,6.6,0.4
						c-1.5-3.4-3.4-3.1-3.4-3.1c0.9-1.9,4.1-2.7,6-3.1c-1.9-1-4.9-1-6.8,0.4c0-2,1-3.7,2.6-4.8C154.1,108.3,150.4,110.4,150.3,114.2
						L150.3,114.2z"/>
				</g>
				<g>
					<path class="st39" d="M147.3,104.8c-1.6,3.8,1.7,9,3.5,11.4c0.3,0,0.5-0.1,0.7-0.5c-0.9-1.6-2.1-4.1-2.4-6
						c-0.5-2.8,0.5-4.3,0.5-4.3C148.7,103.9,147.3,104.8,147.3,104.8z"/>
				</g>
			</g>
		</g>
		<g>
			<g>
				<g>
					<path class="st35" d="M299.7,68c-2.5-5.5-8.6-9.5-14.7-9.1c-1.3,0.1-6.1-1.3-7.2-2.1c-4.9-3.7-12.2-3.7-17.3-0.4
						c-6.1,3.9-9.6,10.5-10.6,17.3c-1.2,8.8,1.8,15.9,9.7,21c4.4,2.9,6.5,2.6,9.8,3.6c3.3,1,5,2.3,10.2,2.3
						c9.4,0,15.8-4.4,19.5-12.4C302.1,82,302.7,74.6,299.7,68z"/>
					<path class="st36" d="M270.6,67c-1.6,2.3-5.6,6.2-6.3,3.5c-1-3.6-3.5-3.5-3.5-6.3c0-3.3,3.6-4.3,6.3-3.5
						C269.8,61.4,273.3,63.2,270.6,67z"/>
					<g>
						<g>
							<path class="st37" d="M299.7,68c-2.5-5.5-8.6-9.5-14.7-9.1c-1.3,0.1-6.1-1.3-7.2-2.1c-1.6-1.2-3.5-2-5.5-2.4
								c3,1.6,1.9,5.7,12,7.8c9.4,2,12.2,17.7,3.6,27.4c-5.3,6-17.8,7.5-32.1,2.2c1.1,1,2.3,2,3.7,2.9c4.4,2.9,6.5,2.6,9.8,3.6
								s5,2.3,10.2,2.3c9.4,0,15.8-4.4,19.5-12.4C302.1,82,302.7,74.6,299.7,68z"/>
						</g>
					</g>
				</g>
				<g>
					<path class="st38" d="M281.8,55.7c-0.2-2.6-2.1-4.6-4.5-5.6c0.9,1.5,1.4,2.7,1.2,4.8c-1.1-1.1-4.4-2.7-6.7-1.9
						c2.5,1,3.7,2,4.7,4.2c0,0-1.3,0.7-1.9,1.7c-0.4,0.7-0.7,2.5-0.7,2.5c2.2-1.8,5.7,0.5,6.5-1.8c0,0,3.7,1.9,4.4,5
						c1.3-3.5-0.2-4.6-0.2-4.6c2-0.7,4.8,1,6.4,2.1c-0.6-2-2.7-4.2-5.1-4.5c1.4-1.4,3.3-1.8,5.3-1.5
						C288.6,54.3,284.6,53.1,281.8,55.7L281.8,55.7z"/>
				</g>
				<g>
					<path class="st39" d="M286.4,47c-3.8,1.5-5.2,7.6-5.7,10.5c0.2,0.2,0.5,0.3,0.8,0.2c0.5-1.7,1.4-4.4,2.6-6
						c1.7-2.3,3.4-2.7,3.4-2.7C288,47.3,286.4,47,286.4,47z"/>
				</g>
			</g>
		</g>
		<g>
			<g>
				<g>
					<path class="st35" d="M316,334.9c-5.5-2.7-12.7-1.8-17.1,2.4c-1,0.9-5.6,2.9-6.9,2.9c-6.1,0.3-11.7,4.9-13.6,10.7
						c-2.2,6.9-0.7,14.2,2.9,20.1c4.6,7.5,11.4,11.1,20.8,10.1c5.2-0.6,6.7-2.1,9.9-3.5c3.2-1.4,5.3-1.4,9.4-4.7
						c7.3-6,9.4-13.4,7.2-22C326.7,344.2,322.5,338.1,316,334.9z"/>
					<path class="st36" d="M292.8,352.6c0.2,2.8-0.4,8.3-2.7,6.7c-3.1-2.2-4.9-0.5-6.7-2.7c-2.1-2.6,0.1-5.6,2.7-6.7
						S292.5,348,292.8,352.6z"/>
					<g>
						<g>
							<path class="st37" d="M316,334.9c-5.5-2.7-12.7-1.8-17.1,2.4c-1,0.9-5.6,2.9-6.9,2.9c-2,0.1-4,0.7-5.8,1.6
								c3.3-0.6,5.1,3.2,14.3-1.6c8.6-4.4,20.7,5.9,20.2,18.9c-0.3,8-9,17.1-23.4,22.1c1.5,0.1,3.1,0.1,4.8-0.1
								c5.2-0.6,6.7-2.1,9.9-3.5c3.2-1.4,5.3-1.4,9.4-4.7c7.3-6,9.4-13.4,7.2-22C326.7,344.2,322.5,338.1,316,334.9z"/>
						</g>
					</g>
				</g>
				<g>
					<path class="st38" d="M294.3,336.8c-1.8-1.8-4.6-2.3-7-1.5c1.6,0.6,2.8,1.2,4,2.9c-1.5-0.2-5.1,0.8-6.4,2.8
						c2.6-0.8,4.2-0.8,6.3,0.2c0,0-0.6,1.3-0.4,2.5c0.2,0.8,1.1,2.4,1.1,2.4c0.6-2.8,4.7-3.2,3.9-5.5c0,0,4-0.9,6.5,1.1
						c-1.2-3.5-3.1-3.4-3.1-3.4c1.1-1.8,4.4-2.2,6.3-2.4c-1.8-1.1-4.8-1.5-6.8-0.3c0.2-2,1.4-3.5,3.1-4.5
						C298.7,331.4,294.9,333,294.3,336.8L294.3,336.8z"/>
				</g>
				<g>
					<path class="st39" d="M292.4,327.2c-2,3.6,0.8,9.2,2.3,11.7c0.3,0,0.5-0.1,0.8-0.4c-0.7-1.7-1.7-4.3-1.8-6.3
						c-0.2-2.9,0.9-4.2,0.9-4.2C293.8,326.4,292.4,327.2,292.4,327.2z"/>
				</g>
			</g>
		</g>
		<g>
			<g>
				<g>
					<path class="st35" d="M363.4,504.3c-4.1-4.5-11.1-6.3-16.8-4c-1.2,0.5-6.3,0.6-7.5,0.2c-5.8-1.9-12.7,0.3-16.6,5.1
						c-4.6,5.6-5.8,12.9-4.6,19.8c1.6,8.7,6.6,14.5,15.8,16.9c5.1,1.3,7,0.5,10.5,0.4c3.5-0.1,5.4,0.6,10.4-1
						c9-3,13.6-9.1,14.7-17.9C370,516.8,368.3,509.6,363.4,504.3z"/>
					<path class="st36" d="M335.4,512.4c-0.9,2.7-3.4,7.6-4.9,5.3c-2.1-3.1-4.4-2.3-5.3-4.9c-1-3.1,2.1-5.2,4.9-5.3
						S336.8,508,335.4,512.4z"/>
					<g>
						<g>
							<path class="st37" d="M363.4,504.3c-4.1-4.5-11.1-6.3-16.8-4c-1.2,0.5-6.3,0.6-7.5,0.2c-1.9-0.6-4-0.8-6-0.6
								c3.3,0.6,3.6,4.8,13.9,3.7c9.6-1,17.1,13,12,24.9c-3.2,7.4-14.6,12.7-29.8,12.2c1.4,0.6,2.9,1.2,4.5,1.6
								c5.1,1.3,7,0.5,10.5,0.4c3.5-0.1,5.4,0.6,10.4-1c9-3,13.6-9.1,14.7-17.9C370,516.8,368.3,509.6,363.4,504.3z"/>
						</g>
					</g>
				</g>
				<g>
					<path class="st38" d="M342.5,498.2c-1-2.4-3.4-3.7-6-3.9c1.3,1.2,2.2,2.1,2.7,4.2c-1.4-0.7-5-1.1-7,0.3
						c2.7,0.2,4.2,0.8,5.8,2.5c0,0-1.1,1-1.2,2.2c-0.1,0.8,0.2,2.6,0.2,2.6c1.6-2.4,5.5-1.3,5.6-3.8c0,0,4.1,0.6,5.7,3.4
						c0.2-3.7-1.6-4.3-1.6-4.3c1.7-1.3,4.9-0.5,6.7,0c-1.2-1.7-3.9-3.1-6.3-2.7c0.9-1.8,2.6-2.8,4.5-3
						C348.6,494.7,344.4,494.9,342.5,498.2L342.5,498.2z"/>
				</g>
				<g>
					<path class="st39" d="M344.2,488.5c-3.1,2.6-2.6,8.8-2.1,11.8c0.2,0.1,0.5,0.1,0.8-0.1c0-1.8,0-4.6,0.6-6.5
						c0.9-2.7,2.4-3.6,2.4-3.6C345.8,488.3,344.2,488.5,344.2,488.5z"/>
				</g>
			</g>
		</g>
		<g>
			<g>
				<g>
					<path class="st35" d="M410.7,413c-1.7-5.9-7.1-10.7-13.2-11.2c-1.3-0.1-5.9-2.3-6.8-3.2c-4.3-4.4-11.5-5.5-17-3
						c-6.6,2.9-11.1,8.9-13.1,15.5c-2.5,8.5-0.7,16,6.4,22.2c3.9,3.5,6,3.6,9.2,5.1c3.1,1.5,4.6,3,9.8,3.8
						c9.3,1.4,16.3-1.9,21.2-9.3C410.9,427.2,412.7,419.9,410.7,413z"/>
					<path class="st36" d="M382.1,407.5c-2,2-6.5,5.3-6.8,2.5c-0.5-3.7-2.9-4-2.5-6.8c0.5-3.2,4.2-3.7,6.8-2.5
						C382.2,401.9,385.3,404.2,382.1,407.5z"/>
					<g>
						<g>
							<path class="st37" d="M410.7,413c-1.7-5.9-7.1-10.7-13.2-11.2c-1.3-0.1-5.9-2.3-6.8-3.2c-1.4-1.4-3.2-2.5-5-3.2
								c2.7,2.1,1,5.9,10.7,9.6c9,3.4,9.3,19.4-0.6,27.7c-6.2,5.2-18.8,4.7-32.1-2.7c0.9,1.2,2,2.3,3.3,3.5c3.9,3.5,6,3.6,9.2,5.1
								c3.1,1.5,4.6,3,9.8,3.8c9.3,1.4,16.3-1.9,21.2-9.3C410.9,427.2,412.7,419.9,410.7,413z"/>
						</g>
					</g>
				</g>
				<g>
					<path class="st38" d="M394.9,398.1c0.2-2.6-1.4-4.9-3.6-6.2c0.6,1.6,1,2.9,0.5,5c-0.9-1.3-4-3.3-6.4-2.9c2.3,1.4,3.4,2.6,4,4.8
						c0,0-1.4,0.4-2.1,1.4c-0.5,0.6-1,2.4-1,2.4c2.5-1.4,5.5,1.3,6.7-0.8c0,0,3.3,2.4,3.5,5.6c1.8-3.2,0.5-4.6,0.5-4.6
						c2.1-0.4,4.6,1.8,6,3c-0.3-2.1-2.1-4.5-4.3-5.3c1.6-1.2,3.6-1.3,5.4-0.7C401.9,397.7,398,396,394.9,398.1L394.9,398.1z"/>
				</g>
				<g>
					<path class="st39" d="M400.7,390.2c-4,0.9-6.3,6.7-7.2,9.5c0.2,0.2,0.4,0.4,0.8,0.3c0.8-1.6,2.1-4.1,3.5-5.5
						c2-2,3.7-2.1,3.7-2.1C402.3,390.8,400.7,390.2,400.7,390.2z"/>
				</g>
			</g>
		</g>
		<g>
			<g>
				<g>
					<path class="st35" d="M402.6,89.5c-6.1-0.3-12.4,3.3-14.8,9c-0.5,1.2-4,4.9-5.2,5.4c-5.5,2.7-8.8,9.2-8.2,15.2
						c0.7,7.2,4.9,13.3,10.6,17.3c7.2,5.1,14.9,5.7,23.1,1c4.6-2.6,5.3-4.6,7.7-7.1c2.4-2.5,4.3-3.4,6.7-8.1
						c4.3-8.4,3.3-16.1-2.1-23C416.1,93.8,409.8,89.8,402.6,89.5z"/>
					<path class="st36" d="M388.4,114.9c1.3,2.5,2.9,7.8,0.2,7.2c-3.7-0.7-4.7,1.5-7.2,0.2c-2.9-1.5-2.1-5.2-0.2-7.2
						C383.1,113.1,386.3,110.8,388.4,114.9z"/>
					<g>
						<g>
							<path class="st37" d="M402.6,89.5c-6.1-0.3-12.4,3.3-14.8,9c-0.5,1.2-4,4.9-5.2,5.4c-1.8,0.9-3.4,2.2-4.7,3.8
								c2.8-1.9,5.9,0.9,12.5-7.1c6.1-7.4,21.3-2.8,26.1,9.3c2.9,7.5-1.5,19.3-12.7,29.6c1.4-0.5,2.9-1.2,4.3-2
								c4.6-2.6,5.3-4.6,7.7-7.1c2.4-2.5,4.3-3.4,6.7-8.1c4.3-8.4,3.3-16.1-2.1-23C416.1,93.8,409.8,89.8,402.6,89.5z"/>
						</g>
					</g>
				</g>
				<g>
					<path class="st38" d="M383.5,99.8c-2.4-1-5.1-0.3-7,1.4c1.7-0.1,3.1,0,4.9,1.1c-1.5,0.5-4.4,2.7-4.7,5.2
						c2.1-1.7,3.5-2.4,5.9-2.3c0,0,0,1.5,0.6,2.4c0.5,0.7,1.9,1.7,1.9,1.7c-0.6-2.8,3-4.8,1.4-6.6c0,0,3.3-2.4,6.4-1.6
						c-2.5-2.8-4.2-1.9-4.2-1.9c0.3-2.1,3.1-3.8,4.8-4.7c-2.1-0.3-5,0.5-6.4,2.5c-0.6-1.9-0.1-3.8,1.1-5.4
						C385.4,93.1,382.5,96.2,383.5,99.8L383.5,99.8z"/>
				</g>
				<g>
					<path class="st39" d="M377.8,91.7c-0.4,4.1,4.3,8.1,6.8,9.9c0.2-0.1,0.5-0.3,0.5-0.7c-1.3-1.2-3.2-3.3-4.1-5
						c-1.3-2.6-0.8-4.2-0.8-4.2C378.9,90.5,377.8,91.7,377.8,91.7z"/>
				</g>
			</g>
		</g>
		<g>
			<g>
				<g>
					<path class="st35" d="M519.8,72.8c-3.9-3.9-10.2-5.3-15.3-3.1c-1.1,0.5-5.6,0.8-6.7,0.4c-5.3-1.6-11.4,0.7-14.8,5.1
						c-4,5.2-4.9,11.9-3.5,18c1.7,7.8,6.4,12.9,14.7,14.8c4.6,1,6.3,0.2,9.5,0c3.1-0.2,4.9,0.4,9.4-1.3c8-3,12-8.7,12.7-16.6
						C526.2,83.9,524.5,77.4,519.8,72.8z"/>
					<path class="st36" d="M494.9,81c-0.7,2.5-2.8,7-4.3,4.9c-2-2.8-4.1-1.9-4.9-4.3c-1-2.8,1.8-4.7,4.3-4.9
						C492.5,76.5,496,77,494.9,81z"/>
					<g>
						<g>
							<path class="st37" d="M519.8,72.8c-3.9-3.9-10.2-5.3-15.3-3.1c-1.1,0.5-5.6,0.8-6.7,0.4c-1.8-0.5-3.6-0.6-5.4-0.4
								c3,0.4,3.4,4.2,12.6,2.9c8.6-1.2,15.8,11.2,11.6,22.1c-2.6,6.8-12.8,11.9-26.5,11.9c1.3,0.5,2.6,1,4.1,1.3
								c4.6,1,6.3,0.2,9.5,0s4.9,0.4,9.4-1.3c8-3,12-8.7,12.7-16.6C526.2,83.9,524.5,77.4,519.8,72.8z"/>
						</g>
					</g>
				</g>
				<g>
					<path class="st38" d="M500.9,68c-1-2.1-3.2-3.3-5.5-3.4c1.2,1,2.1,1.9,2.6,3.7c-1.3-0.6-4.6-0.9-6.3,0.5
						c2.4,0.1,3.8,0.6,5.3,2.1c0,0-0.9,1-1.1,2c-0.1,0.7,0.2,2.3,0.2,2.3c1.3-2.2,4.9-1.4,5-3.6c0,0,3.7,0.5,5.2,2.9
						c0-3.3-1.6-3.8-1.6-3.8c1.5-1.2,4.4-0.6,6.1-0.2c-1.2-1.5-3.6-2.7-5.7-2.3c0.8-1.6,2.2-2.6,4-2.9
						C506.2,64.6,502.4,64.9,500.9,68L500.9,68z"/>
				</g>
				<g>
					<path class="st39" d="M502,59.1c-2.8,2.5-2.1,8-1.5,10.7c0.2,0.1,0.5,0.1,0.8-0.1c-0.1-1.6-0.1-4.1,0.3-5.9
						c0.7-2.5,2-3.3,2-3.3C503.5,58.9,502,59.1,502,59.1z"/>
				</g>
			</g>
		</g>
	</g>
</g>
</svg>
