<?xml version="1.0" encoding="utf-8"?>
<!-- Generator: Adobe Illustrator 21.1.0, SVG Export Plug-In . SVG Version: 6.00 Build 0)  -->
<svg version="1.1" id="Capa_1" xmlns="http://www.w3.org/2000/svg" xmlns:xlink="http://www.w3.org/1999/xlink" x="0px" y="0px"
	 viewBox="0 0 91.1 33.9" style="enable-background:new 0 0 91.1 33.9;" xml:space="preserve">
<style type="text/css">
	.st0{fill:#4F6AB1;stroke:#4F6AB1;stroke-miterlimit:10;}
</style>
<g>
	<path class="st0" d="M88.1,17.5H4.5c-0.7,0-1.3-0.3-1.3-0.6s0.6-0.6,1.3-0.6h83.6c0.7,0,0.9,0.3,0.9,0.6S88.8,17.5,88.1,17.5z"/>
	<path class="st0" d="M25.8,31.8c-0.2,0-0.5-0.1-0.7-0.2L2.2,17.4C2.1,17.3,2,17.1,2,17s0.1-0.3,0.3-0.4L25.1,2.3
		c0.4-0.2,0.9-0.2,1.3,0s0.4,0.6,0,0.8L4,17l22.4,13.9c0.4,0.2,0.4,0.6,0,0.8C26.3,31.8,26,31.8,25.8,31.8z"/>
</g>
</svg>
