<?xml version="1.0" encoding="utf-8"?>
<!-- Generator: Adobe Illustrator 21.1.0, SVG Export Plug-In . SVG Version: 6.00 Build 0)  -->
<svg version="1.1" xmlns="http://www.w3.org/2000/svg" xmlns:xlink="http://www.w3.org/1999/xlink" x="0px" y="0px"
	 viewBox="0 0 758.6 831.6" enable-background="new 0 0 758.6 831.6" xml:space="preserve">
<g id="calque_2_">
	<path opacity="0.58" fill="#B0DBFF" d="M88.2,446.2c-9,93.4,74.4,363.2,282.3,282.6c94.9-36.8,134.5-156.6,184.8-223.7
		c363-484.3-179-400.3-261.2-340.7S110.9,211.7,88.2,446.2z"/>
	<path fill="#6666FF" d="M993.5,532.1"/>
</g>
<g id="calque_1_">
	<path opacity="0.58" fill="#6AA2E5" d="M377,86.8C167.8,57.5-90.3,386,229.9,648.8C416.2,809.8,659.7,772,557.5,507.1
		C488.5,328,688.8,130.5,377,86.8z"/>
</g>
<g id="calque">
	<g>
		<path fill="#6C8EC5" d="M124.8,373.7c-10.5,139.8,154.9,267,234.4,305.2c64.6,31.1,220.2,28.5,192.2-138.2
			c-31.1-185.2,36.6-155.3,91.7-284.3c58.1-138.3-98.6-180.4-237.3-149.1C283.4,135,141.9,175.8,124.8,373.7z"/>
		<g>
			<path fill="#FFFFFF" d="M331.3,254.2h10.3v18.6h19.1v-18.6H371v47h-10.3v-18.9h-19.1v18.9h-10.3V254.2z"/>
			<path fill="#FFFFFF" d="M382.3,254.2h35.4v9.2h-25.2v9.5h22.2v9.2h-22.2v9.9h25.5v9.2h-35.8V254.2z"/>
			<path fill="#FFFFFF" d="M427.7,254.2h10.3v47h-10.3V254.2z"/>
			<path fill="#FFFFFF" d="M449.8,254.2h9.5l22,28.9v-28.9h10.2v47h-8.8L460,271.4v29.9h-10.2V254.2z"/>
			<path fill="#FFFFFF" d="M501.4,293.4l25.8-30.1h-25v-9.1h38.3v7.9l-25.8,30.1h25.8v9.1h-39.1V293.4z"/>
			<path fill="#FFFFFF" d="M315.4,342.9c-2.6-2.6-3.9-5.8-3.9-9.7c0-3.8,1.3-7.1,3.9-9.7c2.6-2.6,5.9-3.9,9.9-3.9
				c2.3,0,4.2,0.4,5.8,1.1c1.6,0.8,3.1,1.8,4.4,3.2l-3.5,4c-1.1-1-2.2-1.8-3.2-2.3c-1-0.5-2.2-0.7-3.6-0.7c-2.2,0-4,0.8-5.5,2.4
				c-1.5,1.6-2.2,3.6-2.2,5.9c0,2.3,0.7,4.3,2.2,5.9c1.4,1.6,3.2,2.4,5.5,2.4c1.4,0,2.6-0.3,3.6-0.8c1-0.5,2.1-1.3,3.3-2.3l3.7,3.9
				c-1.4,1.5-3,2.7-4.6,3.4c-1.7,0.7-3.8,1.1-6.2,1.1C321.2,346.8,318,345.5,315.4,342.9z"/>
			<path fill="#FFFFFF" d="M349.5,319.9h5.3l11.3,26.5H360l-2.4-5.9h-11.1l-2.4,5.9h-5.9L349.5,319.9z M355.6,335.3l-3.5-8.5
				l-3.5,8.5H355.6z"/>
			<path fill="#FFFFFF" d="M368.4,342.5l3.4-4.1c2.6,2.1,5.2,3.2,7.9,3.2c1.2,0,2.1-0.2,2.8-0.7c0.7-0.5,1-1.1,1-1.9
				c0-0.8-0.4-1.4-1.1-1.8c-0.7-0.5-2.1-1-4.3-1.5c-1.5-0.4-2.7-0.8-3.6-1.1c-0.9-0.3-1.8-0.8-2.6-1.4c-0.9-0.6-1.5-1.4-1.8-2.3
				c-0.4-0.9-0.6-2-0.6-3.3c0-2.4,0.9-4.3,2.6-5.8c1.7-1.5,3.9-2.2,6.6-2.2c3.7,0,7,1.1,9.8,3.3l-3,4.4c-2.5-1.7-4.8-2.6-6.8-2.6
				c-1.1,0-1.9,0.2-2.5,0.6c-0.6,0.5-0.9,1-0.9,1.7c0,0.9,0.4,1.5,1.1,1.9c0.8,0.4,2.3,0.9,4.6,1.5c2.8,0.8,4.9,1.7,6.3,2.9
				c1.4,1.2,2,2.8,2,5.1c0,2.6-0.9,4.6-2.6,6c-1.8,1.5-4.1,2.2-7,2.2C375.2,346.7,371.5,345.3,368.4,342.5z"/>
			<path fill="#FFFFFF" d="M394.2,320h19.9v5.2H400v5.3h12.4v5.2H400v5.5h14.3v5.2h-20.1V320z"/>
			<path fill="#FFFFFF" d="M428.9,342.5l3.4-4.1c2.6,2.1,5.2,3.2,7.9,3.2c1.2,0,2.1-0.2,2.8-0.7c0.7-0.5,1-1.1,1-1.9
				c0-0.8-0.4-1.4-1.1-1.8c-0.7-0.5-2.1-1-4.3-1.5c-1.5-0.4-2.7-0.8-3.6-1.1c-0.9-0.3-1.8-0.8-2.6-1.4c-0.9-0.6-1.5-1.4-1.8-2.3
				c-0.4-0.9-0.6-2-0.6-3.3c0-2.4,0.9-4.3,2.6-5.8c1.7-1.5,3.9-2.2,6.6-2.2c3.7,0,7,1.1,9.8,3.3l-3,4.4c-2.5-1.7-4.8-2.6-6.8-2.6
				c-1.1,0-1.9,0.2-2.5,0.6c-0.6,0.5-0.9,1-0.9,1.7c0,0.9,0.4,1.5,1.1,1.9c0.8,0.4,2.3,0.9,4.6,1.5c2.8,0.8,4.9,1.7,6.3,2.9
				c1.4,1.2,2,2.8,2,5.1c0,2.6-0.9,4.6-2.6,6c-1.8,1.5-4.1,2.2-7,2.2C435.8,346.7,432,345.3,428.9,342.5z"/>
			<path fill="#FFFFFF" d="M460.9,325.4h-8V320h21.8v5.3h-8v21h-5.8V325.4z"/>
			<path fill="#FFFFFF" d="M478.8,335.1v-15h5.8v14.9c0,2.1,0.5,3.7,1.5,4.8c1,1.1,2.4,1.7,4.2,1.7s3.2-0.5,4.2-1.6
				c1-1.1,1.5-2.7,1.5-4.7V320h5.8v14.9c0,3.9-1,6.9-3,8.9c-2.1,2-4.9,3-8.5,3c-3.6,0-6.4-1-8.4-3
				C479.8,341.8,478.8,338.9,478.8,335.1z"/>
			<path fill="#FFFFFF" d="M507.6,320h10.3c4.1,0,7.5,1.2,10.1,3.7c2.6,2.5,3.9,5.7,3.9,9.4c0,3.7-1.3,6.9-3.9,9.4
				c-2.6,2.5-6,3.8-10.1,3.8h-10.3V320z M517.9,341.1c2.4,0,4.3-0.7,5.8-2.2c1.5-1.5,2.2-3.4,2.2-5.7c0-2.4-0.7-4.3-2.2-5.7
				c-1.5-1.5-3.4-2.2-5.8-2.2h-4.5v15.9H517.9z"/>
			<path fill="#FFFFFF" d="M544.4,336l-10.1-16h6.8l6.3,10.6l6.4-10.6h6.6l-10.1,15.8v10.5h-5.8V336z"/>
		</g>
		<path fill="#8E1611" d="M241.4,307.5c0.7,2.7-6.2,7.6-6.3,11.4s-1.2,72.7-22.3,121.6c-4.1,7.9-4.2,13.5-4.1,15.7
			c0.4,32.4-7.3,82.8-1,107.6c16.9,19.2,38.8,37.8,41,39.8c5.1,0.3,43.4,1.6,51-2.7c7.4-4.2,6.8-12.1,8-18.1
			c1.2-5.9,0.8-126.7,0.8-126.7s0.2-6.5-4.8-15.6c-7.7-14.1-20.2-65.1-21-121.9c0-3.1-9.4-9.6-6.5-11c0.8-0.4,4.8-1.1,5.4-1.9
			c0.7-0.8-0.4-20.7-1.1-22.8c-0.4-1.3-0.6-6.3-40.4-2.9c-4,0.3-4.2,2.7-4.2,2.7s-0.9,22.1-0.3,22.6
			C236.6,306.2,241.1,306.3,241.4,307.5z"/>
		<path fill="none" stroke="#4936FF" stroke-miterlimit="10" d="M207.3,456.2"/>
		<path fill="none" stroke="#4936FF" stroke-miterlimit="10" d="M234.7,317.4"/>
		<path fill="#8E3232" fill-opacity="0.63" d="M233.5,349.4h22.3c0,0-2.4,101.5-11.2,110.6c-8.9,9.1,3.1,133.5-3.8,133.9
			c-1.7-0.1-1,0-3.4-0.1c-7.8-7.7-23.7-23.1-29.7-30c0.8-9.1,1.5-100.9,1.1-109.5c0-4.9,1.9-8.8,7.7-22.9c3-7.2,6.1-16.2,7.7-25.1
			C228.9,384.1,232.1,366,233.5,349.4z"/>
		<path opacity="0.62" fill="#B71818" d="M237.3,593.8c6,0,46.2,2.2,63.2-1.9c1.7-0.4,4.4-2.2,5.3-4.3c0.9-2.2-3.9,12.1-5.3,13.1
			c-4.2,3-26.9,4.1-51.8,3C245.4,600.3,241.1,597.1,237.3,593.8z"/>
		<path fill="#751313" d="M278.1,349c0,0-0.8,9.7,2.1,27.5c3.6,21.8,13.4,63,18.3,68.9c5.6,6.7,3.7,50.1,3.5,58.6
			c-0.2,7-1.5,79.3-3.2,83.5c-1.6,4.2-3.5,13.6-4.8,15c4.5-0.8,5.3-0.9,6.7-2c3.8-3,6.5-7,6.9-17.9c0.5-10.8,0.8-126.7,0.8-126.7
			s0.4-8.9-4.8-15.6c-8.9-11.4-18.4-68.2-19.4-90.5C284.1,347.3,278.1,349,278.1,349"/>
		<path fill="#751313" d="M275.5,308.3"/>
		<path fill="#751313" d="M275.5,308.3c0,0,0.1,1.6,2.8,4.1c2.7,2.6,3.9,4.6,3.9,4.6l-4-0.3c0,0-4.4-3.3-5.8-8.1
			S275.5,308.3,275.5,308.3"/>
		<path fill="#8E3232" fill-opacity="0.63" d="M241.3,307.9c0,0,0,2-2.7,4.8s-3.1,4.5-3.1,4.5l19.3-1.3v-7.6L241.3,307.9"/>
		<path fill="#AD4A4A" d="M245.4,349.1c0,0-1.9,15.2-7.9,25.2c-6,10.1-5.3,11-4.7,20.3c6.5,1.7,4.6,2.7,8.9-0.9
			c1.5-1.2,8.1-16.2,10.7-15.7s7.5-21.7,6-27.5S245.4,349.1,245.4,349.1z"/>
		<path fill="#B75459" d="M297.5,448.3c0,0-5.6-0.7-7.8,0.4s-7,3-10.3,5.7c-3.3,2.7-0.9,2.5-0.9,2.5s4.6-1.7,6-3.5
			c1.4-1.8,7.7-3.3,7.7-3.3s3.6-0.6,8.3,0.7c-0.6-2.4-0.3-1.3-0.6-2.3C299.3,448.3,298.2,448.2,297.5,448.3z"/>
		<path fill="#C49196" d="M213.4,451.5c0,0,8.3-1.4,11.1-1.6c5.5-0.3,11,6.1,13.8,6.4c1.3,0.2,3.5,0.4,5.2-0.9
			c1.7-1.4,12.5-5.1,15.8-5.4c7.7-0.8,18.1,6.5,18.1,6.5s3.2-0.3,1.5-2c-1.6-1.7-14.4-7-18.7-6.5c-5.4,0.6-7.4-0.3-18.3,5.4
			c-2.1,1.1-3,2.5-8.8-3.2c-5.8-5.6-18.9-0.4-18.9-0.4L213.4,451.5z"/>
		<path fill="#AD4A4A" d="M247.1,308.4c0,0-1.9,15.2-7.9,25.2c-6,10.1,12.3,3.2,14.9,3.8s7.5-21.7,6-27.5
			C258.6,304.2,247.1,308.4,247.1,308.4z"/>
		<path fill="#91444C" d="M299.9,448.4c0.4,1.2,0.2,0.9,0.6,2.3c1.2,0.3,2.4,0.8,3.7,1.4l1.7,0.8c0,0,1.1,0.4-0.2-0.8
			s-3.9-3.1-3.9-3.1L299.9,448.4z"/>
		<path fill="#F7F6E8" d="M286.3,566.1c4.8-21,11-53.9,14.3-71.2l0,0c0.2-1.2-0.6-2.4-1.7-2.4c-2.7,0-5.3,0-7.9,0
			c-3.6-0.1-4.9-2.2-3.8-6.1c0.8-2.6,1.7-5.2,2.5-7.8c0.7-2.2,1.5-4.4,2.2-6.7c0.3-1-0.1-2.1-0.9-2.5c-7.2-3.7-15.3-6.5-21.9-7.6
			c-11-2-32-0.9-44.1,7.7c-0.7,0.5-1,1.5-0.7,2.4c1.3,3.8,2.5,6.5,3.9,10.7c2.8,7.9,1.1,10.3-4.8,10.3c-2.3,0-3.4,0-5.2,0
			c-1.1,0-1.9,1.1-1.7,2.4c1.9,11.7,10.4,58.9,12.6,70.8c0.3,1.7,1.2,2,2.7,2c4.1,0,38.2,0.3,51.4,0.3
			C285.8,568.2,285.7,567.1,286.3,566.1z M231.8,568.2c4.1,0,37.5,0.3,50.6,0.3c3.2,0,3.3-1,3.9-2.4"/>
		<path fill="#79A15A" d="M282.5,563.2c4.1-15.7,10.9-52.2,13.7-65.2l0,0c0.2-0.9-0.5-1.8-1.5-1.8c-2.3,0-4.5,0-6.6,0
			c-3.6,0-7-0.3-6.4-4.5c0.2-2.3,0.8-3.8,1.3-5.8c0.5-1.8,2.6-10.5,3.1-12.2c0.2-0.8-0.1-1.6-0.8-1.9c-6.1-2.7-12.9-4.9-18.5-5.7
			c-9.3-1.5-27-0.7-37.2,5.8c-0.6,0.4-0.9,1.2-0.6,1.8c1.1,2.9,3,10.4,3.9,13.6c1.9,5.7-1.1,9.2-5.9,9.3c-2,0-3.7,0-5.2,0
			c-0.9,0-1.6,0.9-1.5,1.8c1.6,8.8,10.4,56,12.2,64.9c0.3,1.3,1.4,1.5,2.7,1.5c3.5,0,33.5,0.3,44.6,0.3
			C282.1,564.8,282.1,563.9,282.5,563.2z M236.9,562.5c-1.4,0-1.9-0.4-2.1-1.7c-2.7-13.6-7.4-39.1-10.1-52.7c-0.6-3.1-1-5.1-1.5-7.4
			c-0.2-0.9,0.5-1.8,1.5-1.8c1.3,0,1.7-0.1,3.1-0.1c5.7-0.1,8.9-3.8,8.5-8.5c-0.1-0.8-3.1-12.6-3.8-15.1c-0.2-0.8,0.1-1.6,0.9-1.9
			c16.1-6.4,32.1-6.4,48.2,0c1.4,0.7,0.8,1.5,0.5,2.7c-0.4,1.4-2,8.7-2.3,9.9c-0.4,1.9-0.7,3.8-0.8,5.7c-0.3,5.4,1.1,7.1,8.9,7.3
			c1,0,1.7,0,3.2,0c1,0,1.7,0.9,1.5,1.8c-2.8,13.2-9.1,46.5-12,60.3c-0.4,1.5-0.4,1.8-3.1,1.8C267.8,562.8,236.9,562.5,236.9,562.5z
			"/>
		<path fill="#E2E1DF" d="M241.3,307.9c0.7,2.7,32.9,1.4,35.8,0c0.9-0.4,4.9-0.9,5.6-1.7c0.7-0.8-0.3-21.2-1.1-23.4
			c-0.5-1.3-0.7-6.4-41.7-2.9c-4.7,1.1-4.4,2.8-4.4,2.8s-0.7,22.2,0,22.8C236.6,306.2,241,306.6,241.3,307.9z"/>
		<path fill="#CCCCCC" d="M273.1,279c0,0,8.6,0.2,8.7,4.8c0.6,4.5,1.4,16.4,0.9,22.3c0,0.5-6.9,2.2-6.9,2.2
			C279.1,300.6,277.1,281.6,273.1,279z"/>
		<path fill="#CCCCCC" d="M275.8,308.3c3.3-7.7,0.9-24.9-2.7-29.2c0,0,8.6,0.2,8.7,4.8"/>
		<path fill="#F7F6E8" d="M235.5,317.1c19-1.8,27.9-1.7,45.7-0.2c2.7,1.1,1.5,32.9,1.5,32.9s-2.5-0.1-7.4,0
			c-3,2.2-11.4,7.9-25.4-0.1c-13.7,0.2-16.8,0.5-16.8,0.5S233,317,235.5,317.1z"/>
		<path fill="#79A15A" d="M255.9,338.5c1.6-3.9,3.1-4.8,6.5-4c-0.2,0.9-0.4,1.5-1.6,1.2c-1.4-0.4-1.9-0.1-2.7,1.4c0.7,0,1.4,0,2,0.1
			c1.1,0.2,1.8,0.8,1.7,2c0,1.6-1.5,2.8-3.4,3c-2.1,0.2-3.2-0.4-3.7-2.4c0.6-0.1,1.1-0.2,1.7-0.2c0.4,1.1,0.7,2.3,2.3,1.6
			c0.9-0.4,1.5-1.1,1.1-1.9c-0.3-0.5-1.2-0.8-1.9-1C257.4,338.1,256.7,338.4,255.9,338.5z"/>
		<path fill="#79A15A" d="M263.3,342c0.2-2.6,2-4.2,3.4-6.2c-1.3,0.1-2.4,0.1-3.5,0.2c0-1.2,0.5-1.8,1.8-1.6c0.9,0.1,1.8,0,2.6,0.1
			c0.4,0,0.8,0.3,1.1,0.4c-0.2,0.3-0.2,0.7-0.5,1c-1.3,1.6-2.4,3.3-2.8,5.4C265.4,342.6,264.3,341.9,263.3,342z"/>
		<path fill="#CEC8AE" d="M278.2,316.6c3.6,0.3,1.9,0.1,4,0.3c1.9,2.3,2.4,23.2,2,32.9c-0.9-0.3-6.2-0.4-6.2-0.4
			S277.2,318.1,278.2,316.6z"/>
		<path fill="#BB9B52" d="M256.4,350c-0.2,0-0.4,0-0.6-0.1c-0.1-0.1-0.2-0.2-0.3-0.2c0,0,0,0,0,0c-0.2-0.1-0.4-0.2-0.6-0.3
			c-0.1,0-0.2,0-0.3-0.1c-0.7-0.4-1.4-0.7-2.1-1.1c-4.9-2.3-7.2-6.5-7.6-11.7c-0.4-4.8,1.5-8.7,4.7-12.2c1.7-1.1,3.3-2.2,5-3.3
			c0.9,0.5,1.8,1,2.7,1.5c-2.9,0.9-5.2,2.6-7.2,4.9c-3.8,4.6-3.9,11.7,0.5,16.3c2.4,2.5,5.3,3.5,8.5,4.4
			C258.2,348.8,257.3,349.4,256.4,350z"/>
		<path fill="#D4B46D" d="M256.4,350c0.9-0.6,1.8-1.2,2.7-1.7c1.9,0.1,3.9,0.4,5.8,0.2c4.4-0.3,7.9-2.1,10.1-6.1
			c0.4,0.8,0.7,1.5,1.1,2.3c-1.2,2.2-3,3.8-5.3,4.8C266.1,351.7,261.2,351.8,256.4,350z"/>
		<path fill="#D4B46D" d="M257.2,322.7c-0.9-0.5-1.8-1-2.7-1.5c0.1-0.2,0.2-0.3,0.4-0.5c2.7-0.4,5.4-1.2,8-1.1
			c4.5,0.1,8.4,1.8,11.1,5.7c0.2,0.4,0.4,0.8,0.6,1.2c-0.3,0.6-0.6,1.2-0.9,1.9c-0.1-0.4-0.2-1-0.5-1.3c-0.6-0.7-1.4-1.2-2.1-1.7
			c-0.7-0.6-1.4-1.3-2.2-1.6C265.2,321.8,261.3,321.6,257.2,322.7z"/>
		<path fill="#BB9B52" d="M247.1,322.9c-4.1,0.2-8.2,0.4-12.3,0.5"/>
		<path fill="#BB9B52" d="M234,323.4c0.2-0.8,0.1-1.6,0.3-2.4c0.1,0,1.4,0,1.5,0c0.3-0.1,0.6-0.2,1-0.2c1.7-0.1,3.4-0.2,5-0.4
			c0.3,0,0.6,0,0.9,0c1.8-0.1,3.5-0.1,5.3-0.2c1.7,0,3.3,0,5,0c-1,0.9-2,1.8-3.1,2.7c-0.9,0-1.8-0.1-2.6-0.1"/>
		<path fill="#BB9B52" d="M236.1,347.4c-0.7,0-2.3,0-3,0c-0.1-1.9-0.1-1,0-2.1c4.1-0.2,6.9-0.4,11-0.6c0.8-0.1,1.6-0.4,2.3-0.6
			c0.3,0.4,0.5,0.9,0.8,1.3c0.3,0.4,0.7,0.8,1.3,1.4c-3.3,0.1-6.4,0.2-9.5,0.4c-0.8,0.1-1.5,0.1-2.3,0.2
			C236.5,347.4,236.3,347.4,236.1,347.4z"/>
		<path fill="#BB9B52" d="M283.3,321c0.1,0.8,0.2,1.7,0.3,2.5c-1.8-0.1-8.1-0.1-9.9-0.2c-0.7-1-1.5-1.9-2.2-2.9
			C273.8,320.6,280.6,320.7,283.3,321z"/>
		<path fill="#BB9B52" d="M284.2,345c0,0.7-0.1,1.2,0,2.1c-1.3,0-6.2,0-7.2,0c-0.3-0.1-0.5-0.1-0.9-0.2c0.4-0.7,0.7-1.3,1-1.9
			C278,345,283.2,344.9,284.2,345z"/>
		<path fill="#79A15A" d="M273.7,323.3c1.8,0.1,8.1,0.1,9.9,0.2c0.3,1.3-1,0.6-3.2,0.7c-0.9,0-4.3,0-5.1-0.2
			C274.7,323.9,274.2,323.5,273.7,323.3z"/>
		<path fill="#D6C3C6" d="M247.9,320.2c-1.8,0.1-3.5,0.1-5.3,0.2"/>
		<path fill="#79A15A" d="M246.5,344.1c-0.8,0.2-1.5,0.5-2.3,0.6c-4,0.3-7,0.4-11.1,0.6c-0.1-0.2,0-0.5,0-1.1
			c1.3-0.1,2.4-0.3,3.6-0.4c2.7-0.1,5.5-0.2,8.2-0.3C245.4,343.6,246,343.9,246.5,344.1z"/>
		<path fill="#79A15A" d="M234,323.4c4.1-0.2,9.2-0.4,13.2-0.5c0.9,0,1.8,0,2.6,0.1c-0.1,0.1-0.1,0.2-0.2,0.3
			c-0.9,0.2-1.8,0.5-2.7,0.5c-2.6,0.2-5.3,0.3-7.9,0.4c-1.5,0.1-3.8,0.3-5.3,0.4C233.9,324.3,233.9,323.7,234,323.4z"/>
		<path fill="#79A15A" d="M284.2,345c-1,0-6.2,0-7.2,0c0.1-1.2,0.9-1.2,1.7-1c0.6,0.1,4.8,0.3,5.4,0.5
			C284.2,344.6,284.2,344.7,284.2,345z"/>
		<path fill="#79A15A" d="M273.8,328.2c3,4.5,3,9.3,1.2,14.2c-2.2,4-5.7,5.8-10.1,6.1c-1.9,0.1-3.9-0.2-5.8-0.2
			c-3.1-0.9-6.1-1.9-8.5-4.4c-4.4-4.6-4.3-11.7-0.5-16.3c1.9-2.4,4.3-4,7.2-4.9c4-1.1,8-0.9,11.8,0.9c0.8,0.4,1.5,1.1,2.2,1.6
			c0.7,0.6,1.4,1.1,2.1,1.7C273.6,327.2,273.6,327.7,273.8,328.2z M262.3,347.6c7.3-0.1,12-2.9,13.1-9.5c1-5.7-2.6-12.3-7.9-14.3
			c-5.9-2.2-12.5-0.5-16.5,4.4c-4.2,5-3.4,11,0.8,15.3C254.9,346.7,258.9,347.3,262.3,347.6z"/>
		<path fill="#BB9B52" d="M273.8,328.2c0.3-0.6,0.6-1.2,0.9-1.9c0.5,0.8,1,1.7,1.5,2.5c0,0.1,0.2,0.5,0.3,0.6
			c1.7,4.7,2.2,9.4,0,14.1c-0.2,0.4-0.2,0.8-0.4,1.3c-0.4-0.8-0.7-1.5-1.1-2.3C276.8,337.5,276.7,332.7,273.8,328.2z"/>
		<path fill="#494949" d="M265.9,328c0.1-0.7,0.2-1.5,0.3-2.3c0.3,0.1,0.6,0.1,0.9,0.2c-0.2,1.5-0.5,2.9-0.7,4.4
			c-0.5,0.1-0.8-0.1-1-0.7c-0.1-0.6-0.4-1.2-0.6-1.8c0,0.7-0.1,1.5-0.1,2.3c-0.3,0-0.6,0-0.9,0c0.1-1.5,0.2-3,0.3-4.4
			c0.8-0.2,0.9-0.1,1.2,0.7c0.2,0.6,0.4,1.2,0.5,1.7C265.8,328,265.9,328,265.9,328z"/>
		<path fill="#494949" d="M259,330.6c-0.3,0.1-0.6,0.2-0.9,0.3c-0.2-0.6-0.3-1.2-0.5-1.9c-0.3,0.1-0.6,0.2-0.9,0.4
			c0.2,0.6,0.4,1.2,0.6,1.8c-0.3,0.1-0.6,0.2-0.9,0.4c-0.5-1.4-0.9-2.8-1.4-4.2c0.3-0.1,0.6-0.2,0.9-0.4c0.2,0.5,0.3,1,0.5,1.6
			c0.3-0.1,0.6-0.2,0.9-0.3c-0.2-0.5-0.3-1-0.5-1.6c0.3-0.1,0.6-0.2,0.9-0.3C258.2,327.7,258.6,329.1,259,330.6z"/>
		<path fill="#494949" d="M260.3,329.4c0.5-0.1,0.9-0.2,1.4-0.3c0,0.3,0,0.5,0.1,0.9c-0.8,0.1-1.5,0.3-2.2,0.4
			c-0.2-1.5-0.5-2.9-0.7-4.5c0.8-0.1,1.6-0.3,2.4-0.4c0,0.3,0.1,0.6,0.1,0.9c-0.5,0.1-1,0.1-1.5,0.2c0.1,0.3,0.1,0.6,0.2,0.9
			c0.3,0,0.6-0.1,1-0.1c0,0.3,0.1,0.6,0.2,0.9c-0.3,0-0.6,0.1-1,0.1C260.2,328.8,260.2,329,260.3,329.4z"/>
		<path fill="#494949" d="M268,329.9c0.5,0.1,1,0.3,1.5,0.4c-0.1,0.3-0.2,0.6-0.3,0.9c-0.7-0.2-1.3-0.4-2-0.6
			c-0.4-0.1-0.5-0.8-0.1-1.2c0.7-0.7,1.3-1.3,2.1-2c-0.6-0.2-1.1-0.3-1.6-0.4c0.1-0.2,0.1-0.5,0.2-0.9c0.7,0.2,1.5,0.4,2.2,0.7
			c0.4,0.1,0.4,0.8,0.1,1.1C269.4,328.6,268.8,329.2,268,329.9z"/>
		<path fill="#494949" d="M262.2,330c0-1.5-0.1-3-0.1-4.5c0.3,0,0.6,0,1,0c0,1.5,0.1,3,0.1,4.5C262.9,330,262.6,330,262.2,330z"/>
		<rect x="261.5" y="283" fill="#D3D2D1" width="0.7" height="20"/>
		<rect x="259.1" y="283" fill="#D3D2D1" width="0.7" height="20"/>
		<rect x="256.8" y="283" fill="#D3D2D1" width="0.7" height="20"/>
		<rect x="240.9" y="283" fill="#D3D2D1" width="0.7" height="19.9"/>
		<rect x="254.5" y="283" fill="#D3D2D1" width="0.7" height="20"/>
		<rect x="252.1" y="283" fill="#D3D2D1" width="0.7" height="20"/>
		<rect x="250" y="283" fill="#D3D2D1" width="0.7" height="20"/>
		<rect x="247.7" y="283" fill="#D3D2D1" width="0.7" height="20"/>
		<rect x="245.3" y="283" fill="#D3D2D1" width="0.7" height="20"/>
		<rect x="243" y="283" fill="#D3D2D1" width="0.7" height="20"/>
		<rect x="239.5" y="283" fill="#D3D2D1" width="0.7" height="19.6"/>
		<rect x="238.3" y="283.2" fill="#D3D2D1" width="0.7" height="19.3"/>
		<polygon fill="#D3D2D1" points="237.5,302.2 237.1,302.3 237.1,283.4 237.5,283.4 		"/>
		<rect x="236.3" y="283.8" fill="#D3D2D1" width="0.4" height="18.1"/>
		
			<rect x="235.5" y="284.2" transform="matrix(-1 -2.863019e-06 2.863019e-06 -1 471.2849 585.7097)" fill="#D3D2D1" width="0.3" height="17.3"/>
		<path fill="#494949" d="M266.2,478.2c0.3-2,0.6-4,1-6.3c0.8,0.2,1.5,0.3,2.4,0.5c-0.7,4-1.4,8-2.1,12c-1.4,0.2-2.3-0.3-2.7-2
			c-0.4-1.7-0.9-3.3-1.7-4.9c-0.1,2-0.3,4-0.5,6.2c-0.8,0-1.6-0.1-2.4-0.1c0.4-4.1,0.7-8.2,1-12.2c2.3-0.5,2.6-0.3,3.2,2
			c0.5,1.6,0.9,3.2,1.4,4.8C266,478.2,266.1,478.2,266.2,478.2z"/>
		<path fill="#494949" d="M247.2,484.8c-0.8,0.2-1.7,0.5-2.6,0.7c-0.4-1.7-0.9-3.3-1.3-5.1c-0.9,0.3-1.6,0.6-2.4,0.9
			c0.6,1.7,1.1,3.2,1.6,4.8c-0.8,0.3-1.7,0.6-2.6,1c-1.2-3.8-2.5-7.6-3.8-11.6c0.8-0.3,1.6-0.7,2.5-1c0.5,1.5,0.9,2.9,1.4,4.4
			c0.8-0.3,1.6-0.6,2.5-0.9c-0.4-1.5-0.8-2.9-1.2-4.4c0.9-0.3,1.7-0.5,2.6-0.8C245.1,476.9,246.2,480.8,247.2,484.8z"/>
		<path fill="#494949" d="M250.7,481.7c1.4-0.2,2.5-0.4,3.8-0.7c0.1,0.7,0.1,1.5,0.2,2.4c-2.1,0.3-4.1,0.6-6.1,0.9
			c-0.6-4.1-1.2-8-1.9-12.3c2.2-0.4,4.3-0.7,6.7-1.1c0.1,1,0.1,1.7,0.2,2.4c-1.4,0.2-2.6,0.3-4.1,0.5c0.1,0.9,0.3,1.6,0.4,2.4
			c0.9-0.1,1.7-0.2,2.7-0.4c0.1,0.8,0.3,1.6,0.4,2.6c-0.9,0.1-1.8,0.2-2.7,0.4C250.5,479.9,250.6,480.7,250.7,481.7z"/>
		<path fill="#494949" d="M272,483.4c1.5,0.4,2.7,0.8,4.1,1.2c-0.2,0.7-0.5,1.6-0.8,2.4c-1.9-0.6-3.7-1.2-5.4-1.8
			c-1.1-0.4-1.2-2.2-0.2-3.2c1.8-1.8,3.7-3.5,5.8-5.4c-1.6-0.5-3-0.9-4.5-1.3c0.2-0.7,0.4-1.4,0.6-2.4c2,0.7,4,1.3,5.9,2
			c1,0.4,1,2.2,0.2,3C275.9,479.7,274.1,481.4,272,483.4z"/>
		<path fill="#494949" d="M256,483.4c0-4.1-0.1-8.1-0.1-12.3c0.9,0,1.8,0,2.7,0c0,4.1,0.1,8.1,0.1,12.3
			C257.8,483.3,257,483.3,256,483.4z"/>
		<path fill="#494949" d="M251.3,505.2c0.1,2.1-0.2,4.3,0.2,6.4c-0.8,0-1.6,0-2.4,0c0.4-1.5,0.2-3,0.2-4.5c0-1.4,0-2.9,0-4.3
			c0-0.9-0.1-1.7-0.1-2.6c0.5,0,1.2,0,1.8,0c0.1,0,0.3,0.2,0.3,0.3c0.8,1.4,1.5,2.8,2.2,4.2c0.1,0.1,0.1,0.3,0.2,0.4
			c0.7-1.4,1.4-2.7,2-4.1c0.3-0.7,0.7-1.1,1.5-0.9c0.3,0.1,0.7,0,0.9,0c0,1-0.1,2-0.1,3.1c0,2,0,4,0,6c0,0.8,0.1,1.6,0.1,2.4
			c-0.8,0-1.6,0-2.4,0c0.3-2.2,0.1-4.3,0.2-6.5c0,0-0.1,0-0.1,0c-0.7,1.4-1.5,2.8-2.2,4.2c-0.8-1.4-1.5-2.8-2.2-4.1
			C251.3,505.2,251.3,505.2,251.3,505.2z"/>
		<path fill="#494949" d="M284.5,505.9c0,1.5-0.3,2.8-1.2,4.1c-1.7,2.5-5,2.5-6.8,0.1c-1.6-2.2-1.7-5.8-0.2-8c0.9-1.3,2.2-2.1,3.9-2
			c1.7,0.1,2.8,1.1,3.6,2.6C284.3,503.7,284.5,504.8,284.5,505.9z M282.2,506.1c0-1-0.2-2-0.8-2.8c-0.9-1.4-2.6-1.4-3.3,0.1
			c-0.9,1.8-0.8,3.6,0.2,5.3c0.9,1.4,2.5,1.4,3.3-0.1C282,507.8,282.2,507,282.2,506.1z"/>
		<path fill="#494949" d="M238.7,505.8c0-1.6,0.5-3.2,1.8-4.5c1.9-1.9,4.8-1.6,6.3,0.6c1.1,1.6,1.3,3.4,1,5.3
			c-0.1,1.1-0.5,2.1-1.2,2.9c-1.8,2.4-5,2.3-6.7-0.1C239.1,508.8,238.7,507.4,238.7,505.8z M245.7,506.2c0-1.1-0.2-2-0.7-2.9
			c-0.9-1.5-2.6-1.5-3.3,0.1c-0.9,1.8-0.8,3.7,0.2,5.4c0.8,1.4,2.4,1.3,3.2-0.1C245.5,507.9,245.7,507,245.7,506.2z"/>
		<path fill="#494949" d="M262.2,500.3c1,0,2,0,3,0c0.1,2.3,1,4.5,1.5,6.7c0.3,1.4,0.7,2.7,1.1,4.1c0.1,0.2,0.2,0.4,0.3,0.6
			c-0.9,0-1.7,0-2.5,0c-0.2-0.8-0.3-1.7-0.5-2.5c0-0.1-0.2-0.2-0.3-0.2c-0.7,0-1.5,0-2.2,0c-0.1,0-0.3,0.1-0.3,0.2
			c-0.2,0.8-0.3,1.6-0.5,2.5c-0.7,0-1.5,0-2.3,0c0,0,0-0.1,0-0.1c1-2.7,1.4-5.5,2.2-8.2c0.1-0.4,0.2-0.7,0.3-1.1
			C262,501.6,262.1,501,262.2,500.3z M262.7,507c0.6,0,1.2,0,1.9,0c-0.3-1.3-0.6-2.6-0.9-3.8c0,0-0.1,0-0.1,0
			C263.3,504.5,263,505.7,262.7,507z"/>
		<path fill="#494949" d="M267.4,522c-0.6,0-1.3,0-2,0c0-1.2,0-2.5,0-3.7c-0.8,0-1.6,0-2.4,0c0,1.2,0,2.5,0,3.7c-0.6,0-1.3,0-1.9,0
			c0-3,0.1-6,0-9c0.6,0,1.3,0,2,0c0,1.1,0,2.3,0,3.5c0.8,0,1.6,0,2.4,0c0-1.2,0-2.3,0-3.5c0.6,0,1.3,0,1.9,0
			C267.3,516,267.3,518.9,267.4,522z"/>
		<path fill="#494949" d="M233.8,502.3c-0.9,0-1.7-0.1-2.5,0.4c0.1-0.8,0.2-1.6,0.3-2.4c2.2,0,4.4,0,6.7,0c0.1,0.8,0.2,1.6,0.3,2.4
			c-0.8-0.5-1.7-0.3-2.6-0.4c0.1,3.1-0.1,6.3,0.2,9.4c-0.8,0-1.7,0-2.5,0c0.4-3.1,0.1-6.1,0.2-9.2
			C233.8,502.4,233.8,502.4,233.8,502.3z"/>
		<path fill="#494949" d="M272.6,511.7c-0.8,0-1.7,0-2.5,0c0.4-3.1,0.1-6.1,0.2-9.2c0,0,0-0.1,0-0.2c-0.8,0-1.7-0.1-2.6,0.4
			c0.1-0.8,0.2-1.6,0.3-2.4c2.2,0,4.4,0,6.7,0c0.1,0.8,0.2,1.5,0.3,2.4c-0.8-0.5-1.7-0.4-2.6-0.4
			C272.6,505.4,272.3,508.6,272.6,511.7z"/>
		<path fill="#494949" d="M237,522c-0.6,0-1.3,0-2,0c0-0.7,0.1-1.4,0.1-2c0-1.6,0-3.3,0-4.9c0-0.7-0.1-1.4-0.1-2c0.6,0,1.4,0,2,0
			c0,1.1,0,2.3,0,3.5c0.6-1.2,1.2-2.3,1.9-3.5c0.7,0,1.4,0,2.3,0c-1.1,1.1-1.8,2.5-2.6,3.7c-0.2,0.2-0.2,0.4,0,0.7
			c0.7,1.1,1.3,2.3,2,3.4c0.2,0.4,0.5,0.8,0.8,1.2c-0.7,0-1.4,0-2.1,0c-0.1,0-0.2-0.1-0.3-0.3c-0.6-1-1.2-2.1-1.8-3.1
			c-0.1-0.1-0.2-0.3-0.2-0.4C237,519.4,237,520.7,237,522z"/>
		<path fill="#494949" d="M269,513c0.6,0,1.3,0,1.9,0c0,1.9,0,3.8,0,5.7c0,0.2,0,0.5,0,0.7c0.1,0.6,0.4,1,1.1,1c0.7,0,1-0.3,1.1-1
			c0-0.2,0-0.4,0-0.5c0-1.3,0-2.6,0-4c0-0.6-0.1-1.3-0.1-1.9c0.6,0,1.3,0,1.9,0c0,2,0,4.1,0,6.1c0,0.4-0.1,0.9-0.2,1.3
			c-0.2,0.7-0.7,1.3-1.4,1.5c-0.9,0.3-1.8,0.3-2.7,0c-1.1-0.4-1.5-1.3-1.5-2.4c0-1.2,0-2.4,0-3.6C269.1,514.9,269.1,513.9,269,513z"
			/>
		<path fill="#494949" d="M276.6,512.9c1,0,2.1,0,3.2,0c1,0,1.9,0.7,2.2,1.7c0.2,0.7,0.3,1.4,0.1,2.1c-0.3,1.3-1.4,2-2.8,2.1
			c-0.2,0-0.5,0-0.7,0c0,1.1,0,2.1,0,3.1c-0.6,0-1.3,0-1.9,0C276.7,519,276.8,516,276.6,512.9z M278.5,517.4c0.6,0,1.3,0.1,1.6-0.6
			c0.4-0.7,0.3-1.4-0.1-2c-0.4-0.6-0.9-0.5-1.5-0.4C278.5,515.4,278.5,516.4,278.5,517.4z"/>
		<path fill="#494949" d="M246.4,516.4c0,0.6,0,1.2,0,1.8c-0.7-0.1-1.4-0.1-2.2-0.2c0,0.8,0,1.6,0,2.3c0.9,0,1.8,0,2.7,0
			c-0.1,0.5-0.1,1.1-0.2,1.7c-1.5,0-3,0-4.3,0c0.1-3,0.1-6,0-9c1.4,0,2.8,0,4.3,0c0.1,0.6,0.2,1.2,0.3,1.9c-0.9-0.5-1.8-0.3-2.7-0.4
			c0,0.7,0,1.3,0,2.1C245,516.5,245.7,516.5,246.4,516.4z"/>
		<path fill="#494949" d="M259.8,519.2c0,0.6,0,1.3,0,1.9c0,0.2-0.2,0.3-0.3,0.4c-1.7,1-4.2,0.9-5.3-1.7c-0.9-2.1-0.4-4.7,1.1-6.1
			c1.3-1.2,3-1.1,4.3-0.5c0.1,0,0.2,0.2,0.2,0.3c0,0.6,0,1.3,0,1.9c-0.1-0.1-0.2-0.2-0.3-0.2c-0.6-0.5-1.3-0.7-2.1-0.7
			c-0.6,0-1,0.4-1.2,0.8c-0.8,1.3-0.8,2.7-0.1,4c0.5,1,1.4,1.2,2.5,0.7C259,519.9,259.4,519.6,259.8,519.2z"/>
		<path fill="#494949" d="M253.5,513c0.1,0.6,0.2,1.2,0.2,1.7c-0.7-0.1-1.3-0.1-2.1-0.2c0.1,2.5-0.1,5,0.1,7.5c-0.7,0-1.4,0-2,0
			c0-0.7,0.1-1.4,0.1-2.1c0-1.6,0-3.2,0-4.8c0-0.2,0-0.3,0-0.6c-0.7,0.1-1.4,0.1-2.1,0.2c0.1-0.5,0.2-1.1,0.3-1.7
			C249.8,513,251.6,513,253.5,513z"/>
		<path fill="#CD263B" d="M265.3,539.9c0.4,1.1,0.5,2.3,0.4,3.4c-0.2,1.8-0.8,3.5-1.8,5.1c-1.1,1.7-2.7,2.6-4.7,2.9
			c-2.7,0.4-5-0.6-6.8-2.5c-2.1-2.3-2.7-5-1.9-7.9c0.5-1.7,1.5-3,3.2-3.5c0.1,0,0.3-0.1,0.4-0.1
			C254.6,537.7,264.8,538.5,265.3,539.9z"/>
		<g id="XMLID_1_">
			<g>
				<path fill="#D6D6D6" d="M259.3,540.8c0.2,0.2,0,0.5-0.4,0.6c-0.7,0.1-1.4,0.2-2.2,0.2c-0.5-0.1-1.1-0.2-1.7-0.3
					c-0.1,0-0.3-0.2-0.3-0.3c0-0.1,0.2-0.4,0.3-0.4c0.5,0,1-0.1,1.4,0c0.8,0.3,1.6,0.2,2.4,0.1C258.9,540.6,259.1,540.7,259.3,540.8
					z"/>
				<path fill="#D6D6D6" d="M254.2,545.1c0.2,0.4,0,0.8-0.4,0.9c-0.2,0.1-0.5,0.1-0.7,0.1c-0.6,0-1-0.3-1.3-0.9
					c-0.3-0.8-0.2-1.5,0.1-2.2c0.1-0.2,0.1-0.3,0.2-0.5c0.4-1,1-1.1,1.8-0.5c0.3,0.2,0.4,0.5,0.3,1
					C254.1,543.7,253.9,544.4,254.2,545.1z"/>
			</g>
			<g>
			</g>
		</g>
		<path fill="#CD263B" d="M253.7,537.4c0,0,2.7-1,4-0.2c1.3,0.9,2.4-0.2,3.2-0.2c2.8,0,4.3,2.9,4.3,2.9L253.7,537.4z"/>
		<path fill="#79A15A" d="M281.4,556.5c-1.7-6.4-8.6-19-13-21.7c-0.8-0.5-1.5-0.8-2.5-0.6c-0.2,0-0.6-0.1-0.7-0.3
			c-0.3-0.5-0.7-0.6-1.1-0.6c-0.3,0-0.7,0-1,0.1c-1.1,0.1-2.3,0.3-3.3,0.8c-0.4,0.2-0.8,0.4-0.8,1c0,0.3-0.1,0.6-0.2,0.9
			c0,0.1,0,0.1,0,0.2c-0.1,0.3-0.1,0.6-0.2,1c0.3-0.1,0.5-0.3,0.8-0.4c0.5-0.2,1-0.4,1.5-0.6c0.7-0.1,1.4-0.3,2-0.1
			c0.2,0-0.5,0.2-0.7,0.3c-0.2,0.1-0.4,0.2-0.5,0.3c-0.4,0.2-0.8,0.3-1.2,0.5c0.7,0,2.1,0,2.1,0c0.1,0.2-1.2,0.3-1.8,0.4
			c-0.1,0-0.7,0.2-1,0.3c-0.4,0.1-0.8,0.3-1.1,0.4c-0.1,0.1-0.2,0.2-0.3,0.3c0,0,0.1,0,0.1,0.1c0.4-0.1,0.9-0.3,1.3-0.3
			c0.3,0,0.6,0.1,0.8,0.3c0.3,0.3,0.9,0.5,0.9,0.9c0,0,0,0,0,0c-0.2,0.2-0.4-0.1-0.6-0.2c-0.4-0.4-0.8-0.5-1.3-0.5
			c-0.2,0-0.4-0.1-0.6-0.1c-1.1,0-2.1,0-3.1-0.5c-0.1,0-0.4,0-0.4,0c-0.8-0.2-1.7-0.3-2.2-0.6c-0.6-0.4,1.4,0,2.2,0.1
			c-0.5-0.5-1-0.9-1.4-1.4c-0.1-0.2-0.6-0.5-0.3-0.5c0.4-0.1,0.6,0.3,0.9,0.4c0.4,0.4,0.8,0.7,1.5,0.8c-0.1-0.3-0.2-0.4-0.2-0.6
			c-0.4-1.1,1.2,0.6,1.3,0.9c0,0,0.1,0,0.1,0c0-0.4,0.1-0.8,0.1-1.3c0-0.1,0.2,0,0.3,0.2c0.1-0.4,0.1-0.7,0.1-1c0,0,1-1.4,1.1-1.4
			c0.5-0.2,1-0.4,1.6-0.6c0.6-0.2,1.1-0.5,1.7-0.5c1.1-0.1,2.2-0.3,3.3,0c0.1,0,0.1,0.1,0.2,0c0.1-0.1-1.5-0.4-2-0.4
			c-0.2-0.1-3.2-0.5-3.3-0.4c-0.8,0-1.5-0.1-2.3-0.1c-2.1-0.1-4.3,0-6.4,0.3c-1.8,0.3-3.4,1-5.1,1.7c-0.3,0.1-1.6,1.2-1.6,1.3
			c0.1,0.5,1,1.4,1,1.9c0.1,0.9,0.2,1.9-0.1,2.8c-0.1,0.3-0.3,0.4-0.6,0.4c-0.9-0.1-1.8-0.2-2.4-0.9c-0.1-0.1-0.2-0.2-0.4-0.3
			c-0.3-0.2-0.9-1.1-1-1.2c-0.4-0.1-0.7,0.5-0.7,0.6c0,0-1,1-1.3,1.4c-1.1,2.2,2.3,2.5,2.6,2.7c0.6,0.5-0.5,5.3-2.9,7.6
			c-3.2-1.2-3.4-7.2-2.5-8c-0.3-0.1,4.1-4.5,4.4-4.9c0,0,0.8-1,0.4-1.4c-0.1,0.1-0.3,0.3-0.4,0.4c-0.1,0.1-0.3,0.1-0.5,0.2
			c-0.1,0.1-0.4,0-0.4,0c-0.5,0.2-1.8,0.1-2-0.5c-0.1-1.1,1.3-1.4,1.8-1.8c0.1-0.1,1.7,1,1.7,1.3c0,0.3,0.2,0.5,0.4,0.4
			c0.3-0.1,1.9-1.3,1.9-1.3c0.3-0.3,2-1,2.4-1.2c-1.8-0.6-3.7-1.2-5.5-1.8c-0.3,0.2-2.2,0.7-2.2,0.7c-0.2,0-0.9-0.2-1.1-0.2
			c-0.2,0-0.4-0.1-0.6-0.1c-0.1,0-1-1.1-1.4-1.2c-0.5-0.1-0.1-0.9-0.3-1c-0.2-0.2-0.4-0.4-0.6-0.6c-0.5-0.7-0.9-1.4-0.8-2.4
			c0.8,0.2,1.6,0.4,2.4,0.6c0.7,0.2,2.3,0.1,2.7,0.4c0.3,0.2,0.5,0.5,0.8,0.7c0.3,0.3,0.6,0.7,0.8,1c0.3,0.4,0.5,0.8,0.4,1.2
			c0,0.2-0.2,0.3-0.3,0.5c0.4,0.2,0.8,0.4,1.2,0.6c1.6,0.5,3.2,1,4.9,1.4c0.2,0.1,0.5,0,0.7-0.1c2.2-1,4.6-1.7,7-1.8
			c1.8-0.1,3.5,0,5.3,0c0.6,0,1.2,0,1.8,0.1c1.4,0.2,2.7,0.4,4,0.7c0.4,0.1,0.7,0.3,1.1,0.5c0.2,0.1,0.3,0.3,0.5,0.4
			c4.7,1,15,16.1,15.2,21C282.4,554.9,281.5,557,281.4,556.5z M243.9,537.3"/>
		<text transform="matrix(1 0 0 1 251.2368 493.5874)" fill="#CD263B" font-family="'Baskerville-SemiBold'" font-size="5.9629px">1869</text>
		<g>
			<g>
				<g>
					<path fill="#9D1D20" d="M195,342c-4.4-4.2-11.5-5.6-17.1-2.9c-1.2,0.6-6.2,1.1-7.5,0.7c-6-1.6-12.7,1.2-16.2,6.1
						c-4.2,5.9-5,13.3-3.3,20c2.1,8.6,7.6,14.1,16.8,15.9c5.2,1,7,0,10.5-0.3c3.5-0.3,5.5,0.3,10.3-1.7c8.7-3.6,13-10,13.5-18.8
						C202.4,354,200.3,346.9,195,342z"/>
					<path fill="#BF9EA4" d="M167.6,351.9c-0.7,2.7-2.9,7.8-4.6,5.6c-2.3-3-4.6-2-5.6-4.6c-1.2-3.1,1.8-5.3,4.6-5.6
						S168.7,347.4,167.6,351.9z"/>
					<g>
						<g>
							<path fill="#751414" d="M195,342c-4.4-4.2-11.5-5.6-17.1-2.9c-1.2,0.6-6.2,1.1-7.5,0.7c-2-0.5-4-0.6-6-0.2
								c3.4,0.4,3.9,4.5,14.1,2.8c9.5-1.6,17.9,11.9,13.6,24.1c-2.7,7.6-13.7,13.6-29,14.1c1.4,0.5,2.9,1,4.6,1.3
								c5.2,1,7,0,10.5-0.3s5.5,0.3,10.3-1.7c8.7-3.6,13-10,13.5-18.8C202.4,354,200.3,346.9,195,342z"/>
						</g>
					</g>
				</g>
				<g>
					<path fill="#3A683A" d="M173.8,337.3c-1.2-2.3-3.7-3.5-6.3-3.5c1.3,1.1,2.3,2,3,4c-1.4-0.6-5.1-0.8-7,0.8
						c2.7,0,4.2,0.5,5.9,2.1c0,0-1,1.1-1.1,2.2c-0.1,0.8,0.3,2.6,0.3,2.6c1.4-2.5,5.4-1.7,5.4-4.1c0,0,4.1,0.4,5.9,3
						c-0.1-3.7-1.9-4.2-1.9-4.2c1.6-1.4,4.8-0.8,6.7-0.4c-1.4-1.6-4.1-2.9-6.4-2.3c0.8-1.8,2.4-3,4.3-3.3
						C179.6,333.4,175.4,333.8,173.8,337.3L173.8,337.3z"/>
				</g>
				<g>
					<path fill="#397F3D" d="M174.8,327.5c-3,2.8-2,9-1.4,11.9c0.2,0.1,0.5,0.1,0.8-0.1c-0.2-1.8-0.3-4.6,0.2-6.5
						c0.7-2.8,2.1-3.7,2.1-3.7C176.4,327.2,174.8,327.5,174.8,327.5z"/>
				</g>
			</g>
		</g>
		<g>
			<g>
				<g>
					<path fill="#9D1D20" d="M250.8,196.8c-5.7-2.1-12.8-0.5-16.8,4.2c-0.9,1-5.3,3.4-6.5,3.6c-6.1,1-11.1,6.1-12.4,12.1
						c-1.5,7.1,0.8,14.2,5,19.7c5.4,7,12.6,9.9,21.8,7.8c5.1-1.1,6.4-2.8,9.5-4.5c3-1.7,5.1-1.9,8.8-5.7c6.6-6.7,7.9-14.4,4.8-22.6
						C262.5,204.9,257.6,199.3,250.8,196.8z"/>
					<path fill="#BF9EA4" d="M229.7,216.9c0.5,2.8,0.5,8.3-2,7c-3.3-1.8-5,0-7-2c-2.3-2.3-0.5-5.6,2-7
						C225.2,213.5,228.9,212.3,229.7,216.9z"/>
					<g>
						<g>
							<path fill="#751414" d="M250.8,196.8c-5.7-2.1-12.8-0.5-16.8,4.2c-0.9,1-5.3,3.4-6.5,3.6c-2,0.3-3.9,1.1-5.6,2.2
								c3.2-1,5.4,2.6,14-3.1c8-5.3,21.2,3.7,22.1,16.6c0.6,8-7.1,18-20.9,24.5c1.5-0.1,3.1-0.3,4.7-0.6c5.1-1.1,6.4-2.8,9.5-4.5
								c3-1.7,5.1-1.9,8.8-5.7c6.6-6.7,7.9-14.4,4.8-22.6C262.5,204.9,257.6,199.3,250.8,196.8z"/>
						</g>
					</g>
				</g>
				<g>
					<path fill="#3A683A" d="M229.5,201c-2-1.6-4.8-1.8-7.1-0.7c1.7,0.4,2.9,0.9,4.3,2.5c-1.5,0-5,1.3-6.1,3.5
						c2.5-1,4.1-1.2,6.3-0.4c0,0-0.5,1.4-0.1,2.5c0.2,0.8,1.3,2.2,1.3,2.2c0.3-2.8,4.3-3.7,3.3-5.9c0,0,3.9-1.3,6.6,0.4
						c-1.5-3.4-3.4-3.1-3.4-3.1c0.9-1.9,4.1-2.7,6-3.1c-1.9-1-4.9-1-6.8,0.4c0-2,1-3.7,2.6-4.8C233.3,195.1,229.6,197.2,229.5,201
						L229.5,201z"/>
				</g>
				<g>
					<path fill="#397F3D" d="M226.5,191.6c-1.6,3.8,1.7,9,3.5,11.4c0.3,0,0.5-0.1,0.7-0.5c-0.9-1.6-2.1-4.1-2.4-6
						c-0.5-2.8,0.5-4.3,0.5-4.3C227.9,190.7,226.5,191.6,226.5,191.6z"/>
				</g>
			</g>
		</g>
		<g>
			<g>
				<g>
					<path fill="#9D1D20" d="M378.9,154.8c-2.5-5.5-8.6-9.5-14.7-9.1c-1.3,0.1-6.1-1.3-7.2-2.1c-4.9-3.7-12.2-3.7-17.3-0.4
						c-6.1,3.9-9.6,10.5-10.6,17.3c-1.2,8.8,1.8,15.9,9.7,21c4.4,2.9,6.5,2.6,9.8,3.6c3.3,1,5,2.3,10.2,2.3
						c9.4,0,15.8-4.4,19.5-12.4C381.3,168.8,381.9,161.4,378.9,154.8z"/>
					<path fill="#BF9EA4" d="M349.8,153.8c-1.6,2.3-5.6,6.2-6.3,3.5c-1-3.6-3.5-3.5-3.5-6.3c0-3.3,3.6-4.3,6.3-3.5
						C349,148.2,352.5,150,349.8,153.8z"/>
					<g>
						<g>
							<path fill="#751414" d="M378.9,154.8c-2.5-5.5-8.6-9.5-14.7-9.1c-1.3,0.1-6.1-1.3-7.2-2.1c-1.6-1.2-3.5-2-5.5-2.4
								c3,1.6,1.9,5.7,12,7.8c9.4,2,12.2,17.7,3.6,27.4c-5.3,6-17.8,7.5-32.1,2.2c1.1,1,2.3,2,3.7,2.9c4.4,2.9,6.5,2.6,9.8,3.6
								c3.3,1,5,2.3,10.2,2.3c9.4,0,15.8-4.4,19.5-12.4C381.3,168.8,381.9,161.4,378.9,154.8z"/>
						</g>
					</g>
				</g>
				<g>
					<path fill="#3A683A" d="M361,142.5c-0.2-2.6-2.1-4.6-4.5-5.6c0.9,1.5,1.4,2.7,1.2,4.8c-1.1-1.1-4.4-2.7-6.7-1.9
						c2.5,1,3.7,2,4.7,4.2c0,0-1.3,0.7-1.9,1.7c-0.4,0.7-0.7,2.5-0.7,2.5c2.2-1.8,5.7,0.5,6.5-1.8c0,0,3.7,1.9,4.4,5
						c1.3-3.5-0.2-4.6-0.2-4.6c2-0.7,4.8,1,6.4,2.1c-0.6-2-2.7-4.2-5.1-4.5c1.4-1.4,3.3-1.8,5.3-1.5
						C367.8,141.1,363.8,139.9,361,142.5L361,142.5z"/>
				</g>
				<g>
					<path fill="#397F3D" d="M365.6,133.8c-3.8,1.5-5.2,7.6-5.7,10.5c0.2,0.2,0.5,0.3,0.8,0.2c0.5-1.7,1.4-4.4,2.6-6
						c1.7-2.3,3.4-2.7,3.4-2.7C367.2,134.1,365.6,133.8,365.6,133.8z"/>
				</g>
			</g>
		</g>
		<g>
			<g>
				<g>
					<path fill="#9D1D20" d="M395.2,421.7c-5.5-2.7-12.7-1.8-17.1,2.4c-1,0.9-5.6,2.9-6.9,2.9c-6.1,0.3-11.7,4.9-13.6,10.7
						c-2.2,6.9-0.7,14.2,2.9,20.1c4.6,7.5,11.4,11.1,20.8,10.1c5.2-0.6,6.7-2.1,9.9-3.5c3.2-1.4,5.3-1.4,9.4-4.7
						c7.3-6,9.4-13.4,7.2-22C405.9,431,401.7,424.9,395.2,421.7z"/>
					<path fill="#BF9EA4" d="M372,439.4c0.2,2.8-0.4,8.3-2.7,6.7c-3.1-2.2-4.9-0.5-6.7-2.7c-2.1-2.6,0.1-5.6,2.7-6.7
						C367.9,435.6,371.7,434.8,372,439.4z"/>
					<g>
						<g>
							<path fill="#751414" d="M395.2,421.7c-5.5-2.7-12.7-1.8-17.1,2.4c-1,0.9-5.6,2.9-6.9,2.9c-2,0.1-4,0.7-5.8,1.6
								c3.3-0.6,5.1,3.2,14.3-1.6c8.6-4.4,20.7,5.9,20.2,18.9c-0.3,8-9,17.1-23.4,22.1c1.5,0.1,3.1,0.1,4.8-0.1
								c5.2-0.6,6.7-2.1,9.9-3.5c3.2-1.4,5.3-1.4,9.4-4.7c7.3-6,9.4-13.4,7.2-22C405.9,431,401.7,424.9,395.2,421.7z"/>
						</g>
					</g>
				</g>
				<g>
					<path fill="#3A683A" d="M373.5,423.6c-1.8-1.8-4.6-2.3-7-1.5c1.6,0.6,2.8,1.2,4,2.9c-1.5-0.2-5.1,0.8-6.4,2.8
						c2.6-0.8,4.2-0.8,6.3,0.2c0,0-0.6,1.3-0.4,2.5c0.2,0.8,1.1,2.4,1.1,2.4c0.6-2.8,4.7-3.2,3.9-5.5c0,0,4-0.9,6.5,1.1
						c-1.2-3.5-3.1-3.4-3.1-3.4c1.1-1.8,4.4-2.2,6.3-2.4c-1.8-1.1-4.8-1.5-6.8-0.3c0.2-2,1.4-3.5,3.1-4.5
						C377.9,418.2,374.1,419.9,373.5,423.6L373.5,423.6z"/>
				</g>
				<g>
					<path fill="#397F3D" d="M371.6,414c-2,3.6,0.8,9.2,2.3,11.7c0.3,0,0.5-0.1,0.8-0.4c-0.7-1.7-1.7-4.3-1.8-6.3
						c-0.2-2.9,0.9-4.2,0.9-4.2C373,413.2,371.6,414,371.6,414z"/>
				</g>
			</g>
		</g>
		<g>
			<g>
				<g>
					<path fill="#9D1D20" d="M442.6,591.1c-4.1-4.5-11.1-6.3-16.8-4c-1.2,0.5-6.3,0.6-7.5,0.2c-5.8-1.9-12.7,0.3-16.6,5.1
						c-4.6,5.6-5.8,12.9-4.6,19.8c1.6,8.7,6.6,14.5,15.8,16.9c5.1,1.3,7,0.5,10.5,0.4c3.5-0.1,5.4,0.6,10.4-1
						c9-3,13.6-9.1,14.7-17.9C449.2,603.6,447.5,596.4,442.6,591.1z"/>
					<path fill="#BF9EA4" d="M414.6,599.2c-0.9,2.7-3.4,7.6-4.9,5.3c-2.1-3.1-4.4-2.3-5.3-4.9c-1-3.1,2.1-5.2,4.9-5.3
						S416,594.8,414.6,599.2z"/>
					<g>
						<g>
							<path fill="#751414" d="M442.6,591.1c-4.1-4.5-11.1-6.3-16.8-4c-1.2,0.5-6.3,0.6-7.5,0.2c-1.9-0.6-4-0.8-6-0.6
								c3.3,0.6,3.6,4.8,13.9,3.7c9.6-1,17.1,13,12,24.9c-3.2,7.4-14.6,12.7-29.8,12.2c1.4,0.6,2.9,1.2,4.5,1.6
								c5.1,1.3,7,0.5,10.5,0.4c3.5-0.1,5.4,0.6,10.4-1c9-3,13.6-9.1,14.7-17.9C449.2,603.6,447.5,596.4,442.6,591.1z"/>
						</g>
					</g>
				</g>
				<g>
					<path fill="#3A683A" d="M421.7,585c-1-2.4-3.4-3.7-6-3.9c1.3,1.2,2.2,2.1,2.7,4.2c-1.4-0.7-5-1.1-7,0.3
						c2.7,0.2,4.2,0.8,5.8,2.5c0,0-1.1,1-1.2,2.2c-0.1,0.8,0.2,2.6,0.2,2.6c1.6-2.4,5.5-1.3,5.6-3.8c0,0,4.1,0.6,5.7,3.4
						c0.2-3.7-1.6-4.3-1.6-4.3c1.7-1.3,4.9-0.5,6.7,0c-1.2-1.7-3.9-3.1-6.3-2.7c0.9-1.8,2.6-2.8,4.5-3
						C427.8,581.5,423.6,581.7,421.7,585L421.7,585z"/>
				</g>
				<g>
					<path fill="#397F3D" d="M423.4,575.3c-3.1,2.6-2.6,8.8-2.1,11.8c0.2,0.1,0.5,0.1,0.8-0.1c0-1.8,0-4.6,0.6-6.5
						c0.9-2.7,2.4-3.6,2.4-3.6C425,575.1,423.4,575.3,423.4,575.3z"/>
				</g>
			</g>
		</g>
		<g>
			<g>
				<g>
					<path fill="#9D1D20" d="M489.9,499.8c-1.7-5.9-7.1-10.7-13.2-11.2c-1.3-0.1-5.9-2.3-6.8-3.2c-4.3-4.4-11.5-5.5-17-3
						c-6.6,2.9-11.1,8.9-13.1,15.5c-2.5,8.5-0.7,16,6.4,22.2c3.9,3.5,6,3.6,9.2,5.1c3.1,1.5,4.6,3,9.8,3.8
						c9.3,1.4,16.3-1.9,21.2-9.3C490.1,514,491.9,506.7,489.9,499.8z"/>
					<path fill="#BF9EA4" d="M461.3,494.3c-2,2-6.5,5.3-6.8,2.5c-0.5-3.7-2.9-4-2.5-6.8c0.5-3.2,4.2-3.7,6.8-2.5
						S464.5,491,461.3,494.3z"/>
					<g>
						<g>
							<path fill="#751414" d="M489.9,499.8c-1.7-5.9-7.1-10.7-13.2-11.2c-1.3-0.1-5.9-2.3-6.8-3.2c-1.4-1.4-3.2-2.5-5-3.2
								c2.7,2.1,1,5.9,10.7,9.6c9,3.4,9.3,19.4-0.6,27.7c-6.2,5.2-18.8,4.7-32.1-2.7c0.9,1.2,2,2.3,3.3,3.5c3.9,3.5,6,3.6,9.2,5.1
								c3.1,1.5,4.6,3,9.8,3.8c9.3,1.4,16.3-1.9,21.2-9.3C490.1,514,491.9,506.7,489.9,499.8z"/>
						</g>
					</g>
				</g>
				<g>
					<path fill="#3A683A" d="M474.1,484.9c0.2-2.6-1.4-4.9-3.6-6.2c0.6,1.6,1,2.9,0.5,5c-0.9-1.3-4-3.3-6.4-2.9
						c2.3,1.4,3.4,2.6,4,4.8c0,0-1.4,0.4-2.1,1.4c-0.5,0.6-1,2.4-1,2.4c2.5-1.4,5.5,1.3,6.7-0.8c0,0,3.3,2.4,3.5,5.6
						c1.8-3.2,0.5-4.6,0.5-4.6c2.1-0.4,4.6,1.8,6,3c-0.3-2.1-2.1-4.5-4.3-5.3c1.6-1.2,3.6-1.3,5.4-0.7
						C481.1,484.6,477.2,482.8,474.1,484.9L474.1,484.9z"/>
				</g>
				<g>
					<path fill="#397F3D" d="M479.9,477c-4,0.9-6.3,6.7-7.2,9.5c0.2,0.2,0.4,0.4,0.8,0.3c0.8-1.6,2.1-4.1,3.5-5.5
						c2-2,3.7-2.1,3.7-2.1C481.5,477.6,479.9,477,479.9,477z"/>
				</g>
			</g>
		</g>
		<g>
			<g>
				<g>
					<path fill="#9D1D20" d="M481.8,176.3c-6.1-0.3-12.4,3.3-14.8,9c-0.5,1.2-4,4.9-5.2,5.4c-5.5,2.7-8.8,9.2-8.2,15.2
						c0.7,7.2,4.9,13.3,10.6,17.3c7.2,5.1,14.9,5.7,23.1,1c4.6-2.6,5.3-4.6,7.7-7.1c2.4-2.5,4.3-3.4,6.7-8.1
						c4.3-8.4,3.3-16.1-2.1-23C495.3,180.6,489,176.6,481.8,176.3z"/>
					<path fill="#BF9EA4" d="M467.6,201.8c1.3,2.5,2.9,7.8,0.2,7.2c-3.7-0.7-4.7,1.5-7.2,0.2c-2.9-1.5-2.1-5.2-0.2-7.2
						C462.3,199.9,465.5,197.6,467.6,201.8z"/>
					<g>
						<g>
							<path fill="#751414" d="M481.8,176.3c-6.1-0.3-12.4,3.3-14.8,9c-0.5,1.2-4,4.9-5.2,5.4c-1.8,0.9-3.4,2.2-4.7,3.8
								c2.8-1.9,5.9,0.9,12.5-7.1c6.1-7.4,21.3-2.8,26.1,9.3c2.9,7.5-1.5,19.3-12.7,29.6c1.4-0.5,2.9-1.2,4.3-2
								c4.6-2.6,5.3-4.6,7.7-7.1c2.4-2.5,4.3-3.4,6.7-8.1c4.3-8.4,3.3-16.1-2.1-23C495.3,180.6,489,176.6,481.8,176.3z"/>
						</g>
					</g>
				</g>
				<g>
					<path fill="#3A683A" d="M462.7,186.6c-2.4-1-5.1-0.3-7,1.4c1.7-0.1,3.1,0,4.9,1.1c-1.5,0.5-4.4,2.7-4.7,5.2
						c2.1-1.7,3.5-2.4,5.9-2.3c0,0,0,1.5,0.6,2.4c0.5,0.7,1.9,1.7,1.9,1.7c-0.6-2.8,3-4.8,1.4-6.6c0,0,3.3-2.4,6.4-1.6
						c-2.5-2.8-4.2-1.9-4.2-1.9c0.3-2.1,3.1-3.8,4.8-4.7c-2.1-0.3-5,0.5-6.4,2.5c-0.6-1.9-0.1-3.8,1.1-5.4
						C464.6,179.9,461.7,183,462.7,186.6L462.7,186.6z"/>
				</g>
				<g>
					<path fill="#397F3D" d="M457,178.6c-0.4,4.1,4.3,8.1,6.8,9.9c0.2-0.1,0.5-0.3,0.5-0.7c-1.3-1.2-3.2-3.3-4.1-5
						c-1.3-2.6-0.8-4.2-0.8-4.2C458.1,177.3,457,178.6,457,178.6z"/>
				</g>
			</g>
		</g>
		<g>
			<g>
				<g>
					<path fill="#9D1D20" d="M599,159.6c-3.9-3.9-10.2-5.3-15.3-3.1c-1.1,0.5-5.6,0.8-6.7,0.4c-5.3-1.6-11.4,0.7-14.8,5.1
						c-4,5.2-4.9,11.9-3.5,18c1.7,7.8,6.4,12.9,14.7,14.8c4.6,1,6.3,0.2,9.5,0c3.1-0.2,4.9,0.4,9.4-1.3c8-3,12-8.7,12.7-16.6
						C605.4,170.7,603.7,164.2,599,159.6z"/>
					<path fill="#BF9EA4" d="M574.1,167.8c-0.7,2.5-2.8,7-4.3,4.9c-2-2.8-4.1-1.9-4.9-4.3c-1-2.8,1.8-4.7,4.3-4.9
						C571.7,163.3,575.2,163.8,574.1,167.8z"/>
					<g>
						<g>
							<path fill="#751414" d="M599,159.6c-3.9-3.9-10.2-5.3-15.3-3.1c-1.1,0.5-5.6,0.8-6.7,0.4c-1.8-0.5-3.6-0.6-5.4-0.4
								c3,0.4,3.4,4.2,12.6,2.9c8.6-1.2,15.8,11.2,11.6,22.1c-2.6,6.8-12.8,11.9-26.5,11.9c1.3,0.5,2.6,1,4.1,1.3
								c4.6,1,6.3,0.2,9.5,0c3.1-0.2,4.9,0.4,9.4-1.3c8-3,12-8.7,12.7-16.6C605.4,170.7,603.7,164.2,599,159.6z"/>
						</g>
					</g>
				</g>
				<g>
					<path fill="#3A683A" d="M580.1,154.8c-1-2.1-3.2-3.3-5.5-3.4c1.2,1,2.1,1.9,2.6,3.7c-1.3-0.6-4.6-0.9-6.3,0.5
						c2.4,0.1,3.8,0.6,5.3,2.1c0,0-0.9,1-1.1,2c-0.1,0.7,0.2,2.3,0.2,2.3c1.3-2.2,4.9-1.4,5-3.6c0,0,3.7,0.5,5.2,2.9
						c0-3.3-1.6-3.8-1.6-3.8c1.5-1.2,4.4-0.6,6.1-0.2c-1.2-1.5-3.6-2.7-5.7-2.3c0.8-1.6,2.2-2.6,4-2.9
						C585.4,151.4,581.6,151.7,580.1,154.8L580.1,154.8z"/>
				</g>
				<g>
					<path fill="#397F3D" d="M581.2,146c-2.8,2.5-2.1,8-1.5,10.7c0.2,0.1,0.5,0.1,0.8-0.1c-0.1-1.6-0.1-4.1,0.3-5.9
						c0.7-2.5,2-3.3,2-3.3C582.7,145.7,581.2,146,581.2,146z"/>
				</g>
			</g>
		</g>
	</g>
</g>
</svg>
