<?xml version="1.0" encoding="utf-8"?>
<!-- Generator: Adobe Illustrator 21.1.0, SVG Export Plug-In . SVG Version: 6.00 Build 0)  -->
<svg version="1.1" id="Calque" xmlns="http://www.w3.org/2000/svg" xmlns:xlink="http://www.w3.org/1999/xlink" x="0px" y="0px"
	 viewBox="0 0 1074.3 1178.5" style="enable-background:new 0 0 1074.3 1178.5;" xml:space="preserve">
<style type="text/css">
	.st0{opacity:0.38;fill:#6791E5;}
	.st1{opacity:0.69;fill:#5B80C9;}
	.st2{fill:#4E6AB1;}
	.st3{fill:#FFFFFF;}
	.st4{fill:#981A1C;}
	.st5{fill:none;}
	.st6{fill:#EFB7A8;}
	.st7{fill:#875841;}
	.st8{fill:#573929;}
	.st9{fill:#6C4532;}
	.st10{fill:#FDEFEB;}
	.st11{fill:#7F1820;}
	.st12{fill:#F4BB9F;}
	.st13{fill:#F6C5AA;}
	.st14{fill:#C1707A;}
	.st15{fill:#DB2A3B;}
	.st16{fill:#450B0A;}
	.st17{fill:#F9F9F9;}
	.st18{fill:#FCFCFC;}
	.st19{fill:#0A0B0A;}
	.st20{fill:#F1A791;}
	.st21{fill:#D3D3D3;}
	.st22{fill:#7CB2BF;}
	.st23{fill:#FFFFFF;stroke:#FFFFFF;stroke-miterlimit:10;}
</style>
<path id="calque3" class="st0" d="M926.3,544.4c11.3-126.7-104.5-491.6-385.5-380.3C412.5,214.9,360,377.7,292.5,469.2
	c-487.2,660.2,246.7,540.9,357.6,459.2S898,862.5,926.3,544.4z"/>
<path id="calque2" class="st1" d="M540.2,1036.3C824.1,1073.9,1170.7,626,734,272.9C479.8,56.6,150.2,110.3,291.3,468.4
	C386.6,710.5,117,980.3,540.2,1036.3z"/>
<g id="calque1">
	<path class="st2" d="M877.4,643c12.8-189.7-212.6-360.5-320.8-411.5c-87.8-41.6-298.8-36.4-259.2,189.3
		c44,250.8-48.1,210.9-121.5,386.3c-77.4,188,135.5,243.6,323.2,199.8C664.9,968.3,856.3,911.5,877.4,643z"/>
	<g>
		<path class="st3" d="M451.7,491.7v-70h19.5v70H451.7z"/>
		<path class="st3" d="M494.7,491.7v-70h19.4v28.4l24.1-28.4h23l-26.5,30.1l27.4,39.9h-23.3l-17.6-26l-7.1,7.9v18.1H494.7z"/>
		<path class="st3" d="M578.4,491.7v-70h56.3v16.5h-37.1v10.6h33.6v15.3h-33.6v11.1h37.6v16.5H578.4z"/>
		<path class="st3" d="M650.2,491.7l29.8-70.5h18.7l29.8,70.5h-20.8l-5.1-12.5h-27l-5,12.5H650.2z M681.3,464.1H697l-7.8-19.9
			L681.3,464.1z"/>
		<path class="st3" d="M497.4,562.5v-41.3h17.7c5.3,0,9.4,1.3,12.5,3.9c3.1,2.6,4.6,6.2,4.6,10.8c0,4.7-1.6,8.4-4.9,11
			c-3.3,2.6-7.6,3.9-12.9,3.9h-5.7v11.8H497.4z M508.8,541.7h5.4c2,0,3.6-0.5,4.8-1.5c1.2-1,1.7-2.3,1.7-4c0-1.8-0.6-3.1-1.7-4
			c-1.2-0.9-2.8-1.4-4.9-1.4h-5.4V541.7z"/>
		<path class="st3" d="M537.1,562.5v-41.3h19.5c6,0,10.5,1.5,13.5,4.4c2.4,2.4,3.7,5.7,3.7,9.8c0,6.1-2.8,10.3-8.5,12.7l9.9,14.4
			h-13.2l-8.3-12.5h-5v12.5H537.1z M548.5,541h7.6c1.9,0,3.4-0.4,4.5-1.3c1.1-0.9,1.6-2.1,1.6-3.7c0-1.6-0.5-2.8-1.6-3.7
			c-1.1-0.8-2.6-1.2-4.6-1.2h-7.5V541z"/>
		<path class="st3" d="M579.8,562.5v-41.3h11.5v41.3H579.8z"/>
		<path class="st3" d="M598.8,562.5v-41.3h10.7l17,21.8v-21.8h11.3v41.3h-10l-17.6-22.7v22.7H598.8z"/>
		<path class="st3" d="M655.2,562.5v-31.3h-12.4v-10H679v10h-12.4v31.3H655.2z"/>
	</g>
	<path class="st4" d="M217.1,812.5c0.1,0.4,0.2,0.7,0.3,1.1c0.3,0.8,0.6,1.5,1.1,2.2c0.5,0.7,1,1.3,1.6,1.8c0.6,0.5,1.3,1,2,1.4
		c0.7,0.4,1.4,0.7,2,1c0.9,0.5,1.9,1,2.8,1.5c0.4,0.2,0.9,0.5,1.3,0.7c0.5,0.3,0.9,0.6,1.4,0.8c0.5,0.3,1,0.6,1.5,0.9
		c0.5,0.3,1,0.6,1.5,0.9c0.2,0.1,0.5,0.3,0.7,0.5c0.3,0.2,0.6,0.4,0.9,0.6c0.3,0.2,0.5,0.4,0.8,0.6c0.2,0.1,0.3,0.3,0.5,0.4
		c0.5,0.4,0.9,0.8,1.4,1.2c0.4,0.3,0.8,0.7,1.2,1.1c0.4,0.4,0.7,0.7,1.1,1.1c0.4,0.4,0.7,0.8,1.1,1.2c0.2,0.2,0.4,0.5,0.7,0.7
		c0.2,0.2,0.4,0.5,0.7,0.7c0,0.2-0.1,0.3-0.1,0.5c0,0.1,0,0.3-0.1,0.4c0,0.3,0.1,0.5,0.2,0.8c0.2,0.3,0.5,0.6,0.9,0.7
		c0.4,0.1,0.8,0.1,1.2-0.2c0.1-0.1,0.3-0.2,0.4-0.3c0.4,0.1,0.8,0,1.1-0.3c0.4-0.4,0.4-1.2,0-1.6c-0.1-0.1-0.2-0.2-0.3-0.3
		c0,0,0-0.1,0-0.1c0.2-0.4,0.4-0.8,0.7-1.1c0.5-0.6,1-1.1,1.6-1.5c0.7-0.6,1.5-1.1,2.2-1.6c0.5-0.3,0.9-0.6,1.4-0.9
		c0.5-0.3,0.9-0.6,1.4-0.9c0.9-0.6,1.8-1.2,2.7-1.8c0.5-0.4,1.1-0.8,1.6-1.2c0.4-0.3,0.9-0.7,1.3-1c0.4-0.4,0.8-0.7,1.2-1.1
		c0.2-0.2,0.5-0.5,0.7-0.7c0.2-0.2,0.4-0.3,0.5-0.5c0.4-0.4,0.9-0.9,1.3-1.3c0.3-0.3,0.6-0.7,0.9-1.1c0.6-0.7,1.1-1.4,1.6-2.1
		c0.4-0.6,0.8-1.3,1.1-2c0.4-0.8,0.7-1.7,0.9-2.5c0.1-0.4,0.2-0.7,0.2-1.1c0.1-0.5,0.1-1,0.2-1.6c0-0.9-0.1-1.8-0.2-2.7
		c-0.2-1.6-0.8-3.2-1.5-4.7c-0.4-0.8-0.9-1.5-1.4-2.2c-0.5-0.6-1-1.2-1.6-1.7c-0.6-0.6-1.3-1.1-2.1-1.5c-0.7-0.4-1.5-0.8-2.3-1.1
		c-0.7-0.3-1.4-0.4-2.2-0.6c-0.9-0.1-1.8-0.2-2.6-0.2c-0.1,0-0.1,0-0.2,0c-1.6,0-3.2,0.3-4.8,0.7c-1.6,0.5-3,1.2-4.4,2.1
		c-0.5,0.3-0.9,0.6-1.3,0.9c-0.7,0.5-1.5,1-2.2,1.6c-1,0.8-1.9,1.7-2.7,2.7c-0.4,0.4-0.7,0.9-1,1.4c-0.3-0.4-0.7-0.8-1-1.2
		c-0.3-0.3-0.7-0.6-1-0.9c-0.5-0.5-1.1-1-1.7-1.4c-0.7-0.5-1.4-0.8-2.2-1.2c-0.7-0.3-1.4-0.5-2.2-0.7c-0.4-0.1-0.9-0.1-1.3-0.2
		c-0.1,0-0.2,0-0.2,0c-0.4,0-0.7,0-1.1,0.1c-0.3,0.1-0.7,0.2-1,0.3c-0.4,0.2-0.8,0.4-1.2,0.6c-0.4,0.2-0.7,0.5-1,0.7
		c-0.3,0.2-0.6,0.5-0.9,0.8c-0.6,0.5-1.1,1.1-1.5,1.6c-0.5,0.6-1,1.3-1.3,2c-0.4,0.8-0.7,1.5-0.9,2.4c-0.2,0.8-0.3,1.7-0.4,2.6
		c-0.1,0.8-0.1,1.6,0,2.3C216.9,811.6,217,812,217.1,812.5z M221.9,815.7c-0.5-0.4-0.9-0.8-1.2-1.2c-0.4-0.5-0.7-1-0.9-1.6
		c0-0.1-0.1-0.2-0.1-0.3c0.1-0.1,0.2-0.1,0.3-0.3c0.7-1,1.3-2.1,2-3.1c0.3-0.5,0.7-1,1-1.5c0.1-0.2,0.3-0.4,0.4-0.6
		c0.2-0.3,0.4-0.6,0.6-0.9c0,0,0.1-0.1,0.1-0.1c0.2-0.3,0.4-0.6,0.7-0.9c0,0,0,0,0,0c-0.5,1-1,2-1.5,3c-0.3,0.6-0.6,1.3-0.9,1.9
		c-0.2,0.4-0.4,0.9-0.6,1.3c-0.1,0.2-0.2,0.5-0.3,0.7c-0.1,0.3-0.2,0.5-0.3,0.8c-0.1,0.2-0.2,0.5-0.2,0.7c-0.1,0.4,0.1,0.7,0.4,0.9
		c0.2,0.2,0.5,0.3,0.8,0.2c0.2-0.1,0.4-0.2,0.6-0.3c0,0,0.1-0.1,0.1-0.1c0.1-0.1,0.2-0.2,0.2-0.3c0.1-0.1,0.2-0.3,0.3-0.4
		c0,0,0,0.1-0.1,0.1c0.6-0.8,1.1-1.6,1.7-2.4c0.4-0.6,0.9-1.2,1.3-1.8c0.6-0.8,1.2-1.6,1.7-2.4c0.2-0.2,0.3-0.4,0.5-0.7
		c-0.1,0.1-0.1,0.2-0.2,0.4c-0.3,0.6-0.6,1.3-0.9,1.9c-0.5,1-0.9,2-1.3,3c-0.4,0.8-0.7,1.7-1.1,2.5c0-0.1,0.1-0.1,0.1-0.2
		c-0.2,0.5-0.4,1-0.6,1.5c-0.1,0.2-0.2,0.4-0.2,0.7c0,0.1-0.1,0.2-0.1,0.4c0,0.1,0,0.1-0.1,0.2c0,0.1,0,0.1-0.1,0.2
		C223.3,816.6,222.6,816.2,221.9,815.7z M225.8,817.3C225.8,817.3,225.8,817.3,225.8,817.3C225.8,817.3,225.8,817.3,225.8,817.3
		C225.8,817.3,225.8,817.3,225.8,817.3z M255.2,820.5c-0.4,0.3-0.8,0.6-1.2,1c-0.3,0.3-0.7,0.5-1,0.8c-0.4,0.3-0.9,0.6-1.3,1
		c-0.8,0.6-1.7,1.1-2.6,1.7c-0.5,0.3-0.9,0.6-1.4,0.9c-0.4,0.3-0.9,0.6-1.3,0.9c-0.7,0.5-1.4,1.1-2.1,1.7c-0.6,0.5-1.1,1.1-1.6,1.8
		c-0.3-0.4-0.6-0.7-0.9-1.1c-0.3-0.4-0.7-0.8-1.1-1.2c-0.2-0.2-0.3-0.3-0.5-0.5c-0.2-0.2-0.4-0.4-0.6-0.6c-0.2-0.2-0.4-0.4-0.7-0.6
		c-0.1-0.1-0.3-0.3-0.4-0.4c-0.5-0.4-1-0.8-1.5-1.2c-0.5-0.4-1-0.8-1.5-1.1c-0.2-0.1-0.4-0.3-0.6-0.4c-0.3-0.2-0.6-0.4-0.9-0.6
		c-0.5-0.3-0.9-0.6-1.4-0.9c-0.9-0.6-1.8-1.1-2.7-1.6c-1-0.6-1.9-1.1-2.9-1.6c-0.4-0.2-0.7-0.4-1.1-0.5c0.1-0.1,0.2-0.1,0.3-0.2
		c0.3-0.2,0.5-0.5,0.8-0.8c0.5-0.6,1-1.2,1.5-1.9c0.4-0.5,0.8-1,1.1-1.5c0.7-0.9,1.4-1.8,2.1-2.7c0.2-0.2,0.3-0.4,0.5-0.6
		c0.1-0.1,0.2-0.3,0.3-0.4c-0.2,0.4-0.3,0.8-0.5,1.3c-0.2,0.4-0.4,0.9-0.5,1.3c-0.2,0.6-0.4,1.2-0.7,1.7c-0.2,0.4-0.3,0.8-0.4,1.2
		c-0.1,0.2-0.1,0.5-0.2,0.7c-0.1,0.2-0.1,0.5-0.2,0.8c-0.1,0.2-0.1,0.4-0.2,0.6c0,0.1-0.1,0.3-0.1,0.4c0,0.1-0.1,0.2-0.1,0.4
		c0,0.1-0.1,0.3,0,0.5c0,0.1,0,0.3,0.1,0.4c0.1,0.2,0.2,0.4,0.3,0.5c0.1,0.1,0.3,0.2,0.5,0.3c0.2,0.1,0.4,0.1,0.6,0
		c0.2-0.1,0.4-0.2,0.5-0.3c0.1-0.1,0.3-0.2,0.4-0.3c0.1-0.1,0.2-0.3,0.4-0.4c0.3-0.4,0.6-0.7,0.8-1.1c0.2-0.2,0.3-0.4,0.5-0.7
		c0.4-0.6,0.9-1.2,1.3-1.8c0-0.1,0.1-0.1,0.1-0.2c0,0,0,0.1-0.1,0.1c-0.2,0.3-0.3,0.7-0.5,1c-0.1,0.2-0.2,0.3-0.2,0.5
		c-0.3,0.6-0.5,1.2-0.8,1.8c-0.1,0.2-0.2,0.5-0.3,0.7c-0.1,0.2-0.1,0.5-0.2,0.7c-0.1,0.2-0.1,0.5,0,0.7c0.1,0.3,0.3,0.6,0.6,0.8
		c0.5,0.3,1.2,0.2,1.6-0.2c0.2-0.2,0.5-0.5,0.7-0.7c0.3-0.4,0.6-0.7,0.8-1.1c0.3-0.4,0.5-0.8,0.8-1.2c0.4-0.5,0.7-1.1,1.1-1.6
		c0.3-0.5,0.6-0.9,0.9-1.4c0.1-0.1,0.1-0.2,0.2-0.2c-0.1,0.3-0.3,0.6-0.4,0.8c-0.2,0.5-0.4,0.9-0.6,1.4c-0.1,0.1-0.1,0.2-0.2,0.4
		c-0.1,0.2-0.2,0.5-0.3,0.7c-0.1,0.2-0.1,0.4-0.1,0.6c0,0.2,0.1,0.4,0.1,0.5c0.1,0.2,0.2,0.4,0.3,0.5c0.1,0.1,0.3,0.2,0.5,0.3
		c0.2,0.1,0.4,0.1,0.6,0c0.1,0,0.2-0.1,0.3-0.1c0.2-0.1,0.3-0.2,0.4-0.4c0,0,0,0,0,0c0.2-0.3,0.4-0.5,0.6-0.8c0.2-0.3,0.5-0.7,0.7-1
		c0.3-0.4,0.6-0.9,0.9-1.3c0.3-0.5,0.7-1,1-1.5c0.6-0.8,1.1-1.6,1.7-2.4c0-0.1,0.1-0.1,0.1-0.2c0,0.1-0.1,0.2-0.1,0.2
		c-0.2,0.3-0.3,0.7-0.5,1c-0.4,0.7-0.7,1.4-1.1,2c-0.2,0.3-0.3,0.6-0.4,0.9c-0.3,0.7-0.6,1.3-0.9,2c-0.2,0.5-0.4,1-0.6,1.5
		c-0.1,0.3-0.2,0.6-0.4,0.9c-0.1,0.2-0.1,0.4-0.2,0.6c-0.1,0.2-0.2,0.5-0.2,0.7c-0.1,0.2-0.1,0.3-0.2,0.5c0,0,0,0.1,0,0.1
		c0,0.1,0,0.2-0.1,0.3c-0.1,0.2-0.1,0.4-0.1,0.6c0,0.1,0,0.2,0,0.3c0,0.2,0.1,0.4,0.2,0.6c0.1,0.2,0.2,0.3,0.4,0.4
		c0.2,0.1,0.4,0.2,0.6,0.2c0.2,0,0.4-0.1,0.6-0.2c0.2-0.1,0.4-0.2,0.5-0.4c0.1-0.1,0.2-0.2,0.3-0.4c0.3-0.3,0.5-0.7,0.7-1.1
		c0.1-0.2,0.2-0.3,0.3-0.5c0.3-0.4,0.5-0.7,0.8-1.1c-0.1,0.1-0.1,0.3-0.2,0.4c-0.1,0.2-0.2,0.5-0.3,0.7c-0.1,0.2-0.1,0.4-0.2,0.6
		c0,0.1,0,0.1,0,0.2c-0.1,0.2-0.1,0.4,0,0.6c0.1,0.3,0.3,0.6,0.5,0.7c0.5,0.3,1.1,0.2,1.4-0.2c0.2-0.2,0.5-0.5,0.7-0.7
		c0.3-0.4,0.5-0.7,0.8-1.1c0.2-0.4,0.5-0.7,0.7-1.1c0.4-0.5,0.7-1.1,1.1-1.6c0.3-0.5,0.7-1,1-1.5c0.2-0.3,0.4-0.5,0.6-0.8
		c0,0,0-0.1,0.1-0.1c-0.1,0.2,0,0.5,0,0.7c0,0.2,0.1,0.5,0.2,0.7c0.1,0.2,0.3,0.4,0.5,0.5c0.4,0.2,0.9,0.3,1.3,0
		c0.1-0.1,0.3-0.2,0.4-0.3c0.2-0.1,0.4-0.3,0.6-0.5c0.3-0.2,0.5-0.5,0.8-0.8c0,0,0.1-0.1,0.1-0.1c0,0,0,0.1,0,0.1
		c0,0.2,0.2,0.5,0.4,0.6c0.2,0.2,0.5,0.4,0.8,0.5c0.1,0,0.2,0,0.2,0c-0.1,0.1-0.2,0.2-0.3,0.3C256,819.7,255.6,820.1,255.2,820.5z
		 M258,817.8C258,817.8,258,817.8,258,817.8C258,817.8,258,817.8,258,817.8C258,817.8,258,817.8,258,817.8z M258.4,809.7
		C258.4,809.7,258.4,809.7,258.4,809.7C258.4,809.7,258.4,809.7,258.4,809.7C258.4,809.7,258.4,809.7,258.4,809.7z M237.3,805
		c0.2-0.4,0.5-0.8,0.8-1.2c1-1.2,2.1-2.3,3.4-3.3c0.4-0.3,0.7-0.5,1.1-0.8c0.3-0.2,0.6-0.4,1-0.6c0.3-0.2,0.5-0.3,0.8-0.5
		c0.7-0.4,1.4-0.7,2.1-1.1c1.1-0.4,2.2-0.7,3.4-0.9c1.2-0.1,2.4-0.1,3.6,0c1,0.1,1.9,0.4,2.9,0.8c0.9,0.4,1.7,0.9,2.4,1.5
		c0.7,0.6,1.3,1.2,1.9,1.9c0.5,0.6,0.9,1.3,1.2,2.1c0.5,1.2,0.8,2.5,1,3.7c0.1,0.9,0.1,1.8,0,2.8c-0.1,0.4-0.1,0.7-0.2,1
		c-0.3-0.1-0.6,0-0.9,0.1c-0.3,0.1-0.5,0.3-0.6,0.5c0.2-0.3,0.3-0.6,0.5-0.9c0.3-0.6,0.6-1.1,0.9-1.7c0.2-0.4,0.2-0.9,0-1.3
		c-0.2-0.4-0.6-0.6-1.1-0.6c-0.4,0-0.8,0.2-1.1,0.5c-0.2,0.2-0.3,0.4-0.4,0.6c-0.1,0.2-0.3,0.3-0.4,0.5c0.3-0.5,0.6-1,0.9-1.4
		c0.2-0.3,0.3-0.6,0.5-0.9c0.1-0.2,0.2-0.4,0.3-0.6c0.1-0.3,0.3-0.5,0.4-0.8c0.1-0.2,0.2-0.4,0.2-0.6c0-0.3-0.1-0.6-0.4-0.9
		c-0.2-0.2-0.6-0.4-0.9-0.4c-0.3,0-0.7,0.1-0.9,0.4c-0.1,0.1-0.2,0.3-0.3,0.4c0,0,0,0,0,0c-0.2,0.3-0.5,0.7-0.7,1
		c-0.1,0.2-0.2,0.3-0.4,0.5c-0.3,0.4-0.6,0.8-0.9,1.3c-0.7,0.9-1.3,1.8-2,2.7c-0.2,0.2-0.3,0.4-0.5,0.7c0-0.1,0.1-0.2,0.1-0.2
		c0.4-0.6,0.7-1.2,1.1-1.8c0.1-0.2,0.3-0.4,0.4-0.6c0.2-0.3,0.4-0.6,0.6-0.9c0.2-0.4,0.4-0.8,0.6-1.2c0.1-0.2,0.1-0.4,0-0.6
		c-0.1-0.2-0.2-0.4-0.3-0.5c-0.1-0.1-0.3-0.2-0.5-0.3c-0.3-0.1-0.7-0.1-0.9,0.1c-0.2,0.1-0.3,0.3-0.5,0.4c-0.2,0.2-0.3,0.4-0.4,0.5
		c-0.1,0.1-0.2,0.2-0.2,0.3c-0.2,0.3-0.4,0.6-0.6,0.9c-0.3,0.4-0.7,0.9-1,1.3c-0.7,0.9-1.4,1.8-2,2.7c-1.2,1.6-2.3,3.1-3.4,4.7
		c0.1-0.2,0.3-0.5,0.4-0.7c0.4-0.7,0.7-1.3,1.1-2c0.2-0.4,0.4-0.8,0.7-1.2c1.2-2,2.4-3.9,3.6-5.9c0.3-0.5,0.6-1,0.9-1.6
		c0.2-0.4,0.5-0.8,0.7-1.2c0.1-0.1,0.2-0.3,0.3-0.5c0.1-0.2,0.3-0.5,0.4-0.7c0.1-0.2,0.2-0.4,0.2-0.5c0-0.1,0-0.1,0-0.2
		c0-0.1,0-0.2,0-0.3c0.1-0.2,0.1-0.4,0-0.6c-0.1-0.3-0.3-0.6-0.6-0.7c-0.2-0.1-0.4-0.2-0.6-0.2c-0.3,0-0.7,0.1-0.9,0.4
		c-0.4,0.5-0.8,1-1.2,1.4c-0.4,0.4-0.7,0.8-1.1,1.3c-0.7,0.9-1.4,1.7-2.1,2.6c0,0.1-0.1,0.1-0.1,0.2c-0.1,0.1-0.2,0.3-0.3,0.4
		c0.6-0.9,1.1-1.9,1.7-2.8c0.2-0.4,0.4-0.8,0.6-1.2c0-0.1,0.1-0.1,0.1-0.2c0.1-0.1,0.1-0.3,0.2-0.4c0-0.1,0.1-0.3,0.1-0.4
		c0-0.3,0-0.6-0.2-0.8c-0.1-0.3-0.3-0.4-0.5-0.5c-0.2-0.1-0.4-0.2-0.7-0.2c-0.1,0-0.2,0-0.3,0c-0.2,0.1-0.4,0.2-0.6,0.3
		c-0.6,0.8-1.2,1.6-1.8,2.4c-0.4,0.6-0.9,1.1-1.3,1.7c-0.6,0.7-1.2,1.5-1.7,2.2c-0.4,0.5-0.7,0.9-1.1,1.4c0,0,0,0,0,0
		c0.6-1,1.2-2.1,1.8-3.1c0.1-0.2,0.2-0.4,0.3-0.6c0.1-0.3,0.1-0.7,0-1c-0.1-0.2-0.2-0.4-0.3-0.6c-0.2-0.2-0.4-0.3-0.6-0.3
		c-0.2-0.1-0.5-0.1-0.7,0c-0.2,0.1-0.4,0.2-0.6,0.3c-0.1,0.1-0.2,0.3-0.3,0.4c-0.6,0.7-1.1,1.4-1.7,2.1c0,0,0,0,0,0c0,0,0,0,0,0
		c0,0,0,0.1-0.1,0.1c-0.6,0.8-1.3,1.6-1.9,2.5c-0.7,0.9-1.3,1.7-2,2.6c-0.4,0.6-0.8,1.1-1.3,1.7c-0.2,0.3-0.5,0.7-0.7,1
		c-0.6,0.8-1.1,1.6-1.7,2.4c0.1-0.2,0.1-0.4,0.2-0.5c0.4-1.1,0.8-2.1,1.2-3.2c0.2-0.6,0.5-1.2,0.7-1.8c0.1-0.3,0.2-0.6,0.3-0.9
		c0.2-0.1,0.3-0.2,0.4-0.4C236.9,805.9,237.1,805.4,237.3,805z M219.3,808.2c0.1-1,0.4-1.9,0.7-2.8c0.3-0.7,0.7-1.3,1.1-1.9
		c0.8-1,1.6-1.8,2.6-2.6c0.4-0.3,0.8-0.6,1.2-0.8c0.3-0.1,0.7-0.2,1-0.3c0.4,0,0.8,0,1.2,0c0.9,0.1,1.7,0.4,2.6,0.7
		c0.3,0.1,0.6,0.3,1,0.5c0.3,0.2,0.6,0.4,1,0.6c0.3,0.2,0.6,0.4,0.8,0.7c0.6,0.5,1.3,1.1,1.8,1.7c0.1,0.1,0.2,0.2,0.2,0.4
		c-0.2,0.1-0.3,0.3-0.4,0.5c0,0,0,0,0,0.1c-0.6,0.7-1.2,1.5-1.8,2.2c-0.4,0.5-0.9,1.1-1.3,1.6c-0.3,0.4-0.6,0.8-0.9,1.2
		c-0.5,0.6-0.9,1.3-1.4,1.9c-0.6,0.9-1.3,1.7-1.9,2.6c0.1-0.3,0.2-0.6,0.4-0.9c0.1-0.3,0.3-0.6,0.4-1c0.4-1,0.9-2,1.3-2.9
		c0.6-1.2,1.1-2.4,1.7-3.7c0.2-0.5,0.5-1.1,0.7-1.6c0.1-0.2,0.2-0.5,0.3-0.7c0-0.2,0.1-0.3,0.1-0.5c0-0.1,0-0.3,0-0.4
		c0-0.6-0.6-1-1.1-0.8c-0.2,0-0.4,0.1-0.5,0.2c-0.2,0.1-0.3,0.2-0.4,0.4c-0.1,0.1-0.2,0.2-0.3,0.4c-0.2,0.2-0.3,0.4-0.5,0.6
		c-0.3,0.4-0.7,0.8-1,1.2c-0.2,0.3-0.5,0.6-0.7,0.9c-0.2,0.2-0.4,0.4-0.5,0.7c-0.4,0.5-0.7,1-1.1,1.5c-0.2,0.3-0.4,0.6-0.6,0.9
		c0.1-0.2,0.2-0.4,0.3-0.6c0.3-0.5,0.5-1,0.8-1.6c0.3-0.5,0.5-1.1,0.8-1.6c0.2-0.4,0.4-0.8,0.6-1.1c0.1-0.2,0.2-0.5,0.3-0.7
		c0.1-0.2,0.2-0.5,0.3-0.8c0.1-0.3,0.1-0.5,0.1-0.8c0-0.2-0.1-0.4-0.2-0.5c-0.2-0.2-0.5-0.3-0.7-0.2c-0.1,0-0.1,0-0.2,0.1
		c-0.2,0.1-0.2,0.1-0.4,0.2c-0.1,0.1-0.2,0.2-0.3,0.3c-0.1,0.1-0.2,0.2-0.3,0.3c-0.2,0.2-0.3,0.4-0.5,0.6c-0.4,0.5-0.8,0.9-1.1,1.4
		c-0.4,0.5-0.8,1-1.1,1.5c-0.3,0.4-0.6,0.8-0.9,1.3c-1,1.5-2,3-2.9,4.5C219.2,810.1,219.2,809.1,219.3,808.2z M230.9,803.7
		L230.9,803.7C230.9,803.6,230.9,803.6,230.9,803.7C230.9,803.6,230.9,803.6,230.9,803.7C230.9,803.7,230.9,803.7,230.9,803.7z
		 M227.4,802.1C227.4,802.1,227.4,802.1,227.4,802.1C227.4,802.1,227.4,802.1,227.4,802.1C227.4,802.1,227.4,802.1,227.4,802.1z"/>
	<path class="st5" d="M563.8,634c-0.4-0.8-0.8-1.6-1.4-2.4c-0.3-0.4-0.7-0.8-1.1-1.2c-0.3-0.2-0.6-0.4-1-0.6
		c-0.4-0.2-0.9-0.3-1.4-0.4c-0.9-0.1-1.7,0-2.6,0.1c-1.4,0.2-2.9,0.6-4.3,1.1c-0.7,0.2-1.3,0.5-2,0.7c-0.7,0.3-1.3,0.6-2,0.9
		c-0.7,0.3-1.5,0.7-2.2,1.1c-0.8,0.5-1.6,1-2.4,1.6c-0.8,0.6-1.5,1.3-2.2,2c-0.7,0.8-1.5,1.6-2.2,2.4c-0.5,0.6-1.5,0.6-2.1,0
		c-0.3-0.3-0.4-0.6-0.4-1c-0.4-0.6-0.8-1.1-1.2-1.7c-0.6-0.8-1.3-1.5-2-2.1c-0.8-0.6-1.7-1.1-2.6-1.5c-1.2-0.5-2.5-0.9-3.9-1.1
		c-0.4-0.1-0.8-0.1-1.2-0.1c-0.4,0-0.8,0-1.1,0.1c-0.6,0.1-1.3,0.3-1.9,0.5c-0.7,0.3-1.3,0.7-1.9,1.1c-0.7,0.6-1.3,1.2-1.9,1.9
		c-0.6,0.8-1.1,1.6-1.4,2.4c-0.4,1.1-0.7,2.2-0.8,3.3c-0.1,1.1-0.2,2.2-0.1,3.3c0.1,0.9,0.4,1.7,0.7,2.5c0.4,0.9,0.9,1.7,1.5,2.5
		c1,1.3,2.2,2.4,3.5,3.5c0.4,0.3,0.7,0.5,1.1,0.8c0.9,0.6,1.9,1.2,2.8,1.7c0.5,0.3,1.1,0.6,1.6,0.9c1.3,0.7,2.6,1.4,3.9,2.2
		c0.6,0.3,1.2,0.7,1.8,1c0.8,0.4,1.5,0.9,2.1,1.5c0.7,0.6,1.4,1.2,2.1,1.9c0.7,0.8,1.4,1.6,1.9,2.5c0.4,0.6,0.7,1.2,0.9,1.8
		c0.2,0.4,0.4,0.8,0.5,1.2c0.1-0.5,0.2-1,0.4-1.4c0.1-0.3,0.2-0.7,0.3-1c0.2-0.5,0.3-0.9,0.5-1.4c0.2-0.3,0.3-0.7,0.5-1
		c0.1-0.3,0.3-0.5,0.4-0.8c0.1-0.2,0.3-0.5,0.4-0.7c0.2-0.4,0.5-0.7,0.7-1.1c0.2-0.2,0.3-0.5,0.5-0.7c0.3-0.3,0.5-0.7,0.8-1
		c0.4-0.5,0.8-1.1,1.3-1.6c0.2-0.3,0.5-0.6,0.7-0.8c0.3-0.3,0.5-0.6,0.8-0.9c0.2-0.2,0.4-0.4,0.6-0.6c0.2-0.2,0.5-0.5,0.7-0.7
		c0.5-0.4,1-0.9,1.5-1.3c0.6-0.5,1.1-0.9,1.7-1.4c1.1-0.9,2.2-1.8,3.3-2.7c0.5-0.4,1-0.8,1.5-1.3c0.2-0.2,0.5-0.4,0.7-0.7
		c0.2-0.2,0.5-0.4,0.7-0.6c0.3-0.3,0.6-0.6,0.9-0.9c0.2-0.2,0.4-0.4,0.5-0.6c0.6-0.7,1.3-1.4,1.9-2.1c0.6-0.8,1.1-1.6,1.5-2.5
		c0.3-0.7,0.5-1.5,0.6-2.3c0.1-0.7,0.1-1.4,0-2.1C564.4,635.6,564.1,634.8,563.8,634z M520.5,636c0.5,0,0.9,0.4,0.9,0.9
		c0,0.5-0.4,0.9-0.9,0.9c-0.5,0-0.9-0.4-0.9-0.9C519.7,636.4,520,636,520.5,636z M520.5,650c-0.4,0-0.8-0.4-0.8-0.8s0.4-0.8,0.8-0.8
		c0.4,0,0.8,0.4,0.8,0.8S521,650,520.5,650z M522.3,644.3c0,0.1-0.1,0.2-0.2,0.3c0,0-0.1,0-0.1,0.1c-0.2,0.1-0.3,0.3-0.4,0.4
		c-0.3,0.3-0.7,0.3-1,0c-0.1-0.1-0.2-0.3-0.2-0.5c0-0.2,0.1-0.4,0.2-0.5c0.2-0.2,0.3-0.3,0.5-0.5c0.1-0.1,0.2-0.2,0.3-0.2
		c0.1,0,0.1,0,0.2,0c0.1,0,0.1,0,0.2,0c0.2,0,0.3,0.2,0.4,0.3C522.4,643.9,522.4,644.1,522.3,644.3z M522.3,641.2
		c0,0.1-0.1,0.1-0.1,0.2c-0.1,0.1-0.1,0.2-0.2,0.2c0-0.1,0.1-0.1,0.1-0.2c-0.2,0.2-0.4,0.5-0.5,0.7c-0.1,0.2-0.4,0.3-0.7,0.3
		c-0.2,0-0.5-0.1-0.7-0.3c-0.2-0.2-0.3-0.4-0.3-0.7c0-0.2,0-0.3,0.1-0.5c0-0.1,0.1-0.1,0.1-0.2c0.2-0.2,0.4-0.5,0.6-0.7
		c0.2-0.2,0.4-0.3,0.7-0.3c0.2,0,0.5,0.1,0.6,0.3c0.2,0.2,0.3,0.4,0.3,0.6C522.4,640.9,522.4,641,522.3,641.2z M532.8,637.4
		c0.5,0,0.9,0.4,0.9,0.9c0,0.5-0.4,0.9-0.9,0.9s-0.9-0.4-0.9-0.9C531.9,637.8,532.3,637.4,532.8,637.4z M531.5,639.9
		c0.3,0,0.6,0.3,0.6,0.6c0,0.3-0.3,0.6-0.6,0.6c-0.3,0-0.6-0.3-0.6-0.6C530.9,640.2,531.2,639.9,531.5,639.9z M526,636.4
		c0.5,0,1,0.5,1,1s-0.5,1-1,1c-0.5,0-1-0.5-1-1S525.4,636.4,526,636.4z M527.4,641.5c0,0.4-0.3,0.7-0.7,0.7c-0.4,0-0.7-0.3-0.7-0.7
		c0-0.4,0.3-0.7,0.7-0.7C527.1,640.8,527.4,641.1,527.4,641.5z M526.2,652.5c-0.7,0-1.3-0.6-1.3-1.3c0-0.7,0.6-1.3,1.3-1.3
		s1.3,0.6,1.3,1.3C527.5,651.9,526.9,652.5,526.2,652.5z M527.3,645.4c-0.5,0-1-0.4-1-1s0.4-1,1-1s1,0.4,1,1
		S527.8,645.4,527.3,645.4z M527.5,635.7c-0.5,0-0.9-0.4-0.9-0.9c0-0.5,0.4-0.9,0.9-0.9c0.5,0,0.9,0.4,0.9,0.9
		C528.4,635.3,528,635.7,527.5,635.7z M529.3,656.7c-0.4,0-0.7-0.3-0.7-0.7s0.3-0.7,0.7-0.7s0.7,0.3,0.7,0.7
		S529.7,656.7,529.3,656.7z M530.8,649.2c-0.3,0-0.6-0.3-0.6-0.6c0-0.3,0.3-0.6,0.6-0.6c0.3,0,0.6,0.3,0.6,0.6
		C531.4,648.9,531.2,649.2,530.8,649.2z M533.6,653.2c-0.1,0.1-0.2,0.2-0.4,0.3c-0.3,0.2-0.6,0.4-0.9,0.4c-0.2,0-0.3,0-0.4-0.1
		c-0.1,0-0.1-0.1-0.2-0.1c-0.1-0.1-0.2-0.2-0.2-0.4c-0.1-0.3,0-0.6,0.2-0.8c0,0,0.1-0.1,0.1-0.1c0,0,0,0,0,0
		c0.2-0.1,0.3-0.3,0.5-0.5c0.2-0.2,0.4-0.3,0.7-0.3c0.2,0,0.5,0.1,0.7,0.3C534,652.3,534,652.9,533.6,653.2z M534.2,646.4
		c-0.5,0-1-0.4-1-1s0.4-1,1-1c0.5,0,1,0.4,1,1S534.7,646.4,534.2,646.4z M543.6,637.8c0.3-0.1,0.5-0.1,0.8-0.1c0,0,0,0,0,0
		c0.4,0,0.7,0.4,0.7,0.8c0,0.2-0.1,0.4-0.2,0.5c-0.1,0.1-0.3,0.2-0.5,0.2c-0.2,0-0.4,0-0.6,0c-0.4,0-0.7-0.3-0.7-0.7
		C543,638.2,543.3,637.9,543.6,637.8z M535.8,656.5c0-0.3,0.3-0.6,0.6-0.6c0.3,0,0.6,0.3,0.6,0.6s-0.3,0.6-0.6,0.6
		C536.1,657.2,535.8,656.9,535.8,656.5z M537.4,660.9c-0.5,0-1-0.5-1-1s0.5-1,1-1c0.5,0,1,0.5,1,1S537.9,660.9,537.4,660.9z
		 M538.7,650.3c-0.3,0-0.6-0.3-0.6-0.6c0-0.3,0.3-0.6,0.6-0.6s0.6,0.3,0.6,0.6C539.4,650.1,539.1,650.3,538.7,650.3z M539.5,643
		c0-0.7,0.6-1.2,1.2-1.2c0.7,0,1.2,0.6,1.2,1.2c0,0.7-0.6,1.2-1.2,1.2C540.1,644.2,539.5,643.7,539.5,643z M541,665.4
		c-0.6,0-1-0.5-1-1c0-0.6,0.5-1,1-1c0.6,0,1,0.5,1,1C542,664.9,541.5,665.4,541,665.4z M540.9,659.3c0-0.3,0.3-0.6,0.6-0.6
		c0.3,0,0.6,0.3,0.6,0.6s-0.3,0.6-0.6,0.6C541.1,659.8,540.9,659.6,540.9,659.3z M541.6,655.6c-0.4,0-0.8-0.3-0.8-0.8
		s0.3-0.8,0.8-0.8s0.8,0.3,0.8,0.8S542,655.6,541.6,655.6z M542.5,651.7c-0.8,0-1.5-0.7-1.5-1.5s0.7-1.5,1.5-1.5s1.5,0.7,1.5,1.5
		S543.3,651.7,542.5,651.7z M544.4,659.2c-0.4,0-0.7-0.3-0.7-0.7s0.3-0.7,0.7-0.7s0.7,0.3,0.7,0.7S544.8,659.2,544.4,659.2z
		 M546,653.5c-0.1,0.1-0.2,0.2-0.3,0.3c-0.1,0.1-0.3,0.2-0.5,0.2c-0.2,0-0.3-0.1-0.5-0.2c-0.1-0.1-0.2-0.3-0.2-0.5
		c0-0.2,0.1-0.3,0.2-0.5c0.1-0.1,0.2-0.2,0.3-0.3c0.1-0.1,0.3-0.2,0.5-0.2c0.2,0,0.3,0.1,0.5,0.2c0.1,0.1,0.2,0.3,0.2,0.5
		C546.2,653.2,546.1,653.3,546,653.5z M545.5,646.8c-0.6,0-1-0.5-1-1c0-0.6,0.5-1,1-1c0.6,0,1,0.5,1,1
		C546.5,646.3,546,646.8,545.5,646.8z M546.4,635.2c-0.5,0-0.8-0.4-0.8-0.8c0-0.5,0.4-0.8,0.8-0.8s0.8,0.4,0.8,0.8
		C547.2,634.8,546.8,635.2,546.4,635.2z M556.8,633c0.5,0,0.8,0.4,0.8,0.8c0,0.5-0.4,0.8-0.8,0.8s-0.8-0.4-0.8-0.8
		C555.9,633.4,556.3,633,556.8,633z M549,633.9c0.1-0.1,0.2-0.2,0.3-0.3c0.2-0.1,0.3-0.1,0.5-0.2c0.1,0,0.1,0,0.2,0
		c0.3,0,0.7,0.2,0.8,0.6c0.1,0.4-0.1,0.9-0.5,1c-0.1,0-0.2,0.1-0.3,0.1c-0.2,0.1-0.4,0-0.6-0.1c-0.2-0.1-0.3-0.3-0.4-0.5
		C548.8,634.3,548.9,634.1,549,633.9z M548.3,639.6c0-0.5,0.4-0.9,0.9-0.9c0.5,0,0.9,0.4,0.9,0.9c0,0.5-0.4,0.9-0.9,0.9
		C548.7,640.4,548.3,640,548.3,639.6z M549,643.7c0-0.4,0.3-0.7,0.7-0.7s0.7,0.3,0.7,0.7c0,0.4-0.3,0.7-0.7,0.7S549,644,549,643.7z
		 M550.1,651c-0.4,0-0.8-0.3-0.8-0.8s0.3-0.8,0.8-0.8c0.4,0,0.8,0.3,0.8,0.8S550.5,651,550.1,651z M552,635.6
		c-0.6,0-1.2-0.5-1.2-1.2s0.5-1.2,1.2-1.2c0.6,0,1.2,0.5,1.2,1.2S552.7,635.6,552,635.6z M553.6,648c-0.3,0-0.5-0.2-0.5-0.5
		c0-0.3,0.2-0.5,0.5-0.5c0.3,0,0.5,0.2,0.5,0.5C554.1,647.7,553.8,648,553.6,648z M554.5,641.2c-0.4,0-0.7-0.3-0.7-0.7
		s0.3-0.7,0.7-0.7s0.7,0.3,0.7,0.7S554.9,641.2,554.5,641.2z M556.8,646.7c-0.7,0-1.3-0.6-1.3-1.3s0.6-1.3,1.3-1.3s1.3,0.6,1.3,1.3
		S557.5,646.7,556.8,646.7z M557.8,631.7c-0.4,0-0.7-0.3-0.7-0.7s0.3-0.7,0.7-0.7c0.4,0,0.7,0.3,0.7,0.7S558.2,631.7,557.8,631.7z
		 M560.3,641.5c-0.4,0-0.8-0.3-0.8-0.8c0-0.4,0.3-0.8,0.8-0.8c0.4,0,0.8,0.3,0.8,0.8C561.1,641.2,560.7,641.5,560.3,641.5z
		 M561.3,636.6c-0.8,0-1.4-0.7-1.4-1.4c0-0.8,0.7-1.4,1.4-1.4s1.4,0.7,1.4,1.4C562.7,635.9,562.1,636.6,561.3,636.6z"/>
	<path class="st4" d="M567.2,636.9c-0.1-1.1-0.3-2.1-0.6-3.1c-0.3-1-0.8-1.9-1.3-2.8c-0.3-0.5-0.6-0.9-0.9-1.3
		c-0.3-0.4-0.6-0.7-1-1.1c-0.4-0.3-0.8-0.7-1.2-0.9c-0.5-0.3-1-0.5-1.6-0.7c-0.5-0.2-1.1-0.2-1.7-0.3c-0.4,0-0.7-0.1-1.1-0.1
		c-0.1,0-0.3,0-0.4,0c-1.1,0-2.2,0.2-3.2,0.4c-0.5,0.1-0.9,0.2-1.4,0.4c-0.4,0.1-0.8,0.2-1.2,0.4c-0.7,0.3-1.5,0.5-2.2,0.8
		c-0.7,0.3-1.5,0.6-2.2,0.9c-1.2,0.5-2.4,1.2-3.6,1.9c-0.9,0.5-1.7,1.2-2.5,1.8c-0.8,0.6-1.4,1.3-2.1,2c-0.4,0.5-0.9,0.9-1.3,1.4
		c-0.2-0.3-0.5-0.7-0.7-1c-0.6-0.8-1.2-1.6-1.9-2.3c-0.7-0.7-1.5-1.2-2.4-1.7c-0.9-0.5-1.8-0.9-2.8-1.3c-0.9-0.3-1.9-0.6-2.8-0.7
		c-0.5-0.1-1.1-0.2-1.6-0.2c0,0-0.1,0-0.1,0c-0.5,0-1.1,0.1-1.6,0.1c-1,0.1-2,0.5-2.9,1c-0.9,0.5-1.8,1.1-2.5,1.8
		c-0.8,0.7-1.4,1.5-2,2.3c-0.6,0.8-1,1.7-1.4,2.6c-0.4,0.9-0.6,1.9-0.8,2.9c-0.2,1.1-0.3,2.2-0.3,3.3c0,0.5,0,0.9,0.1,1.4
		c0.1,0.6,0.2,1.2,0.3,1.7c0.2,1,0.7,2,1.1,3c0.5,0.9,1.1,1.8,1.8,2.6c1.3,1.6,2.8,3,4.5,4.2c0.9,0.7,1.9,1.3,2.9,1.9
		c1.1,0.7,2.3,1.4,3.5,2.1c0.7,0.4,1.5,0.9,2.2,1.3c1,0.6,2.1,1.2,3,2c1,0.8,1.8,1.7,2.6,2.6c0.4,0.5,0.7,1,1,1.6
		c0.3,0.4,0.5,0.9,0.7,1.4c0.2,0.5,0.4,0.9,0.6,1.4c0,0,0,0.1,0.1,0.1c0.1,0.1,0.1,0.3,0.2,0.4c0.2,0.3,0.4,0.5,0.6,0.6
		c0.4,0.2,0.9,0.3,1.3,0.2c0.1,0,0.1,0,0.2-0.1c0,0.2-0.1,0.3-0.1,0.5c-0.1,0.4-0.1,0.7,0.1,1c0.2,0.3,0.5,0.5,0.8,0.6
		c0.3,0.1,0.7,0,1-0.1c0.1-0.1,0.2-0.1,0.3-0.2c0.2-0.2,0.3-0.4,0.3-0.6c0.5-1.2,0.9-2.4,1.2-3.6c0.2-0.5,0.3-1.1,0.5-1.6
		c0.1-0.3,0.2-0.5,0.2-0.8c0.1-0.3,0.2-0.6,0.3-0.9c0.1-0.1,0.1-0.3,0.2-0.4c0.1-0.2,0.1-0.3,0.2-0.5c0.2-0.4,0.4-0.9,0.7-1.3
		c0.2-0.3,0.4-0.6,0.5-0.8c0.1-0.1,0.2-0.3,0.3-0.4c0.3-0.4,0.6-0.8,0.9-1.3c0.3-0.4,0.7-0.8,1-1.3c0.5-0.6,1-1.2,1.5-1.7
		c0.4-0.5,0.9-0.9,1.3-1.4c0.3-0.3,0.5-0.5,0.8-0.8c0.2-0.2,0.4-0.3,0.6-0.5c1.1-0.9,2.2-1.8,3.3-2.7c0.6-0.4,1.1-0.9,1.6-1.4
		c0.5-0.4,1-0.9,1.5-1.3c0.5-0.4,0.9-0.9,1.4-1.3c0.3-0.2,0.5-0.5,0.7-0.8c0.2-0.2,0.4-0.4,0.6-0.6c0.6-0.7,1.2-1.3,1.8-2
		c0.6-0.8,1.2-1.7,1.7-2.6c0.5-0.9,0.8-1.9,1.1-2.9C567.2,638.9,567.3,637.9,567.2,636.9z M564.5,638.6c-0.1,0.8-0.3,1.5-0.6,2.3
		c-0.4,0.9-0.9,1.7-1.5,2.5c-0.6,0.7-1.2,1.4-1.9,2.1c-0.2,0.2-0.4,0.4-0.5,0.6c-0.3,0.3-0.6,0.6-0.9,0.9c-0.2,0.2-0.5,0.4-0.7,0.6
		c-0.2,0.2-0.5,0.4-0.7,0.7c-0.5,0.4-1,0.9-1.5,1.3c-1.1,0.9-2.2,1.8-3.3,2.7c-0.6,0.4-1.1,0.9-1.7,1.4c-0.5,0.4-1,0.9-1.5,1.3
		c-0.2,0.2-0.5,0.5-0.7,0.7c-0.2,0.2-0.4,0.4-0.6,0.6c-0.3,0.3-0.5,0.6-0.8,0.9c-0.2,0.3-0.5,0.6-0.7,0.8c-0.4,0.5-0.9,1.1-1.3,1.6
		c-0.3,0.3-0.5,0.7-0.8,1c-0.2,0.2-0.4,0.5-0.5,0.7c-0.2,0.4-0.5,0.7-0.7,1.1c-0.2,0.2-0.3,0.5-0.4,0.7c-0.1,0.3-0.3,0.5-0.4,0.8
		c-0.2,0.3-0.3,0.7-0.5,1c-0.2,0.4-0.4,0.9-0.5,1.4c-0.1,0.3-0.2,0.6-0.3,1c-0.2,0.5-0.3,1-0.4,1.4c-0.2-0.4-0.3-0.8-0.5-1.2
		c-0.3-0.6-0.6-1.2-0.9-1.8c-0.5-0.9-1.2-1.7-1.9-2.5c-0.6-0.7-1.3-1.3-2.1-1.9c-0.7-0.5-1.4-1-2.1-1.5c-0.6-0.3-1.2-0.7-1.8-1
		c-1.3-0.7-2.6-1.5-3.9-2.2c-0.5-0.3-1.1-0.6-1.6-0.9c-1-0.6-1.9-1.1-2.8-1.7c-0.4-0.3-0.8-0.5-1.1-0.8c-1.3-1-2.5-2.2-3.5-3.5
		c-0.6-0.8-1.1-1.6-1.5-2.5c-0.3-0.8-0.6-1.6-0.7-2.5c-0.1-1.1-0.1-2.2,0.1-3.3c0.2-1.1,0.4-2.3,0.8-3.3c0.4-0.9,0.9-1.7,1.4-2.4
		c0.6-0.7,1.2-1.3,1.9-1.9c0.6-0.4,1.2-0.8,1.9-1.1c0.6-0.2,1.2-0.4,1.9-0.5c0.4,0,0.8-0.1,1.1-0.1c0.4,0,0.8,0,1.2,0.1
		c1.3,0.2,2.6,0.6,3.9,1.1c0.9,0.4,1.8,0.9,2.6,1.5c0.8,0.6,1.4,1.3,2,2.1c0.4,0.5,0.8,1.1,1.2,1.7c0,0.4,0.2,0.8,0.4,1
		c0.6,0.6,1.5,0.6,2.1,0c0.7-0.8,1.4-1.6,2.2-2.4c0.7-0.7,1.4-1.4,2.2-2c0.8-0.6,1.6-1.1,2.4-1.6c0.7-0.4,1.4-0.8,2.2-1.1
		c0.7-0.3,1.3-0.6,2-0.9c0.7-0.2,1.3-0.5,2-0.7c1.4-0.5,2.8-0.9,4.3-1.1c0.9-0.1,1.7-0.1,2.6-0.1c0.5,0.1,0.9,0.2,1.4,0.4
		c0.4,0.2,0.7,0.4,1,0.6c0.4,0.3,0.8,0.7,1.1,1.2c0.5,0.7,1,1.5,1.4,2.4c0.3,0.8,0.6,1.6,0.7,2.5
		C564.6,637.2,564.6,637.9,564.5,638.6z"/>
	<circle class="st4" cx="526" cy="637.4" r="1"/>
	<path class="st4" d="M521.8,643.4c-0.1,0-0.1,0-0.2,0c-0.1,0-0.1,0-0.2,0c-0.1,0-0.2,0.1-0.3,0.2c-0.2,0.1-0.4,0.3-0.5,0.5
		c-0.1,0.1-0.2,0.3-0.2,0.5c0,0.2,0.1,0.4,0.2,0.5c0.3,0.3,0.7,0.3,1,0c0.1-0.1,0.3-0.3,0.4-0.4c0,0,0.1,0,0.1-0.1
		c0.1-0.1,0.2-0.2,0.2-0.3c0.1-0.2,0-0.4-0.1-0.6C522.2,643.6,522,643.4,521.8,643.4z"/>
	<circle class="st4" cx="531.5" cy="640.5" r="0.6"/>
	<circle class="st4" cx="520.5" cy="636.9" r="0.9"/>
	<circle class="st4" cx="527.3" cy="644.4" r="1"/>
	<path class="st4" d="M526.2,649.9c-0.7,0-1.3,0.6-1.3,1.3c0,0.7,0.6,1.3,1.3,1.3s1.3-0.6,1.3-1.3
		C527.5,650.5,526.9,649.9,526.2,649.9z"/>
	<circle class="st4" cx="536.5" cy="656.5" r="0.6"/>
	<circle class="st4" cx="534.2" cy="645.4" r="1"/>
	<path class="st4" d="M533,651.6c-0.3,0-0.5,0.1-0.7,0.3c-0.2,0.2-0.3,0.3-0.5,0.5c0,0,0,0,0,0c0,0-0.1,0.1-0.1,0.1
		c-0.2,0.2-0.3,0.6-0.2,0.8c0,0.1,0.1,0.3,0.2,0.4c0.1,0,0.1,0.1,0.2,0.1c0.1,0.1,0.3,0.1,0.4,0.1c0.4,0,0.7-0.2,0.9-0.4
		c0.1-0.1,0.2-0.2,0.4-0.3c0.4-0.3,0.3-1,0-1.3C533.5,651.7,533.2,651.6,533,651.6z"/>
	<path class="st4" d="M542,643c0-0.7-0.6-1.2-1.2-1.2c-0.7,0-1.2,0.6-1.2,1.2c0,0.7,0.6,1.2,1.2,1.2C541.5,644.2,542,643.7,542,643z
		"/>
	<circle class="st4" cx="532.8" cy="638.3" r="0.9"/>
	<circle class="st4" cx="527.5" cy="634.8" r="0.9"/>
	<circle class="st4" cx="538.7" cy="649.7" r="0.6"/>
	<path class="st4" d="M543.8,639.3c0.2,0,0.4,0,0.6,0c0.2,0,0.4-0.1,0.5-0.2c0.1-0.1,0.2-0.3,0.2-0.5c0-0.4-0.3-0.8-0.7-0.8
		c0,0,0,0,0,0c-0.3,0-0.5,0-0.8,0.1c-0.3,0.1-0.5,0.4-0.5,0.7C543,639,543.4,639.3,543.8,639.3z"/>
	<path class="st4" d="M549.2,634.9c0.2,0.1,0.4,0.1,0.6,0.1c0.1,0,0.2-0.1,0.3-0.1c0.4-0.1,0.7-0.6,0.5-1c-0.1-0.3-0.4-0.6-0.8-0.6
		c-0.1,0-0.1,0-0.2,0c-0.2,0-0.3,0.1-0.5,0.2c-0.1,0.1-0.2,0.2-0.3,0.3c-0.1,0.2-0.1,0.4-0.1,0.6
		C548.9,634.7,549.1,634.8,549.2,634.9z"/>
	<circle class="st4" cx="549.2" cy="639.6" r="0.9"/>
	<circle class="st4" cx="546.4" cy="634.4" r="0.8"/>
	<circle class="st4" cx="556.8" cy="633.9" r="0.8"/>
	<circle class="st4" cx="560.3" cy="640.8" r="0.8"/>
	<path class="st4" d="M561.3,633.7c-0.8,0-1.4,0.7-1.4,1.4c0,0.8,0.7,1.4,1.4,1.4s1.4-0.7,1.4-1.4
		C562.7,634.4,562.1,633.7,561.3,633.7z"/>
	<circle class="st4" cx="554.5" cy="640.5" r="0.7"/>
	<path class="st4" d="M552,633.3c-0.6,0-1.2,0.5-1.2,1.2s0.5,1.2,1.2,1.2c0.6,0,1.2-0.5,1.2-1.2S552.7,633.3,552,633.3z"/>
	<circle class="st4" cx="553.6" cy="647.4" r="0.5"/>
	<circle class="st4" cx="549.7" cy="643.7" r="0.7"/>
	<circle class="st4" cx="545.5" cy="645.8" r="1"/>
	<path class="st4" d="M545.5,652.4c-0.2,0-0.4,0.1-0.5,0.2c-0.1,0.1-0.2,0.2-0.3,0.3c-0.1,0.1-0.2,0.3-0.2,0.5
		c0,0.2,0.1,0.3,0.2,0.5c0.1,0.1,0.3,0.2,0.5,0.2c0.2,0,0.4-0.1,0.5-0.2c0.1-0.1,0.2-0.2,0.3-0.3c0.1-0.1,0.2-0.3,0.2-0.5
		c0-0.2-0.1-0.3-0.2-0.5C545.8,652.4,545.7,652.4,545.5,652.4z"/>
	<circle class="st4" cx="550.1" cy="650.2" r="0.8"/>
	<path class="st4" d="M542.5,648.8c-0.8,0-1.5,0.7-1.5,1.5s0.7,1.5,1.5,1.5s1.5-0.7,1.5-1.5S543.3,648.8,542.5,648.8z"/>
	<circle class="st4" cx="541.4" cy="659.3" r="0.6"/>
	<circle class="st4" cx="544.4" cy="658.5" r="0.7"/>
	<circle class="st4" cx="541.6" cy="654.8" r="0.8"/>
	<circle class="st4" cx="541" cy="664.3" r="1"/>
	<circle class="st4" cx="537.4" cy="659.9" r="1"/>
	<circle class="st4" cx="529.3" cy="656.1" r="0.7"/>
	<circle class="st4" cx="520.5" cy="649.2" r="0.8"/>
	<circle class="st4" cx="530.8" cy="648.6" r="0.6"/>
	<path class="st4" d="M556.8,644.2c-0.7,0-1.3,0.6-1.3,1.3s0.6,1.3,1.3,1.3s1.3-0.6,1.3-1.3S557.5,644.2,556.8,644.2z"/>
	<circle class="st4" cx="557.8" cy="631" r="0.7"/>
	<path class="st4" d="M521.5,639.8c-0.2,0-0.5,0.1-0.7,0.3c-0.2,0.2-0.4,0.5-0.6,0.7c0,0.1-0.1,0.1-0.1,0.2
		c-0.1,0.1-0.1,0.3-0.1,0.5c0,0.2,0.1,0.5,0.3,0.7c0.2,0.2,0.4,0.3,0.7,0.3c0.2,0,0.5-0.1,0.7-0.3c0.2-0.2,0.4-0.5,0.5-0.7
		c0,0.1-0.1,0.1-0.1,0.2c0.1-0.1,0.1-0.2,0.2-0.2c0-0.1,0.1-0.1,0.1-0.2c0.1-0.1,0.1-0.3,0.1-0.5c0-0.2-0.1-0.5-0.3-0.6
		C522,639.9,521.7,639.8,521.5,639.8z"/>
	<circle class="st4" cx="526.7" cy="641.5" r="0.7"/>
	<g>
		<path class="st5" d="M420.3,861.6c-1.2-2.4-2.5-4.8-3.8-7.2c-1.4-2.8-2.8-5.5-4.1-8.3c1.3,2.8,2.7,5.5,4.1,8.3
			C417.7,856.8,419.1,859.2,420.3,861.6z"/>
		<path class="st5" d="M352.2,779.4c-0.3-0.5-0.6-0.9-0.8-1.4c0.1,0.1,0.1,0.2,0.2,0.3c0,0.1-0.1,0.1-0.1,0.2c0-0.1,0.1-0.1,0.1-0.2
			C351.8,778.7,352,779,352.2,779.4z"/>
		<path class="st5" d="M386.1,869.5C386.1,869.5,386.1,869.5,386.1,869.5C386.1,869.4,386.1,869.5,386.1,869.5
			c0-0.3,0.1-0.5,0.1-0.8c0,0.2,0,0.3,0,0.5C386.1,869.3,386.1,869.4,386.1,869.5z"/>
		<path class="st5" d="M370.1,826C370.1,826,370.1,826,370.1,826c-0.5-0.1-0.9-0.4-1.4-0.4c-4.4-0.1-8.8-0.2-13.2-0.3c0,1,0,2,0,2.9
			c0,2.3,0.3,2.5,2.5,1.9c3-0.9,6.1-1.9,9.1-2.9c0.2,0.3,0.5,0.7,0.7,1c-0.2-0.3-0.5-0.7-0.7-1C368,826.8,369,826.4,370.1,826z"/>
		<circle class="st5" cx="370.1" cy="859.7" r="0"/>
		<path class="st5" d="M407.5,873.2c-0.1-0.4-0.2-0.8-0.3-1.2c-0.2-1.9-0.4-3.9-0.7-5.9c0.2,2,0.4,3.9,0.7,5.9
			C407.3,872.4,407.4,872.8,407.5,873.2z"/>
		<path class="st5" d="M469,766c0,0.1,0,0.1-0.1,0.2c0,0,0,0,0.1,0C469,766.1,469,766.1,469,766z"/>
		<path class="st5" d="M448.1,662.6c-0.3-0.2-0.6-0.3-0.9-0.5C447.5,662.2,447.8,662.4,448.1,662.6
			C448.1,662.6,448.1,662.6,448.1,662.6C448.1,662.6,448.1,662.6,448.1,662.6L448.1,662.6z"/>
		<path class="st5" d="M474.6,719.3c0-0.1,0-0.2,0-0.3C474.6,719.1,474.6,719.2,474.6,719.3C474.6,719.3,474.6,719.3,474.6,719.3
			c0,0.6,0,1.3-0.1,1.9C474.6,720.5,474.6,719.9,474.6,719.3C474.6,719.3,474.6,719.3,474.6,719.3z"/>
		<path class="st5" d="M474.4,723c-0.4,5.1-0.8,10.2-1.2,15.3c0,0,0,0,0,0c0,0,0,0,0,0C473.7,733.2,474.1,728.1,474.4,723z"/>
		<path class="st5" d="M425,714.7c0.1-0.1,0.1-0.2,0.2-0.2C425.1,714.5,425,714.6,425,714.7z"/>
		<path class="st5" d="M425,714.7c-0.4,1.7-0.8,3.4-1.2,5.1C424.2,718.1,424.6,716.4,425,714.7C425,714.7,425,714.7,425,714.7z"/>
		<path class="st5" d="M488.7,769.4c0.9,0.8,1.7,1.7,2.6,2.5c1.9,0.6,3.8,1.3,5.7,1.9c-1.9-0.6-3.8-1.3-5.7-1.9
			C490.5,771.1,489.6,770.3,488.7,769.4z"/>
		<path class="st5" d="M452,701c-0.3,0.2-0.7,0.4-1,0.6c-0.7,0.3-1.4,0.9-2.1,1.1c0.8-0.2,1.4-0.8,2.1-1.1
			C451.3,701.4,451.6,701.2,452,701z"/>
		<path class="st5" d="M442.4,699.9c-0.2,0.2-0.6,0.6-1.1,1.1C441.5,700.9,441.9,700.5,442.4,699.9z"/>
		<path class="st5" d="M448.9,719.2C448.9,719.2,448.9,719.2,448.9,719.2c-0.2,0.1-0.3,0.2-0.5,0.3
			C448.6,719.4,448.7,719.3,448.9,719.2z"/>
		<path class="st5" d="M368.2,918.7c-0.3,0.4-0.6,0.7-0.9,1c0.4-0.3,0.7-0.7,1.1-1C368.3,918.7,368.3,918.7,368.2,918.7
			C368.2,918.7,368.2,918.7,368.2,918.7z"/>
		<path class="st5" d="M385.8,870.2c-0.2,0.3-0.5,0.6-0.7,0.9C385.3,870.9,385.6,870.6,385.8,870.2z"/>
		<path class="st5" d="M373,886.7c0,0.1,0,0.2,0,0.3C373,886.9,373,886.8,373,886.7C373,886.7,373,886.7,373,886.7z"/>
		<path class="st5" d="M334.7,884.5C334.7,884.5,334.7,884.5,334.7,884.5c0.2-3,0.4-5.9,0.6-8.9c0,0,0,0,0,0
			C335,878.6,334.9,881.5,334.7,884.5z"/>
		<ellipse transform="matrix(0.7152 -0.6989 0.6989 0.7152 -445.0123 404.3273)" class="st5" cx="273.6" cy="748.2" rx="0" ry="0"/>
		<polygon class="st5" points="424.7,589.8 424.7,589.8 424.7,589.8 		"/>
		<path class="st5" d="M451.8,797.8c0,0,0-0.1,0.1-0.1c0,0,0,0,0,0c0,0-1.4,1.3-2.4,2.4C450.2,799.3,451.1,798.6,451.8,797.8
			C451.8,797.8,451.8,797.8,451.8,797.8z"/>
		<path class="st5" d="M395.3,866.1c0.8-5.1,2.3-9.6,2.3-9.7C397.6,856.5,396.1,861,395.3,866.1z"/>
		<polygon class="st5" points="375.2,805.1 375.2,805.1 375.2,805.1 		"/>
		<path class="st5" d="M391.9,838.7c-0.8-2-1.7-4-2.6-6C390.2,834.6,391,836.7,391.9,838.7z"/>
		<path class="st5" d="M448.5,801.2c0.2-0.2,0.4-0.5,0.6-0.7C448.9,800.7,448.7,801,448.5,801.2z"/>
		<path class="st5" d="M340.1,749.5L340.1,749.5c0-0.1,0-0.1,0-0.2c0.1-0.8,0.2-1.6,0.2-2.5c-0.1,0.9-0.2,1.7-0.3,2.6
			C340,749.4,340.1,749.4,340.1,749.5z"/>
		<path class="st5" d="M350.9,549.9c0.5,1.1,1,2,1.7,3c0.2,0.3,0.5,0.6,0.7,0.9c0.3,0.3,0.6,0.6,0.9,0.9c0.3,0.2,0.5,0.5,0.8,0.7
			c0.4,0.4,0.8,0.7,1.2,1c0.4,0.3,0.7,0.5,1.1,0.8c0.4,0.3,0.9,0.6,1.3,0.8l4,2.4c0.8,0.5,1.7,1,2.5,1.5c0.5,0.3,0.9,0.5,1.4,0.8
			c0.5,0.3,0.9,0.5,1.4,0.8c1,0.6,2,1.2,3,1.8c0.4,0.3,0.9,0.6,1.3,0.9c0.4,0.3,0.9,0.6,1.3,0.9c0.4,0.3,0.8,0.6,1.2,0.9
			c0.2,0.2,0.4,0.3,0.6,0.5c0.3,0.2,0.6,0.5,0.9,0.7c0.1,0.1,0.2,0.2,0.3,0.3c0-0.1,0-0.1,0-0.2c0.1-0.5,0.3-1.1,0.4-1.6
			c0.2-0.6,0.5-1.2,0.7-1.8c0.2-0.5,0.4-1,0.7-1.4c0.3-0.5,0.5-1,0.8-1.4c0.3-0.5,0.6-1,0.9-1.4c0.3-0.4,0.6-0.8,0.9-1.3
			c0.3-0.4,0.6-0.9,1-1.3c1.1-1.4,2.1-2.8,3.2-4.3c0.1-0.1,0.1-0.2,0.2-0.2c0.3-0.4,0.7-0.9,1-1.3c0.1-0.2,0.3-0.4,0.4-0.6
			c0.2-0.3,0.3-0.5,0.5-0.8c0.1-0.2,0.3-0.4,0.4-0.6c0.2-0.3,0.3-0.5,0.5-0.8c0.5-0.9,0.9-1.7,1.3-2.6c0.4-1.1,0.8-2.3,0.9-3.5
			c0.1-0.8,0.1-1.5,0-2.3c-0.1-0.6-0.2-1.3-0.5-1.9c-0.2-0.5-0.5-1-0.9-1.5c-0.3-0.3-0.6-0.7-0.9-1c-0.5-0.3-1-0.6-1.5-0.9
			c-0.6-0.2-1.2-0.4-1.8-0.5c-0.7-0.1-1.4-0.1-2.1,0c-0.7,0.1-1.5,0.3-2.2,0.6c-0.6,0.3-1.1,0.6-1.6,1c-0.9,0.8-1.8,1.7-2.5,2.6
			c-0.8,1.1-1.5,2.3-2,3.6c-0.3,0.7-0.6,1.5-0.8,2.2c-0.1,0.2-0.2,0.4-0.3,0.6c-0.1,0.1-0.2,0.1-0.3,0.2c-0.3,0.2-0.7,0.2-1,0.1
			c-0.3-0.1-0.6-0.3-0.8-0.6c-0.2-0.3-0.2-0.7-0.1-1c-0.1-0.2-0.1-0.3-0.2-0.5c-0.2-0.5-0.5-1-0.8-1.4c-0.3-0.4-0.7-0.8-1.1-1.1
			c-0.2-0.2-0.4-0.4-0.6-0.6c-0.5-0.4-1-0.9-1.5-1.3c-0.7-0.6-1.5-1-2.4-1.4c-0.8-0.3-1.6-0.6-2.5-0.7c-0.9-0.1-1.8-0.1-2.7,0
			c-1,0.2-2,0.4-2.9,0.8c-0.5,0.2-1,0.5-1.4,0.8c-0.5,0.3-0.9,0.6-1.3,0.9c-0.6,0.5-1.1,1-1.6,1.6c-0.4,0.5-0.7,1.1-0.9,1.6
			c-0.2,0.6-0.4,1.3-0.5,2c-0.1,0.6-0.1,1.2,0,1.7C350.5,548.7,350.7,549.3,350.9,549.9z"/>
		<path class="st5" d="M372.5,872.1c0-0.6-0.1-1.1-0.1-1.5C372.4,871.1,372.4,871.6,372.5,872.1z"/>
		<path class="st5" d="M340.3,701.8c0.3,1.1,0.5,2.1,0.7,3.2C340.8,703.9,340.6,702.9,340.3,701.8c0,1.1,0,2.3-0.1,3.4
			C340.3,704.1,340.3,702.9,340.3,701.8z"/>
		<path class="st5" d="M478.8,747.1c0.2,1.6,0.4,3.1,0.6,4.7c0.2,0.5,0.4,1,0.5,1.6c-0.2-0.5-0.4-1-0.5-1.6
			C479.2,750.2,479,748.7,478.8,747.1z"/>
		<path class="st5" d="M359.8,1016.4c0.1,1.2,0.2,2.7,0.3,4.1C360.1,1018.6,360,1016.8,359.8,1016.4z"/>
		<path class="st5" d="M359.6,1013.6c0-0.1,0-0.2,0-0.3C359.6,1013.4,359.6,1013.5,359.6,1013.6z"/>
		<path class="st5" d="M362.4,646.6c-0.2,0-0.4,0.1-0.6,0.1C362,646.7,362.2,646.6,362.4,646.6C362.4,646.6,362.4,646.6,362.4,646.6
			C362.4,646.6,362.4,646.6,362.4,646.6L362.4,646.6z"/>
		<path class="st5" d="M509.1,743C509.1,743,509.1,743,509.1,743c-0.1,0-0.2-0.1-0.3-0.1C508.9,743,509,743,509.1,743
			C509.1,743,509.1,743,509.1,743z"/>
		<path class="st5" d="M526.9,768.8c-0.3,1.1-0.5,2.1-0.7,3.2C526.4,771,526.6,769.9,526.9,768.8L526.9,768.8z"/>
		<path class="st5" d="M486.4,767.2c-0.4-0.5-0.8-1.1-1-1.4C485.6,766.2,486,766.7,486.4,767.2z"/>
		<path class="st5" d="M516.7,789.6c-0.3,0.1-0.7,0.1-1,0.2c0,0,0,0,0,0C516,789.8,516.4,789.7,516.7,789.6z"/>
		<path class="st5" d="M514.9,788.2c0.1,0.3,0.2,0.4,0.4,0.8C515.1,788.8,515,788.5,514.9,788.2z"/>
		<path class="st5" d="M492.5,760.7c0.2,1.3,0.3,1.4,0.9,2.8C493.1,762.7,492.9,762.2,492.5,760.7z"/>
		<path class="st5" d="M376.7,645.7C376.7,645.7,376.7,645.7,376.7,645.7c0.1,0,0.1,0,0.1-0.1C376.7,645.6,376.7,645.7,376.7,645.7z
			"/>
		<path class="st5" d="M385.8,637.9c-0.1,0-0.1,0.1-0.2,0.1c0.3-0.2,0.7-0.4,1-0.6C386.3,637.6,386.1,637.7,385.8,637.9
			C385.8,637.8,385.8,637.9,385.8,637.9z"/>
		<path class="st5" d="M489.7,730.4c0-0.1,0-0.2,0-0.3c0,0.1,0,0.1,0,0.2L489.7,730.4z"/>
		<path class="st5" d="M468.7,684.7C468.7,684.7,468.7,684.7,468.7,684.7C468.7,684.7,468.7,684.8,468.7,684.7
			C468.7,684.8,468.7,684.8,468.7,684.7C468.7,684.7,468.7,684.7,468.7,684.7z"/>
		<path class="st5" d="M355,723.6c0.1,1.3,0.5,2.5,1.1,3.5C355.5,726.1,355.1,725,355,723.6L355,723.6z"/>
		<path class="st5" d="M383.6,696.8C383.6,696.8,383.7,696.8,383.6,696.8c0.3-0.4,0.4-0.7,0.5-0.9c-0.1,0.2-0.2,0.5-0.4,0.8
			C383.7,696.7,383.6,696.8,383.6,696.8z"/>
		<path class="st5" d="M366.8,715.3c0.3,0,0.6-0.1,0.9-0.1C367.4,715.2,367.1,715.3,366.8,715.3c-0.5,0.8-0.9,1.5-1.4,2.3
			C365.9,716.8,366.3,716.1,366.8,715.3z"/>
		<path class="st5" d="M442.1,713c-0.8-0.7-1.2-1.9-1.3-3.1c-0.4-1-0.6-1.7-0.3-2.2c-0.2,0.4-0.1,1.1,0.3,2.2
			C440.9,711.1,441.3,712.3,442.1,713z"/>
		<path class="st5" d="M381.3,698.6C381.3,698.6,381.3,698.6,381.3,698.6C381.3,698.6,381.3,698.6,381.3,698.6
			c0.2-0.2,0.5-0.3,0.7-0.5C381.8,698.2,381.6,698.3,381.3,698.6C381.3,698.6,381.3,698.6,381.3,698.6z"/>
		<path class="st5" d="M406,759.9c0.1,0.3,0.3,0.7,0.4,1C406.3,760.6,406.1,760.2,406,759.9C406,759.9,406,759.9,406,759.9z"/>
		<path class="st5" d="M363.6,691.6l8.7,1C369.4,692.2,366.5,691.8,363.6,691.6z"/>
		<path class="st5" d="M369.4,718.6c0.1-0.8,0.3-1.6,0.4-2.4C369.6,717,369.5,717.8,369.4,718.6c-0.3,1.1-0.6,2.2-0.4,3.2
			C368.7,720.8,369,719.7,369.4,718.6z"/>
		<path class="st5" d="M364,708.8c0,0-0.1,0.1-0.1,0.1C364,708.9,364,708.9,364,708.8L364,708.8z"/>
		<path class="st5" d="M355.9,712.2C355.9,712.2,355.9,712.2,355.9,712.2c0.2,0,0.4,0.1,0.5,0.1
			C356.2,712.2,356.1,712.2,355.9,712.2z"/>
		<path class="st5" d="M360.5,730.6c0.3,0,0.7-0.1,1-0.1c0.4,0,0.8,0,1.3,0c-0.4,0-0.9,0-1.3,0C361.1,730.6,360.8,730.6,360.5,730.6
			z"/>
		<path class="st5" d="M424.1,720.4c0-0.1-0.1-0.2-0.2-0.2C424,720.2,424.1,720.3,424.1,720.4L424.1,720.4
			C424.1,720.4,424.1,720.4,424.1,720.4L424.1,720.4z"/>
		<path class="st5" d="M360.9,716.8c-0.3-0.9-0.7-1.8-1.4-2.2C360.2,715,360.6,715.8,360.9,716.8c2-0.5,4-1,5.9-1.5
			C364.8,715.8,362.8,716.3,360.9,716.8z"/>
		<path class="st5" d="M382.7,722.9C382.7,722.9,382.7,722.9,382.7,722.9c-0.9-1-1.8-2-2.7-3c0,0,0,0,0,0
			C380.9,720.9,381.8,721.9,382.7,722.9z"/>
		<path class="st5" d="M449.6,718.9L449.6,718.9c1.8-0.4,3-1.4,3.9-2.6C452.6,717.5,451.4,718.4,449.6,718.9z"/>
		<path class="st5" d="M374.7,723.4C374.7,723.4,374.7,723.4,374.7,723.4c-0.2,0.1-0.4,0.3-0.6,0.4
			C374.3,723.7,374.5,723.5,374.7,723.4z"/>
		<path class="st4" d="M573.8,913.3c-0.7-15.6-8.2-27.5-21.1-35.7c-9.1-5.8-19-9.2-29.3-11.8c-4.2-1.1-8.5-1.9-12.8-2.9
			c-3.1-0.7-6.2-1.3-9.3-2c-0.8,0.1-8.5,11.8-9.3,11.9c-9.1,5.1-18.4,9.6-28.2,13.1c-16.7,6.1-33.9,10.2-51.7,11.2
			c-0.6,0-1.3,0-1.9,0c-1.6,0.1-3.2,0.2-4.8,0.3c-7.2,0.4-14.3-0.7-21.4-1.6c-1.2,1.7-2.4,3.4-3.3,5.1c-0.6,1.1-9.6,17.2-12.4,17.8
			c-0.4,0.4-0.7,0.7-1.1,1c-0.2,0.2-0.4,0.4-0.5,0.5c-0.6,0.6-1.2,1.6-1.3,2.4c-1.1,9.4-2.1,18.7-3,28.1c-0.5,5.5-1,11-1.2,16.5
			c-0.6,15.4-1.1,30.7-1.7,46.1c0,0.1,0,0.2,0,0.3c0,0.5,0.1,1.5,0.2,2.8c-0.2,0.5,0.3,3.7,0.3,4.1c54.5,7.4,150.5-15.7,160.4-18.7
			c0,0-0.4-3.7-1.2-5.9c-1.8-5.2-3.2-10.5-4.8-15.7c-0.1-0.5-0.3-0.9-0.4-1.4c-0.1,0.1-0.1,0.1-0.2,0.2c-0.3-0.1-0.5-0.2-0.8-0.2
			c-0.1-1-0.1-2.1-0.1-3.1c0,0,0,0,0,0c0,0,0,0,0,0c-0.1-6.6,1.1-13.2,2.3-19.7c2.9-14.6,7.7-28.5,17.1-40.2
			c0.2,0.1,0.4,0.2,0.6,0.2c-0.8,1.9-1.7,3.8-2.4,5.8c-1.7,5-3.6,9.9-4.8,15c-2.3,9.5-3.2,19.2-3.1,28.9c2.8-2.8,5.5-5.6,8.3-8.5
			c2.9-3,5.7-6.3,8.7-9.3c0.6-0.6,2.2-1.1,2.8-0.8c1.3,0.7,1,2,0,3.1c-4.6,5.6-19.6,29.7-18.4,36.9c1.1,6.4,1.5,6.8,3,13
			c0,0,31.2-8.1,43.3-11.4l1.1-20.8c0.7-8.6,1.3-17.1,1.7-25.7C573.7,932.8,574.3,923,573.8,913.3z"/>
		<path class="st4" d="M334.7,884.5c0.2-2.9,0.4-5.9,0.6-8.8C335,878.5,334.8,881.4,334.7,884.5z"/>
		<path class="st4" d="M330.5,916.6c1.7-7.1,2.5-14.5,3.3-21.8c0.2-1.7,0.4-3.5,0.5-5.2c0.1-1.7,0.3-3.4,0.4-5.1
			c-2.4-1.5-1.6-1-4-2.5c-0.6-0.8-1.1-1.6-1.7-2.4c-3.6-3.5-7.1-7.1-10.7-10.4c-2.6-2.3-5.3-4.1-8-6.2c0.1,0,0.1,0,0.2-0.1
			c-3.1,0.6-6.2,1.2-9.3,2c-9.9,2.3-19.5,5.5-28.4,10.5c-12.9,7.3-21.4,18-23.9,33.2c-1.6,9.8-1,19.8-0.7,29.7
			c0.5,18.8,2.1,53.9,2.5,61.1c14.8,6,35.8,12.1,42.9,13c1.6-1.8,0-1,0-3.3c0-2,0-4.1,0-6.3c0-0.2,0-0.3,0-0.5c0,0,0,0,0-0.1
			c0,0,0,0,0,0c0-0.1,0-0.2,0-0.3c0.8-4.2,1.6-8.4,2.6-12.5c0.7-3,2.1-5.9,2.7-8.9c0.4-2,0.3-4.2-0.1-6.2c-0.7-3.2-1.8-6.4-2.7-9.6
			c-0.1-0.2,0-0.5,0-0.7c-3.5-5.2-6.9-10.4-10.3-15.6c5.1,3.6,10.4,7.1,13.7,13.1c0,0,0,0,0,0c-0.5-3.5-0.4-3.6,0.2-4.1
			c-0.6-1.7-1.3-3.2-1.7-4.7c-1.6-6.7-2.8-13.4-4.8-20c-1.6-5.5-3.9-10.8-6.1-16.1c-1.1-2.7-2.9-5.1-4.5-7.9
			c0.6,0.2,1.1,0.3,1.3,0.5c4.8,5.4,9.1,11.1,12.2,17.8c2.6,5.5,5.2,11.1,7.3,16.8c1.6,4.5,2.3,9.3,3.2,14c0.1,0.5,0,1-0.2,1.5
			c0.2,0.9,0.3,1.9,0.2,2.8c-0.1,4.7-0.2,9.3-0.8,13.9c-0.3,2.3-1.6,4.6-2.3,6.9c-0.9,2.7-1.8,5.4-2.5,8.2c-0.7,2.8-1.3,5.6-1.8,8.4
			c-0.4,2.4-0.7,4.7-1.1,7.3c0.5,1.1,0.8,2.2,0.8,3.2c0,1,0.2,2.4,0.1,3.4c2.1,0.5,5.5,1,6.1,1.2c2.8-10.4,5.3-19.3,8-29.7
			C319,962.3,324.9,939.5,330.5,916.6z"/>
		<path class="st6" d="M451.4,803.4c0.1-1.1,0-4.4,0.4-5.6c0,0,0,0,0-0.1c-0.8,0.8-1.6,1.5-2.4,2.3c-0.1,0.1-0.2,0.2-0.3,0.4
			c-0.2,0.2-0.4,0.5-0.6,0.7c-4.6,5.9-9.9,11.1-15.8,15.7c-4.7,3.7-9.9,6.8-15.9,7.3c-3.4,0.3-7-0.2-10.4-1.1
			c-3.7-1-7.2-2.9-10.8-4.4c-0.6-0.2-20.2-12.6-20.4-13.6c0,0,0,0,0,0c-1.3-0.5-2.7-1.4-4.2-2.6c0.6,7.8,0.4,15.6-0.7,23.4
			c2.2-0.6,4.4-1.3,6.6-1.9c2.7-0.8,5.3-1.7,8-2.3c3.5-0.8,6.1,1,8.3,3.6c2.2,2.5,4.6,4.9,7,7.3c0.4,0.4,1.6,0.3,2.1,0
			c1.2-0.7,2.3-1.7,3.4-2.5c3.3-2.5,5.9-1,8,1.4c0.2,0.2,0.2,0.7,0.2,1.1c0.1,2.9,0,5.7-1.1,8.5c-0.4,1.1,0,2.4-1.1,3.3
			c-0.2,0.2,0.1,1.3,0.4,1.9c1.3,2.8,2.7,5.5,4.1,8.3c1.3,2.4,2.6,4.7,3.8,7.2c0.5,1.1,0.9,2.2,1.3,3.4c0.2,0.6,0.1,1.3,0.1,1.9
			c-0.6,0-1.2,0-1.8,0c-0.3,0-0.5-0.1-0.8-0.1c-3,0.8-5.7,0-8-1.9c-1.8-1.4-3.4-3.1-5.3-4.8c0.2,2,0.4,4,0.7,6
			c0.2,2,0.4,3.9,0.7,5.9c0.1,0.4,0.2,0.8,0.3,1.2c0.1,0.4,0.2,0.8,0.2,1.2c0.1,0.8,0.2,1.6,0.3,2.4c0.1,1.1,0.1,2.2,0.1,3.2
			c0,1.6,0,3.2,0.1,4.8c-0.2,0.1-0.4,0.1-0.6,0.2c-0.5-0.5-1-1.1-1.5-1.6c-3.2,0.4-6.4-2.5-7.4-5.6c-0.3-1-0.9-2-1.6-3.4
			c-0.8,1.2-1.5,2.2-2.2,3.3c-1.2,1.8-2.4,3.5-3.6,5.3c-0.2,0.3-0.2,0.7-0.3,1.1c-1.7,2.7-2.8,5.3-4.6,7.9c0,0,0,0.1-0.1,0.1
			c-0.7,1.2-1.4,2.3-2.2,3.5c7.1,0.9,14.2,1.9,21.4,1.6c1.6-0.1,3.2-0.2,4.8-0.3c0.6,0,1.3,0,1.9,0c17.8-0.9,35-5,51.7-11.2
			c9.7-3.6,19.1-8.1,28.2-13.1c0.8-0.1,8.5-11.8,9.3-11.9c-0.2-0.1-0.3-0.2-0.5-0.3c-7.7-1.7-15.4-3.3-23-5.2
			c-10-2.5-17.7-8.2-22.1-18c-2.7-5.9-3.8-12.1-4.5-18.5c0,0,0,0,0,0c0,0,0,0,0,0C451.3,813.7,451.3,808.5,451.4,803.4z
			 M380.1,809.3c-0.1,0-0.1-0.1-0.2-0.1C380,809.2,380.1,809.3,380.1,809.3L380.1,809.3z"/>
		<path class="st7" d="M468.7,684.7C468.7,684.7,468.7,684.7,468.7,684.7c0.5,0.8,1.1,1.5,1.6,2.3c0.2,0.3,0.3,0.5,0.4,0.8
			c2.2,4.7,3.5,9.6,4.3,14.7c0.5,3.3,1.1,6.6,1.5,9.9c0.2,1.4,0.1,5.3,0,6.8c0,0,0,0,0,0c0.1,3.8,0.2,7.6,0.5,11.3
			c0.5,5.5,1.1,11,1.7,16.5c0.2,1.6,0.4,3.1,0.6,4.7c0.2,0.5,0.4,1,0.5,1.6c0.5,1.6,1,3.2,1.7,4.7c1.2,2.7,2.6,5.2,3.9,7.9
			c0.1,0.3,0.5,0.8,1,1.4c0.4,0.5,0.9,1,1.4,1.4c0.3,0.2,0.6,0.5,0.9,0.8c0.9,0.8,1.7,1.7,2.6,2.5c1.9,0.6,3.8,1.3,5.7,1.9
			c0.6,0.2,1.3,0.4,1.9,0.6c1.1,0.3,2.2,0.2,3.1,0.3c-2.4-2.9-4.7-5.8-7.1-8.8c-0.6-0.8-1.1-1.6-1.5-2.5c-0.7-1.4-0.7-1.5-0.9-2.8
			c0-0.1-0.1-0.3-0.1-0.4c-3.6-9.9-3.4-19.8-2.8-30c0-0.1,0-0.1,0-0.2c0-1,0.2-2.2,0.3-2.6c0.9-7.9,2-15.7,3-23.6
			c0.3-5,0.3-17.4-1.2-21.8c-0.1-0.2-0.2-0.4-0.2-0.6c-0.8-5.6-3.8-10.1-7.5-14.1c-2.1-2.2-4.4-4.2-6.7-6.1c-1.1-1-2.3-1.7-2.8-2.5
			c-1.8-1-3.3-2-4.9-2.9c-1.4-0.8-2.9-1.8-4.4-2.2c-1.4-0.4-3.6-0.8-4.3-0.1c-1.2,1.2-2,2.6-3.7,3c-0.1,3.2-2.8,1.9-4.3,2.6
			c-0.7,0.4-1.4,0.8-2.1,1c-0.8,0.2-1.8,0.2-2.7,0.3c0,0.6,0,1.3,0,1.9v0c0,0,0,0,0,0c0,0,0,0,0,0c0.3,0.2,0.6,0.4,0.9,0.5
			c0.2,0.1,0.4,0.2,0.6,0.4c0.3,0.2,0.5,0.3,0.7,0.5c0.2,0.2,0.5,0.3,0.7,0.5c0.2,0.2,0.5,0.3,0.7,0.5c0.2,0.2,0.5,0.3,0.7,0.5
			c0.3,0.2,0.6,0.4,0.9,0.6c0.2,0.1,0.4,0.3,0.5,0.4c0.3,0.2,0.6,0.4,0.8,0.6c0.2,0.1,0.4,0.3,0.5,0.4c0.3,0.2,0.5,0.4,0.8,0.6
			c0.2,0.1,0.4,0.3,0.5,0.4c0.2,0.2,0.4,0.4,0.7,0.6c0.2,0.2,0.4,0.4,0.6,0.5c0.2,0.2,0.4,0.4,0.6,0.6c0.2,0.2,0.4,0.4,0.6,0.6
			c0.2,0.2,0.4,0.4,0.6,0.6c0.2,0.2,0.4,0.4,0.6,0.6c0.2,0.2,0.5,0.5,0.7,0.7c0.2,0.2,0.3,0.3,0.5,0.5c0.2,0.2,0.4,0.4,0.6,0.7
			c0.2,0.2,0.4,0.4,0.5,0.6c0.2,0.2,0.3,0.4,0.5,0.6c0.2,0.3,0.4,0.5,0.6,0.8c0.2,0.2,0.3,0.5,0.5,0.7c0.2,0.2,0.4,0.5,0.5,0.7
			c0.1,0.2,0.3,0.4,0.4,0.6c0.2,0.3,0.4,0.5,0.5,0.8c0.1,0.2,0.3,0.5,0.4,0.7c0.2,0.3,0.3,0.5,0.5,0.8c0.3,0.5,0.6,1,0.8,1.6
			C467.8,682.7,468.2,683.7,468.7,684.7C468.7,684.7,468.7,684.7,468.7,684.7C468.7,684.7,468.7,684.7,468.7,684.7
			C468.7,684.7,468.7,684.7,468.7,684.7z"/>
		<path class="st8" d="M527.9,748.7c-2.9-1-6.1-1.2-9.1-2.1c-2.6-0.8-5.2-1.9-7.7-3c-0.6-0.2-1.4-0.1-1.9-0.5c0,0,0,0,0,0
			c0,0,0,0,0,0c-0.1,0-0.2-0.1-0.3-0.1c-0.2-0.1-0.5-0.1-0.7-0.2c-0.3-0.1-0.7-0.2-0.9-0.4c-2.8-2.8-5.6-5.7-8.3-8.7
			c-0.8-0.9-1.2-2-1.9-3.1c-0.7-1-1.4-2-2.1-3c0.4,2,0.9,3.7,1.7,5.3c0.8,1.6,1.7,3.1,2.8,4.5c1.1,1.5,2.3,3,3.7,4.3
			c1.4,1.2,3.2,2.6,4.8,3.7c0,0,0,0,0,0c0,0,0,0,0,0c0,0,0,0,0,0c0.1,0,0.1,0.1,0.2,0.1c0,0,0,0,0,0c10.5,7.5,19.4,6.1,18.7,22.8
			c0,0.1,0,0.3,0,0.4c0,0,0,0,0,0c-0.3,1.1-0.5,2.1-0.7,3.2c-0.1,0.5-0.2,0.9-0.3,1.4c-0.3,1.5-0.7,3-1.4,4.4
			c-2.1,4.1-5,7.8-7.5,11.7c0,0.1-0.1,0.1-0.2,0.2c-0.3,0.1-0.7,0.1-1,0.2c0,0,0,0,0,0c0,0,0,0,0,0c-0.1-0.3-0.3-0.5-0.4-0.8
			c-0.2-0.4-0.3-0.5-0.4-0.8c1-3.4,1.5-6.9,1.1-10.5c-0.3-2.8-0.9-5.6-1.3-8.4c-0.3,0-0.7-0.1-1-0.1c-0.7,6.3-2.1,12.5-5,18
			c-3,5.6-7.1,10.3-12.3,13.9c-5.2,3.6-10.9,6-17.7,7.4c1.5-1.5,2.7-2.6,3.8-3.8c3.2-3.5,5.2-7.7,6.5-12.3c0.3-1,0.9-4.7,0.8-4.9
			c0.5-3.1,1.1-6.2,1.5-9.4c0.2-2,0.1-4.1,0.1-6.1c-0.9-0.8-1.7-1.7-2.6-2.5c-0.3-0.3-0.6-0.5-0.9-0.8c-0.5-0.5-1-1-1.4-1.4
			c-0.5-0.5-0.8-1-1-1.4c-1.2-2.7-2.7-5.2-3.9-7.9c-0.7-1.5-1.2-3.1-1.7-4.7c-0.2-0.5-0.4-1-0.5-1.6c-0.2,1-0.2,2-0.6,2.9
			c-1.8,4.1-3.1,8.3-3.8,12.6c-0.3,1.4-0.5,2.9-0.6,4.4c-0.2,1.6,0,4.8,0.2,7.5c0,0.6,0.1,1.2,0.1,1.8c0,0,0,0,0,0
			c0.4,1.9,0.6,1.8,0.8,2.5c1.3,3.6,1.9,7,5.6,9c-3.6,0.8-9.1-2.6-10.6-7.8c-0.4-3.3-1.6-7.7-1.9-11c-0.1-1.6,0.3-3.2,0.4-4.8
			c0-0.3,0-1.6,0-2.6c0,0,0,0-0.1,0c-2.2,6-5.8,13-11.5,22.5c0,0,0,0,0.1,0c-0.1,0.1-0.2,0.3-0.3,0.4c-1.6,2.7-3.4,5.5-5.3,8.6
			c0,0,0,0.1-0.1,0.1c-0.4,1.2-0.3,4.4-0.4,5.6c-0.1,5.1-0.1,10.3-0.2,15.4c0,0,0,0,0,0c0.4,0,0.8,0,1.2-0.1
			c13.3-3.1,26.6-6.2,39.9-9.5c5.4-1.3,10.6-3.5,15.3-6.8c2.6-1.5,3.8-2.9,4.6-3.6c2-2.1,4-4.2,6-6.3c1.2-1.1,9.2-6.7,10.2-8
			c0.1-0.2,0.3-0.4,0.4-0.7c4.7-9.3,6.6-19.8,5.8-30.2c-0.5-0.6-1-1.1-1.5-1.7C531.4,751,529.8,749.4,527.9,748.7z"/>
		<path class="st8" d="M334.6,813.5c-3.9-1.9-7.4-4.2-10.5-7.4c-3.6-3.7-6.1-8.1-7.8-12.9c-0.6-1.7-0.7-3.6-1.1-5.5
			c-0.1-0.7-0.3-1.3-0.5-2c-0.2,0-0.4,0.1-0.6,0.1c0.3,3.1,0.4,6.2,1,9.3c0.6,3.2,1.5,6.3,2.9,9.2c1.3,2.8,3.3,5.2,5,7.8
			c-0.1,0.2-0.2,0.3-0.3,0.5c-2.4-0.9-4.8-1.7-7.3-2.6c-0.9-0.3-1.9-0.6-2.8-1.1c-0.6-0.3-1.3-0.7-1.5-1.3c-0.8-2.4-3.1-2.8-4.8-4
			c-1.1-0.7-2.4-1.2-3.3-2.1c-3.1-3.3-6-6.5-8.1-10.6c-0.1-0.1-0.5-0.4-0.7-0.4c0-0.1,0-0.2-0.1-0.2c0,0,0,0,0,0
			c-0.1-0.4-0.1-0.8-0.2-1.1c-0.1-0.1-0.3-0.3-0.4-0.4c0,0,0,0,0,0c0,0,0,0,0,0c0,0,0,0,0,0c0-0.1-0.1-0.5-0.2-1.1
			c0-0.1,0-0.1-0.1-0.2c-0.4-1.5-1.2-3.6-1.4-3.5c-1.6-6.3-2.8-12.7-2.6-19.3c0-0.2,0-0.4,0-0.5c0-0.4-0.1-0.7-0.2-1.1
			c0-0.2-0.1-0.3-0.1-0.5c0,0,0,0,0,0c0,0,0,0,0,0c-0.2-0.5-0.3-1.1-0.5-1.6c0.1-0.2,0.3-0.5,0.4-0.7c0-0.1,0.1-0.2,0.1-0.2
			c0.2-1.7,0.3-3.4,0.5-5.1c0.5-3.5,1-6.9,1.7-10.4c0.5-2.5,1.1-4.9,1.7-7.4c0.6-2.4,1.4-4.8,2.1-7.2c-0.2-0.1-0.4-0.2-0.5-0.4
			c-1.7,2-3.5,3.9-5,6c-1.1,1.6-1.8,3.4-2.6,5.1c-1.8,3.6-3.1,7.4-3.6,11.4c-0.4,1.5-0.7,1.1-0.8,1.4c0,0,0,0.1,0,0.1
			c0.1,3.2-0.1,6.2-0.1,6.7c0,3.7,0,7.3,0,11.3c-0.6-0.3-1.2-0.5-1.9-0.8c0.1,3,0,5.9,0.4,8.9c0.6,5,1.4,10,3.7,14.6
			c0.5,1.2,1,2.4,1.3,3.2c2.1,4.6,6.6,9.5,9.7,10.6c-8-9.1-10.5-19.7-8.9-31.6c0.8,3.7,1.5,7.2,2.2,10.7l0.5,1.2
			c0.4,1.3,0.8,2.7,1.3,4c4.4,11.1,12.6,18.3,23.2,22.8c-3-3.1-5.9-6.2-7.6-10.4c8.8,9.7,19.4,15.9,32,18.7c0-2.8,0-5.7-0.1-8.5
			C337.1,814.4,335.8,814,334.6,813.5z"/>
		<path class="st9" d="M282.5,760.3c0-0.6,0.2-3.5,0.1-6.7c0,0,0-0.1,0-0.1c0.2-0.3,0.5,0.1,0.8-1.4c0.4-4.1,1.7-7.8,3.6-11.4
			c0.9-1.7,1.5-3.6,2.6-5.1c1.5-2.1,3.3-4,5-6c0.2,0.1,0.4,0.2,0.5,0.4c-0.7,2.4-1.4,4.8-2.1,7.2c-0.6,2.4-1.3,4.9-1.7,7.4
			c-0.7,3.4-1.2,6.9-1.7,10.4c-0.2,1.7-0.3,3.4-0.5,5.1c0,0.1,0,0.2-0.1,0.2c-0.1,0.2-0.3,0.5-0.4,0.7c0.2,0.5,0.3,1.1,0.5,1.6
			c0,0,0,0,0,0c0,0,0,0,0,0c0,0.2,0.1,0.3,0.1,0.5c0.1,0.4,0.2,0.7,0.2,1.1c0,0.2,0,0.4,0,0.5c-0.2,6.6,1,13,2.6,19.3
			c0.2-0.1,1,2.1,1.4,3.5c0,0.1,0,0.1,0.1,0.2c0.2,0.5,0.2,1,0.2,1.1c0.1,0.1,0.3,0.3,0.4,0.4c0.1,0.3,0.1,0.7,0.2,1.1c0,0,0,0,0,0
			c0,0.1,0,0.2,0.1,0.2c0.2,0.1,0.6,0.3,0.7,0.4c2.1,4.1,5,7.3,8.1,10.6c0.9,0.9,2.2,1.4,3.3,2.1c1.7,1.2,4,1.6,4.8,4
			c0.2,0.6,0.9,1,1.5,1.3c0.9,0.4,1.8,0.7,2.8,1.1c2.4,0.9,4.8,1.7,7.3,2.6c0.1-0.2,0.2-0.3,0.3-0.5c-1.7-2.6-3.7-5-5-7.8
			c-1.3-2.9-2.2-6.1-2.9-9.2c-0.6-3-0.7-6.2-1-9.3c0.2,0,0.4-0.1,0.6-0.1c0.2,0.7,0.4,1.3,0.5,2c0.4,1.8,0.5,3.7,1.1,5.5
			c1.7,4.9,4.2,9.2,7.8,12.9c3.1,3.1,6.6,5.5,10.5,7.4c1.2,0.6,2.5,0.9,3.8,1.4c0-0.7,0-1.3,0-2c-6.2-3.9-13.9-14.5-13.6-19.4
			c0.7,1.2,1,2.1,1.6,2.8c3,3.7,6.1,7.5,10.1,10.2c0.7,0.5,1.8,0.6,2.7,0.9c0.5-3.4,1.1-6.9,1.6-10.3c-0.1-0.3-0.4-0.6-0.3-0.9
			c0.7-4.4-1.5-8-2.7-11.9c-0.9-2.9-1.7-5.9-1.8-8.8c-0.2-4.5-0.2-9.1,0.4-13.6c0.5-4,2-8,3-11.9c0.1-0.2,0.5-0.3,0.7-0.5
			c0.1-0.9,0.2-1.7,0.3-2.6c0.1-0.9,0.2-1.7,0.3-2.6c0.2-1.2,0.3-2.4,0.5-3.6c0.2-1.2,0.4-2.4,0.6-3.6c-0.1,0-0.2,0-0.3,0
			c-0.1,0-0.1,0-0.2,0c0,0,0,0,0,0c0.2-0.3,0.4-0.5,0.6-0.8c1.1-8,1.3-15.9,0.4-23.8c-0.2-1.4-0.4-2.9-0.6-4.3
			c-0.2-1.1-0.4-2.1-0.6-3.2c-0.2-1.1-0.5-2.1-0.7-3.2c0,1.1,0,2.3-0.1,3.4c-0.1,2.8,0.1,5.6-0.4,8.4c-0.6,3.7-2.7,6.6-5.1,9.5
			c1.6-6.2,1.1-12.4-0.3-18.7c-0.8,7.9-2.7,15.5-6.2,22.5c-3.6,7.2-8.6,13.1-16.1,17.2c0.2-0.7,0.2-1.1,0.4-1.4
			c4.6-5,7.2-11.2,8.9-17.8c2-7.5,3.1-15,3.1-22.8c0-3.1,0.3-6.2,0.3-9.3c0.1-8.6,2-16.9,4.9-25c2-5.7,4.8-11,8.4-15.8
			c4.6-6,10.1-10.3,17.6-11.7c0.8-0.2,1.9-0.1,2.5,0.3c0.9,0.7,1.9,1.7,0.6,3.1c-0.4,0.4-0.6,1-1.1,2c1.2-0.1,1.9-0.3,2.6-0.3
			c0.5,0,1.1-0.2,1.5,0c0.2,0.1,0.3,0.3,0.3,0.5c0,0.1,0,0.3,0,0.5v0c0,0,0,0,0,0c0,0,0,0,0,0c3.5-0.3,6.9-0.6,10.4-0.9
			c0.1,0,0.3,0.1,0.4,0.1c0.8,0.2,1.4,0.2,1.9,0.2c0.8,0,1.3-0.2,1.5-0.3c0,0,0.1,0,0.1-0.1c0,0,0,0,0,0c0,0,0,0,0,0
			c1.6,0.5,5.2-5.4,8.9-7.7c0.1,0,0.1-0.1,0.2-0.1c0,0,0,0,0,0c0.3-0.1,0.5-0.3,0.8-0.4c0.3-0.2,0.7-0.3,1-0.5
			c0.3-0.1,0.7-0.3,0.9-0.4c0.3-0.1,0.7-0.2,1-0.3c0.6-0.2,1.2-0.3,1.7-0.3c0.6-0.1,1.1-0.1,1.7-0.1c0.3,0,0.5,0,0.8,0
			c0.8,0.1,1.6,0.2,2.4,0.5c0.6,0.2,1.2,0.4,1.7,0.6c1.7,0.7,3.4,1.8,5,3.1c0.8,0.6,1.6,1.2,2.4,1.8c0.8,0.6,1.6,1.1,2.4,1.7
			c0.6,0.4,1.2,0.8,1.8,1.2c1.2,0.8,2.5,1.5,3.8,2.2c3.2,1.8,6.5,3.3,10,4.6c0.6,0.2,1.1,0.5,1.7,0.7c0.6,0.3,1.2,0.5,1.8,0.8
			c5,2.2,10.1,4.3,15.1,6.5c0.5,0.2,1,0.5,1.6,0.7c0.3,0.1,0.6,0.3,0.8,0.4c0.2,0.1,0.5,0.2,0.7,0.4c0.2,0.1,0.4,0.2,0.6,0.3
			c0.5,0.3,1,0.5,1.6,0.8c0.3,0.2,0.6,0.3,0.9,0.5c0-0.6,0-1.3,0-1.9c0.9-0.1,1.8-0.1,2.7-0.3c0.7-0.2,1.4-0.7,2.1-1
			c1.5-0.8,4.2,0.5,4.3-2.6c1.7-0.4,2.5-1.9,3.7-3c0.7-0.7,2.9-0.3,4.3,0.1c1.5,0.5,3,1.4,4.4,2.2c1.6,0.9,3.2,1.8,4.9,2.9
			c0.4,0.8,1.6,1.5,2.8,2.5c2.3,2,4.6,3.9,6.7,6.1c3.7,4,6.6,8.5,7.5,14.1c0,0.2,0.1,0.4,0.2,0.6c1.6,4.4,1.5,16.8,1.2,21.8
			c-1,7.9-2,15.7-3,23.6c-0.1,0.5-0.3,1.7-0.3,2.6c0,0.1,0,0.2,0,0.3l0-0.1c-0.7,10.2-0.9,20.1,2.8,30c0,0.2,0.1,0.3,0.1,0.4
			c0.4,1.5,0.6,2,0.9,2.8c0.4,0.9,0.9,1.7,1.5,2.5c2.3,2.9,4.7,5.8,7.1,8.8c-0.9-0.1-2,0-3.1-0.3c-0.6-0.2-1.3-0.4-1.9-0.6
			c-1.9-0.6-3.8-1.3-5.7-1.9c0,2,0.2,4.1-0.1,6.1c-0.4,3.1-1,6.3-1.5,9.4c0.1,0.3-0.5,3.9-0.8,4.9c-1.3,4.6-3.3,8.8-6.5,12.3
			c-1.1,1.2-2.3,2.3-3.8,3.8c6.8-1.4,12.5-3.8,17.7-7.4c5.2-3.6,9.3-8.3,12.3-13.9c3-5.5,4.4-11.7,5-18c0.3,0,0.7,0.1,1,0.1
			c0.5,2.8,1,5.6,1.3,8.4c0.4,3.6-0.1,7.1-1.1,10.5c0.1,0.3,0.3,0.5,0.4,0.8c0.1,0.3,0.3,0.5,0.4,0.8c0,0,0,0,0,0
			c0.3-0.1,0.7-0.1,1-0.2c0.1,0,0.2-0.1,0.2-0.2c2.6-3.8,5.4-7.6,7.5-11.7c0.7-1.3,1.1-2.8,1.4-4.4c0.1-0.5,0.2-0.9,0.3-1.4
			c0.2-1.1,0.4-2.2,0.7-3.2v0c0,0,0,0,0,0c0-0.1,0-0.3,0-0.4c0.7-16.8-8.2-15.4-18.7-22.8c0,0,0,0,0,0c-0.1,0-0.1-0.1-0.2-0.1
			c0,0,0,0,0,0c0,0,0,0,0,0c0,0,0,0,0,0c-1.6-1.1-3.4-2.5-4.8-3.7c-1.4-1.2-2.6-2.7-3.7-4.3c-1-1.4-2-2.9-2.8-4.5
			c-0.8-1.6-1.3-3.3-1.7-5.3c0.7,1,1.4,2,2.1,3c0.6,1,1.1,2.2,1.9,3.1c2.7,3,5.4,5.9,8.3,8.7c0.2,0.2,0.5,0.3,0.9,0.4
			c0.2,0.1,0.5,0.1,0.7,0.2c0.1,0,0.2,0.1,0.3,0.1c0.5,0.5,1.3,0.3,1.9,0.5c2.6,1.1,5.1,2.2,7.7,3c3,0.9,6.2,1.1,9.1,2.1
			c1.9,0.7,3.5,2.3,5.3,3.5c0.5,0.6,1,1.1,1.5,1.7c0.4,0.5,0.8,1,1.1,1.6c1.8,3.5,1.9,7.3,1.3,11.2c0.2-0.1,0.3-0.1,0.4-0.2
			c0.2-0.2,0.3-0.4,0.4-0.6c7.3-11.7,7-23.4,0.1-35c-2.1-3.5-4.7-6.7-8.2-8.9c0.2,0,0.3,0,0.5,0c5.9,1,10.4,4.3,13.6,9.5
			c3.1,5.1,4,10.7,3.7,16.6c2.1-6.3,2.8-12.5,0.1-18.8c-0.3-0.8-0.3-0.8-0.4-1.3c-2-5-5.3-9-8.9-12.8c-6.3-6.6-29.4-34.9-32.9-41.1
			c-3.1-5.7-6.3-11.5-9.4-17.2c-2.1-3.8-4.4-7.6-6.6-11.3l-1.2-1.6c-1.6-2.5-3.2-5.1-4.9-7.6c-6.1-8.5-12.9-16.3-20.6-23.1
			c-6-4.7-12.7-10.5-19-14.7c-4.3-2.9-14.9-7-18-8.3v0c0,0-0.3-0.2-0.9-0.3c0,0,0,0,0,0c0,0,0,0,0,0c0,0,0,0,0,0l0,0l0,0
			c-0.3-0.1-0.7-0.1-1.1,0c0,0,0,0-0.1,0l-51.2,1.9c-3.9,1.6-7.6,3.5-10.5,6.8c-1,0.7-2,1.4-2.9,2.2c-8.2-0.8-15.3,1.8-21.6,6.9
			c-11.9,9.7-17.9,23-22.6,37l-0.1,0.5l-0.4,1.2c-0.2,0.5-0.5,1.1-0.7,1.6c-2.2,7.3-4.3,14.5-6.4,21.8c-4.2,14.5-9.2,28.6-16.8,41.6
			c-3.5,6-7.4,11.8-10.8,17.8c-3.3,5.9-6,12.1-6.5,19.1h0c0,0,0,0,0,0c0.2,0,0.3,0,0.5,0l0,0h0c0,0,0,0,0,0c0,0,0,0,0,0
			c-0.2,0.3-0.4,0.5-0.7,0.8c-1,8.6,1.7,15.8,7.7,21.8c0.6,0.3,1.3,0.5,1.9,0.8C282.5,767.7,282.5,764,282.5,760.3z"/>
		<path class="st6" d="M318.3,869.2c3.6,3.3,7.1,6.9,10.7,10.4c0.6,0.8,1.1,1.6,1.7,2.4c2.4,1.5,1.6,1,4,2.5c0,0,0,0,0,0
			c0,0,0,0,0,0c0.1-3.1,0.4-6,0.6-8.8c0,0,0,0,0,0c0-0.6,0.1-1.1,0.1-1.7c0.1-2.1,0.3-4.2,0.4-6.3c0.2-3,0.5-6,0.7-9.1
			c0-0.3-0.4-0.6-0.7-0.9c0.1-0.6,0.3-1.2,0.5-1.9c-3.1,0.7-17,3.9-25.7,7.2c-0.1,0-0.1,0-0.2,0.1
			C313,865.1,315.7,866.9,318.3,869.2z"/>
		<path class="st10" d="M512.8,560.5c0-0.1-0.2-0.1-0.3-0.2c0,0.1-0.2,0.2-0.1,0.3c0,0.1,0.2,0.1,0.3,0.2
			C512.7,560.7,512.8,560.5,512.8,560.5z"/>
		<path class="st10" d="M512,562.4c-0.1,0-0.2-0.1-0.3-0.1c0,0.1-0.1,0.2-0.1,0.3c0.1,0,0.2,0.2,0.3,0.1
			C511.9,562.7,512,562.5,512,562.4z"/>
		<path class="st7" d="M273.1,748.2C273.1,748.2,273.1,748.2,273.1,748.2c0,0.3-0.1,0.5-0.2,0.8c0.2-0.3,0.4-0.5,0.7-0.8
			C273.4,748.2,273.3,748.2,273.1,748.2z"/>
		<path class="st10" d="M506.8,568.1c-0.1,0-0.1-0.1-0.2-0.1C506.7,568,506.7,568.1,506.8,568.1L506.8,568.1z"/>
		<path class="st11" d="M527.1,1000.3c-1.5-6.3-1.9-6.7-3-13.1c-1.2-7.2,13.8-31.3,18.4-36.9c0.9-1.2,1.3-2.4,0-3.1
			c-0.6-0.4-2.2,0.1-2.8,0.8c-3,3-5.7,6.2-8.7,9.3c-2.7,2.8-5.5,5.7-8.3,8.5c-0.1-9.8,0.8-19.4,3.1-28.9c1.2-5.1,3.1-10,4.8-15
			c0.7-2,1.6-3.9,2.4-5.8c-0.2-0.1-0.4-0.2-0.6-0.2c-9.4,11.7-14.2,25.6-17.1,40.2c-1.3,6.4-2.4,13-2.3,19.7c0,0,0,0,0,0
			c0,0,0,0,0,0c0,1,0,2.1,0.1,3.1c0.3,0.1,0.5,0.2,0.8,0.2c0.1-0.1,0.1-0.1,0.2-0.2c0.2,0.5,0.3,0.9,0.4,1.4
			c1.6,5.2,2.9,10.6,4.8,15.7c0.8,2.2,0.5,3.7,1.2,6C520.6,1001.9,527.2,1000.3,527.1,1000.3z"/>
		<path class="st11" d="M299.1,1013.6c0.4-2.8-0.9-7.9-0.4-10.5c0.6-3.1,1.1-6.2,1.9-9.2c0.8-3,1.8-6,2.8-8.9
			c0.8-2.5,2.2-4.9,2.6-7.5c0.6-5,0.7-10.2,0.9-15.3c0-1,0-2.1-0.3-3.1c0.2-0.6,0.3-1.1,0.2-1.7c-0.9-5.2-1.8-10.4-3.5-15.4
			c-2.2-6.3-5.1-12.4-8-18.4c-3.4-7.2-9.5-13.5-14.7-19.4c-0.3-0.3-0.8,0.3-1.5,0.1c1.8,3.1,4.1,5.4,5.3,8.3
			c2.5,5.8,5.9,11.3,7.7,17.3c2.1,7.2,3.5,14.6,5.2,21.9c0.4,1.7,1.2,3.3,1.9,5.2c-0.6,0.6-0.8,0.8-0.2,4.5c0,0-0.2-1.1-0.2-1.1
			c-3.6-6.5-9.2-9.2-14.8-13.2c3.8,5.6,7.5,11.3,11.3,17c-0.1,0.3-0.1,0.6,0,0.8c0.9,3.5,2.2,6.9,2.9,10.5c0.4,2.2,0.6,4.6,0.1,6.8
			c-0.7,3.3-2.2,6.5-3,9.8c-1.1,4.5-2,9.1-2.8,13.7c0,0.1,0,0.2,0,0.3c0,0,0,0,0,0c0,0,0.1,6.3,0.1,6.4c0,0.2,0-0.2,0,0
			C295.4,1013,295.8,1013,299.1,1013.6z"/>
		<path class="st12" d="M386.4,892.2c1.7-2.6,2.8-5.3,4.6-7.9c0.1-0.4,0.1-0.8,0.3-1.1c1.2-1.8,2.4-3.5,3.6-5.3
			c0.7-1,1.4-2.1,2.2-3.3c0.6,1.4,1.2,2.3,1.6,3.4c1,3.1,4.2,6,7.4,5.6c-0.4-2.9-0.8-5.8-1.2-8.7c-0.2-1.8,0.5-2.8,2.3-2.8
			c-0.2-1.9-0.4-3.9-0.7-5.9c-0.2-2-0.4-4-0.7-6c1.9,1.7,3.5,3.3,5.3,4.8c2.4,1.9,5,2.7,8,1.9c-0.9-1.4-1.8-2.8-2.6-4.2
			c-0.7-1.2-1.4-2.3-2-3.6c-1-2.3-0.5-3.4,1.9-4.5c-1.4-2.8-2.8-5.5-4.1-8.3c-0.3-0.6-0.6-1.7-0.4-1.9c1.1-0.9,0.7-2.2,1.1-3.3
			c1.1-2.8,1.2-5.6,1.1-8.5c0-0.4,0-0.9-0.2-1.1c-2.2-2.4-4.7-3.9-8-1.4c-1.1,0.8-2.2,1.8-3.4,2.5c-0.6,0.3-1.8,0.4-2.1,0
			c-2.4-2.3-4.8-4.7-7-7.3c-2.3-2.6-4.8-4.4-8.3-3.6c-2.7,0.6-5.4,1.5-8,2.3c-2.2,0.6-4.4,1.3-6.6,1.9c-0.1,0-0.1,0-0.2,0
			c0,0-0.1,0-0.1,0.1c0,0,0,0,0,0c0,0,0,0,0,0c-1,0.4-2,0.8-3,1.2c0.2,0.3,0.5,0.7,0.7,1c0.2,0.3,0.4,0.7,0.4,1
			c0.1,1.4,0.8,1.6,1.9,1.6c1.9-0.1,3.8-0.1,5.7-0.4c4.3-0.7,8.2,1.2,12.4,1.3c0.4,0,0.9,0.6,1.1,1.1c0.9,2,1.8,4,2.6,6
			c1.2,2.7,6.4,14.2,5.7,17.8c0,0.1-1.5,4.6-2.3,9.7c0,0.1,0,0.2,0,0.3c-0.4,3.1-1.3,6-2.3,8.6c-0.3,1-0.7,1.9-1,2.3c0,0,0,0,0,0
			c0,0,0,0,0,0c-0.2,0.2-0.4,0.3-0.7,0.3c-0.2,0.1-0.5,0.3-0.6,0.3c-0.2-0.6-0.5-1.3-0.7-1.9c-3.2,0.9-4.2-2.7-3.9-5.5
			c0-0.3,0-0.7,0-1.1c0,0,0,0,0,0c0,0,0,0,0,0.1c0-0.1,0-0.2,0-0.2c0-0.2,0-0.3,0-0.5c0-0.3,0-0.5,0-0.8c0.1-1.2,0.2-2.6,0.3-4
			c0-0.1,0-0.3,0-0.4c0.3-3.4,0.6-6.8,0.6-7.5c-1.3,1.6-3.3,2.4-4,4.7c-0.4,1.2-1.5,2.3-2.5,3.1c-0.5,0.4-1.7,0.3-2.4,0
			c-2.5-1-4.9-2.2-7.4-3.4c-0.3-0.3-0.5-0.5-0.8-0.8c0,0,0,0,0,0c0.3,0.3,1.1,4.6,1.4,6.4c0.2,1.5,0.8,3,0.9,4.5
			c0,0.4,0.1,0.9,0.1,1.5c0.2,2.8,0.3,5.6,0.3,8.3c0,1.5,0.1,4.1,0.2,6.2c0,0,0,0,0,0.1c0,0.1,0,0.2,0,0.2c0.2,3.6-0.6,7.2-0.5,10.7
			c0.1,2,1.1,4,1.7,5.9c0.1,0.2,0.4,0.4,0.6,0.4c1.2-0.2-2.2,9.5-6.6,14.7c0,0,0,0,0,0c0.1,0,0.1,0,0.2,0
			c2.7-0.6,11.7-16.7,12.4-17.8c1-1.7,2.2-3.4,3.3-5.1C384.9,894.6,385.7,893.4,386.4,892.2C386.3,892.2,386.4,892.2,386.4,892.2z
			 M385,871.2c0.3-0.3,0.5-0.6,0.7-0.9C385.6,870.6,385.3,870.9,385,871.2z"/>
		<polygon class="st9" points="293.7,788.7 293.7,788.7 293.7,788.7 		"/>
		<path class="st8" d="M370.1,826C370.1,826,370.1,826,370.1,826c0,0,0.1-0.1,0.1-0.1c0,0,0.1,0,0.2,0c1-7.8,1.2-15.6,0.7-23.4
			c-5.9-4.6-12.9-13.5-18.8-23.1c-0.2-0.4-0.4-0.7-0.7-1.1c0,0.1-0.1,0.1-0.1,0.2c-0.1,0.2-0.2,0.3-0.2,0.5c0.5,2.8,1.3,5.5,1.4,8.3
			c0.2,3,0.7,11,1.3,18.9c1,0.6,2,1.2,3.1,1.8c2.2,1.2,4.3,2.5,6.5,3.7c1.3,0.7,2.8,1.1,4.2,1.6c0,0.2,0,0.5,0,0.7
			c-1.5,0.1-2.9,0.1-4.4,0.2c-1.5,0-3.1,0.1-4.6,0c-1.4-0.1-2.8-0.2-4.2-0.3c0.4,5.5,0.8,10.1,1,11.5c4.4,0.1,8.8,0.2,13.2,0.3
			C369.1,825.6,369.6,825.8,370.1,826z"/>
		<path class="st8" d="M339.3,749.9c-1.1,4-2.5,7.9-3,11.9c-0.6,4.5-0.6,9.1-0.4,13.6c0.1,3,0.9,6,1.8,8.8c1.2,3.9,3.5,7.5,2.7,11.9
			c0,0.3,0.2,0.6,0.3,0.9c0.1-3.3,0.2-6.6,0.1-9.9c-0.1-2.8-0.2-5.6-0.4-8.4c-0.8-2-0.6-7.7-0.4-9.9c0,0,0-0.1,0-0.1
			c0-1,0.3-2.1,0.5-3.1c0.2,0,0.4,0,0.6,0c0,0,0,0,0,0l0.6,0l1.6,1.9l0,0.9c1.2,0.7,2.5,1.4,3.8,2c-4-7.8-6.8-15.4-7.1-20.9
			c0,0,0-0.1,0-0.1C339.8,749.5,339.4,749.7,339.3,749.9z"/>
		<path class="st6" d="M370.1,859.7c0.3,0.3,0.5,0.5,0.8,0.8c2.4,1.1,4.9,2.3,7.4,3.4c0.7,0.3,1.9,0.4,2.4,0c1-0.8,2.1-1.9,2.5-3.1
			c0.7-2.3,2.7-3.1,4-4.7c0-0.2,0-0.4,0-0.6c-1-2-2.1-3.9-3.2-5.9c-0.2-0.3-0.8-0.6-1.3-0.6c-2.5,0.1-4.9,0.3-7.3,0.3
			C373.9,849.3,369.6,858.2,370.1,859.7C370.1,859.7,370.1,859.7,370.1,859.7L370.1,859.7z"/>
		<path class="st8" d="M326.4,796.3c-0.6-0.7-0.9-1.6-1.6-2.8c-0.3,4.8,7.4,15.4,13.6,19.4c0.2-1.8,0.5-3.7,0.7-5.5v0
			c-0.9-0.3-1.9-0.4-2.7-0.9C332.5,803.7,329.4,800,326.4,796.3z"/>
		<path class="st9" d="M363.3,814.1c1.5,0,2.9-0.1,4.4-0.2c0-0.2,0-0.5,0-0.7c-1.4-0.5-2.9-0.9-4.2-1.6c-2.2-1.1-4.4-2.4-6.5-3.7
			c-1-0.6-2-1.2-3.1-1.8c0.2,2.6,0.4,5.2,0.5,7.6c1.4,0.1,2.8,0.3,4.2,0.3C360.3,814.1,361.8,814.1,363.3,814.1z"/>
		<path class="st13" d="M384.7,725.1c-0.7-0.7-1.3-1.5-2-2.2c0,0,0,0,0,0C383.3,723.6,384,724.3,384.7,725.1z"/>
		<path class="st7" d="M362.4,646.1c-0.1-0.3-0.2-0.4-0.3-0.5c-0.4-0.2-1,0-1.5,0c-0.7,0-1.5,0.2-2.6,0.3c0.6-1,0.8-1.6,1.1-2
			c1.3-1.4,0.4-2.4-0.6-3.1c-0.6-0.5-1.7-0.5-2.5-0.3c-7.4,1.4-13,5.7-17.6,11.7c-3.6,4.8-6.4,10.1-8.4,15.8
			c-2.9,8.1-4.8,16.3-4.9,25c-0.1,3.1-0.4,6.2-0.3,9.3c0.1,7.8-1.1,15.3-3.1,22.8c-1.8,6.6-4.3,12.7-8.9,17.8
			c-0.2,0.2-0.2,0.6-0.4,1.4c7.5-4.1,12.5-10,16.1-17.2c3.5-7,5.4-14.6,6.2-22.5c1.4,6.2,1.9,12.4,0.3,18.7c2.4-2.8,4.5-5.8,5.1-9.5
			c0.4-2.7,0.3-5.6,0.4-8.4c0-1.1,0-2.3,0.1-3.4c-1.5-7.6-1.9-15.3-0.7-23c1.2-8.2,3.4-16,7.9-23c2-3.1,4.2-6,7.6-7.4
			c0.3-0.1,0.6-0.2,0.9-0.3c0.1,0,0.2-0.1,0.3-0.1c0.2-0.1,0.4-0.1,0.6-0.2c0.2,0,0.3-0.1,0.5-0.1c0.1,0,0.3-0.1,0.4-0.1
			c0.2,0,0.3-0.1,0.5-0.1c0.1,0,0.3-0.1,0.4-0.1c0.2,0,0.4-0.1,0.6-0.1c0.1,0,0.2,0,0.3-0.1c0.3-0.1,0.6-0.1,0.9-0.2
			c0.1,0,0.2,0,0.3-0.1c0.2,0,0.4-0.1,0.6-0.1c0.1,0,0.2-0.1,0.4-0.1c0.2,0,0.4-0.1,0.6-0.1C362.4,646.4,362.4,646.2,362.4,646.1z"
			/>
		<path class="st7" d="M341.2,737.1c0.1,0,0.1,0,0.2,0c0.1,0,0.2,0,0.3,0v0c0-0.3,0.1-0.6,0.1-0.8
			C341.6,736.5,341.4,736.8,341.2,737.1C341.2,737.1,341.2,737.1,341.2,737.1z"/>
		<path class="st14" d="M414.6,859c0.5,1.2,1.3,2.4,2,3.6c0.8,1.4,1.7,2.8,2.6,4.2c0.3,0,0.5,0.1,0.8,0.1c0.6,0,1.2,0,1.8,0
			c0-0.6,0-1.3-0.1-1.9c-0.3-1.2-0.7-2.3-1.3-3.4c-1.2-2.4-2.5-4.8-3.8-7.2C414.1,855.6,413.6,856.7,414.6,859z"/>
		<path class="st14" d="M404.9,874.7c0.4,2.9,0.8,5.8,1.2,8.7c0.5,0.5,1,1.1,1.5,1.6c0.2-0.1,0.4-0.1,0.6-0.2
			c-0.1-1.6,0-3.2-0.1-4.8c0-1.1,0-2.2-0.1-3.2c-0.1-0.8-0.1-1.6-0.3-2.4c-0.1-0.4-0.1-0.8-0.2-1.2c-0.1-0.4-0.2-0.8-0.3-1.2
			C405.4,872,404.6,872.9,404.9,874.7z"/>
		<path class="st12" d="M360.3,789.8c-0.1,0.1-0.2,0.3-0.2,0.4c0.1,0.1,0.2,0.3,0.4,0.4c0,0,0,0,0,0c0,0,0,0,0,0
			C360.4,790.4,360.4,790.1,360.3,789.8z"/>
		<path class="st15" d="M394.8,787.9c4.5,5.1,9.4,9.1,16.7,8.3c5-0.6,9.7-1.6,13.3-5.6c3.7-4.2,6.2-9.1,8.3-14.3
			c0.3-0.9,0.9-1.6,1.6-2.8c-4.7-0.9-9.3-1.9-14-2.6c-1.8-0.2-3.9,0.1-5.6,0.8c-2.8,1.1-5.4,2.1-8.4,1.1c-2.1-0.7-4.1-0.4-6,0.5
			c-3.7,1.7-7.3,3.5-11,5.3c-0.9,0.5-1.8,1-2.4,1.3c0.9,0.7,1.8,1.2,2.4,1.9C391.6,783.8,393.1,786,394.8,787.9z M407.6,792.6
			c-1.4-0.5-2.8-1.1-4.2-1.7c-0.1-0.1,0-0.8,0.1-1.3c1.6,0.2,3.2,0.5,4.8,0.7c1.4,0.2,2.8,0.3,4.6,0.5
			C411.3,793.6,409.6,793.6,407.6,792.6z M392.6,779.8c1.1-0.1,2-0.1,2.9-0.2c3.5,0.1,6.9,0,10.4,0.2c6.2,0.4,11.9-1.8,17.7-3.4
			c1.2-0.3,2.5-0.6,3.7-0.8c1.2-0.3,2.3-0.6,3.5-0.9c-3.7,6.7-9.3,10.5-16.3,11.8c-8.5,1.6-16.1-0.1-23-6.7
			C391.9,779.9,392.3,779.9,392.6,779.8z"/>
		<path class="st12" d="M399.5,759.7c0.6-2.2,2-2.8,4.2-1.7c0,0.1,0.1,0.2,0.2,0.2c0.5,0.4,0.9,0.8,1.4,1.2l0.1,0.1l0.1,0
			c0.2,0.1,0.4,0.3,0.6,0.4l0,0c0,0-0.1,0-0.1,0l0,0l0,0c0,0,0,0.1,0,0.1c0,0,0,0,0,0c0.1,0.3,0.3,0.7,0.4,1
			c0.3,1.6,1.6,1.5,2.7,1.5c1.2,0,2.5-0.4,2.7-2.1c0.1-0.4,0.3-0.8,0.4-1.1c0.1-0.2,0.1-0.3,0.2-0.5l0,0c0,0,0,0,0,0
			c0.3-0.3,0.6-0.6,0.9-0.9c0.5-0.6,0.9-1.2,1.4-1.8c1.5-0.4,3-0.6,3.9,1.2c0,0,0,0,0,0c0.6,0,1.4-0.6,2-1.3
			c0.1-0.1,0.2-0.2,0.3-0.3c0.1-0.1,0.2-0.2,0.3-0.4c0.4-0.6,0.7-1.3,0.8-1.8c0.5-3-0.7-5.4-2.1-7.7c-1-0.5-6.5-9.4-8-9.6
			c-1.3-0.1,0.8,9.2,0.9,10.4c0.6,5-0.8,6.4-5.8,6.4c-2.6,0-3.5-1.4-3.7-3.8c-0.1-1.5-0.4-11.5-1.3-11.9c-1.5-0.8-6.4,12.2-7.4,15.2
			C393.6,755.2,396.6,759.5,399.5,759.7z"/>
		<path class="st16" d="M425,692.4c3.9-1.8,7.9-3.6,11.9-5.1c3.3-1.3,6.6-2,10.2-0.9c4.9,1.4,8.8,4.4,12.8,7.5
			c-0.3-0.6-0.5-1.3-1-1.8c-2.5-2.6-4.9-5.4-7.7-7.6c-3.8-3.1-8.4-4-13.1-2.5c-4.6,1.4-9.1,3.1-13.6,4.8c-2.6,1.1-5.1,2.6-7.7,4
			C420,693.9,421.3,694.1,425,692.4z"/>
		<path class="st16" d="M364.2,696.5c4.9,0.7,9.7,1.5,14.6,2.2c0.5,0.1,1.1,0,1.7-0.1c0.4,0,0.7,0,0.8-0.1c0,0,0,0,0,0l0,0
			c0,0,0,0,0,0c0,0,0,0,0,0c0.3-0.2,0.5-0.4,0.7-0.5c0.8-0.5,1-0.3,1.6-1.2c0,0,0.1-0.1,0.1-0.1c0.2-0.3,0.3-0.6,0.4-0.8
			c0-0.1,0-0.1,0-0.2c0,0,0,0,0,0c0.1-0.6-0.3-0.8-0.3-0.8c-0.2-0.4-2.9-1.2-2.9-1.2l-1.5-0.4l-7.1-0.8l-8.7-1
			c-10.4-0.8-16.9,8.6-19.4,17.4c0.4-0.3,0.8-0.7,1.1-1.2c1.1-1.4,2.2-3,3.3-4.3C352.7,698.7,357.6,695.6,364.2,696.5z"/>
		<path class="st16" d="M452.5,705.2c0-0.2,0-0.3,0-0.5c0.9-0.7,1.8-1.5,2.9-2.4c-2,0.7-3.8,1.3-5.5,1.9c-0.1-0.2-0.2-0.4-0.2-0.6
			c0.5-0.6,1.1-1.2,1.6-1.8c-0.1-0.1-0.1-0.1-0.2-0.2c-0.7,0.3-1.4,0.9-2.1,1.1c-0.5,0.1-1,0.1-1.6-0.2c0.5-0.7,0.9-1.2,1.4-1.9
			c-1.3,0.5-2.3,1-3.7,1.5c0.3-1,0.5-1.4,0.6-1.8c-0.9,0.3-1.8,0.6-3.1,1.1c0.5-1.3,0.7-2.1,1-2.8c0,0,0,0,0,0c0,0,0,0,0,0
			c0,0,0,0,0,0c0,0,0,0,0,0c-0.4,0.4-0.7,0.9-1.1,1.3c-0.5,0.6-0.8,0.9-1.1,1.1c-0.5,0.2-0.8-0.2-1.3-1.2c-0.5,0.5-1,1.3-1.6,1.5
			c-5.8,1.4-9,5.6-11.6,10.7c-0.4,0.9-1,1.7-1.6,2.5c-0.1,0.1-0.1,0.2-0.2,0.2l0,0v0c-0.4,1.7-0.8,3.4-1.2,5.1c0,0,0,0.1,0,0.1
			c0,0.1,0.1,0.2,0.2,0.2s0.1,0.2,0.2,0.2c0.5-0.9,0.9-1.9,1.4-2.8c0.4-0.8,0.8-1.5,1.2-2.2c0.3-0.5,0.6-0.9,0.9-1.3
			c0.4-0.7,0.9-1.3,1.4-1.9c0.4-0.5,0.9-1,1.4-1.5c0.4-0.3,0.7-0.7,1.1-1c0.7-0.6,1.4-1.1,2.2-1.5c1.2-0.7,2.5-1.3,4-1.7
			c5.1-1.6,9.7-0.4,14.1,2.6c1.4,1,2,3.1,1,5.2c-0.8,1.7-2.1,3.2-3.2,4.7c0,0,0,0,0,0c0,0,0,0,0,0c1.8-0.4,3-1.4,3.9-2.6
			c0.9-1.2,1.5-2.8,2-4.5c0.5,0.4,0.9,0.7,1.2,0.9c0.1-0.1,0.2-0.2,0.3-0.3c-1.3-1.9-2.6-3.8-3.7-5.5c2.1-0.9,4-1.7,6-2.5
			c0-0.1-0.1-0.1-0.1-0.2C457,704.6,454.8,704.9,452.5,705.2z"/>
		<path class="st17" d="M452.8,714.1c1-2.2,0.3-4.2-1-5.2c0,3.6-1.1,6.7-4.6,8.1c-4.3,1.8-8.6-0.4-9.9-4.9c-0.1-0.3-0.2-0.6-0.2-0.9
			c-0.1-0.3-0.1-0.5-0.2-0.8c0,0,0,0,0,0c0.3-1.4,0.6-2.7,0.8-4.1c-1.5,0.4-2.8,1-4,1.7c-0.8,0.5-1.5,1-2.2,1.5
			c-0.4,0.3-0.8,0.6-1.1,1c-0.5,0.5-1,1-1.4,1.5c-0.5,0.6-1,1.2-1.4,1.9c-0.3,0.4-0.6,0.9-0.9,1.3c-0.4,0.7-0.8,1.5-1.2,2.2
			c-0.5,0.9-0.9,1.9-1.4,2.8l0,0c0,0,0,0,0,0c0,0.4,0.4,1.3,0.5,1.5c0.1,0,0.1,0,0.2,0.1c0,0,0,0,0,0c0.2,0,9.3-0.9,13.7-0.9
			c3.3,0,6.5-1,9.8-1.6c0.2-0.1,0.3-0.2,0.5-0.3c0,0,0,0,0,0c0,0-0.1,0-0.1,0c0.3-0.1,0.5-0.3,0.8-0.4c0,0,0,0.1,0,0.1c0,0,0,0,0,0
			C450.7,717.3,452,715.8,452.8,714.1z"/>
		<path class="st18" d="M382.7,722.9c-0.9-1-1.8-2-2.7-3c-0.3,1.3-0.5,2.6-1,3.8c-1.5,3.4-5,5.1-8.6,4.2c-3.3-0.8-5.5-4.1-5.3-7.7
			c0-0.8,0.2-1.7,0.3-2.5c0,0,0,0,0,0c0.5-0.8,0.9-1.5,1.4-2.3c-2,0.5-4,1-5.9,1.5c-1.4,1.1-2.8,2-4.1,3.2c-0.2,0.2-0.4,0.5-0.6,0.7
			c-0.6,0.8-1,1.7-1.6,2.5c0,0,0,0,0,0c0.1,0.1,0.3,0.2,0.4,0.4l0,0c0.1,1.3,0.5,2.5,1.1,3.5c1.1,1.6,2.8,2.8,5.3,3.4
			c0.4,0,0.8,0,1.3,0c0.4,0,0.9,0,1.3,0.1c0,0,0,0,0.1,0c0.4,0,0.9,0,1.3,0c0.4,0,0.9-0.1,1.3-0.1c3.8-0.7,7.6-1.8,11.4-2.6
			c1.9-0.4,3.9-0.4,5.9-0.6c0.4-0.5,0.8-1,1.2-1.5c-0.2-0.2-0.3-0.4-0.5-0.6C384,724.3,383.3,723.6,382.7,722.9z"/>
		<path class="st16" d="M351.3,726c0.7-0.5,1.1-0.8,1.4-1.1c0.6,1.9,1.9,3.5,3.5,4.5c0.4,0.3,0.8,0.5,1.2,0.7c0.6,0.3,1.3,0.5,2,0.5
			c0.3,0,0.7,0.1,1,0c0.3,0,0.7-0.1,1-0.1c-2.5-0.6-4.2-1.7-5.3-3.4c-0.6-1-1-2.2-1.1-3.5c-0.1-0.1-0.3-0.2-0.4-0.4c0,0,0,0,0,0
			c0.5-0.8,1-1.7,1.6-2.5c0.2-0.3,0.4-0.5,0.6-0.7c1.2-1.2,2.7-2.2,4.1-3.2c-0.3-0.9-0.7-1.8-1.4-2.2c0.7,0.4,1.1,1.2,1.4,2.2
			c2-0.5,4-1,5.9-1.5c0.3,0,0.6-0.1,0.9-0.1c0.3,0,0.6,0,0.9,0c1.2,0,2.4,0.2,3.5,0.5c0.6,0.2,1.1,0.3,1.7,0.5
			c0.8,0.3,1.6,0.7,2.4,1.1c1.3,0.7,2.5,1.6,3.8,2.5c0,0,0,0,0,0c0,0,0,0,0,0c0.9,1,1.8,2,2.7,3c0.7,0.7,1.3,1.5,2,2.2
			c0.2,0.2,0.3,0.4,0.5,0.6c0.2-0.1,0.4-0.3,0.5-0.4c-0.9-1.5-1.9-2.9-2.8-4.4c0,0,0-0.1-0.1-0.1c-3.1-4.4-6.7-8.1-12-9.8
			c-2-0.2-4.1-0.1-5.8-1.2c-0.2-0.2-0.4-0.3-0.6-0.5c-0.1-0.1-0.3-0.2-0.4-0.4c0,0,0,0,0,0c0,0-0.1,0.1-0.1,0.1
			c0.3,0.6,0.5,1.2,0.8,1.7c-0.1,0.1-0.2,0.3-0.2,0.4c-1-0.5-2-1.1-3.3-1.8c0.5,0.9,0.9,1.5,1.4,2.3c-1.1,0-1.9,0-2.7,0
			c0.1,0.2,0.2,0.4,0.3,0.6c-0.3,0.2-0.7,0.7-1,0.6c-0.2,0-0.4,0-0.6-0.1c-0.6-0.1-1.1-0.3-1.7-0.4c0,0,0,0,0,0c0,0,0,0,0,0
			c0,0,0,0,0,0c-0.1,0.1-0.1,0.2-0.2,0.3c0.5,0.6,1,1.2,1.5,1.8c-1.3-0.1-2.6-0.1-4.1-0.2c1,0.5,1.8,1,2.6,1.4
			c0,0.2-0.1,0.5-0.1,0.7c-1.8-0.2-3.7-0.3-5.9-0.5c1.3,0.7,2.4,1.2,3.4,1.7c0,0.2,0,0.3,0,0.5c-2.1,0.2-4.3,0.4-6.4,0.7
			c0,0.1-0.1,0.2-0.1,0.3c2.1,0.3,4.1,0.6,6.2,0.9C352.9,721.8,352.1,723.8,351.3,726z M353.3,722.6c0-0.1-0.1-0.2-0.1-0.2
			c0,0,0.1,0,0.1,0C353.4,722.4,353.3,722.4,353.3,722.6z"/>
		<path class="st7" d="M405.9,759.8L405.9,759.8L405.9,759.8C405.9,759.8,406,759.7,405.9,759.8L405.9,759.8
			c-0.1-0.2-0.3-0.3-0.5-0.4l-0.1,0l-0.1-0.1c-0.5-0.4-0.9-0.8-1.4-1.2c-0.1,0-0.2-0.1-0.2-0.2c-2.2-1.1-3.6-0.5-4.2,1.7
			c2.4-0.2,4.8-0.2,6.9,1.2c-0.1-0.3-0.3-0.7-0.4-1C406,759.8,406,759.8,405.9,759.8z"/>
		<path class="st9" d="M414.6,756c-0.5,0.6-0.9,1.2-1.4,1.8c-0.3,0.3-0.6,0.6-0.9,0.9c0,0,0,0,0,0l0,0c-0.1,0.2-0.1,0.3-0.2,0.5
			c-0.1,0.4-0.3,0.8-0.4,1.1c1-0.8,2-1.6,3.2-2.1c1.1-0.5,2.3-0.9,3.6-1c0,0,0,0,0,0C417.6,755.4,416.2,755.6,414.6,756z"/>
		<path class="st19" d="M451.2,701.8c0.3-0.3,0.5-0.6,0.8-0.8l0,0c0,0,0,0,0,0l0,0.1c-0.3,0.2-0.7,0.4-1,0.6
			C451.1,701.7,451.1,701.7,451.2,701.8z"/>
		<path class="st8" d="M355.8,712.1L355.8,712.1L355.8,712.1C355.8,712.2,355.8,712.2,355.8,712.1
			C355.9,712.2,355.9,712.2,355.8,712.1C355.9,712.1,355.8,712.1,355.8,712.1z"/>
		<path class="st8" d="M356.8,712.3C356.8,712.3,356.8,712.3,356.8,712.3c-0.1,0-0.2,0-0.4,0c-0.2,0-0.4,0-0.5-0.1
			c0.2,0.1,0.4,0.3,0.7,0.4C356.6,712.5,356.7,712.4,356.8,712.3C356.8,712.3,356.8,712.3,356.8,712.3z"/>
		<path class="st20" d="M380.1,809.3L380.1,809.3c-0.1,0-0.1-0.1-0.2-0.1C380,809.2,380.1,809.3,380.1,809.3z"/>
		<polygon class="st8" points="355.8,712.1 355.8,712.1 355.8,712.1 355.8,712.1 		"/>
		<path class="st8" d="M364,708.8c-0.1,0-0.2-0.1-0.4-0.1c0.1,0.1,0.1,0.2,0.2,0.2C364,708.9,364,708.9,364,708.8
			C364,708.8,364,708.8,364,708.8z"/>
		<polygon class="st19" points="443.5,698.6 443.5,698.6 443.5,698.5 443.5,698.6 443.5,698.6 		"/>
		<polygon class="st19" points="445.9,699.6 446,699.7 446,699.6 		"/>
		<path class="st12" d="M455.4,790.7c0,0-0.1,0.1-0.1,0.2C455.4,790.8,455.4,790.7,455.4,790.7z"/>
		<path class="st7" d="M475.6,714.7c0,0,0-0.1-0.1-0.1c0,0-0.1,0-0.2,0c0,0.1,0.1,0.1,0.1,0.2C475.6,714.8,475.6,714.7,475.6,714.7z
			"/>
		<path class="st8" d="M414.4,786.6c7.1-1.4,12.6-5.2,16.3-11.8c-1.2,0.3-2.3,0.6-3.5,0.9c-5.4,6.2-12.5,8.3-20.3,7.9
			c-4.2-0.2-8.1-1.2-11.5-4c0,0,0,0,0,0c-0.9,0.1-1.8,0.1-2.9,0.2c-0.4,0-0.8,0.1-1.2,0.1C398.3,786.4,406,788.2,414.4,786.6z"/>
		<path class="st10" d="M407,783.6c7.8,0.3,14.9-1.7,20.3-7.9c-1.2,0.3-2.5,0.5-3.7,0.8c-5.8,1.6-11.5,3.7-17.7,3.4
			c-3.5-0.2-6.9-0.2-10.4-0.2c0,0,0,0,0,0C398.8,782.4,402.8,783.4,407,783.6z"/>
		<path class="st21" d="M403.5,789.6c0,0.4-0.2,1.2-0.1,1.3c1.4,0.6,2.8,1.2,4.2,1.7c1.9,1,3.6,1,5.3-1.8c-1.8-0.2-3.2-0.4-4.6-0.5
			C406.7,790.1,405.1,789.8,403.5,789.6z"/>
		<path class="st22" d="M436.8,710.4c0.1,0.3,0.1,0.5,0.2,0.8c0.1,0.3,0.1,0.6,0.2,0.9c1.3,4.5,5.6,6.7,9.9,4.9
			c3.5-1.5,4.5-4.5,4.6-8.1c-4.3-3-9-4.1-14.1-2.6C437.4,707.7,437.1,709.1,436.8,710.4C436.8,710.4,436.8,710.4,436.8,710.4z
			 M440.4,707.7c0.1-0.3,0.4-0.4,0.8-0.6c0.3-0.1,0.8-0.1,1.4-0.1c1.6-0.8,3.2-0.6,4.4,0.7c1.2,1.3,1.3,3.1,0.3,4.3
			c-0.7,0.9-2.3,1.5-3.4,1.5c-0.5,0-0.9-0.1-1.3-0.3c-0.1-0.1-0.3-0.2-0.4-0.3c-0.8-0.7-1.2-1.9-1.3-3.1
			C440.3,708.8,440.2,708.1,440.4,707.7z"/>
		<path class="st22" d="M365.4,717.6C365.4,717.6,365.4,717.6,365.4,717.6c-0.1,0.8-0.3,1.7-0.3,2.5c-0.2,3.7,2.1,6.9,5.3,7.7
			c3.6,0.9,7.2-0.8,8.6-4.2c0.5-1.2,0.7-2.5,1-3.8c0,0,0,0,0,0c0,0,0,0,0,0c0,0,0,0,0,0c-1.2-1-2.5-1.8-3.8-2.5
			c-0.8-0.4-1.6-0.8-2.4-1.1c-0.5-0.2-1.1-0.4-1.7-0.5c-1.1-0.3-2.3-0.5-3.5-0.5c-0.3,0-0.6,0-0.9,0c-0.3,0-0.6,0-0.9,0.1
			C366.3,716.1,365.9,716.8,365.4,717.6z M369.4,718.6c0.1-0.8,0.3-1.6,0.4-2.4c0.8,0.2,1.6,0.4,2.3,0.6c0.7,0.2,1.4,0.4,1.9,0.6
			c0.3,0.1,0.5,0.3,0.8,0.5c1.5,1.2,1.5,3.1-0.1,5.5c0,0,0,0,0,0c0,0,0,0,0,0c-0.2,0.1-0.4,0.3-0.6,0.4c-1.3-0.1-2.5-0.2-3.8-0.3
			c0,0-0.1,0-0.1,0l0-0.1c-0.7-0.5-1.1-1-1.2-1.6C368.7,720.8,369,719.7,369.4,718.6z"/>
		<path class="st8" d="M353.3,722.6c0-0.1,0.1-0.2,0.1-0.3c0,0-0.1,0-0.1,0C353.2,722.4,353.3,722.5,353.3,722.6z"/>
		<path class="st19" d="M442.8,709.2c-0.3,0.5-1.4,0.4-2.1,0.6c0.2,1.2,0.5,2.4,1.3,3.1c0.1,0.1,0.2,0.2,0.4,0.3
			c0.4,0.2,0.8,0.3,1.3,0.3c1.2,0,2.7-0.6,3.4-1.5c1-1.2,1-3-0.3-4.3c-1.2-1.3-2.8-1.6-4.4-0.7C442.6,707.8,443.1,708.8,442.8,709.2
			z"/>
		<path class="st17" d="M440.7,709.9c0.7-0.2,1.8-0.1,2.1-0.6c0.3-0.5-0.2-1.5-0.3-2.3c-0.6,0-1,0-1.4,0.1c-0.4,0.1-0.6,0.3-0.8,0.6
			C440.2,708.1,440.3,708.8,440.7,709.9z"/>
		<path class="st19" d="M369.4,718.6c-0.3,1.1-0.6,2.2-0.4,3.2c0.2,0.6,0.5,1.1,1.2,1.6l0.1,0c0,0,0,0.1,0,0.1l0,0
			c1.3,0.1,2.5,0.2,3.8,0.3c0.2-0.1,0.4-0.3,0.6-0.4c0,0,0,0,0,0c1.6-2.3,1.6-4.3,0.1-5.5c-0.2-0.2-0.5-0.3-0.8-0.5
			c-0.5-0.3-1.1-0.5-1.9-0.6C371.7,719.1,371.4,719.3,369.4,718.6z"/>
		<path class="st18" d="M372.1,716.8c-0.8-0.2-1.6-0.4-2.3-0.6c-0.1,0.8-0.3,1.6-0.4,2.4C371.4,719.3,371.7,719.1,372.1,716.8z"/>
		<polygon class="st9" points="370.3,723.4 370.2,723.4 370.2,723.5 370.3,723.5 370.3,723.5 		"/>
		<path class="st9" d="M469,768.8c-0.1,1.6-0.5,3.3-0.4,4.8c0.2,3.3,1.5,7.7,1.9,11c1.5,5.2,7,8.6,10.6,7.8c-3.7-2-4.3-5.4-5.6-9
			c-0.3-0.7-0.4-0.6-0.8-2.5c0,0,0,0,0,0c0-0.6,0-1.2-0.1-1.8c-0.1-2.8-0.4-5.9-0.2-7.5c0.2-1.5,0.4-2.9,0.6-4.4
			c0.8-4.3,2-8.6,3.8-12.6c0.4-0.9,0.4-1.9,0.6-2.9c-0.2-1.6-0.4-3.1-0.6-4.7c-0.6-5.5-1.3-11-1.7-16.5c-0.3-3.8-0.3-7.6-0.5-11.3
			c0,0,0,0,0,0c0.1-1.5,0.1-5.4,0-6.8c-0.4-3.3-1-6.6-1.5-9.9c-0.8-5.1-2.1-10.1-4.3-14.7c-0.1-0.3-0.3-0.5-0.4-0.8
			c-0.5-0.8-1.1-1.5-1.6-2.3c0,0,0,0,0,0c0,0,0,0,0,0c0,0,0,0,0,0.1c0.3,0.8,0.5,1.6,0.8,2.4c3,9.7,4.6,22,5.1,31.8
			c0,0.1,0,0.2,0,0.3c0,0,0,0,0,0c0,0.6,0,1.2-0.1,1.9c0,0.6-0.1,1.2-0.1,1.9c-0.4,5.1-0.8,10.2-1.2,15.3c0,0,0,0,0,0
			c0,0.2,0,0.5-0.1,0.7c0,0.3,0,0.5,0,0.8c-0.5,3.7-1,7.4-1.5,11.1c-0.9,4.6-1.7,9.2-2.6,13.8c-0.1,0.3-0.1,0.7-0.1,1.2
			c0,0.1,0,0.1,0,0.2C468.9,767.3,469,768.5,469,768.8z M475.6,714.6c0,0,0,0.1,0.1,0.1c0,0-0.1,0.1-0.1,0.1c0-0.1-0.1-0.1-0.1-0.2
			C475.5,714.6,475.5,714.6,475.6,714.6z"/>
		<path class="st13" d="M341.2,765.6c-0.2,0-0.4,0-0.6,0L341.2,765.6C341.2,765.6,341.2,765.6,341.2,765.6z"/>
		<path class="st13" d="M340.6,765.6c-0.2,1-0.5,2.1-0.5,3.1c0,0,0,0.1,0,0.1c0-0.5,0-0.8,0-0.8L340.6,765.6z"/>
		<path class="st13" d="M359.8,1016.6c-0.1-1.3-0.2-2.3-0.2-2.8c0-0.1,0-0.2,0-0.3c0.5-15.4,1-30.7,1.7-46.1
			c0.2-5.5,0.7-11,1.2-16.5c0.9-9.4,1.9-18.7,3-28.1c0.1-0.9,0.6-1.9,1.3-2.4c0.2-0.2,0.4-0.3,0.5-0.5c0.3-0.3,0.6-0.6,0.9-1
			c4.4-5.2,7.8-14.9,6.6-14.7c-0.2,0-0.5-0.2-0.6-0.4c-0.6-2-1.6-3.9-1.7-5.9c-0.1-3.6,0.7-7.2,0.5-10.7c0-0.1,0-0.2,0-0.3
			c-0.1-2.1-0.2-4.7-0.2-6.2c0-2.8-0.1-5.6-0.3-8.3c0-0.5,0-1-0.1-1.5c-0.1-1.5-0.7-3-0.9-4.5c-0.3-1.9-1.1-6.2-1.4-6.4c0,0,0,0,0,0
			c-0.5-1.5,3.8-10.4,5.1-10.3c2.4,0,4.9-0.2,7.3-0.3c0.4,0,1.1,0.3,1.3,0.6c1.1,1.9,2.2,3.9,3.2,5.9c0.1,0.2,0,0.4,0,0.6
			c0,0.7-0.3,4.1-0.6,7.5c0,0.1,0,0.3,0,0.4c-0.1,1.4-0.2,2.8-0.3,4c0,0.3,0,0.5,0,0.8c0,0.2,0,0.5,0,0.7c0,0.4,0,0.8,0,1.1
			c-0.3,2.7,0.7,6.4,3.9,5.5c0,0,0-0.1,0-0.1c0.2-0.7,0.3-1.3,0.5-2c0.6-2.2,1.1-4.4,1.7-6.5c0.5-1.8,1.5-2.3,3.2-1.6
			c0,0.2-0.1,0.4-0.1,0.6c0,0,0,0,0,0c0-0.1,0-0.2,0-0.3c0.8-5.1,2.3-9.6,2.3-9.7c0.7-3.6-4.5-15.1-5.7-17.8c-0.9-2-1.7-4-2.6-6
			c-0.2-0.5-0.8-1.1-1.1-1.1c-4.2-0.1-8.1-2-12.4-1.3c-1.9,0.3-3.8,0.3-5.7,0.4c-1.1,0.1-1.8-0.2-1.9-1.6c0-0.3-0.2-0.7-0.4-1
			c-0.2-0.3-0.5-0.7-0.7-1c-3,1-6.1,1.9-9.1,2.9c-2.1,0.7-2.4,0.4-2.5-1.9c0-1,0-2,0-2.9c-0.2-1.4-0.5-6-1-11.5
			c-0.2-2.4-0.4-5-0.5-7.6c-0.6-7.9-1.1-15.9-1.3-18.9c-0.2-2.8-0.9-5.5-1.4-8.3c0-0.1,0.1-0.3,0.2-0.5c0-0.1,0.1-0.1,0.1-0.2
			c-0.1-0.1-0.1-0.2-0.2-0.3c0.3,0.5,0.6,0.9,0.8,1.4c5.9,9.6,12.9,18.5,18.8,23.1c1.5,1.2,2.9,2.1,4.2,2.6c0,0,0,0,0,0c0,0,0,0,0,0
			c0.2,1,19.9,13.4,20.4,13.6c3.6,1.4,7.1,3.4,10.8,4.4c3.3,0.9,7,1.4,10.4,1.1c6-0.5,11.2-3.7,15.9-7.3c5.9-4.5,11.2-9.7,15.8-15.7
			c0.2-0.2,0.4-0.5,0.6-0.7c0.1-0.1,0.2-0.2,0.3-0.4c1.1-1.1,2.4-2.4,2.4-2.4c0,0,0,0,0,0c2-3.1,3.7-6,5.3-8.6
			c0.1-0.1,0.2-0.3,0.3-0.4c0,0,0,0-0.1,0c5.7-9.6,9.2-16.5,11.5-22.5c0-0.1,0-0.1,0.1-0.2c0-0.5,0-1,0.1-1.2
			c0.9-4.6,1.7-9.2,2.6-13.8c0.5-3.7,1-7.4,1.5-11.1c0-0.3,0-0.5,0-0.8c0-0.2,0-0.5,0.1-0.7c0,0,0,0,0,0c0.4-5.1,0.8-10.2,1.2-15.3
			c0-0.6,0.1-1.2,0.1-1.9c0-0.6,0-1.2,0.1-1.8c0,0,0,0,0,0c0-0.1,0-0.2,0-0.3c-0.5-9.8-2.1-22.1-5.1-31.8c-0.3-0.8-0.5-1.6-0.8-2.4
			c0,0,0,0,0-0.1c0,0,0,0,0,0c0,0,0,0,0,0c-0.5-1-0.9-2-1.4-3c-0.3-0.5-0.5-1.1-0.8-1.6c-0.2-0.3-0.3-0.5-0.5-0.8
			c-0.1-0.2-0.3-0.5-0.4-0.7c-0.2-0.3-0.4-0.5-0.5-0.8c-0.1-0.2-0.3-0.4-0.4-0.6c-0.2-0.2-0.3-0.5-0.5-0.7c-0.2-0.2-0.3-0.5-0.5-0.7
			c-0.2-0.3-0.4-0.5-0.6-0.8c-0.2-0.2-0.3-0.4-0.5-0.6c-0.2-0.2-0.4-0.4-0.5-0.6c-0.2-0.2-0.4-0.4-0.6-0.7c-0.2-0.2-0.3-0.3-0.5-0.5
			c-0.2-0.2-0.4-0.5-0.7-0.7c-0.2-0.2-0.4-0.4-0.6-0.6c-0.2-0.2-0.4-0.4-0.6-0.6c-0.2-0.2-0.4-0.4-0.6-0.6c-0.2-0.2-0.4-0.4-0.6-0.6
			c-0.2-0.2-0.4-0.4-0.6-0.5c-0.2-0.2-0.4-0.4-0.7-0.6c-0.2-0.1-0.4-0.3-0.5-0.4c-0.3-0.2-0.5-0.4-0.8-0.6c-0.2-0.1-0.4-0.3-0.5-0.4
			c-0.3-0.2-0.5-0.4-0.8-0.6c-0.2-0.1-0.4-0.3-0.5-0.4c-0.3-0.2-0.6-0.4-0.9-0.6c-0.2-0.2-0.5-0.3-0.7-0.5c-0.2-0.2-0.5-0.3-0.7-0.5
			c-0.2-0.2-0.5-0.3-0.7-0.5c-0.2-0.2-0.5-0.3-0.7-0.5c-0.2-0.1-0.4-0.3-0.6-0.4c-0.3-0.2-0.6-0.4-0.9-0.5c0,0,0,0,0,0c0,0,0,0,0,0
			c-0.3-0.1-0.6-0.3-0.9-0.5c-0.5-0.3-1-0.5-1.6-0.8c-0.2-0.1-0.4-0.2-0.6-0.3c-0.2-0.1-0.5-0.2-0.7-0.4c-0.3-0.1-0.6-0.3-0.8-0.4
			c-0.5-0.3-1-0.5-1.6-0.7c-5-2.2-10.1-4.4-15.1-6.5c-0.6-0.3-1.2-0.5-1.8-0.8c-0.6-0.2-1.1-0.5-1.7-0.7c-3.5-1.3-6.8-2.8-10-4.6
			c-1.3-0.7-2.5-1.4-3.8-2.2c-0.6-0.4-1.2-0.8-1.8-1.2c-0.8-0.5-1.6-1.1-2.4-1.7c-0.8-0.6-1.6-1.2-2.4-1.8c-1.6-1.2-3.2-2.3-5-3.1
			c-0.6-0.2-1.2-0.5-1.7-0.6c-0.8-0.2-1.6-0.4-2.4-0.5c-0.3,0-0.5,0-0.8,0c-0.5,0-1.1,0-1.7,0.1c-0.6,0.1-1.1,0.2-1.7,0.3
			c-0.3,0.1-0.7,0.2-1,0.3c-0.3,0.1-0.6,0.2-0.9,0.4c-0.4,0.1-0.7,0.3-1,0.5c-0.4,0.2-0.7,0.4-1,0.6c-3.6,2.3-7.3,8.2-8.9,7.7
			c0,0,0,0,0,0c0,0,0,0-0.1,0c-0.2,0.1-0.7,0.3-1.5,0.3c-0.5,0-1.2,0-1.9-0.2c-0.1,0-0.3,0-0.4-0.1c-3.5,0.3-6.9,0.6-10.4,0.9
			c0,0,0,0,0,0c0,0,0,0-0.1,0c-0.2,0-0.4,0.1-0.5,0.1c-0.1,0-0.2,0.1-0.4,0.1c-0.2,0-0.4,0.1-0.6,0.1c-0.1,0-0.2,0-0.3,0.1
			c-0.3,0.1-0.6,0.1-0.9,0.2c-0.1,0-0.2,0-0.3,0.1c-0.2,0-0.4,0.1-0.6,0.1c-0.1,0-0.3,0.1-0.4,0.1c-0.2,0-0.3,0.1-0.5,0.1
			c-0.1,0-0.3,0.1-0.4,0.1c-0.2,0-0.3,0.1-0.5,0.1c-0.2,0.1-0.4,0.1-0.6,0.2c-0.1,0-0.2,0.1-0.3,0.1c-0.3,0.1-0.6,0.2-0.9,0.3
			c-3.4,1.4-5.6,4.3-7.6,7.4c-4.5,7-6.7,14.9-7.9,23c-1.2,7.7-0.8,15.4,0.7,23c0.3,1.1,0.5,2.1,0.7,3.2c0.2,1.1,0.4,2.1,0.6,3.2
			c0.2,1.4,0.4,2.9,0.6,4.3c0.9,7.9,0.6,15.8-0.4,23.8c0,0.3-0.1,0.6-0.1,0.8v0c-0.2,1.2-0.4,2.4-0.6,3.6c-0.2,1.2-0.4,2.4-0.5,3.6
			c-0.1,0.9-0.2,1.7-0.3,2.6c-0.1,0.8-0.2,1.7-0.2,2.5c0,0.1,0,0.1,0,0.2v0c0.4,5.5,3.2,13.1,7.1,20.9c-1.3-0.6-2.6-1.3-3.8-2l0,10
			c0,0-1.2,2.1-2.6,0.9c-0.1-0.1-0.2-0.3-0.3-0.5c0.1,2.8,0.3,5.6,0.4,8.4c0.1,3.3-0.1,6.6-0.1,9.9c-0.5,3.4-1.1,6.9-1.6,10.3v0
			c-0.2,1.8-0.5,3.7-0.7,5.5c0,0.7,0,1.3,0,2c0,2.8,0,5.7,0.1,8.5c-0.2,5.1-0.2,10.1-0.5,15.2c-0.3,5.3-0.9,10.6-1.5,15.9
			c0,0.5-0.1,0.9-0.3,1.4c-0.2,0.6-0.3,1.2-0.5,1.9c0.2,0.3,0.7,0.6,0.7,0.9c-0.2,3-0.5,6-0.7,9.1c-0.1,2.1-0.3,4.2-0.4,6.3
			c0,0.6-0.1,1.1-0.1,1.7c-0.2,2.9-0.4,5.9-0.6,8.9c0,0,0,0,0,0c-0.1,1.7-0.2,3.4-0.4,5.1c-0.1,1.7-0.3,3.5-0.5,5.2
			c-0.8,7.3-1.6,14.7-3.3,21.8c-5.5,22.9-11.5,45.6-17.3,68.4c-2.7,10.4-5.2,19.3-8,29.7c2.7,0.5,5.4,1,8.2,1.4
			c15.5,2.9,39,4.4,46.7,4.4C360,1019.3,359.9,1017.8,359.8,1016.6z M455.4,791c0-0.1,0.1-0.2,0.1-0.2
			C455.4,790.8,455.4,790.9,455.4,791z M453.4,707.1c1.2,1.7,2.5,3.6,3.7,5.5c-0.1,0.1-0.2,0.2-0.3,0.3c-0.4-0.3-0.7-0.6-1.2-0.9
			c-0.5,1.7-1.1,3.2-2,4.5c-0.9,1.2-2.2,2.2-3.9,2.6l0,0c0,0,0,0,0,0c0,0,0-0.1,0-0.1c-0.3,0.1-0.5,0.3-0.8,0.4c0,0,0.1,0,0.1,0
			c0,0,0,0,0,0c0,0,0,0,0,0c-0.2,0.1-0.3,0.2-0.5,0.3c-3.3,0.6-6.5,1.6-9.8,1.6c-4.5-0.1-13.6,0.9-13.7,0.9c0,0,0,0,0,0
			c-0.1,0-0.2,0-0.2-0.1c-0.2-0.1-0.5-1.1-0.5-1.5l0,0c0-0.1-0.1-0.2-0.2-0.2s-0.1-0.2-0.2-0.2c0-0.1,0-0.1,0-0.1
			c0.4-1.7,0.8-3.4,1.2-5.1c0,0,0,0,0,0v0l0,0c0,0,0.1-0.1,0.2-0.2c0.5-0.8,1.1-1.6,1.6-2.5c2.6-5,5.8-9.2,11.6-10.7
			c0.6-0.2,1.1-1,1.6-1.5c0.5,1,0.8,1.4,1.3,1.2c0.6-0.5,1-0.9,1.1-1.1c0.4-0.4,0.7-0.9,1.1-1.3l0-0.1c0,0,0,0,0,0c0,0,0,0,0,0
			c-0.3,0.7-0.5,1.5-1,2.8c1.2-0.4,2.1-0.7,3.1-1.1c-0.1,0.3-0.3,0.8-0.6,1.8c1.3-0.6,2.3-1,3.7-1.5c-0.6,0.8-0.9,1.2-1.4,1.9
			c0.6,0.3,1.1,0.3,1.6,0.2c0.8-0.2,1.4-0.8,2.1-1.1c0.3-0.2,0.7-0.4,1-0.6l0-0.1c0,0,0,0,0,0l0,0c-0.3,0.3-0.5,0.6-0.8,0.8
			c-0.5,0.6-1.1,1.2-1.6,1.8c0.1,0.2,0.2,0.4,0.2,0.6c1.8-0.6,3.5-1.2,5.5-1.9c-1.1,0.9-2,1.6-2.9,2.4c0,0.2,0,0.3,0,0.5
			c2.2-0.3,4.5-0.6,6.7-0.9c0,0.1,0.1,0.1,0.1,0.2C457.4,705.4,455.4,706.3,453.4,707.1z M445.9,699.7l0.1,0l-0.1,0.1L445.9,699.7z
			 M424.5,686.9c4.5-1.8,9-3.4,13.6-4.8c4.7-1.5,9.3-0.5,13.1,2.5c2.8,2.3,5.2,5,7.7,7.6c0.5,0.5,0.7,1.2,1,1.8
			c-4-3.2-8-6.1-12.8-7.5c-3.5-1-6.9-0.3-10.2,0.9c-4,1.6-7.9,3.4-11.9,5.1c-3.7,1.7-5,1.5-8.3-1.7
			C419.3,689.5,421.8,687.9,424.5,686.9z M394.5,752.6c1-3.1,6-16,7.4-15.2c0.9,0.5,1.2,10.5,1.3,11.9c0.2,2.4,1,3.8,3.7,3.8
			c5,0,6.3-1.5,5.8-6.4c-0.1-1.1-2.2-10.5-0.9-10.4c1.5,0.1,7,9.1,8,9.6c1.4,2.3,2.6,4.7,2.1,7.7c-0.1,0.5-0.4,1.2-0.8,1.8
			c-0.1,0.1-0.2,0.2-0.3,0.4c-0.1,0.1-0.2,0.2-0.3,0.3c-0.6,0.7-1.4,1.2-2,1.3c-1.3,0.1-2.5,0.5-3.6,1c-1.1,0.5-2.2,1.3-3.2,2.1
			c-0.2,1.7-1.4,2.1-2.7,2.1c-1,0-2.4,0.1-2.7-1.5c-2.1-1.4-4.5-1.5-6.9-1.2C396.6,759.6,393.6,755.3,394.5,752.6z M389.9,778.7
			c3.6-1.8,7.3-3.6,11-5.3c1.9-0.9,3.9-1.2,6-0.5c3,0.9,5.6-0.1,8.4-1.1c1.7-0.7,3.8-1,5.6-0.8c4.7,0.6,9.3,1.7,14,2.6
			c-0.7,1.2-1.3,1.9-1.6,2.8c-2,5.2-4.6,10.1-8.3,14.3c-3.6,4.1-8.3,5.1-13.3,5.6c-7.3,0.8-12.3-3.2-16.7-8.3
			c-1.7-1.9-3.2-4.1-4.9-6.1c-0.6-0.7-1.5-1.2-2.4-1.9C388.1,779.8,388.9,779.2,389.9,778.7z M360.5,790.8c-0.1-0.1-0.2-0.3-0.4-0.4
			c0.1-0.1,0.2-0.3,0.2-0.4C360.4,790.2,360.4,790.5,360.5,790.8C360.5,790.8,360.5,790.8,360.5,790.8
			C360.5,790.8,360.5,790.8,360.5,790.8z M345.3,708c-0.3,0.4-0.7,0.8-1.1,1.2c2.5-8.9,9-18.2,19.4-17.4c2.9,0.2,5.8,0.6,8.7,1
			l7.1,0.8l1.5,0.4c0,0,2.7,0.8,2.9,1.2c0,0,0.3,0.2,0.3,0.8c0,0,0,0,0,0c0,0.1,0,0.1,0,0.2c-0.1,0.3-0.2,0.5-0.4,0.8
			c0,0-0.1,0-0.1,0.1c-0.6,0.9-0.9,0.7-1.6,1.2c-0.2,0.2-0.5,0.3-0.7,0.5c0,0,0,0,0,0l0,0c0,0,0,0,0,0c-0.1,0.1-0.4,0.1-0.8,0.1
			c-0.6,0.1-1.1,0.1-1.7,0.1c-4.9-0.7-9.7-1.5-14.6-2.2c-6.5-0.9-11.4,2.2-15.5,6.9C347.4,705,346.4,706.5,345.3,708z M347.5,718.8
			c2.1-0.2,4.3-0.4,6.4-0.7c0-0.2,0-0.3,0-0.5c-1-0.5-2.1-1-3.4-1.7c2.2,0.2,4,0.3,5.9,0.5c0-0.2,0.1-0.5,0.1-0.7
			c-0.8-0.4-1.6-0.9-2.6-1.4c1.5,0.1,2.8,0.2,4.1,0.2c-0.5-0.6-1-1.2-1.5-1.8c-0.2-0.1-0.4-0.3-0.7-0.4c0,0,0,0-0.1,0l0,0l0,0
			c0,0,0,0,0,0l0,0c0,0,0-0.1,0-0.1l0,0.1c0,0,0,0,0.1,0c0.2,0,0.4,0.1,0.5,0.1c0.1,0,0.2,0,0.4,0c0,0,0,0,0,0
			c0.6,0.1,1.1,0.3,1.7,0.4c0.2,0,0.4,0.1,0.6,0.1c0.3,0,0.7-0.4,1-0.6c-0.1-0.2-0.2-0.4-0.3-0.6c0.8,0,1.6,0,2.7,0
			c-0.5-0.8-0.8-1.4-1.4-2.3c1.3,0.7,2.3,1.2,3.3,1.8c0.1-0.1,0.2-0.3,0.2-0.4c-0.3-0.6-0.5-1.2-0.8-1.7c-0.1-0.1-0.1-0.2-0.2-0.2
			c0.1,0,0.2,0.1,0.4,0.1c0,0,0,0,0,0h0c0,0,0,0,0,0c0.1,0.2,0.3,0.3,0.4,0.4c0.2,0.1,0.4,0.3,0.6,0.5c1.7,1.1,3.8,1.1,5.8,1.2
			c5.2,1.7,8.8,5.4,12,9.8c0,0,0.1,0.1,0.1,0.1c0.9,1.5,1.9,2.9,2.8,4.4c-0.2,0.1-0.4,0.3-0.5,0.4c-0.4,0.5-0.8,1-1.2,1.5
			c-2,0.2-3.9,0.2-5.9,0.6c-3.8,0.8-7.6,1.9-11.4,2.6c-0.4,0.1-0.9,0.1-1.3,0.1c-0.4,0-0.9,0-1.3,0c0,0,0,0-0.1,0
			c-0.4,0-0.9,0-1.3-0.1c-0.4,0-0.9,0-1.3,0c-0.3,0.1-0.6,0.1-1,0.1c-0.3,0-0.7,0-1,0c-0.7-0.1-1.3-0.3-2-0.5
			c-0.4-0.2-0.8-0.4-1.2-0.7c-1.6-1-2.9-2.6-3.5-4.5c-0.4,0.3-0.7,0.6-1.4,1.1c0.8-2.2,1.5-4.1,2.3-6.1c-2.1-0.3-4.1-0.6-6.2-0.9
			C347.5,719,347.5,718.9,347.5,718.8z"/>
		<path class="st13" d="M393,875c-0.3,0.8-0.7,1.6-1,2.3C392.3,876.9,392.7,876,393,875z"/>
		<path class="st13" d="M391.9,877.4c-0.1,0-0.4,0.2-0.7,0.3C391.5,877.7,391.7,877.6,391.9,877.4z"/>
		<path class="st14" d="M391.3,877.7c0.3-0.1,0.5-0.3,0.7-0.3c0,0,0,0,0,0c0,0,0,0,0,0c0.4-0.7,0.7-1.5,1-2.3c1-2.6,1.9-5.5,2.3-8.6
			c0,0,0,0,0,0c0-0.2,0.1-0.4,0.1-0.6c-1.7-0.7-2.7-0.1-3.2,1.6c-0.6,2.2-1.1,4.4-1.7,6.5c-0.2,0.7-0.3,1.3-0.5,2c0,0,0,0.1,0,0.1
			c0.2,0.6,0.5,1.3,0.7,1.9C390.8,877.9,391,877.8,391.3,877.7z"/>
		<path class="st14" d="M341.8,765.6l-0.6,0l-0.6,0l-0.4,2.4c0,0,0,0.3,0,0.8c-0.1,2.1-0.3,7.9,0.4,9.9c0.1,0.2,0.2,0.4,0.3,0.5
			c1.4,1.2,2.6-0.9,2.6-0.9l0-10l0-0.9L341.8,765.6z"/>
		<path class="st4" d="M347.4,550.6c0.6,1.5,1.4,3,2.3,4.3c0.5,0.7,1.1,1.4,1.7,2c0.2,0.3,0.5,0.5,0.7,0.7c0.2,0.2,0.5,0.5,0.7,0.7
			c0.2,0.2,0.3,0.3,0.5,0.5c0.3,0.3,0.6,0.5,0.9,0.8c0.2,0.2,0.5,0.4,0.7,0.5c0.2,0.1,0.4,0.3,0.6,0.4c0.2,0.2,0.5,0.3,0.7,0.5
			c0.8,0.6,1.7,1.1,2.6,1.6c1.9,1.1,3.7,2.3,5.6,3.5c1.8,1.1,3.5,2.1,5.2,3.3c0.9,0.6,1.8,1.2,2.6,1.9c0.4,0.3,0.9,0.6,1.3,1
			c0.4,0.3,0.7,0.5,1.1,0.8c0.3,0.2,0.6,0.4,0.9,0.6c0.3,0.2,0.6,0.3,0.9,0.5c0.6,0.4,1.4,0.3,1.9-0.3c0.2-0.2,0.3-0.4,0.4-0.7
			c0-0.1,0-0.3,0.1-0.4c0.2-0.2,0.3-0.5,0.3-0.8c0-0.4,0-0.7,0.1-1.1c0.1-0.5,0.2-1,0.3-1.4c0.1-0.5,0.3-0.9,0.5-1.4
			c0.4-0.9,0.8-1.7,1.3-2.5c0.2-0.4,0.5-0.8,0.8-1.3c0.2-0.4,0.5-0.7,0.7-1.1c0.6-0.7,1.1-1.4,1.7-2.1c0.7-0.9,1.4-1.8,2.2-2.7
			c0.7-0.9,1.5-1.8,2.2-2.7c0.2-0.2,0.3-0.5,0.5-0.7c0.1-0.2,0.3-0.4,0.4-0.5c0.2-0.3,0.4-0.5,0.5-0.8c0.1-0.2,0.2-0.3,0.3-0.5
			c0.3-0.5,0.6-1.1,0.9-1.6c0.8-1.5,1.5-3,1.8-4.7c0.1-0.4,0.2-0.7,0.2-1.1c0.1-0.5,0.2-1.1,0.2-1.6c0.1-0.9-0.1-1.8-0.2-2.7
			c-0.1-0.4-0.1-0.7-0.2-1.1c-0.1-0.5-0.3-1-0.5-1.4c-0.3-0.8-0.8-1.5-1.3-2.2c-0.5-0.7-1.1-1.2-1.8-1.7c-0.7-0.5-1.4-0.8-2.2-1.1
			c-0.8-0.3-1.6-0.5-2.5-0.6c-0.3,0-0.7-0.1-1-0.1c-0.4,0-0.8,0-1.3,0.1c-0.9,0.1-1.7,0.3-2.5,0.6c-0.8,0.3-1.5,0.6-2.2,1.1
			c-0.4,0.3-0.7,0.5-1.1,0.8c-0.3,0.3-0.6,0.5-0.9,0.8c-0.5,0.5-1,1.1-1.5,1.7c-0.8,1.1-1.6,2.2-2.2,3.5c-0.3,0.5-0.5,1.1-0.7,1.6
			c-0.1-0.1-0.1-0.2-0.2-0.4c-0.2-0.4-0.5-0.7-0.7-1.1c-0.2-0.3-0.5-0.6-0.7-0.9c-0.3-0.4-0.6-0.7-1-1.1c-0.2-0.3-0.5-0.6-0.8-0.8
			c-0.6-0.6-1.2-1.1-1.9-1.6c-0.6-0.4-1.2-0.8-1.9-1.1c-0.8-0.4-1.6-0.7-2.4-0.9c-0.5-0.1-0.9-0.2-1.4-0.2c-0.4,0-0.8-0.1-1.1-0.1
			c0,0,0,0,0,0c-0.9,0-1.7,0.1-2.6,0.3c-0.7,0.1-1.5,0.3-2.2,0.6c-0.8,0.3-1.6,0.7-2.3,1.2c-0.7,0.5-1.4,1-2.1,1.6
			c-0.6,0.6-1.2,1.2-1.7,1.9c-0.5,0.7-0.9,1.5-1.2,2.3c-0.3,0.7-0.5,1.4-0.6,2.1c-0.2,0.9-0.2,1.8-0.2,2.7
			C346.9,548.9,347.1,549.8,347.4,550.6z M350.4,546.4c0.1-0.7,0.3-1.3,0.5-2c0.3-0.6,0.6-1.1,0.9-1.6c0.5-0.6,1-1.1,1.6-1.6
			c0.4-0.3,0.9-0.6,1.3-0.9c0.5-0.3,0.9-0.6,1.4-0.8c0.9-0.4,1.9-0.6,2.9-0.8c0.9-0.1,1.8-0.1,2.7,0c0.8,0.1,1.7,0.4,2.5,0.7
			c0.8,0.4,1.6,0.8,2.4,1.4c0.5,0.4,1,0.9,1.5,1.3c0.2,0.2,0.4,0.4,0.6,0.6c0.4,0.4,0.7,0.7,1.1,1.1c0.3,0.5,0.6,0.9,0.8,1.4
			c0.1,0.2,0.1,0.3,0.2,0.5c-0.1,0.3,0,0.7,0.1,1c0.2,0.3,0.5,0.5,0.8,0.6c0.3,0.1,0.7,0,1-0.1c0.1-0.1,0.2-0.1,0.3-0.2
			c0.2-0.2,0.3-0.4,0.3-0.6c0.3-0.7,0.5-1.5,0.8-2.2c0.5-1.3,1.2-2.5,2-3.6c0.7-1,1.6-1.9,2.5-2.6c0.5-0.4,1-0.7,1.6-1
			c0.7-0.3,1.4-0.5,2.2-0.6c0.7-0.1,1.4-0.1,2.1,0c0.6,0.1,1.2,0.3,1.8,0.5c0.5,0.2,1,0.5,1.5,0.9c0.3,0.3,0.6,0.6,0.9,1
			c0.3,0.5,0.6,1,0.9,1.5c0.2,0.6,0.4,1.2,0.5,1.9c0.1,0.8,0.1,1.5,0,2.3c-0.2,1.2-0.5,2.4-0.9,3.5c-0.4,0.9-0.9,1.8-1.3,2.6
			c-0.2,0.3-0.3,0.5-0.5,0.8c-0.1,0.2-0.2,0.4-0.4,0.6c-0.2,0.3-0.3,0.5-0.5,0.8c-0.1,0.2-0.3,0.4-0.4,0.6c-0.3,0.5-0.6,0.9-1,1.3
			c-0.1,0.1-0.1,0.2-0.2,0.2c-1.1,1.4-2.1,2.8-3.2,4.3c-0.3,0.4-0.7,0.9-1,1.3c-0.3,0.4-0.6,0.8-0.9,1.3c-0.3,0.5-0.6,0.9-0.9,1.4
			c-0.3,0.5-0.5,1-0.8,1.4c-0.2,0.5-0.5,0.9-0.7,1.4c-0.2,0.6-0.5,1.2-0.7,1.8c-0.2,0.5-0.3,1.1-0.4,1.6c0,0.1,0,0.1,0,0.2
			c-0.1-0.1-0.2-0.2-0.3-0.3c-0.3-0.3-0.6-0.5-0.9-0.7c-0.2-0.2-0.4-0.3-0.6-0.5c-0.4-0.3-0.8-0.6-1.2-0.9c-0.4-0.3-0.9-0.6-1.3-0.9
			c-0.4-0.3-0.9-0.6-1.3-0.9c-1-0.6-2-1.2-3-1.8c-0.5-0.3-0.9-0.5-1.4-0.8c-0.5-0.3-0.9-0.5-1.4-0.8c-0.8-0.5-1.7-1-2.5-1.5l-4-2.4
			c-0.4-0.3-0.9-0.5-1.3-0.8c-0.4-0.3-0.7-0.5-1.1-0.8c-0.4-0.3-0.8-0.7-1.2-1c-0.3-0.2-0.5-0.5-0.8-0.7c-0.3-0.3-0.6-0.6-0.9-0.9
			c-0.3-0.3-0.5-0.6-0.7-0.9c-0.7-0.9-1.3-1.9-1.7-3c-0.2-0.6-0.4-1.2-0.5-1.8C350.3,547.5,350.3,546.9,350.4,546.4z"/>
	</g>
	<g>
		<path class="st23" d="M552.3,756.6l13-33.9h2.9l-15.4,38h-5.7l-1.4-35.3c-1.6,0-3,0.3-4.1,0.9c-1.1,0.6-2,1.5-2.8,2.5
			c-0.7,1-1.2,2.2-1.6,3.4s-0.5,2.5-0.5,3.8c0,1.8,0.4,3.3,1.1,4.6c-0.6,0-1.1-0.1-1.7-0.2c-0.5-0.1-1-0.4-1.4-0.7
			c-0.4-0.4-0.7-0.8-1-1.4s-0.4-1.4-0.4-2.3c0-1.8,0.4-3.5,1.1-5.2c0.7-1.6,1.8-3.1,3.2-4.3c1.4-1.2,3-2.2,5-3
			c1.9-0.7,4.1-1.1,6.5-1.1c0.4,0,0.7,0,1.1,0.1c0.4,0,0.7,0.1,1,0.2L552.3,756.6z"/>
		<path class="st23" d="M591.2,735.2l-3.7,17.3c-0.2,0.7-0.3,1.4-0.3,2.3c0,0.6,0.1,1.1,0.3,1.6c0.2,0.5,0.6,0.7,1.3,0.7
			c0.8,0,1.6-0.5,2.5-1.5c0.8-1,1.6-2.3,2.4-4.1h1.9c-0.8,2.1-1.6,3.8-2.4,5.1c-0.8,1.2-1.6,2.2-2.4,2.8c-0.8,0.6-1.5,1.1-2.2,1.2
			c-0.7,0.2-1.3,0.3-1.9,0.3c-1.1,0-2-0.4-2.8-1.2c-0.7-0.8-1.2-2.1-1.3-3.8c-0.8,1.4-1.9,2.6-3.2,3.5s-2.9,1.5-4.5,1.5
			c-0.8,0-1.6-0.1-2.4-0.4c-0.8-0.3-1.5-0.8-2.1-1.4c-0.6-0.7-1.1-1.5-1.5-2.5c-0.4-1-0.6-2.3-0.6-3.8c0-1.2,0.1-2.4,0.4-3.7
			s0.6-2.7,1.1-4c0.5-1.3,1.1-2.6,1.8-3.8c0.7-1.2,1.6-2.3,2.5-3.2c1-0.9,2-1.7,3.2-2.2c1.2-0.6,2.5-0.8,4-0.8
			c0.8,0,1.6,0.2,2.5,0.6c0.8,0.4,1.4,1.1,1.7,2.1l0.5-2.4H591.2z M576.9,757.1c0.5,0,1.1-0.1,1.7-0.4c0.6-0.3,1.1-0.7,1.7-1.2
			c0.5-0.5,1-1.1,1.4-1.8c0.4-0.7,0.7-1.4,0.9-2.2L585,740c-0.1-0.6-0.4-1.1-0.8-1.6c-0.4-0.5-1-0.7-1.8-0.7c-1.4,0-2.6,0.5-3.7,1.5
			c-1.1,1-2,2.3-2.8,3.7s-1.3,3-1.7,4.7c-0.4,1.7-0.6,3.1-0.6,4.4c0,1.9,0.3,3.3,0.9,4S576,757.1,576.9,757.1z"/>
		<path class="st23" d="M609.9,725l-6,27.5c-0.2,0.7-0.3,1.4-0.3,2.3c0,0.6,0.1,1.1,0.3,1.6c0.2,0.5,0.6,0.7,1.3,0.7
			c0.8,0,1.6-0.5,2.5-1.5c0.8-1,1.6-2.3,2.4-4.1h1.9c-0.8,2.1-1.6,3.8-2.4,5.1c-0.8,1.2-1.6,2.2-2.4,2.8c-0.8,0.6-1.5,1.1-2.2,1.2
			c-0.7,0.2-1.3,0.3-1.9,0.3c-0.9,0-1.6-0.2-2.2-0.5c-0.6-0.3-1-0.7-1.4-1.2s-0.6-1.1-0.7-1.8c-0.2-0.7-0.2-1.4-0.2-2.2
			c0-0.6,0-1.2,0.1-1.9c0.1-0.6,0.2-1.3,0.3-1.9l5.6-25.9L609.9,725z"/>
		<path class="st23" d="M633.5,740.2c0,2.9-1.1,5.2-3.4,7s-5.4,2.9-9.3,3.3c0,0.3-0.1,0.5-0.1,0.8s0,0.5,0,0.8c0,1.7,0.3,3,1,3.8
			c0.7,0.8,1.8,1.2,3.4,1.2s3.2-0.4,4.8-1.3c1.6-0.8,3.1-2.3,4.4-4.3h1.6c-0.7,1.3-1.5,2.5-2.4,3.6c-1,1.1-2,2.1-3.2,3
			c-1.2,0.9-2.4,1.6-3.7,2.1c-1.3,0.5-2.6,0.8-4,0.8c-1,0-1.9-0.2-2.8-0.5c-0.9-0.3-1.7-0.8-2.4-1.4c-0.7-0.6-1.3-1.5-1.7-2.5
			c-0.4-1-0.6-2.3-0.6-3.7c0-1,0.1-2.1,0.3-3.3c0.2-1.3,0.5-2.5,0.9-3.9c0.4-1.3,1-2.6,1.7-3.9c0.7-1.3,1.5-2.4,2.5-3.4
			c1-1,2-1.8,3.3-2.4s2.6-0.9,4.2-0.9c0.7,0,1.4,0.1,2,0.2c0.6,0.2,1.2,0.4,1.7,0.8c0.5,0.4,0.9,0.9,1.2,1.6
			C633.3,738.3,633.5,739.1,633.5,740.2z M628.5,737.4c-0.9,0-1.8,0.3-2.6,1c-0.8,0.7-1.5,1.5-2.2,2.6c-0.6,1.1-1.2,2.2-1.6,3.5
			c-0.5,1.3-0.8,2.6-1,4c2.8-0.4,5.1-1.4,6.8-3c1.7-1.6,2.5-3.5,2.5-5.8c0-0.6-0.1-1.1-0.3-1.6S629.3,737.4,628.5,737.4z"/>
		<path class="st23" d="M648.3,735.2l-0.8,3.8c0.6-0.9,1.3-1.6,1.9-2.1c0.6-0.5,1.3-1,1.9-1.3c0.6-0.3,1.2-0.5,1.7-0.6
			s1-0.1,1.5-0.1c1,0,1.9,0.2,2.5,0.5c0.7,0.3,1.2,0.7,1.6,1.3s0.7,1.1,0.8,1.8c0.2,0.7,0.2,1.4,0.2,2.2c0,1.1-0.1,2.3-0.4,3.5
			s-0.5,2.4-0.8,3.6c-0.3,1.2-0.6,2.4-0.8,3.5c-0.3,1.2-0.4,2.2-0.4,3.3c0,0.7,0.1,1.3,0.3,1.8c0.2,0.5,0.6,0.7,1.2,0.7
			c1.6,0,3.2-1.9,4.8-5.6h1.9c-0.8,2.1-1.6,3.8-2.4,5.1c-0.8,1.3-1.6,2.2-2.4,2.8c-0.8,0.6-1.5,1-2.1,1.2s-1.2,0.3-1.8,0.3
			c-1.8,0-3-0.6-3.8-1.7c-0.7-1.1-1.1-2.5-1.1-4.1c0-1.1,0.1-2.3,0.4-3.5c0.3-1.2,0.5-2.4,0.8-3.6c0.3-1.2,0.6-2.3,0.8-3.4
			c0.3-1.1,0.4-2.1,0.4-3c0-0.8-0.2-1.5-0.5-2c-0.3-0.5-0.9-0.8-1.8-0.8c-2.1,0-4,1.8-5.7,5.5l-3.5,16.4h-5.1l5.4-25.5H648.3z"/>
		<path class="st23" d="M670.8,735.2h1.7l1.5-7l5.3-0.7l-1.7,7.8h3.9l-0.4,1.8h-4l-3.3,15.5c-0.1,0.3-0.1,0.6-0.2,1
			c-0.1,0.4-0.1,0.8-0.1,1.2c0,0.6,0.1,1.2,0.4,1.7c0.3,0.5,0.8,0.7,1.6,0.7c0.9,0,1.9-0.5,2.9-1.5c1-1,1.9-2.3,2.8-4.1h1.9
			c-0.9,1.9-1.8,3.4-2.7,4.6c-0.9,1.2-1.7,2.2-2.5,2.9c-0.8,0.7-1.6,1.2-2.4,1.5c-0.8,0.3-1.5,0.4-2.1,0.4c-1,0-1.7-0.2-2.3-0.5
			c-0.6-0.3-1.1-0.7-1.5-1.3c-0.4-0.5-0.6-1.1-0.8-1.8c-0.2-0.7-0.2-1.4-0.2-2.1c0-0.6,0.1-1.3,0.2-2s0.2-1.2,0.3-1.8l3.1-14.6h-1.7
			L670.8,735.2z"/>
		<path class="st23" d="M695.2,735.2l-3.7,17.3c-0.2,0.7-0.3,1.4-0.3,2.3c0,0.6,0.1,1.1,0.3,1.6c0.2,0.5,0.6,0.7,1.3,0.7
			c0.8,0,1.6-0.5,2.5-1.5c0.8-1,1.6-2.3,2.4-4.1h1.9c-0.8,2.1-1.6,3.8-2.4,5.1c-0.8,1.2-1.6,2.2-2.4,2.8c-0.8,0.6-1.5,1.1-2.2,1.2
			c-0.7,0.2-1.3,0.3-1.9,0.3c-0.9,0-1.6-0.2-2.2-0.5c-0.6-0.3-1-0.7-1.4-1.2s-0.6-1.1-0.7-1.8c-0.2-0.7-0.2-1.4-0.2-2.2
			c0-0.6,0-1.2,0.1-1.9c0.1-0.6,0.2-1.3,0.3-1.9l3.5-16.4H695.2z M690.4,727.8c0-0.9,0.3-1.7,1-2.4c0.6-0.7,1.4-1,2.4-1
			c0.9,0,1.7,0.3,2.4,1c0.7,0.7,1,1.5,1,2.4c0,1-0.3,1.8-1,2.4s-1.5,1-2.4,1c-1,0-1.8-0.3-2.4-1S690.4,728.8,690.4,727.8z"/>
		<path class="st23" d="M711.6,735.2l-0.8,3.8c0.6-0.9,1.3-1.6,1.9-2.1c0.6-0.5,1.3-1,1.9-1.3c0.6-0.3,1.2-0.5,1.7-0.6
			c0.5-0.1,1-0.1,1.5-0.1c1,0,1.9,0.2,2.5,0.5c0.7,0.3,1.2,0.7,1.6,1.3c0.4,0.5,0.7,1.1,0.8,1.8c0.2,0.7,0.2,1.4,0.2,2.2
			c0,1.1-0.1,2.3-0.4,3.5c-0.3,1.2-0.5,2.4-0.8,3.6c-0.3,1.2-0.6,2.4-0.8,3.5c-0.3,1.2-0.4,2.2-0.4,3.3c0,0.7,0.1,1.3,0.3,1.8
			c0.2,0.5,0.6,0.7,1.2,0.7c1.6,0,3.2-1.9,4.8-5.6h1.9c-0.8,2.1-1.6,3.8-2.4,5.1c-0.8,1.3-1.6,2.2-2.4,2.8c-0.8,0.6-1.5,1-2.1,1.2
			s-1.3,0.3-1.8,0.3c-1.8,0-3-0.6-3.8-1.7c-0.7-1.1-1.1-2.5-1.1-4.1c0-1.1,0.1-2.3,0.4-3.5c0.3-1.2,0.5-2.4,0.8-3.6
			c0.3-1.2,0.6-2.3,0.8-3.4c0.3-1.1,0.4-2.1,0.4-3c0-0.8-0.2-1.5-0.5-2c-0.3-0.5-0.9-0.8-1.8-0.8c-2.1,0-4,1.8-5.7,5.5l-3.5,16.4
			h-5.1l5.4-25.5H711.6z"/>
		<path class="st23" d="M750.2,740.2c0,2.9-1.1,5.2-3.4,7s-5.4,2.9-9.3,3.3c0,0.3-0.1,0.5-0.1,0.8s0,0.5,0,0.8c0,1.7,0.3,3,1,3.8
			c0.7,0.8,1.8,1.2,3.4,1.2c2.3,0,4.3-0.8,6-2.4c-0.2,1.3-0.6,2.3-1.1,3.1c-0.5,0.8-1.2,1.5-1.9,1.9c-0.7,0.5-1.6,0.8-2.5,1
			c-0.9,0.2-1.9,0.3-2.9,0.3c-1,0-1.9-0.2-2.8-0.5c-0.9-0.3-1.7-0.8-2.4-1.4c-0.7-0.6-1.3-1.5-1.7-2.5c-0.4-1-0.6-2.3-0.6-3.7
			c0-1,0.1-2.1,0.3-3.3c0.2-1.3,0.5-2.5,0.9-3.9c0.4-1.3,1-2.6,1.7-3.9c0.7-1.3,1.5-2.4,2.5-3.4c1-1,2-1.8,3.3-2.4s2.6-0.9,4.2-0.9
			c0.7,0,1.4,0.1,2,0.2c0.6,0.2,1.2,0.4,1.7,0.8c0.5,0.4,0.9,0.9,1.2,1.6C750.1,738.3,750.2,739.1,750.2,740.2z M745.3,737.4
			c-0.9,0-1.8,0.3-2.6,1c-0.8,0.7-1.5,1.5-2.2,2.6c-0.6,1.1-1.2,2.2-1.6,3.5c-0.5,1.3-0.8,2.6-1,4c2.8-0.4,5.1-1.4,6.8-3
			c1.7-1.6,2.5-3.5,2.5-5.8c0-0.6-0.1-1.1-0.3-1.6S746.1,737.4,745.3,737.4z"/>
		<path class="st23" d="M762.5,725.9c0-1.1,0.3-2,1-2.5c0.7-0.6,1.5-0.9,2.3-0.9c1.2,0,2,0.3,2.5,1c0.5,0.7,0.8,1.5,0.8,2.4
			c0,0.8-0.2,1.8-0.6,2.7c-0.4,1-0.9,1.9-1.5,2.8c-0.6,0.9-1.3,1.7-2.1,2.4s-1.6,1.3-2.4,1.6c-0.3-0.2-0.5-0.5-0.5-0.9
			c0-0.4,0.1-0.8,0.3-1.2c0.2-0.4,0.4-0.8,0.7-1.2s0.5-0.8,0.7-1.2c0.2-0.4,0.3-0.8,0.3-1.1c0-0.5-0.1-0.8-0.3-1s-0.4-0.4-0.6-0.6
			s-0.4-0.4-0.6-0.8C762.6,727.1,762.5,726.6,762.5,725.9z"/>
		<path class="st23" d="M786.3,733.6c0.2,3.3,0.3,5.9,0.5,8s0.3,3.7,0.4,5c0.1,1.3,0.2,2.3,0.3,3.1c0.1,0.8,0.1,1.6,0.1,2.5
			c0,1.7-0.3,3.1-0.8,4.2c-0.5,1.1-1.2,2-2,2.7c-0.8,0.7-1.7,1.2-2.7,1.5c-1,0.3-1.9,0.4-2.7,0.4c-1.3,0-2.4-0.2-3.3-0.6
			c-0.9-0.4-1.7-0.9-2.3-1.5c-0.6-0.6-1.1-1.3-1.4-2.1c-0.3-0.8-0.4-1.6-0.4-2.3c0-1.2,0.3-2.2,0.8-3c0.6-0.8,1.2-1.4,1.9-1.7
			c1.4-2.5,2.6-5.1,3.6-7.6c1-2.5,1.9-5,2.7-7.5L786.3,733.6z M782.2,752.2c0-0.7,0-1.4-0.1-2c-0.1-0.6-0.1-1.4-0.2-2.3
			c-0.1-0.9-0.2-2.1-0.4-3.5c-0.1-1.4-0.3-3.2-0.4-5.4c-0.5,1.9-1,3.7-1.7,5.5c-0.7,1.7-1.5,3.5-2.4,5.4c0.2,0.2,0.4,0.4,0.5,0.7
			c0.1,0.3,0.2,0.6,0.2,1c0,0.8-0.2,1.4-0.7,1.9c-0.5,0.4-0.9,0.7-1.4,0.7c-0.5,0-1-0.2-1.2-0.7c0,1.2,0.3,2.1,0.8,2.8
			c0.5,0.7,1.4,1,2.5,1c1.3,0,2.4-0.4,3.2-1.1S782.2,754,782.2,752.2z"/>
		<path class="st23" d="M635.4,762.2l-6.3,29.5c1.1,0.9,2.2,1.3,3.3,1.3c1.3,0,2.4-0.3,3.4-1c1-0.7,2-1.6,2.8-2.8
			c0.8-1.2,1.5-2.6,2.1-4.1s1.1-3.2,1.5-4.9c0.4-1.7,0.7-3.4,0.9-5.2c0.2-1.7,0.3-3.4,0.3-4.9c0-2-0.2-3.7-0.6-5.1
			c-0.4-1.4-0.9-2.5-1.7-3.3c-0.7-0.8-1.7-1.5-2.8-1.8c-1.1-0.4-2.5-0.6-4-0.6c-1.7,0-3.4,0.3-5.1,0.9c-1.7,0.6-3.2,1.4-4.5,2.5
			c-1.3,1.1-2.4,2.4-3.2,4s-1.2,3.4-1.2,5.4c0,1.1,0.2,1.9,0.7,2.4c0.4,0.6,0.8,1,1.1,1.2c-1.7,0-3-0.4-4-1.1
			c-1-0.7-1.5-1.9-1.5-3.7c0-1.7,0.5-3.4,1.5-5c1-1.6,2.4-3.1,4.1-4.3c1.7-1.2,3.7-2.2,6-3c2.3-0.7,4.6-1.1,7.2-1.1
			c2.5,0,4.6,0.4,6.4,1.1c1.8,0.8,3.2,1.8,4.3,3.2c1.1,1.4,1.9,3,2.4,4.8c0.5,1.8,0.7,3.8,0.7,5.9c0,1.9-0.2,3.8-0.6,5.7
			c-0.4,1.9-0.9,3.7-1.6,5.5c-0.7,1.8-1.5,3.4-2.4,5c-0.9,1.6-1.9,2.9-2.9,4.1c-1.1,1.1-2.2,2-3.3,2.7c-1.2,0.7-2.3,1-3.5,1
			c-1,0-2.1-0.2-3.1-0.7c-1.1-0.5-2.2-1.2-3.3-2.2l-0.5,2.3h-5.6l7-32.7L635.4,762.2z"/>
		<path class="st23" d="M678.4,770.2l-3.7,17.3c-0.2,0.7-0.3,1.4-0.3,2.3c0,0.6,0.1,1.1,0.3,1.6c0.2,0.5,0.6,0.7,1.3,0.7
			c0.8,0,1.6-0.5,2.5-1.5c0.8-1,1.6-2.3,2.4-4.1h1.9c-0.8,2.1-1.6,3.8-2.4,5.1c-0.8,1.2-1.6,2.2-2.4,2.8c-0.8,0.6-1.5,1.1-2.2,1.2
			c-0.7,0.2-1.3,0.3-1.9,0.3c-1.1,0-2-0.4-2.8-1.2c-0.7-0.8-1.2-2.1-1.3-3.8c-0.8,1.4-1.9,2.6-3.2,3.5s-2.9,1.5-4.5,1.5
			c-0.8,0-1.6-0.1-2.4-0.4c-0.8-0.3-1.5-0.8-2.1-1.4c-0.6-0.7-1.1-1.5-1.5-2.5c-0.4-1-0.6-2.3-0.6-3.8c0-1.2,0.1-2.4,0.4-3.7
			c0.3-1.3,0.6-2.7,1.1-4s1.1-2.6,1.8-3.8s1.6-2.3,2.6-3.2c1-0.9,2-1.7,3.2-2.2c1.2-0.6,2.5-0.8,4-0.8c0.8,0,1.6,0.2,2.5,0.6
			s1.4,1.1,1.7,2.1l0.5-2.4H678.4z M664.2,792.1c0.5,0,1.1-0.1,1.7-0.4s1.1-0.7,1.7-1.2c0.5-0.5,1-1.1,1.4-1.8
			c0.4-0.7,0.7-1.4,0.9-2.2l2.4-11.6c-0.1-0.6-0.4-1.1-0.8-1.6s-1-0.7-1.8-0.7c-1.4,0-2.6,0.5-3.7,1.5c-1.1,1-2,2.3-2.8,3.7
			c-0.7,1.5-1.3,3-1.7,4.7c-0.4,1.7-0.6,3.1-0.6,4.4c0,1.9,0.3,3.3,0.9,4C662.4,791.7,663.2,792.1,664.2,792.1z"/>
		<path class="st23" d="M694.9,770.2l-3.7,17.3c-0.1,0.5-0.2,1.1-0.2,1.7c0,1,0.2,1.7,0.7,2.2c0.4,0.5,1,0.7,1.6,0.7
			c1,0,2-0.5,3-1.5s1.7-2.3,2.1-4.1l3.5-16.4h5.1l-6.3,29.6c-0.4,1.8-0.8,3.3-1.3,4.4s-1,2-1.5,2.6c-0.6,0.6-1.2,1.1-1.9,1.3
			c-0.7,0.2-1.4,0.3-2.3,0.3c-1.6,0-2.9-0.3-4-1c-1.1-0.7-1.6-1.9-1.6-3.5c0-0.9,0.2-1.6,0.7-2.4c0.5-0.7,1.1-1.4,1.9-2.1
			c0.8-0.6,1.7-1.2,2.6-1.7s1.9-1,2.9-1.3l0.7-3.2c-0.8,1-1.7,1.7-2.7,2.2c-0.9,0.5-1.8,0.7-2.7,0.7c-0.8,0-1.5-0.2-2.2-0.5
			c-0.7-0.3-1.3-0.8-1.8-1.4s-0.9-1.3-1.2-2.1c-0.3-0.8-0.4-1.8-0.4-2.9c0-0.8,0.1-1.7,0.3-2.6l3.5-16.4H694.9z M692,805.8
			c1,0,1.7-0.5,2.2-1.6c0.5-1.1,1-2.5,1.3-4.3l0.4-1.6c-1.9,0.8-3.3,1.7-4.3,2.7c-1,1-1.5,1.9-1.5,2.9c0,0.6,0.2,1.1,0.5,1.4
			S691.4,805.8,692,805.8z"/>
	</g>
</g>
</svg>
