<?xml version="1.0" encoding="utf-8"?>
<!-- Generator: Adobe Illustrator 21.1.0, SVG Export Plug-In . SVG Version: 6.00 Build 0)  -->
<svg version="1.1" xmlns="http://www.w3.org/2000/svg" xmlns:xlink="http://www.w3.org/1999/xlink" x="0px" y="0px"
	 viewBox="0 0 841.9 653" style="enable-background:new 0 0 841.9 653;" xml:space="preserve">
<style type="text/css">
	.st0{fill:none;stroke:#0000FF;stroke-miterlimit:10;}
	.st1{fill:none;stroke:#FF00FF;stroke-miterlimit:10;}
</style>
<g id="end">
	<g>
		<path class="st0" d="M201,412.7c0,0-36-35-25.3-88.2c10.7-53.2,158-167.2,158-167.2s30-24.7,71.3-96S560,4.7,566.7,4.7
			c6.7,0,33,4.7,55.7,20.7c22.7,16,27.3,36.7,11.3,66s-60,126.7-32.7,168s38.7,53.3,38.7,53.3s18.7,22.7,22.7,44.7
			S681,458,582.3,450S455,495.3,455,495.3s-21.3,39.3-30.7,79.3c-9.3,40-37.3,72.7-76,76.3s-62.7-37-77.3-86.3
			C256.3,515.3,277.7,490,201,412.7z"/>
	</g>
</g>
<g id="begin">
	<g>
		<path class="st1" d="M83.9,412.4c0,0-55.3-35-38.9-88.2s242.9-167.2,242.9-167.2s46.1-24.7,109.7-96S635.8,4.4,646.1,4.4
			s50.7,4.7,85.6,20.7s42,36.7,17.4,66c-24.6,29.3-92.2,126.7-50.2,168c42,41.3,59.4,53.3,59.4,53.3s28.7,22.7,34.8,44.7
			s28.7,100.7-123,92.7s-195.8,45.3-195.8,45.3s-32.8,39.3-47.1,79.3s-57.4,72.7-116.8,76.3c-59.4,3.7-96.3-37-118.9-86.3
			S201.7,489.8,83.9,412.4z"/>
	</g>
</g>
</svg>
