<?xml version="1.0" encoding="utf-8"?>
<!-- Generator: Adobe Illustrator 21.1.0, SVG Export Plug-In . SVG Version: 6.00 Build 0)  -->
<svg version="1.1" xmlns="http://www.w3.org/2000/svg" xmlns:xlink="http://www.w3.org/1999/xlink" x="0px" y="0px"
	 viewBox="0 0 830.6 911" enable-background="new 0 0 830.6 911" xml:space="preserve">
<g id="calque_2_">
	<path opacity="0.34" fill="#6666FF" d="M128.2,490c-8.9,93.1,74.6,361.6,281.6,281.1c94.5-36.8,133.7-156.2,183.7-223.1
		C954.4,65.1,414.7,149.5,332.9,209.1S150.5,256.4,128.2,490z"/>
</g>
<g id="calque_1_">
	<path opacity="0.79" fill="#6666CC" d="M414,130.3c-208.4-28.9-465,298.7-145.7,560c185.8,160,428.2,122,326.1-141.7
		C525.5,370.4,724.7,173.3,414,130.3z"/>
</g>
<g id="calque">
	<path fill="#483F92" d="M173.9,427.9c-10.3,139.3,154.6,265.8,233.9,303.7c64.3,30.9,219.4,28.1,191.2-138
		c-31.3-184.4,36.3-154.7,90.9-283.3c57.7-137.8-98.5-179.5-236.6-148.2C331.5,189.9,190.6,230.7,173.9,427.9z"/>
	<g>
		<path fill="#FFFFFF" d="M227.3,346.9h10.3v46.8h-10.3V346.9z"/>
		<path fill="#FFFFFF" d="M249.3,346.9h9.5l21.9,28.8v-28.8h10.2v46.8h-8.8L259.4,364v29.8h-10.2V346.9z"/>
		<path fill="#FFFFFF" d="M302.1,346.9h9.5l21.9,28.8v-28.8h10.2v46.8h-8.8L312.3,364v29.8h-10.2V346.9z"/>
		<path fill="#FFFFFF" d="M391.9,391c-2.4,2.4-7.1,3.5-14.2,3.5c-7.1,0-13-2.3-17.7-7c-4.7-4.7-7.1-10.4-7.1-17.2
			c0-6.7,2.4-12.4,7.2-17.2c4.7-4.7,10.7-7,17.8-7c7.1,0,13,2.3,17.8,7c4.7,4.7,7,10.4,7,17.2c0,6.7-2.4,12.4-7.1,17.1L391.9,391z
			 M369.6,382.9c1.3,1.4,4.1,2.1,8.2,2.1c4.1,0,7.5-1.4,10.1-4.3c2.6-2.9,3.9-6.3,3.9-10.4c0-4.1-1.3-7.6-4-10.4
			c-2.7-2.9-6.1-4.3-10.2-4.3c-4.1,0-7.5,1.4-10.1,4.2c-2.6,2.9-3.9,6.4-3.9,10.5c0,4.1,1.3,7.6,4,10.4L369.6,382.9z"/>
		<path fill="#FFFFFF" d="M416.5,387.5c-4.6-4.6-6.9-10.3-6.9-17.2c0-6.8,2.3-12.5,6.9-17.2c4.6-4.7,10.4-7,17.5-7
			c4,0,7.4,0.6,10.2,1.9c2.9,1.4,5.5,3.3,7.9,5.7l-6.2,7.1c-2-1.8-3.9-3.1-5.6-4c-1.8-0.8-4-1.2-6.4-1.2c-3.9,0-7.2,1.4-9.7,4.2
			c-2.6,2.9-3.9,6.4-3.9,10.5c0,4.1,1.3,7.6,3.9,10.4c2.5,2.9,5.8,4.3,9.7,4.3c2.5,0,4.6-0.4,6.5-1.3c1.7-0.8,3.7-2.2,5.8-4.1l6.6,7
			c-2.5,2.7-5.3,4.7-8.2,6c-3.1,1.3-6.7,1.9-11,1.9C426.8,394.5,421.1,392.2,416.5,387.5z"/>
		<path fill="#FFFFFF" d="M461.1,346.9h35.3v9.2h-25.1v9.5h22.1v9.2h-22.1v9.8h25.4v9.2h-35.6V346.9z"/>
		<path fill="#FFFFFF" d="M505.9,346.9h9.5l21.9,28.8v-28.8h10.2v46.8h-8.8L516,364v29.8h-10.2V346.9z"/>
		<path fill="#FFFFFF" d="M569.6,356.4h-14.2v-9.5h38.8v9.5h-14.2v37.3h-10.3V356.4z"/>
		<path fill="#FFFFFF" d="M343.8,415.4h12.4c3.6,0,6.4,1,8.5,2.9c2.1,1.9,3.1,4.5,3.1,7.7c0,3.4-1.2,6-3.5,7.8
			c-2.3,1.9-5.2,2.8-8.8,2.8h-5.1v9.1h-6.7V415.4z M355.8,430.7c1.6,0,2.9-0.4,3.9-1.3c0.9-0.9,1.4-2,1.4-3.4c0-1.4-0.5-2.6-1.4-3.4
			c-1-0.8-2.3-1.2-4-1.2h-5.2v9.3H355.8z"/>
		<path fill="#FFFFFF" d="M372.8,415.4h13.9c3.8,0,6.8,1,8.8,3.1c1.7,1.7,2.6,4.1,2.6,7c0,4.7-2.2,7.8-6.5,9.4l7.4,10.8h-7.8
			l-6.6-9.7h-5.2v9.7h-6.7V415.4z M386.2,430.2c1.6,0,2.9-0.4,3.8-1.2c0.9-0.8,1.3-1.8,1.3-3.2c0-1.4-0.5-2.5-1.4-3.3
			c-0.9-0.7-2.2-1.1-3.9-1.1h-6.6v8.7H386.2z"/>
		<path fill="#FFFFFF" d="M404.4,415.4h6.7v30.3h-6.7V415.4z"/>
		<path fill="#FFFFFF" d="M418.7,415.4h6.2l14.2,18.7v-18.7h6.6v30.3H440l-14.7-19.3v19.3h-6.6V415.4z"/>
		<path fill="#FFFFFF" d="M460,421.6h-9.2v-6.2h25.1v6.2h-9.2v24.2H460V421.6z"/>
	</g>
	<path fill="#F2E3BC" d="M321.6,461.6c-33.2,17.5-71.5,38-93.2,49.7C262.9,578.2,344.1,488,321.6,461.6z"/>
	<path fill="#981A1C" d="M321.6,461.6c43.2,58.7-61.2,116-93.2,49.7c12,18.2,19.9,22.1,29.2,24c18.2,2.9,58.5-21.1,65.6-52.2
		C324.1,478,325.9,468.8,321.6,461.6z"/>
	<path fill="#CCAE79" d="M289.7,478.4c11.2-1.2-2.2,42.1-35.1,18.7C272.3,486.9,272.3,486.9,289.7,478.4z"/>
	<path fill="#7E3920" d="M273.9,487.5c0,0-3.8,0.9-4.2,3c-0.4,2.1-1.3,4.9-0.4,6.8C270.1,499.1,277.2,489.2,273.9,487.5z"/>
	<path fill="#7E3920" d="M277.8,485.9c0,0-2.1,3.2,1.9,4.9c4,1.7,4.4,0.9,6,0.2C287.3,490.3,282.8,483,277.8,485.9z"/>
	<path fill="#EB920D" d="M359.6,554c-10.3,6.6-43.2,31.5-15.7,76.4c27.5,45,86.4,8.1,86.4,8.1L359.6,554z"/>
	<path fill="#D4720D" d="M364.9,560.4l-5.2-6.4l3.5-0.5c0.3,0,0.5,0.1,0.7,0.3l4.6,5.5L364.9,560.4"/>
	<path fill="#D4720D" d="M430.3,638.6l-5.5-6.3l3-2.1l4.7,5.4c0.3,0.3,0.2,0.8-0.1,1.1L430.3,638.6z"/>
	<path fill="#F2AF41" d="M360.8,555.4c0,0-3,4.7-6.1,6.4c-3.1,1.7-3.3,2.9-3.3,2.9s-5.9,5.8-4.9,8c1.6,3.7-1.9,9.1-4.2,10.5
		c-2.1,1.3-1.8,6.4-0.9,8.1c0.8,1.6,1.6,6.8,1.1,7.4c-2.9,3,0.7,9.6,1,10c1.3,1.6-1.7,7.6,2.5,11c0.8,0.6,2.9,2.8,2.1,7.5
		c-0.4,2.8,10.5,5.7,10.1,11c-0.1,2.1,8,1.1,8.7,3.4c0.6,1.9,7.8,2.2,9.7,4.7c2.5,3.2,17-2.2,21.9,1.3c6.6,1,10.3-6.9,14.4-6.8
		c4.4,0.1,8.2-2.6,8.5-3.2c2.1-3.7,2.8-1.7,3.9-1.9c1.1-0.2,1.4-1.2,0.9-1.9S360.8,555.4,360.8,555.4z"/>
	<line fill="#EB920D" x1="364.2" y1="563.8" x2="360.5" y2="559.7"/>
	<path fill="#B80C0B" d="M364.9,560.4c0,0,33.8,40,59.9,71.9C348.8,677.4,324.2,579.4,364.9,560.4z"/>
	<polygon fill="#9F0C0B" points="364.9,560.4 424.8,632.2 427.8,630.2 368.5,559.2 	"/>
	<path fill="#E6D2B3" d="M391.9,592.7c0,0-3,0.6-2.9,1.2c0.2,2.4-3,1.6-3.3,2.6c-0.3,1.4,5.3,2.6,1.2,5.5c-4.2,2.8,0.3,1.1,2,1.2
		c1.7,0.1,0.4,2.4,0.3,4.5c0,2,2.5-2,3.9-2.2c1.3-0.2,3.9-0.7,4.8,5.1c0.9,5.8,1.2-1.3,1.9-2c0.8-0.7,1,1.4,2,0.9s0.4-4.5-0.4-5.5
		C399.2,601.1,391.9,592.7,391.9,592.7z"/>
	<path fill="#D15454" d="M372.7,620.2c0,0-2.6,2.9-3.2,4.3c-0.5,1.5,1.6,0.1,1.6,0.1s2.3-2.3,2.6-3.6
		C373.9,619.8,372.7,620.2,372.7,620.2z"/>
	<path fill="#D15454" d="M364.9,622.8c0,0-3.6,3.7-4.6,5.2c-1.1,1.5-0.3,1.7,1.1,0.8c1.4-0.9,4.4-4.5,4.6-5.3
		C366.2,622.6,364.9,622.8,364.9,622.8z"/>
	<path fill="#D15454" d="M359,622.7c0,0-1.2,1.2-1.6,2.3c-0.5,1.2,0.1,1.5,0.8,1c0.7-0.4,1.9-2.2,2.5-3.1
		C361.2,622,359,622.7,359,622.7z"/>
	<path fill="#D15454" d="M350.8,615.1c0,0,0.6,1.3,1.7,1.4c1.1,0.1,1.5-0.6,1.2-1c-0.2-0.5-1.2-1.4-2.1-1.2
		C350.8,614.6,350.8,615.1,350.8,615.1z"/>
	<path fill="#D15454" d="M377.4,609.2c-0.8,0.8-1.4,0.8-1.6,2c-0.2,1.1,1.2,0.5,1.2,0.5s1.7-1.2,1.5-1.8
		C378.2,609.2,377.4,609.2,377.4,609.2z"/>
	<path fill="#D15454" d="M374.7,611.9c0,0-1.4,0.7-1.5,1.9c-0.2,1.2,0.9,1.1,0.9,1.1s1.3-0.4,1.6-1.4c0.2-1.1,0.6-1,0-1.6
		C375,611.3,374.7,611.9,374.7,611.9z"/>
	<path fill="#D15454" d="M368.2,586c0,0-1.4,0.2-3,1.6c-1.7,1.4-1,1.9-1,1.9s0.5,0.6,1.5,0.1c1-0.5,2.6-1.5,2.8-2.3
		C368.5,586.5,368.2,586,368.2,586z"/>
	<path fill="#D15454" d="M363.9,570.7c0,0-2,1.4-2.7,2.4s0.5,0.8,0.5,0.8s2.2,0.1,2.3-0.8C364,572.2,363.9,570.7,363.9,570.7z"/>
	<path fill="#D15454" d="M363,566.3l-0.3,1.9c0,0,1.2,1,1.1-0.2C363.6,566.8,363,566.3,363,566.3z"/>
	<path fill="#EB920D" d="M416.6,624"/>
	<path fill="#BC052C" d="M316,261.8c-2.3,2.6-3.7-0.2-11.1,7.4c-1.2,1.3-2.4,3.3-2.1,4.2c0.4,1.4-2.4,5.9-1.6,6.7
		c0.8,0.7-1,6.6,1.8,8c1.6,0.8,5.2,4.7,8.3,4.9c1.4,0.1,4.9,1.5,6.3,2.8c3.8,3.5,10.8,0.1,13.5-2.1c1.8-1.5,4.9-6.4,5.4-7.4
		c0.9-1.6,1-6.5,0.9-7c-0.1-0.5,0.5-5.3-1.8-10c-1-2.1-5.6-7.6-8.4-7.4C325.7,262,318.3,259.2,316,261.8z"/>
	<path fill="#A3052C" d="M328.5,262.4c0,0-2,20.4-11.7,19.7c-9.7-0.7-5,2-10.6,3c-5.6,1-3.4,3.5-1.6,4.3c0.9,0.4,2.5,1.5,4.3,2.8
		c3.3,1.4,6.5,1.4,9.7,4.5c3.3,1.2,11,1.9,16.3-7.3c1.2-1.6,3.7-6.2,2.2-14.8C336.6,272.1,333.9,264.3,328.5,262.4z"/>
	<path fill="#780F32" d="M317.7,284.4c0,0-6.2-0.4-6.9,1.2c-0.7,1.6,0.7,5.6,2.2,5.6c1.5,0,4.6,1.3,4.8,1.9c0.5,1.1,5.4,1.5,5.4,0.3
		S324.7,287.7,317.7,284.4z"/>
	<path fill="#BA5B74" d="M315.3,274.1c0,0-2.4,3,0,3.7C317.7,278.6,317.6,274.3,315.3,274.1z"/>
	<path fill="#BA5B74" d="M319.7,274.6c0,0-0.5,2.1,0.2,2.4C320.7,277.3,320.3,274.7,319.7,274.6z"/>
	<path fill="#9E4A66" d="M325.7,276.9c0,0-0.8,1.7,0,1.9S325.7,276.9,325.7,276.9z"/>
	<path fill="#9E4A66" d="M328.5,274.9c0,0-0.9,2.1,0,2.3C329.4,277.3,329.3,275.1,328.5,274.9z"/>
	<path fill="#9E4A66" d="M328.1,280.7c0,0-1.3,0.9-0.4,1.3C328.6,282.4,328.1,280.7,328.1,280.7z"/>
	<path fill="#9E4A66" d="M327.4,270.9c0,0-0.6,0.8,0,1.2C328,272.4,327.4,270.9,327.4,270.9z"/>
	<path fill="#BA5B74" d="M323.1,271.5c0,0-1.2,1.3,0,1.4C324.3,273,323.1,271.5,323.1,271.5z"/>
	<path fill="#BA5B74" d="M315.7,270.3c0,0-1.7,1.5,0,1.9S315.7,270.3,315.7,270.3z"/>
	<path fill="#BA5B74" d="M312.6,273.7c0,0-1.4,1.3-0.4,1.5C313.1,275.5,312.6,273.7,312.6,273.7z"/>
	<path fill="#BA5B74" d="M310.4,271.5c0,0-2.3,1.8-1.4,2.2C309.9,274.1,310.3,272.2,310.4,271.5z"/>
	<path fill="#BA5B74" d="M309.1,278.2c0,0-0.7,1.1,0.2,1.5C310.3,280.1,309.1,278.2,309.1,278.2z"/>
	<path fill="#BA5B74" d="M311.8,279.5c0,0,0.4,2.2,1.7,1.4C314.9,280.1,311.8,279.5,311.8,279.5z"/>
	<path fill="#BA5B74" d="M316.4,280.7c0,0-1.4,0.8,0,0.7S317.6,280.9,316.4,280.7z"/>
	<path fill="#BA5B74" d="M320.5,279.2c0,0-1.1-0.1-0.6,1.1S321.5,280.2,320.5,279.2z"/>
	<path fill="#9E4A66" d="M324.7,282.5c0,0-2.3,1.1-1,1.7S324.7,282.5,324.7,282.5z"/>
	<path fill="#9E4A66" d="M326.6,286.5c0,0-1.9,0.5-2.2,1.6S326.9,287.9,326.6,286.5z"/>
	<path fill="#BA5B74" d="M326.1,265.8c0,0-0.1,1.5,0.9,1.5C328,267.3,326.9,266,326.1,265.8z"/>
	<path fill="#BA5B74" d="M322,268c0,0-0.6,1.3,0.4,1.7C323.3,270.1,323.2,268.6,322,268z"/>
	<path fill="#BA5B74" d="M317.4,267.8c0,0,1.3,0.2,1.8,0.8s0.9-0.4,0.8-0.8c-0.1-0.5-1.6-1.2-1.9-0.7
		C317.7,267.5,317.4,267.8,317.4,267.8z"/>
	<path fill="#BA5B74" d="M313.6,268.8c0,0-0.6,1,0.3,1C314.7,269.7,314.6,268.9,313.6,268.8z"/>
	<path fill="#BA5B74" d="M309.3,268.9c0,0-0.9,0.7-0.5,0.9c0.4,0.2,1.2-0.1,1.2-0.4C310,269,309.3,268.9,309.3,268.9z"/>
	<path fill="#BA5B74" d="M317.1,265.3c-0.6,0.2-1,1-1,1s1.6,0.7,1.6,0c0-0.7,1-0.5,1-0.5S318.6,264.9,317.1,265.3z"/>
	<path fill="#BA5B74" d="M321.5,264.3c0,0,0,1.3,0.9,1.3s1.3-0.6,1.3-0.6S322.8,263.5,321.5,264.3z"/>
	<path fill="#BA5B74" d="M326.4,263.5c0,0-0.2,0.8,0.4,0.8C327.4,264.3,327.2,263.5,326.4,263.5z"/>
	<path fill="#BA5B74" d="M303.9,278.8c-1-0.1,1.2,1.6,1.2,1.6s0.7,0.9,0.7,0C305.9,279.4,304.6,278.9,303.9,278.8z"/>
	<path fill="#9E4A66" d="M304.8,283.2c0,0,2.2,3.5,2.1,1.9C306.7,283.5,304.8,283.2,304.8,283.2z"/>
	<path fill="#9E4A66" d="M330.9,285c0,0-1,0.3-0.4,0.5s1.2-0.2,1.2-0.2L330.9,285z"/>
	<path fill="#9E4A66" d="M331.9,279.5c0,0,0.2,0.9,0.6,0.5c0.4-0.4,0-1,0-1L331.9,279.5z"/>
	<path fill="#9E4A66" d="M331.5,277.6c0.4,0,0.8-0.6,0.8-0.6l-0.8-0.3l-0.5,0.5L331.5,277.6z"/>
	<path fill="#9E4A66" d="M331.4,270.1c0.6,0,2-0.8,1.3-0.8c-0.7,0-1.7,0.5-1.7,0.5L331.4,270.1z"/>
	<path fill="#BA5B74" d="M321.2,263c0,0-0.2,0.6,0.3,0.5c0.5-0.1,1.1-0.7,1.1-0.7s-0.5-0.7-0.7-0.4C321.7,262.7,321.2,263,321.2,263
		z"/>
	<path fill="#BC052C" d="M340.1,280.1c-2.3,2.6-3.7-0.2-11.1,7.4c-1.2,1.3-2.4,3.3-2.1,4.2c0.4,1.4-2.4,5.9-1.6,6.7
		c0.8,0.7-1,6.6,1.8,8c1.6,0.8,5.2,4.7,8.3,4.9c1.4,0.1,4.9,1.5,6.3,2.8c3.8,3.5,10.8,0.1,13.5-2.1c1.8-1.5,4.9-6.4,5.4-7.4
		c0.9-1.6,1-6.5,0.9-7c-0.1-0.5,0.5-5.3-1.8-10c-1-2.1-5.6-7.6-8.4-7.4C349.8,280.3,342.4,277.5,340.1,280.1z"/>
	<path fill="#A3052C" d="M352.6,280.7c0,0-2,20.4-11.7,19.7c-9.7-0.7-5,2-10.6,3c-5.6,1-3.4,3.5-1.6,4.3c0.9,0.4,2.5,1.5,4.3,2.8
		c3.3,1.4,6.5,1.4,9.7,4.5c3.3,1.2,11,1.9,16.3-7.3c1.2-1.6,3.7-6.2,2.2-14.8C360.7,290.4,358,282.6,352.6,280.7z"/>
	<path fill="#780F32" d="M341.8,302.7c0,0-6.2-0.4-6.9,1.2c-0.7,1.6,0.7,5.6,2.2,5.6c1.5,0,4.6,1.3,4.8,1.9c0.5,1.1,5.4,1.5,5.4,0.3
		S348.8,306,341.8,302.7z"/>
	<path fill="#BA5B74" d="M339.4,292.4c0,0-2.4,3,0,3.7C341.8,296.9,341.7,292.6,339.4,292.4z"/>
	<path fill="#BA5B74" d="M343.8,292.9c0,0-0.5,2.1,0.2,2.4C344.7,295.6,344.4,293,343.8,292.9z"/>
	<path fill="#9E4A66" d="M349.7,295.2c0,0-0.8,1.7,0,1.9S349.7,295.2,349.7,295.2z"/>
	<path fill="#9E4A66" d="M352.6,293.2c0,0-0.9,2.1,0,2.3C353.5,295.6,353.4,293.4,352.6,293.2z"/>
	<path fill="#9E4A66" d="M352.2,299c0,0-1.3,0.9-0.4,1.3S352.2,299,352.2,299z"/>
	<path fill="#9E4A66" d="M351.5,289.2c0,0-0.6,0.8,0,1.2C352.1,290.8,351.5,289.2,351.5,289.2z"/>
	<path fill="#BA5B74" d="M347.2,289.8c0,0-1.2,1.3,0,1.4S347.2,289.8,347.2,289.8z"/>
	<path fill="#BA5B74" d="M339.8,288.6c0,0-1.7,1.5,0,1.9S339.8,288.6,339.8,288.6z"/>
	<path fill="#BA5B74" d="M336.7,292c0,0-1.4,1.3-0.4,1.5C337.2,293.8,336.7,292,336.7,292z"/>
	<path fill="#BA5B74" d="M334.5,289.8c0,0-2.3,1.8-1.4,2.2C334,292.4,334.3,290.5,334.5,289.8z"/>
	<path fill="#BA5B74" d="M333.2,296.5c0,0-0.7,1.1,0.2,1.5C334.3,298.4,333.2,296.5,333.2,296.5z"/>
	<path fill="#BA5B74" d="M335.9,297.8c0,0,0.4,2.2,1.7,1.4S335.9,297.8,335.9,297.8z"/>
	<path fill="#BA5B74" d="M340.5,299c0,0-1.4,0.8,0,0.7C341.9,299.7,341.6,299.2,340.5,299z"/>
	<path fill="#BA5B74" d="M344.6,297.5c0,0-1.1-0.1-0.6,1.1S345.6,298.5,344.6,297.5z"/>
	<path fill="#9E4A66" d="M348.8,300.8c0,0-2.3,1.1-1,1.7S348.8,300.8,348.8,300.8z"/>
	<path fill="#9E4A66" d="M350.7,304.8c0,0-1.9,0.5-2.2,1.6S351,306.2,350.7,304.8z"/>
	<path fill="#BA5B74" d="M350.2,284.2c0,0-0.1,1.5,0.9,1.5C352,285.6,351,284.3,350.2,284.2z"/>
	<path fill="#BA5B74" d="M346.1,286.3c0,0-0.6,1.3,0.4,1.7C347.4,288.4,347.3,287,346.1,286.3z"/>
	<path fill="#BA5B74" d="M341.5,286.1c0,0,1.3,0.2,1.8,0.8c0.5,0.6,0.9-0.4,0.8-0.8c-0.1-0.5-1.6-1.2-1.9-0.7
		C341.8,285.8,341.5,286.1,341.5,286.1z"/>
	<path fill="#BA5B74" d="M337.7,287.1c0,0-0.6,1,0.3,1C338.8,288.1,338.7,287.2,337.7,287.1z"/>
	<path fill="#BA5B74" d="M333.4,287.2c0,0-0.9,0.7-0.5,0.9c0.4,0.2,1.2-0.1,1.2-0.4C334.1,287.4,333.4,287.2,333.4,287.2z"/>
	<path fill="#BA5B74" d="M341.2,283.6c-0.6,0.2-1,1-1,1s1.6,0.7,1.6,0c0-0.7,1-0.5,1-0.5S342.7,283.2,341.2,283.6z"/>
	<path fill="#BA5B74" d="M345.6,282.6c0,0,0,1.3,0.9,1.3s1.3-0.6,1.3-0.6S346.9,281.8,345.6,282.6z"/>
	<path fill="#BA5B74" d="M350.5,281.8c0,0-0.2,0.8,0.4,0.8C351.5,282.6,351.3,281.8,350.5,281.8z"/>
	<path fill="#BA5B74" d="M328,297.1c-1-0.1,1.2,1.6,1.2,1.6s0.7,0.9,0.7,0C330,297.7,328.7,297.2,328,297.1z"/>
	<path fill="#9E4A66" d="M328.9,301.5c0,0,2.2,3.5,2.1,1.9C330.8,301.8,328.9,301.5,328.9,301.5z"/>
	<path fill="#9E4A66" d="M355,303.4c0,0-1,0.3-0.4,0.5s1.2-0.2,1.2-0.2L355,303.4z"/>
	<path fill="#9E4A66" d="M356,297.8c0,0,0.2,0.9,0.6,0.5c0.4-0.4,0-1,0-1L356,297.8z"/>
	<path fill="#9E4A66" d="M355.6,295.9c0.4,0,0.8-0.6,0.8-0.6l-0.8-0.3l-0.5,0.5L355.6,295.9z"/>
	<path fill="#9E4A66" d="M355.5,288.4c0.6,0,2-0.8,1.3-0.8c-0.7,0-1.7,0.5-1.7,0.5L355.5,288.4z"/>
	<path fill="#BA5B74" d="M345.3,281.3c0,0-0.2,0.6,0.3,0.5c0.5-0.1,1.1-0.7,1.1-0.7s-0.5-0.7-0.7-0.4
		C345.8,281,345.3,281.3,345.3,281.3z"/>
	<path fill="#BC052C" d="M339.4,249.4c-2.3,2.6-3.7-0.2-11.1,7.4c-1.2,1.3-2.4,3.3-2.1,4.2c0.4,1.4-2.4,5.9-1.6,6.7
		c0.8,0.7-1,6.6,1.8,8c1.6,0.8,5.2,4.7,8.3,4.9c1.4,0.1,4.9,1.5,6.3,2.8c3.8,3.5,10.8,0.1,13.5-2.1c1.8-1.5,4.9-6.4,5.4-7.4
		c0.9-1.6,1-6.5,0.9-7s0.5-5.3-1.8-10c-1-2.1-5.6-7.6-8.4-7.4C349.2,249.6,341.8,246.8,339.4,249.4z"/>
	<path fill="#A3052C" d="M351.9,250c0,0-2,20.4-11.7,19.7c-9.7-0.7-5,2-10.6,3s-3.4,3.5-1.6,4.3c0.9,0.4,2.5,1.5,4.3,2.8
		c3.3,1.4,6.5,1.4,9.7,4.5c3.3,1.2,11,1.9,16.3-7.3c1.2-1.6,3.7-6.2,2.2-14.8C360.1,259.6,357.4,251.9,351.9,250z"/>
	<path fill="#780F32" d="M341.2,272c0,0-6.2-0.4-6.9,1.2c-0.7,1.6,0.7,5.6,2.2,5.6s4.6,1.3,4.8,1.9c0.5,1.1,5.4,1.5,5.4,0.3
		S348.2,275.3,341.2,272z"/>
	<path fill="#BA5B74" d="M338.8,261.7c0,0-2.4,3,0,3.7C341.2,266.1,341.1,261.9,338.8,261.7z"/>
	<path fill="#BA5B74" d="M343.1,262.2c0,0-0.5,2.1,0.2,2.4C344.1,264.9,343.8,262.3,343.1,262.2z"/>
	<path fill="#9E4A66" d="M349.1,264.5c0,0-0.8,1.7,0,1.9C349.9,266.7,349.1,264.5,349.1,264.5z"/>
	<path fill="#9E4A66" d="M352,262.4c0,0-0.9,2.1,0,2.3S352.8,262.7,352,262.4z"/>
	<path fill="#9E4A66" d="M351.6,268.3c0,0-1.3,0.9-0.4,1.3S351.6,268.3,351.6,268.3z"/>
	<path fill="#9E4A66" d="M350.9,258.5c0,0-0.6,0.8,0,1.2C351.5,260,350.9,258.5,350.9,258.5z"/>
	<path fill="#BA5B74" d="M346.6,259.1c0,0-1.2,1.3,0,1.4C347.8,260.6,346.6,259.1,346.6,259.1z"/>
	<path fill="#BA5B74" d="M339.1,257.9c0,0-1.7,1.5,0,1.9C340.8,260.2,339.1,257.9,339.1,257.9z"/>
	<path fill="#BA5B74" d="M336.1,261.3c0,0-1.4,1.3-0.4,1.5C336.5,263.1,336.1,261.3,336.1,261.3z"/>
	<path fill="#BA5B74" d="M333.8,259.1c0,0-2.3,1.8-1.4,2.2C333.4,261.7,333.7,259.8,333.8,259.1z"/>
	<path fill="#BA5B74" d="M332.6,265.8c0,0-0.7,1.1,0.2,1.5C333.7,267.7,332.6,265.8,332.6,265.8z"/>
	<path fill="#BA5B74" d="M335.3,267.1c0,0,0.4,2.2,1.7,1.4C338.3,267.6,335.3,267.1,335.3,267.1z"/>
	<path fill="#BA5B74" d="M339.9,268.3c0,0-1.4,0.8,0,0.7S341,268.4,339.9,268.3z"/>
	<path fill="#BA5B74" d="M344,266.8c0,0-1.1-0.1-0.6,1.1C343.9,269,345,267.8,344,266.8z"/>
	<path fill="#9E4A66" d="M348.1,270.1c0,0-2.3,1.1-1,1.7S348.1,270.1,348.1,270.1z"/>
	<path fill="#9E4A66" d="M350,274.1c0,0-1.9,0.5-2.2,1.6C347.4,276.7,350.4,275.4,350,274.1z"/>
	<path fill="#BA5B74" d="M349.6,253.4c0,0-0.1,1.5,0.9,1.5C351.4,254.9,350.4,253.6,349.6,253.4z"/>
	<path fill="#BA5B74" d="M345.4,255.6c0,0-0.6,1.3,0.4,1.7S346.7,256.2,345.4,255.6z"/>
	<path fill="#BA5B74" d="M340.8,255.4c0,0,1.3,0.2,1.8,0.8c0.5,0.6,0.9-0.4,0.8-0.8c-0.1-0.5-1.6-1.2-1.9-0.7
		C341.2,255,340.8,255.4,340.8,255.4z"/>
	<path fill="#BA5B74" d="M337.1,256.4c0,0-0.6,1,0.3,1C338.2,257.3,338.1,256.5,337.1,256.4z"/>
	<path fill="#BA5B74" d="M332.7,256.5c0,0-0.9,0.7-0.5,0.9c0.4,0.2,1.2-0.1,1.2-0.4C333.5,256.6,332.7,256.5,332.7,256.5z"/>
	<path fill="#BA5B74" d="M340.5,252.8c-0.6,0.2-1,1-1,1s1.6,0.7,1.6,0c0-0.7,1-0.5,1-0.5S342,252.4,340.5,252.8z"/>
	<path fill="#BA5B74" d="M345,251.9c0,0,0,1.3,0.9,1.3s1.3-0.6,1.3-0.6S346.2,251.1,345,251.9z"/>
	<path fill="#BA5B74" d="M349.8,251.1c0,0-0.2,0.8,0.4,0.8C350.9,251.9,350.6,251.1,349.8,251.1z"/>
	<path fill="#BA5B74" d="M327.4,266.4c-1-0.1,1.2,1.6,1.2,1.6s0.7,0.9,0.7,0S328.1,266.4,327.4,266.4z"/>
	<path fill="#9E4A66" d="M328.3,270.8c0,0,2.2,3.5,2.1,1.9C330.2,271.1,328.3,270.8,328.3,270.8z"/>
	<path fill="#9E4A66" d="M354.3,272.6c0,0-1,0.3-0.4,0.5s1.2-0.2,1.2-0.2L354.3,272.6z"/>
	<path fill="#9E4A66" d="M355.4,267.1c0,0,0.2,0.9,0.6,0.5s0-1,0-1L355.4,267.1z"/>
	<path fill="#9E4A66" d="M355,265.2c0.4,0,0.8-0.6,0.8-0.6l-0.8-0.3l-0.5,0.5L355,265.2z"/>
	<path fill="#9E4A66" d="M354.8,257.6c0.6,0,2-0.8,1.3-0.8c-0.7,0-1.7,0.5-1.7,0.5L354.8,257.6z"/>
	<path fill="#BA5B74" d="M344.6,250.6c0,0-0.2,0.6,0.3,0.5c0.5-0.1,1.1-0.7,1.1-0.7s-0.5-0.7-0.7-0.4
		C345.1,250.3,344.6,250.6,344.6,250.6z"/>
	<path fill="#DB6516" d="M485.4,294.6c0,0,29.5-28.6-4.6-65.1c-32.6-37.1-67.2-13.5-67.2-13.5l-0.9-1.3c0,0,15.2-22.8,55.2-13.5
		c47.5,12.5,52,69.7,19.8,96.5C485.8,295.4,485.4,294.6,485.4,294.6z"/>
	<path fill="#FDD9A6" d="M485.7,295c9-6.3,18.2-19.7,12.5-34.5s-7-24.4-16-31.1c-9-6.6-6.7-9.6-24.3-17.6c-17.6-8-31.6-2.7-31.6-2.7
		s-9.2,2.2-13.2,6.1c6.2,8.7,9.5,8.1,16.7,12.7c15.8,10,34.3,26.9,37.9,45.4C474.4,280.9,480.5,288.5,485.7,295z"/>
	<path fill="#F99106" d="M417,220c0,0,9.5,11.7,13.7,14.1c2.6,1.4,7.9,6.3,8.6,8c0.8,1.6,6.5,8,6.5,8s7.2,7.5,8.5,9
		c1.4,1.8,11.4,11.9,11.5,13.5c0.1,1.6,6.8,8.8,8.4,10.3c2.2,2.1,7.2,7,7.2,7s8.8-5.9,8.9-8.6c0.3-6.2,1.7-6.5,2.8-9.9
		c0.5-4.6,0.4-9.6-1.7-13.4c-2.6-10.1-6.5-10.4-7.7-13.9c-1.5-4.3-13.1-19.3-17.7-20.2c-0.9-0.6-5.5-0.7-12.1-6.9
		c-5.6-4.4-14.2-4-25.7-1.8C425.6,215.4,417,220,417,220z"/>
	<path fill="#FFD69F" d="M457.6,262.6c0,0,3.1-0.5,3.1-1.1c-0.1-2.4,3.2-1.4,3.5-2.5c0.4-1.4-5.3-3-0.9-5.7c4.4-2.7-0.3-1.1-2-1.3
		s-0.3-2.5-0.1-4.6c0.1-2.1-2.7,1.9-4.1,2.1c-1.4,0.1-4.1,0.5-4.7-5.5c-0.6-6-1.2,1.3-2.1,2c-0.8,0.7-0.9-1.5-2-1
		c-1.1,0.5-2,5.6-1.1,6.6C449.6,253.9,457.6,262.6,457.6,262.6z"/>
	<path fill="#8A0F09" d="M616.7,249.6c-12.2,9.6-8.1,27.2,1.1,31c5.5,3.7,12.7,4.4,21.2-4.5c3.5-3.4,10.8-12.2,2.5-19.5
		c-5.6-2.8-9.5-3.9-9.5-3.9s-2.2-0.2-5.4-1.6C625.8,248.2,618.8,248,616.7,249.6z"/>
	<path fill="#F2A7A2" d="M619.2,254.8c0,0-0.7,2-0.1,2.8c0.7,0.8,1,4.2,1,4.2s-2.2,6.1-3.4,4.1c-1.2-2-1.9-7.2-1.4-7.7
		C615.8,257.7,618.3,254.3,619.2,254.8z"/>
	<path fill="#500404" d="M624.7,283.1c0,0-1.3-1.8-0.4-2.6s4.4-2.2,4.4-2.2s6.1-4.1,5.8-4.7c-0.3-0.6,3.4-1.7,3.4-1.7l3.4,1.7
		C641.3,273.6,634.3,283.6,624.7,283.1z"/>
	<path fill="#A4131B" d="M609.2,248.1"/>
	<path fill="#B6131B" d="M623.8,248.9c-2.5,5.8,2.4,15.7,14.9,6.3c-5.3-2.6-6.5-2.5-8.4-2.8C627.7,252,626.4,249.5,623.8,248.9z"/>
	<path fill="#70131B" d="M628.6,253.5c-0.2,1.1,2,3.4,4.1,1.7C634.8,253.5,628.9,252,628.6,253.5z"/>
	<path fill="#BB9332" d="M629,220.7c-1.1,0.6-2,0.2-0.8,3c1.1,2.6,3.1,11.1,3.1,14.9c0,3.9-1.3,15.7-1.3,15.7s1.1,0.7,1.5,0.4
		c3.2-10.9-0.9-23.2-0.6-30.6C631.1,222.5,631.3,221.1,629,220.7z"/>
	<path fill="#8A0F09" d="M584.6,252c-8.9,12.7,0.2,28.3,10,29.3c6.3,1.9,13.4,0.5,19-10.5c2.4-4.3,6.8-14.8-3.3-19.4
		c-6.2-1-10.2-0.9-10.2-0.9s-2.1,0.4-5.7,0C592.8,248,586.1,249.9,584.6,252z"/>
	<path fill="#F2A7A2" d="M588.4,256.3c0,0-0.1,2.1,0.7,2.7c0.9,0.6,2.2,3.7,2.2,3.7s-0.4,6.5-2.1,4.9c-1.7-1.6-3.9-6.4-3.6-6.9
		C586,260.1,587.4,256.1,588.4,256.3z"/>
	<path fill="#500404" d="M601.9,281.7c0,0-1.7-1.4-1.1-2.4c0.6-1,3.5-3.4,3.5-3.4s4.6-5.7,4.2-6.1c-0.5-0.5,2.8-2.6,2.8-2.6l3.8,0.6
		C615,267.9,611.2,279.5,601.9,281.7z"/>
	<path fill="#A4131B" d="M576.9,252.8"/>
	<path fill="#B6131B" d="M591.1,249.3c-0.7,6.3,6.9,14.3,16,1.7c-5.8-0.9-7-0.5-8.9-0.2C595.8,251.1,593.8,249.1,591.1,249.3z"/>
	<path fill="#70131B" d="M597.1,252.3c0.2,1.1,2.9,2.7,4.4,0.4C603,250.5,596.9,250.8,597.1,252.3z"/>
	<path fill="#BB9332" d="M587.9,220.8c-0.9,0.9-1.9,0.8,0.1,3.1c1.8,2.1,6.2,9.7,7.3,13.3c1.1,3.7,3.3,15.4,3.3,15.4s1.2,0.4,1.5,0
		c-0.1-11.4-7.6-21.9-9.5-29.2C590.4,222,590.2,220.6,587.9,220.8z"/>
	<g>
		<g id="BOUTEILLE_SHAPE">
			<g>
				<path fill="#981A1C" d="M579.1,501.6c-0.1,58.7-3.8,150.1-5.4,211.5c-16.6,21.2-64.2,35.1-89.4,33.6c-3.4-0.2-8.3-1.6-10.1-8.9
					c-1.5-6.1-1.1-15.7-1.4-21c0.6-76.3,0.4-211.2,1.5-215.2c3-15.1,9.1-18.4,16.5-32c2.4-5.9,0.8-16.9,0.7-21.2
					c12.5-2.6,56.6-3.6,69,0.6c0.5,5.1-0.6,16.6,1.1,20.6C564.5,476.4,577.2,487.2,579.1,501.6z"/>
			</g>
			<g>
			</g>
		</g>
		<g>
			<path fill="#CC8989" d="M487.9,531.7c-1.9-0.2-3.9-4-4.1-6.3c-0.4-5.8-0.5-11.7-0.6-17.5c-0.1-4.3,0.5-8.5,2.7-12.3
				c1.8-3.2,3.6-6.3,5.6-9.4c3.3-4.9,15.6-5.6,18.6-0.1c1.3,2.5,3.6,4.5,4.8,7c1.9,4.1,0.2,8.1-3.4,10.7c-3.1,2.3-6.1,4.6-6.9,9
				c-0.8,4.4-2.3,8.7-6.4,11.6c-0.9,0.6-3.3,4.6-4.2,5C492.2,530.7,489.9,531.7,487.9,531.7z"/>
			<path fill="#CC8989" d="M505.6,446.7c0,0-1.7,10,0,12.2c1.7,2.2,0.6,4.6,0.6,4.6s-0.6,3,2.7,3.6c3.3,0.6,16.6-1.3,17.2-1.9
				c0.6-0.6-1.3-2.7-2.8-2.8c-1.5-0.1-2.7-2.1-2.7-2.1c-1.1-3.5,5.8-2.3,5.6-5.4c-0.2-2.7,0.6-7.4-1.9-9.9
				C521.8,442.4,505.6,446.7,505.6,446.7"/>
			<path fill="#CC8989" d="M483.3,698.2h4.5c0,0,0.2,10,0,13.6c-0.2,3.6-4.3,4.3-4.5-0.9C483.1,705.8,483.3,698.2,483.3,698.2z"/>
			<path fill="#CC8989" d="M564.3,698.2h5.7c0.1,9.1,0.2,14.7,0.2,18.8c-4.4,4-3,2.8-6.2,5.4C564,710.7,564.3,698.2,564.3,698.2z"/>
			<path fill="#CC8989" d="M570.2,717c-2.7,2.7-2.9,2.9-6.2,5.4c0-11.7,0.3-24.2,0.3-24.2"/>
			<path fill="#EC6C6C" d="M473.5,537.9c0,0,8.7,0.6,11.7,0c35.2-21.1,66-6.1,78.6,0c3.7,0.9,15.2,0,15.2,0s-3.9,113.4-4.5,157.9
				c-1.1,7.3-101.7,6.7-101.7,0C473.2,653.6,473.5,537.9,473.5,537.9z"/>
			<rect x="494.2" y="619.4" fill="none" width="67.3" height="27.6"/>
			<text transform="matrix(1 0 0 1 494.1515 629.9863)"><tspan x="0" y="0" fill="#EAD9A8" stroke="#EAD9A8" stroke-width="2" stroke-miterlimit="10" font-family="'CenturyGothic'" font-size="14.3264px">innocent</tspan><tspan x="63.2" y="0" font-family="'CenturyGothic'" font-size="14.3264px"> </tspan></text>
			<rect x="499.3" y="634.1" fill="none" width="56.1" height="30"/>
			
				<text transform="matrix(1 0 0 1 499.3112 638.0898)" fill="#EAD9A8" stroke="#EAD9A8" stroke-miterlimit="10" font-family="'CenturyGothic'" font-size="5.4341px">raspberry &amp; cherry</text>
			<path fill="#EAD9A8" d="M501.8,602.5c-2.6-6.9-1.2-13.5,1.9-19.8c1.5-3.1,3.7-6,5.5-8.9c0.2-0.5,0.4-0.9,0.7-1.4c0,0,0,0.1,0,0.1
				c0.6-0.5,1.3-0.9,1.9-1.4c1.3-1.2,2.5-2.6,4-3.7c3.9-2.8,6.1-2.3,8.7,1.9c3-2,6-3.9,9-5.9c2.6-1.6,5-1.5,7.6,0.3
				c5.9,3.9,8.4,9.7,9.3,16.4c1.5,11.3-3,19.4-13.3,24.1c-4.7,2.1-9.5,3.9-14.4,5.2c-5.8,1.6-11.4,0.5-16.6-2.5c0,0,0,0,0,0
				c-1.1-1-2.3-2-3.4-3c0,0,0,0,0,0c-0.2-0.3-0.3-0.6-0.5-1c0,0,0,0,0,0C502,602.8,501.9,602.6,501.8,602.5z M518.8,604.1
				c6.5-0.3,13.8-2.3,20.5-6.2c2.6-1.5,4.3-3.9,5-6.8c1.7-7.1,0.6-13.8-3.4-19.8c-3-4.5-6.2-4.9-10.6-1.8c-0.7,0.5-1.4,0.9-2,1.5
				c-1.2,1.1-2.4,1.1-4,0.8c-2.5-0.4-5.2-1.1-7.4,1.2c-5,5.1-8.8,10.8-10.1,18C505.3,599.3,509,603.9,518.8,604.1z"/>
			<path fill="#EAD9A8" d="M504.1,558.1c-0.3-0.3-0.6-0.6-0.9-0.8c-2.3-1.4-2.6-2.3-1.5-4.8c1.9-4.1,5.4-6.7,9.2-8.7
				c3.3-1.7,6.9-2.9,10.3-4.4c3.9-0.8,7.7-0.9,11.7,0.2c1.8,0.5,4-0.1,5.9,0.2c2.3,0.4,4.7,0.9,6.8,1.9c3.2,1.6,3.3,3.7,0.2,5.5
				c-3.2,1.9-6.5,3.7-10,4.8c-7,2.1-14.1,3.8-21.2,5.5c-2,0.5-4.2,0.5-6.3,0.7c-0.3,0-0.6,0-0.9,0
				C506.3,558.1,505.2,558.1,504.1,558.1z M507.4,551.9c5.5,2.8,29.8-2.2,33.4-6.6c-2.9-0.7-5.7-1.2-8.5-0.2
				c-2.8,0.9-5.6,2.1-8.4-0.1c-0.3-0.2-0.8-0.2-1.2-0.1c-3.8,1.1-7.7,2.1-11.5,3.6C509.9,549.1,508.9,550.6,507.4,551.9z"/>
			<path fill="#EAD9A8" d="M527.8,586.8c-0.4,0.4-1.1,1.7-2,1.9c-0.9,0.2-2.4-0.4-3.1-1.1c-1.7-2-1.5-7.2,0.2-9.1
				c0.5-0.5,1.4-0.9,2.1-0.8c0.5,0,1.3,0.8,1.5,1.4C527,581.4,527.3,583.7,527.8,586.8z"/>
			<path fill="#EAD9A8" d="M536,578.9c-0.3,2.1-0.4,3.7-0.9,5.1c-0.3,0.7-1.9,1.5-2.2,1.3c-1.2-0.8-2.8-2-2.9-3.2
				c-0.1-1.4,1.1-3,2-4.3c0.4-0.5,1.7-0.9,2.3-0.7C535.1,577.5,535.7,578.5,536,578.9z"/>
			<path fill="#282828" d="M489.9,422.7c-0.9,5.6-2.3,18.7-1,26.1c0.5,2.6,3,1.9,4.2,2.2c16.6-6.3,50.8-5.8,67.7,0.6
				c1.1-0.1,3.2,0.2,3.9-1.5c0.6-3,3.7-30.2-4.5-30.1C544.9,413.8,489.1,416.1,489.9,422.7z"/>
			<rect x="527.1" y="422.3" opacity="0.58" fill="#4F4F4F" width="1.2" height="14.8"/>
			<rect x="523.4" y="422.3" opacity="0.58" fill="#4F4F4F" width="1.2" height="14.8"/>
			<rect x="520.1" y="422.3" opacity="0.58" fill="#4F4F4F" width="1.2" height="14.8"/>
			<rect x="510.8" y="422.8" opacity="0.58" fill="#4F4F4F" width="1.2" height="14.8"/>
			<rect x="507.8" y="423.2" opacity="0.58" fill="#4F4F4F" width="1.2" height="14.7"/>
			<rect x="504.3" y="423.7" opacity="0.58" fill="#4F4F4F" width="1.2" height="14.1"/>
			<rect x="500.7" y="423.9" opacity="0.58" fill="#4F4F4F" width="1.2" height="14.8"/>
			<rect x="497.8" y="424.6" opacity="0.58" fill="#4F4F4F" width="0.6" height="13.8"/>
			<rect x="495.6" y="425.1" opacity="0.58" fill="#4F4F4F" width="0.6" height="14.1"/>
			<rect x="531.1" y="422.3" opacity="0.58" fill="#4F4F4F" width="1.2" height="14.8"/>
			<rect x="535" y="422.3" opacity="0.58" fill="#4F4F4F" width="1.2" height="14.8"/>
			<rect x="538.8" y="422.3" opacity="0.58" fill="#4F4F4F" width="1.2" height="14.8"/>
			<rect x="517.1" y="422.3" opacity="0.58" fill="#4F4F4F" width="1.2" height="14.8"/>
			<rect x="513.8" y="422.5" opacity="0.58" fill="#4F4F4F" width="1.2" height="14.8"/>
		</g>
	</g>
	<g id="bouchon">
	</g>
</g>
</svg>
