<svg id="Layer_1" data-name="Layer 1" xmlns="http://www.w3.org/2000/svg" viewBox="0 0 332.1 48.5"><defs><style>.cls-1{fill:#181542;}</style></defs><title>Plan de travail 1</title><path class="cls-1" d="M49.5,16.55a9.06,9.06,0,0,1,7.5-3.4c2.8,0,4.6.8,5.7,2.1,1.4,1.6,1.8,3.1,1.8,7.9v12.1H59.3V24.45c0-4-.2-6.7-4.2-6.7-3.3,0-4.7,2.5-4.7,6.1v11.5H45.2V24.55c0-4-.2-6.7-4.2-6.7-3.2,0-4.7,2.5-4.7,6.1v11.5H31.1V13.35h5.2v3.3c.9-1.8,3.4-3.4,6.8-3.4a7,7,0,0,1,5.4,2.1,2.94,2.94,0,0,1,1,1.2ZM68,24.75c0-6.8,3.8-11.6,9.7-11.6a8.51,8.51,0,0,1,6.4,3v-2.8h5.2v22.1H84.1v-2a8.11,8.11,0,0,1-6.4,2.9C71.9,36.15,68,31.35,68,24.75Zm10.9-7.1c-3.4,0-5.6,2.6-5.6,7s2.2,7,5.6,7,5.6-2.7,5.6-7S82.2,17.65,78.9,17.65Zm20.3-14v19l9-9.4H115l-8.7,8.6,9.5,13.5h-6.5l-6.7-9.7-3.3,3.1v6.6H94.1V3.65Zm37.7,27a11.78,11.78,0,0,1-10.3,5.5c-6.5,0-10.9-4.6-10.9-11.7,0-6.8,4.7-11.3,10.8-11.3,7,0,10.4,4.7,10.4,11.4v1.2h-16c.4,3.1,2.2,5.7,6.1,5.7a7.15,7.15,0,0,0,6.4-3.7Zm-16-8.9h10.7a4.9,4.9,0,0,0-5.2-4.8C123.4,17.05,121,19.05,120.9,21.75Zm37.7-5.2a9.06,9.06,0,0,1,7.5-3.4c2.8,0,4.7.8,5.8,2.1,1.4,1.6,2,3.1,2,7.9v12.1h-5.2V24.45c0-4-.4-6.7-4.3-6.7-3.3,0-4.9,2.5-4.9,6.1v11.5h-5.2V24.55c0-4-.2-6.7-4.2-6.7-3.2,0-4.7,2.5-4.7,6.1v11.5h-5.2V13.35h5.2v3.3c.9-1.8,3.4-3.4,6.9-3.4a7,7,0,0,1,5.4,2.1,2.73,2.73,0,0,1,.9,1.2Zm39.7,14.1a11.78,11.78,0,0,1-10.3,5.5c-6.5,0-10.9-4.6-10.9-11.7,0-6.8,4.7-11.3,10.8-11.3,7,0,10.4,4.7,10.4,11.4v1.2h-16c.4,3.1,2.2,5.7,6.1,5.7a7.15,7.15,0,0,0,6.4-3.7Zm-16-8.9H193a4.9,4.9,0,0,0-5.2-4.8C184.8,17.05,182.4,19.05,182.3,21.75Zm43.8-8.5h5.2v12.1a10.65,10.65,0,0,0,.6,4.2c.5,1.2,1.5,1.9,3.3,1.9,3.3,0,4.7-2.5,4.7-6.1V13.15h5.2v22.1h-5.2v-2.5c-.9,1.8-3.4,3.4-6.5,3.4a7.16,7.16,0,0,1-5.4-2.1c-1.4-1.6-1.9-3.1-1.9-7.9V13.25Zm28.4,22h-5.2V3.65h5.2Zm18.8-15.4a8.58,8.58,0,0,0-6.2-2.5c-2.1,0-3.6.7-3.6,2.2s1.5,1.9,4.6,2.5l2.6.6c3.3.8,6.3,2,6.3,6,0,5-4.6,7.4-9.6,7.4-5.3,0-8.8-2.6-10.1-4.5l3.5-3.1a8.1,8.1,0,0,0,6.7,3.3c2.6,0,4.1-.9,4.1-2.5s-1.3-1.8-3.4-2.3l-3.3-.7c-3.8-.8-6.8-2.4-6.8-6.5,0-4.8,4.7-6.8,8.8-6.8,4.4,0,7.8,1.9,9.2,3.5ZM301,30.65a11.78,11.78,0,0,1-10.3,5.5c-6.5,0-10.9-4.6-10.9-11.7,0-6.8,4.7-11.3,10.8-11.3,7,0,10.4,4.7,10.4,11.4v1.2H285c.4,3.1,2.2,5.7,6.1,5.7a7.15,7.15,0,0,0,6.4-3.7Zm-16-8.9h10.7a4.9,4.9,0,0,0-5.2-4.8A5.45,5.45,0,0,0,285,21.75Zm-71.9-8.7a8.45,8.45,0,0,0-6.6,3v-2.5h-5.2v31.3h5.2V33.35a8.54,8.54,0,0,0,6.6,2.9c5.9,0,9.7-4.8,9.7-11.4C222.8,17.85,219,13.05,213.1,13.05Zm-1,18.5c-3.3,0-5.6-2.7-5.6-7s2.3-7,5.6-7,5.6,2.6,5.6,7S215.5,31.55,212.1,31.55Z"/></svg>