<?xml version="1.0" encoding="utf-8"?>
<!-- Generator: Adobe Illustrator 21.1.0, SVG Export Plug-In . SVG Version: 6.00 Build 0)  -->
<svg version="1.1" xmlns="http://www.w3.org/2000/svg" xmlns:xlink="http://www.w3.org/1999/xlink" x="0px" y="0px"
	 viewBox="0 0 833.3 907.2" enable-background="new 0 0 833.3 907.2" xml:space="preserve">
<g id="calque_2_">
	<path fill="#6791E5" fill-opacity="0.38" d="M703.1,422.3c8.6-92.1-74.3-357.9-279.1-277.9C330.5,181,291.9,299.2,242.5,365.5
		C-114.1,844,420,759.7,501,700.7S681.4,653.6,703.1,422.3z"/>
</g>
<g id="calque_1_">
	<path fill="#5B80C9" fill-opacity="0.69" d="M420.7,778.8C627,807.1,880.6,482.5,564.2,224.3C380,66.1,140.1,104,241.5,365
		C310.1,541.3,113.1,736.6,420.7,778.8z"/>
</g>
<g id="calque">
	<g>
		<path fill="#4E6AB1" d="M667.2,493.9C677.2,356,513.8,231,435.3,193.6c-63.7-30.5-217.2-27.5-189.1,136.8
			c31.2,182.5-35.7,153.2-89.6,280.5c-56.9,136.5,97.7,177.6,234.4,146.4C511.6,729.7,651,689.1,667.2,493.9z"/>
		<g>
			<g>
				<path fill="#539832" d="M472.5,550.7c0,0-1-4.3-5.3-2.7c-4.3,1.6-2.8,6-2.8,6c-3.3-0.9-5.4,1.4-4.6,3.5
					c-2.8-3.2-15.2-2.5-12.7,14c-1-0.6-1.6,1.2-1.6,1.2c-3.1-3.2-12.1,0-8,6.7c0,0-7.6,2.3-3.3,7.4c0,0-3.6,3.7-1.3,8.2
					c2.3,4.5,5.9,2.3,5.9,2.3s-3.9,11.2,6.8,10.1c0.2,3.9,5.9,4,5.9,4s-0.2,8.9,5.3,9.4c1.4,5.6,11.6,8.9,14.7,2.7
					c1.3,2.1,3.8-0.7,3.8-0.7c0.1,2.9,4.5,4.3,8.4,0.5c2.9,7.5,20.8,8.9,16.8-7.6c3.7,1,5.6-1.7,4.6-3.7c2.6,2.4,6.2-1.3,2.4-5.6
					c8.7,3.5,14.8-7.2,13.3-11.8c-1.5-4.6-8.4-5.7-8.4-5.7s8-7-1-12.5c3.2-4.9,1.7-17-12.9-12.8c-0.5-1.5-1.8-2-1.8-2
					c3.6-2.1-1.7-11.4-10-5.2C485.1,545.9,475.7,544.2,472.5,550.7z"/>
				<path opacity="0.4" fill="#569132" d="M520.5,594.7c-1.5-4.6-8.4-5.7-8.4-5.7s8-7-1-12.5c3.2-4.9,1.7-17-12.9-12.8
					c-0.5-1.5-1.8-2-1.8-2c3.6-2.1-1.7-11.4-10-5.2c-1.4-10.5-10.8-12.2-14-5.7c0,0-1-4.3-5.3-2.7c-4.3,1.6-2.8,6-2.8,6
					c-3.3-0.9-5.4,1.4-4.6,3.5c-2.8-3.2-15.2-2.5-12.7,14c-1-0.6-1.6,1.2-1.6,1.2c-3.1-3.2-12.1,0-8,6.7c0,0-7.6,2.3-3.3,7.4
					c0,0-3.6,3.7-1.3,8.2c2.3,4.5,5.9,2.3,5.9,2.3s-3.9,11.2,6.8,10.1c0.2,3.9,5.9,4,5.9,4s-0.2,8.9,5.3,9.4
					c1.4,5.6,11.6,8.9,14.7,2.7c1.3,2.1,3.8-0.7,3.8-0.7c0.1,2.9,4.5,4.3,8.4,0.5c2.9,7.5,20.8,8.9,16.8-7.6c3.7,1,5.6-1.7,4.6-3.7
					c2.6,2.4,6.2-1.3,2.4-5.6C516,609.9,522,599.2,520.5,594.7z M500.8,598c1.2,1.2,0.7,3.5-0.8,5.1c-2.5,2.7-5.5,2.5-7.3-0.5
					c-0.2,0-0.5,0-0.8-0.2c0.1,1.9-0.1,4.3-1.6,5.3c-1,0.7-2,0.6-2.7,0c-0.6,3.9-4.5,7.4-8.1,5.1c-2.4-1.5-3.4-5.5-1.6-7.3
					c-2-0.5-2.3-2.8-1.7-5c-1.6-0.7-1.7-3.2-0.8-5.2c-4.4,1.9-11.6,1.2-10.9-3.8c-1.7,1.5-4.4,2.8-5.6,1.7c-0.5,2.1-1.8,4.4-3.6,4.9
					c-2.1,0.6-3.1-0.7-3.1-2.3c-2.3,2.5-6.2,5-8.6,3c-3.5-3.1-0.2-7.1,3.2-8.1c-3.4-3.1,9-11.2,8.7-4.6c1.7-1.8,4.8-2,5.1,0.3
					c1.6-1.6,3.8-1.9,5.3-0.1c1.3-2.3,3.1-4.3,5.8-4.6c0.4,0,0.8,0,1.1,0.1c0.2-0.9,0.6-1.7,1.1-2.3c1.8-2.1,4.3-1.9,5.9-0.2
					c-0.1-2,0.6-3.9,2.5-4.3c-0.9-2.3-0.9-5,0.5-7.1c1.4-2.1,4.6-2.6,6.7-1.4c4,2.5,2.5,8.3,0.9,12.4c1.2-1,2.6-1.8,4-1.3
					c0.9,0.3,1.4,0.9,1.8,1.6c1.5-0.7,3.2-1.1,4.5-0.7c4.4,1,3.4,5.3,1.3,8.3c3-1.3,7.1-2,7.3,2C509.7,593.8,505.1,597.2,500.8,598z
					"/>
				<path opacity="0.4" fill="#457728" d="M520.5,594.7c-1.3-4-6.8-5.4-8.1-5.7c-0.1,0-0.1,0.1-0.2,0.1c1.4,0.8,2.9,1.9,3.2,3.6
					c0.4,2.1,0.2,4.3-1,6.1c-2.3,3.5-6.5,5.7-10.3,3.6c0.6,1.3,0.8,2.9,0.4,4.3c-0.4,1.3-1.3,1.8-2.2,1.7c0.3,1.5-0.1,2.9-1.6,4
					c-0.9,0.6-1.9,0.7-2.7,0.4c0.1,2.5-0.5,5.1-2.4,6.4c-1.7,1.3-4.2,0.5-5.5-1.1c-0.3-0.3-0.5-0.8-0.7-1.2c-0.6,0.4-1.2,0.8-1.9,1
					c-2,0.7-4.4-0.4-4.5-2.1c-2.8,2.2-7.2,3.7-9.2-0.1c-0.8-1.7-1-3.7-0.5-5.4c-1-0.1-1.8-0.4-2.3-0.9c-1.6,2.9-4.7,5.6-7.6,4.4
					c-1.6-0.6-2.8-2-3-3.7l0,0c-1.7,0.3-3.4-1-4-2.6c-0.3-0.8-0.2-1.7,0-2.5c-2,1.8-4.7,2.6-7.1,0.5c-0.6-0.5-1-1.1-1.4-1.7
					c-0.8,0.6-1.7,1-2.6,1.1c-2.7,0.4-2.9-2.1-2-3.8c-3-0.3-4.5-2.2-3.9-5c-0.8,0.6-1.9,1.2-2.9,1.6c1.2,0,2.1-0.5,2.1-0.5
					s-3.9,11.2,6.8,10.1c0.2,3.9,5.9,4,5.9,4s-0.2,8.9,5.3,9.4c1.4,5.6,11.6,8.9,14.7,2.7c1.3,2.1,3.8-0.7,3.8-0.7
					c0.1,2.9,4.5,4.3,8.4,0.5c2.9,7.5,20.8,8.9,16.8-7.6c3.7,1,5.6-1.7,4.6-3.7c2.6,2.4,6.2-1.3,2.4-5.6
					C516,609.9,522,599.2,520.5,594.7z"/>
				<path opacity="0.4" fill="#457728" d="M434.3,592.3c0.7-0.8,2.6-1.4,3.4-0.8c1-1.5,2.9-2.2,4.6-1.9c-2-6,10.8-12.8,15-6
					c0.2-0.1,0.5-0.2,0.7-0.2c1.9-0.4,3.4,0.1,4.5,1.1c1.6-1.5,4.5-2.3,7-2.2c0.4-2,1.9-4,3-5.2c1.7-1.8,3.8-2.3,5.8-1.9
					c-1.5-3.5-0.4-7.7,2.4-10.5c1-1,2.4-1.8,3.7-2.1c1.6-3,5.4-5.2,8.1-3.1c2.3,1.8,2.2,5,1,7.9c1.1-0.4,2.2-0.6,3.3-0.4
					c2.8,0.4,3.6,2.4,3.5,4.8c2-2.8,4.9-5.2,8.5-4.9c1.1,0.1,2.2,0.4,3,0.9c-1.5-3.7-5.5-6.4-13.6-4.1c-0.5-1.5-1.8-2-1.8-2
					c3.6-2.1-1.7-11.4-10-5.2c-1.4-10.5-10.8-12.2-14-5.7c0,0-1-4.3-5.3-2.7c-4.3,1.6-2.8,6-2.8,6c-3.3-0.9-5.4,1.4-4.6,3.5
					c-2.8-3.2-15.2-2.5-12.7,14c-1-0.6-1.6,1.2-1.6,1.2c-3.1-3.2-12.1,0-8,6.7c0,0-7.6,2.3-3.3,7.4c0,0-3.6,3.7-1.3,8.2
					c0.2,0.3,0.3,0.5,0.5,0.8C433,594.5,433.3,593.2,434.3,592.3z"/>
				<path fill="#509D32" d="M389.9,597.5c0,0,15-4.5,5.6-16.1c1.3-3.9-4.9-7.9-8-6.2c5.5-4.7,4.5-17-5.6-16.8c0,0,5.2-17.4-15-15.3
					c2.9-9.3-9.6-13.3-14.9-5.6c-3.5-7-12.7-2.7-13.2,3.3c-3.7-9.4-22.4-5.6-19.1,10.4c-6.1-2.6-7.6,2.8-7.1,5.8
					c-5.9-3.6-14.5,7.6-5.6,15.8c-6.6,3-4.1,13.5,0.8,13.8c-5.1,6.4,0.9,6.8,2.6,7.4c-3.7,7.6,0.1,13.5,5.4,10.3
					c-1.7,7.8,8.1,3.1,8.1,3.1c-1.5,9.8,12.5,17.2,16.8,8.9c1.3,7.9,7.8,3.5,7.8,3.5c0.5,5.8,14.2,5,14.2-2.7
					c5.2,7.2,16.2-2.2,14.5-6.8C383.2,612.3,390.9,606.4,389.9,597.5z"/>
				<path opacity="0.4" fill="#569132" d="M395.5,581.4c1.3-3.9-4.9-7.9-8-6.2c5.5-4.7,4.5-17-5.6-16.8c0,0,5.2-17.4-15-15.3
					c2.9-9.3-9.6-13.3-14.9-5.6c-3.5-7-12.7-2.7-13.2,3.3c-3.7-9.4-22.4-5.6-19.1,10.4c-6.1-2.6-7.6,2.8-7.1,5.8
					c-5.9-3.6-14.5,7.6-5.6,15.8c-6.6,3-4.1,13.5,0.8,13.8c-5.1,6.4,0.9,6.8,2.6,7.4c-3.7,7.6,0.1,13.5,5.4,10.3
					c-1.7,7.8,8.1,3.1,8.1,3.1c-1.5,9.8,12.5,17.2,16.8,8.9c1.3,7.9,7.8,3.5,7.8,3.5c0.5,5.8,14.2,5,14.2-2.7
					c5.2,7.2,16.2-2.2,14.5-6.8c6.1,2.2,13.8-3.7,12.8-12.6C389.9,597.5,404.9,593,395.5,581.4z M306.1,582.1
					c0.1-0.7,0.3-1.2,0.7-1.6c0-0.1,0.1-0.2,0.1-0.2c0.7-0.7,1.5-1.1,2.5-0.8c0.7,0.2,1.4,0.8,1.6,1.6c0.5,1.8-1.3,3.7-3,3.7
					C306.8,584.7,306,583.3,306.1,582.1z M317.7,598.3c-0.5,1.6-1.9,3.2-3.5,3.6c-1.8,0.5-4-1.1-3.3-3.3c0.5-1.5,1.9-2.7,3.4-2.9
					c0.1-0.1,0.2-0.2,0.4-0.2C316.5,595.4,318.3,596.1,317.7,598.3z M323.4,599.1c-0.5,0.6-1.3,0.8-1.8,1.3
					c-0.4,0.4-0.8-0.1-0.6-0.5c0,0,0-0.1,0-0.2c0-0.1-0.1-0.2-0.1-0.3c-0.1-0.3-0.2-0.6-0.2-0.9c0.2-1,1.1-1.3,2-1.4
					c0.4,0,0.5,0.4,0.3,0.7c0.2,0,0.4,0.1,0.5,0.3C323.7,598.4,323.6,598.9,323.4,599.1z M326.7,578.9c-0.1,1.4-0.6,2.7-1.8,3.6
					c-1.3,0.9-3,1.2-4.1,0.2c-0.7,3.9-4.6,8.4-8.4,7.2c-4.3-1.4-1.7-5.8,1.6-6.1c0-0.5,0.1-1.1,0.3-1.5c-1.4-0.6-1.7-1.8-1.5-3.1
					c-1.5,0.1-3.2-0.4-3.5-2.1c-0.4-2.1,1.4-3.2,3.2-3.6c-0.9-0.9-0.9-2.2-0.7-3.7c-3-0.5-5-3.9-3.4-7.2c1.4-2.7,4-2.2,6.1-0.9
					c-0.2-1.7,0.5-3.4,1.7-4.5c-0.2-1.1,0.3-2.5,1.2-3.4c1.1-1.1,2.5-1.5,3.9-1.4c-0.1-0.6-0.1-1.2-0.1-1.8c0.3-2,1-3.8,2.7-3.8
					c-0.5-1.5,0.4-3.5,1.4-3.9c-0.9-3.8,6.3-6.7,6.8-2.2c1.1-0.6,2.4-0.8,3.6-0.1c2.5,1.5,2.5,5.3,1.4,8.1c1.2-0.6,2.4-0.7,3.4,0.1
					c-0.3-2.1-0.3-4.5,1.3-5.7c1.5-1.2,3.8-1.2,4.9,0.7c0.6,1.1,0.8,2.8,0.5,4.6c1.9-0.6,4-0.3,5.6,1.2c1.3,1.3,0.9,3.3-0.2,4.7
					c2.4,0.4,4.1,2.6,1.6,5.2c-1.6,1.7-4.4,2.8-7.1,2.9c0,0.4,0,0.7,0,0.9c-0.6,2.2-2.2,3.8-4.2,4.5c-0.1,0-0.2,0.1-0.3,0.1
					c0.1,1-0.1,2.2-0.8,3.4c-0.9,1.7-3.1,3.4-4.7,2.9c0.2,2.2-1,4.8-3.2,4.8c-0.9,0-2.4-0.4-3.4-1.2c-0.6,1.1-1.7,1.9-3,1.5
					C327.2,579.1,326.9,579,326.7,578.9z M363.1,601.4c-1.4,1.1-3.3,1.8-5.4,2.1c-0.4,1.3-1.1,2.6-2.2,3.9c-2.4,2.8-7.1,4.8-8.4,1
					c-1,2.4-2.9,4.3-5.6,2.7c-1.3-0.8-2.2-1.9-2.7-3.1c-2,2.3-4.6,3.9-7.3,3.3c-5.6-1-4.2-8.6,0-9.8c-1.8-2.3,0.5-7.7,4.3-8.3
					c1.6-3.3,6.1-6.2,7.6-1.7c0.9-3.3,2.5-6.2,6.1-6.9c3.1-0.6,5.6,0.7,6.3,3.8c1.8-2.4,4.9-2.4,7.1,0.1c2.2,2.5,1.3,5.3-0.7,7.1
					c1,0,1.9,0.4,2.1,1.6C364.6,598.9,364.4,600.4,363.1,601.4z"/>
				<path opacity="0.4" fill="#569132" d="M345.2,536.6c1.4,2.6,3.6,3.9,6.4,2.6c0.6-0.3,0.6,0.6,0.2,0.9c-3.1,1.9,1.7,4.4,3.3,4.9
					c2.2,0.7,4.7,1.2,6.8-0.1c0.6-0.3,0.6,0.6,0.2,0.9c-5.2,2.4-3.7,9,0.2,11.9c0.4,0.3-0.1,0.8-0.4,0.9c-2.1,0.7-4.8,1.9-5.3,4.4
					c-0.3,1.6,0.3,3.3,1.4,4.3c3.7,3.4,6.4-1.1,7.3-4.7c0.1-0.5,0.8-0.7,0.9-0.1c0.3,4.6,5.7,2.9,8.2,1.6c4-2.1,6.4-6,8-10.2
					c-0.6-1-1.3-1.9-2-2.4c-0.4-0.3,0.3-1.1,0.7-0.8c0.4,0.3,0.9,0.8,1.3,1.3c-0.6-4.7-3.7-10.1-15.5-8.8c2.9-9.3-9.6-13.3-14.9-5.6
					c-1.7-3.4-4.8-4.1-7.6-3.2C344.6,535.1,344.9,536,345.2,536.6z"/>
				<path opacity="0.3" fill="#178137" d="M395.5,581.4c1.3-3.9-4.9-7.9-8-6.2c4.8-4,4.7-13.8-1.9-16.2c1.2,5.2,0.4,10.6-5,10.1
					c0.9,2.8,0.3,7.4-3,7.7c-3.6,0.4-5.2-3.4-5.8-6.8c-1.5,3.4-5.8,4.4-8.2,1.1c-0.9,2.7-3.2,4.1-5.9,4.4c0.6,1.8,0.8,3.6,0.2,5.5
					c2.8-0.5,6.5-0.4,8.9,1.1c2.5,1.4,1.7,3.5,0.2,5.2c2.2,0,5,0.7,5.8,3c0.7,1.9,0,3.4-1.2,4.6c2.2,0.1,4.2,1.4,3.7,4.1
					c-0.3,1.9-1.7,2.7-3.2,2.5c2.4,4.8-2.6,10.9-6.6,6.7c-0.6,2.9-2.6,5.6-5.1,6.9c-2.6,1.3-4.4,0.2-5.1-2.2
					c-1.2,2.3-3.3,4.3-5.8,4.2c-2.3,0-2.9-1.6-2.4-3.3c-2.2,1.2-4.2,0.9-6.6-0.3c-0.9,2.7-4.3,5.5-5.5,2.2c-1,1.4-2.7,2.6-4.4,3.2
					c3.8,1.9,8.2,1.6,10.2-2.5c1.3,7.9,7.8,3.5,7.8,3.5c0.5,5.8,14.2,5,14.2-2.7c5.2,7.2,16.2-2.2,14.5-6.8
					c6.1,2.2,13.8-3.7,12.8-12.6C389.9,597.5,404.9,593,395.5,581.4z"/>
				<path opacity="0.3" fill="#178137" d="M395.5,581.4c1.3-3.9-4.9-7.9-8-6.2c4.8-4,4.7-13.8-1.9-16.2c1.2,5.2,0.4,10.6-5,10.1
					c0.9,2.8,0.3,7.4-3,7.7c-3.6,0.4-5.2-3.4-5.8-6.8c-0.4,0.8-0.9,1.5-1.5,2c2.1,3.1,2.5,7.1,0.7,10.7c3.7-1.9,11-3.1,9.5,1.7
					c3.7-2.3,8.7-0.5,8.3,4.8c-0.3,3.6-3.9,4.4-7,3.9c2.2,2.3,3.2,5.7,1.7,9.1c-1.4,3.2-4.1,3.8-6.1,1.8c0,2.4-1,5.1-3,6.5
					c-1.2,0.8-2,0.7-2.5-0.1c-1.1,4.1-3.7,8-7.9,8.1c5.5,4.4,14.8-3.9,13.2-8.2c6.1,2.2,13.8-3.7,12.8-12.6
					C389.9,597.5,404.9,593,395.5,581.4z"/>
				<g>
					<path fill="#654209" d="M459.5,594.8c0,0-1.8,8.9-10.3,15.9c-8.6,7-14.5,13.7-15.4,12.1c-0.9-1.6-0.4-10.1-1-17.4
						c-0.9-10.1,0.8-18.6,4.8-29.2c4-10.5,4.7-16.1,11.3-24.5c-1.8-2.7-1.4-4.1-1.4-4.1s-4.9,8.3-6.3,8.2c-1.3-0.1,1.3-9.6,1.3-9.6
						l-3.9-2c0,0-0.9,14.3-3.1,23.3c-2.2,9-10.8,30.6-13,30.8c-2.3,0.2-0.4-19.2,0-27.1c0.4-7.9,2-12.9,3.3-15.3
						c1.3-2.4,4-8.7,4-8.7s-3.3,0.8-5.4-0.6c-4.7,10.3-6.1,23.5-6.4,31.9c-0.4,13.7-1,17.1-2.7,16.5c-1.7-0.5-3.3-6.5-4.1-9.8
						c-0.8-3.3-3.9-9.5-4.7-13.2c-0.8-3.7-0.5-6,3.5-14c4-7.9,3.7-10.4,3.7-10.4s-2.7,1.6-5.3,1.1c0,0-1.6,8.4-3.6,11
						c-1.9,2.5-1.1,11-3.5,7.8c-2.4-3.2-6.2-8.4-8.5-13.5c-2.3-5.1-2.9-5.9-2.9-5.9l-4.4-1.8c0,0,0.5,1.2,0.1,1.7
						c3.8,6.1,8,14,13.6,23.2c5.6,9.2,8.5,19.7,9.8,28.9c1.2,9.2,2.4,14.7,0.2,14.2c-2.3-0.5-11.3-6.5-15.2-11
						c-6.7-7.6-8.9-11.6-10.4-15.5c-1.5-4-4.6-13.3-6.1-21.7c-2.7-1.1-2.8-1.5-2.8-1.5s1.4,8.3,0.6,8.4c-0.8,0.1-11-10.1-11-10.1
						l-2.4,0.8c0,0,9.9,8.7,14.3,16.7c4.3,8,4.8,10.5,4.8,10.5s-2.7-0.9-8.3-3.6c-5.6-2.8-7.9-3.7-11.9-7.8c-4-4.1-7.1-6.8-7.1-6.8
						l-1.4,0.1c0,0,1.2,4.6,1,5.3c0,0,5.5,5.4,9.5,7.4c4,2.1,8.4,4.6,14.5,9.7c9.9,8.4,17.2,15.3,22.9,19.7
						c5.7,4.4,8.8,11.3,10.4,16.2c1.5,4.9,0.7,13,1.3,17.8c0.6,4.8-0.7,5.8-3,3.4c-2.3-2.4-6.4-7.1-9.8-9.8
						c-3.4-2.8-14-14.8-14-14.8s-1,2-1.9,2.2c5.8,6.1,12.4,14.3,11.3,14.4c-1.1,0-20-0.9-20-0.9s1.5,1.3-0.4,3.7
						c9,0.4,9.7,1.2,14.8,1.1c5,0,17.7,3.5,20.7,12.7c3,9.1,5.5,32.9,3.3,48.7c0,0-0.5,3.1,11.3,2.6c11.7-0.5,17.5-1.3,16.4-4.9
						c-1.1-3.6-3.4-10.5-4.1-15.8c-0.7-5.4-3.3-23-2.5-36.6c0.8-13.7,6.6-25.8,15.9-29.7c9.3-3.8,15.5-3.5,27.3-11.3
						c0,0-1.1-0.9-1.5-2.4c-7.1,3.7-18.6,8.9-25.4,8.8c2.2-4.5,4.5-9.3,8.7-11.3c4.2-2,11.8-5,11.8-5s-1.9-0.9-2.6-1.5
						c-2.9,1.2-7.7,2.5-8.4,1.6c-0.7-0.9,3.7-9.6,3.7-9.6S460.2,594.8,459.5,594.8z"/>
				</g>
				<g opacity="0.3">
					<path fill="#654209" d="M475.5,611.6c-7.1,3.7-18.6,8.9-25.4,8.8c2.2-4.5,4.5-9.3,8.7-11.3c4.2-2,11.8-5,11.8-5
						s-1.9-0.9-2.6-1.5c-2.9,1.2-7.7,2.5-8.4,1.6c-0.7-0.9,3.7-9.6,3.7-9.6s-2.9,0.2-3.7,0.2c0,0-1.8,8.9-10.3,15.9
						c-8.6,7-14.5,13.7-15.4,12.1c-0.9-1.6-0.4-10.1-1-17.4c-0.9-10.1,0.8-18.6,4.8-29.2c4-10.5,4.7-16.1,11.3-24.5
						c-1.8-2.7-1.4-4.1-1.4-4.1s-4.9,8.3-6.3,8.2c-1.3-0.1,1.3-9.6,1.3-9.6l-3.9-2c0,0-0.9,14.3-3.1,23.3c-2.2,9-10.8,30.6-13,30.8
						c-2.3,0.2-0.4-19.2,0-27.1c0.4-7.9,2-12.9,3.3-15.3c1.3-2.4,4-8.7,4-8.7s-3.3,0.8-5.4-0.6c-4.7,10.3-6.1,23.5-6.4,31.9
						c-0.4,13.7-1,17.1-2.7,16.5c-1.7-0.5-3.3-6.5-4.1-9.8c-0.8-3.3-3.9-9.5-4.7-13.2c-0.8-3.7-0.5-6,3.5-14
						c4-7.9,3.7-10.4,3.7-10.4s-2.7,1.6-5.3,1.1c0,0-1.6,8.4-3.6,11c-1.9,2.5-1.1,11-3.5,7.8c-2.4-3.2-6.2-8.4-8.5-13.5
						c-2.3-5.1-2.9-5.9-2.9-5.9l-4.4-1.8c0,0,0.5,1.2,0.1,1.7c3.8,6.1,8,14,13.6,23.2c5.6,9.2,8.5,19.7,9.8,28.9
						c1.2,9.2,2.4,14.7,0.2,14.2c-2.3-0.5-11.3-6.5-15.2-11c-6.7-7.6-8.9-11.6-10.4-15.5c-1.5-4-4.6-13.3-6.1-21.7
						c-2.7-1.1-2.8-1.5-2.8-1.5s1.4,8.3,0.6,8.4c-0.8,0.1-11-10.1-11-10.1l-2.4,0.8c0,0,9.9,8.7,14.3,16.7c4.3,8,4.8,10.5,4.8,10.5
						s-2.7-0.9-8.3-3.6c-5.6-2.8-7.9-3.7-11.9-7.8c-4-4.1-7.1-6.8-7.1-6.8l-1.4,0.1c0,0,1.2,4.6,1,5.3c0,0,5.5,5.4,9.5,7.4
						c4,2.1,8.4,4.6,14.5,9.7c9.9,8.4,17.2,15.3,22.9,19.7c5.7,4.4,8.8,11.3,10.4,16.2c1.5,4.9,0.7,13,1.3,17.8
						c0.6,4.8-0.7,5.8-3,3.4c-2.3-2.4-6.4-7.1-9.8-9.8c-3.4-2.8-14-14.8-14-14.8s-1,2-1.9,2.2c5.8,6.1,12.4,14.3,11.3,14.4
						c-1.1,0-20-0.9-20-0.9s1.5,1.3-0.4,3.7c9,0.4,9.7,1.2,14.8,1.1c1.4,0,3.6,0.3,5.9,1c0-0.3,0.2-0.6,0.5-0.6
						c6.8-0.7,10.8,5,13.9,10.6c0.1,0.1,0,0.3,0,0.4c0.2,0.4,0.4,0.8,0.5,1.3c3,9.1,5.5,32.9,3.3,48.7c0,0-0.5,3.1,11.3,2.6
						c11.7-0.5,17.5-1.3,16.4-4.9c-1.1-3.6-3.4-10.5-4.1-15.8c-0.7-5.4-3.3-23-2.5-36.6c0.8-13.7,6.6-25.8,15.9-29.7
						c9.3-3.8,15.5-3.5,27.3-11.3C477,614,475.9,613,475.5,611.6z M412.9,601.4c0-0.4,0.6-0.8,0.9-0.4c2,3,2.6,6.6,3.1,10.2
						c0.3-3.5,0.8-7,2.4-10.1c0.2-0.4,0.8-0.5,0.8,0c0,2.7-0.6,5.3-0.7,7.9c-0.1,2.7,0.5,5.3,1,7.9c1,4.5,1.3,9.2,1.3,13.8
						c0,9.2-1.1,18.3-3.3,27.2c-0.1,0.3-0.8,0.7-0.9,0.2c-1.4-7.5-0.4-15-0.7-22.5c-0.3-8.1-0.9-16.2-2-24.2
						c-0.2-0.9-0.4-1.8-0.6-2.7C413.5,606.3,412.8,603.9,412.9,601.4z M402.7,615c-5.3-3.9-10.8-7.7-15.1-12.9
						c-1.8-2.2-3.1-4.8-4.4-7.5c-2.4-4.3-4.2-8.9-5.7-13.8c-0.1-0.4,0.6-1,0.8-0.5c3.3,6.9,5.8,14.3,10.7,20.2
						c4.2,5.2,9.4,9.4,14.3,13.7C403.8,614.5,403.1,615.3,402.7,615z M412.5,634.1c-0.9-5.4-3.5-10-6.1-14.7
						c-0.8-1.2-1.6-2.4-2.4-3.6c-0.3-0.4,0.4-1,0.7-0.7c4.3,3.4,10,8.2,10.8,14.3c0.5,3.9-0.4,7.8-0.4,11.6
						c0.1,4.1,0.2,8.1-0.1,12.2c0,0.4-0.8,0.9-0.9,0.3C413,647.1,413.6,640.5,412.5,634.1z M417.6,701c0,0.5-0.9,0.9-0.9,0.2
						c-0.1-6.3-1.6-12.6-1.7-18.9c-0.1-4.2-0.2-8.4-0.3-12.7c-0.1-0.1-0.2-0.2-0.2-0.4c-0.2-4.3-0.6-8.6-0.1-12.9
						c0.1-0.4,0.8-0.9,0.9-0.3c1.2,7.4,3.6,14.7,3.9,22.2C419.5,685.9,417.9,693.4,417.6,701z M423.3,665.5
						c-0.4,5.4-0.9,10.7-1.7,16.1c-0.1,0.4-0.8,0.9-0.9,0.3c-1.1-6.2-0.7-12.4,0.3-18.6c0.4-4.6,0.9-9.2,2.4-13.6
						c0.1-0.4,1-0.7,0.9-0.1C423.5,654.9,423.7,660.3,423.3,665.5z M425.1,611.7c0.6-4.9,1.6-9.8,2.8-14.6c0.1-0.4,0.9-0.7,0.9-0.1
						c-0.1,5.6,1,11,0.5,16.6c-0.4,5.2-1.2,10.3-2.5,15.3c-0.1,0.4-0.8,0.8-0.9,0.2c-0.9-5.7-1-11.4-0.4-17.1
						C425.3,612.1,425.1,612,425.1,611.7z M448,615c-7.2,9.1-15.9,16.9-21.5,27.2c-0.2,0.4-0.9,0.4-0.8-0.2
						c1.6-7.5,6.2-12.9,11.2-17.9c0-0.1,0.1-0.2,0.2-0.3c3.4-3.3,6.6-6.8,10.4-9.5C447.9,614,448.3,614.5,448,615z"/>
					<path fill="#654209" d="M395.8,649.5c2.8,0.9,5.8,2.3,8.4,4.3C402,651.2,399.3,649.4,395.8,649.5z"/>
				</g>
				<g opacity="0.3">
					<path fill="#654209" d="M356.5,577.1c2.3,3,5.1,5.5,8.1,7.7c5.6,4.2,11.7,6.5,17.8,9.5c-0.8-1.2-1.5-2.4-2.3-3.6
						c-1.2-0.4-3.7-1.4-7.5-3.3c-5.6-2.8-7.9-3.7-11.9-7.8c-4-4.1-7.1-6.8-7.1-6.8l-0.9,0.1C354.1,574.1,355.3,575.6,356.5,577.1z"
						/>
					<path fill="#654209" d="M375.2,573.1c-0.8,0.1-11-10.1-11-10.1l-1.2,0.4c4.2,4.8,9.6,8.5,13.6,13.5c3.8,4.8,5.6,11.2,8.6,16.6
						c3.5,6.4,8,10.9,13.5,15.2c5.1,4,10.2,7.7,14.9,12.1c-1.4-4.4-1.4-9.2-3-13.6c-0.3-1-0.7-2-1.1-3c0.9,6.6,1.5,10.4-0.4,10
						c-2.3-0.5-11.3-6.5-15.2-11c-6.7-7.6-8.9-11.6-10.4-15.5c-1.5-4-4.6-13.3-6.1-21.7c-2.7-1.1-2.8-1.5-2.8-1.5
						S376,573,375.2,573.1z"/>
					<path fill="#654209" d="M397.2,646.2c1.8-0.3,3.7,1.5,5,2.6c4.4,3.7,8.3,8.2,11.4,13.3c0.4-2.2-0.1-4.5-0.5-6.7
						c-0.4-2.3-0.8-4.4-1-6.7c-0.2-1.6-0.4-3.3-0.6-4.9c0,1.9,0.1,3.7,0.3,5.2c0.6,4.8-0.7,5.8-3,3.4c-2.3-2.4-6.4-7.1-9.8-9.8
						c-3.4-2.8-14-14.8-14-14.8s-1,2-1.9,2.2c5.8,6.1,12.4,14.3,11.3,14.4c-1.1,0-20-0.9-20-0.9s1.5,1.3-0.4,3.7
						c9,0.4,9.7,1.2,14.8,1.1c1,0,2.2,0.1,3.7,0.4C394.1,647.9,395.4,646.5,397.2,646.2z"/>
					<path fill="#654209" d="M459.8,594.8c-0.1,0-0.2,0-0.3,0c0,0-0.3,1.4-1.2,3.6C458.8,597.2,459.3,596,459.8,594.8z"/>
					<path fill="#654209" d="M419.3,581.2c0,3.8,0,7.6,0.2,11.4c0.1,3.6,0.4,7.3,1.9,10.5c1.2-1.9,2-4.1,2.4-6.4
						c-0.6,0.9-1.1,1.4-1.4,1.5c-2.3,0.2-0.4-19.2,0-27.1c0.4-7.9,2-12.9,3.3-15.3c1.3-2.4,4-8.7,4-8.7s-3.3,0.8-5.4-0.6
						c-2.3,5.2-3.9,11-4.8,16.7C419.7,569.3,419.4,575.2,419.3,581.2z"/>
					<path fill="#654209" d="M409,555.8c-2.3,4.6-5.4,9.7-4.5,15.1c0.9,5.5,3.5,10.3,5.4,15.4c2,5.3,3.9,10.5,5.9,15.8
						c0.5-2.4,0.6-4.9,0.5-7.4c-0.3,0.3-0.6,0.4-1,0.3c-1.7-0.5-3.3-6.5-4.1-9.8c-0.8-3.3-3.9-9.5-4.7-13.2c-0.8-3.7-0.5-6,3.5-14
						c4-7.9,3.7-10.4,3.7-10.4s-0.9,0.5-2.2,0.9C411.1,551.1,410.1,553.5,409,555.8z"/>
					<path fill="#654209" d="M437.7,575.7c-0.7,0.9-1.4,1.9-2,2.9c-2.9,4.7-4.6,10.5-4.8,16.2c-0.2,5.8,0.7,11.6,0.6,17.4
						c0,2.9,0.1,5.9-0.3,8.7c-0.4,2.5-1,4.9-1.4,7.4c2.9-2.1,5.4-4.6,7.7-7.4c-2,1.7-3.4,2.6-3.7,1.9c-0.9-1.6-0.4-10.1-1-17.4
						c-0.9-10.1,0.8-18.6,4.8-29.2C437.6,576,437.6,575.9,437.7,575.7z"/>
					<path fill="#654209" d="M475.5,611.6c-7.1,3.7-18.6,8.9-25.4,8.8c2.2-4.5,4.5-9.3,8.7-11.3c4.2-2,11.8-5,11.8-5
						s-1.9-0.9-2.6-1.5c-2.9,1.2-7.7,2.5-8.4,1.6c-0.7-0.9,3.7-9.6,3.7-9.6s-1.4,0.1-2.4,0.2c-1.5,4.2-3.6,8.1-5.1,12.2
						c-1.9,5.2-6,8.9-9.4,13c-3.3,3.8-6.6,7.6-9.9,11.4c-3.2,3.6-6.5,7.5-8.2,12.1c-2,5.6-1.8,11.9-2.2,17.8
						c-0.4,6.8-0.8,13.7,0,20.5c0.7,5.7,1.7,11.3,1.9,17.1c0.1,3.3,0.7,7.6-1.1,10.5c-0.1,0.2-0.5,0.5-0.7,0.3
						c-4.9-5.1-2.7-13.1-4.9-19.5c-0.5,5.5-0.4,11.6-3.6,16.1c-0.2,0.2-0.6,0.4-0.7,0c-2.7-5.9-1.1-13.3-1.9-19.6
						c-0.6-4.7-1.5-9.3-2.9-13.7c1.6,11.1,2.3,25.8,0.8,36.7c0,0-0.5,3.1,11.3,2.6c11.7-0.5,17.5-1.3,16.4-4.9
						c-1.1-3.6-3.4-10.5-4.1-15.8c-0.7-5.4-3.3-23-2.5-36.6c0.8-13.7,6.6-25.8,15.9-29.7c9.3-3.8,15.5-3.5,27.3-11.3
						C477,614,475.9,613,475.5,611.6z"/>
				</g>
				<path fill="#B8CD0E" d="M497.9,525.8c7.3-8.7,2.6-26.8-12.5-28.1c1.2-2.8-2.1-3.7-2.1-3.7s2.9-13.7-10.4-16
					c-0.2-1.9-1.5-4.5-1.5-4.5s0.4-13.1-8.7-18.1c-9.1-4.9-15.4,2.9-15.4,2.9c-2.7-6.3-8.3-3.1-8.3-3.1c-0.9-6.5-7.3-9.4-10.4-3.3
					c0,0-3.3-9.3-10.5-3.3c-4.1-5-11.1-2.5-12.7,0.4c0.7-9.7-18.6-9.5-17.7,6.6c-4.9-2.2-8.3,1.1-9.1,4.7c-3-5.5-6.3,3.7-6.3,3.7
					c-7.5-7.8-20.1,8.4-8.7,18.5c-6.1,1.3-3.1,7.2-3.1,7.2c-5.2-1.8-4.8,3.5-4.8,3.5c-7.5-2.4-15,8.3-3.2,19.2
					c-6.1,1.7-5.1,8.9-2.5,9.8c-5.8,0.1-2.3,8.3,1.1,9.2c-10.1,5.5-0.4,17.8,9,16.5c-1.1,18.2,11.7,19,11.7,19
					c-4.8,13.1,12.5,15.4,20,8.6c2.4,7.5,10.5-0.2,10.5-0.2c0,9.2,17.8,8.8,24.8,2.6c2.6,12.3,19.7,6.9,20.8-1.3
					c0,0,11.3,9,20.9,2.4c8.6-6.2,6.7-11.4,5.7-14.8c4.4,0.4,9.5-8.2,8.8-12.3C488.7,560.5,514.5,541.6,497.9,525.8z"/>
				<path opacity="0.3" fill="#00973C" d="M497.9,525.8c7.3-8.7,2.6-26.8-12.5-28.1c1.2-2.8-2.1-3.7-2.1-3.7s2.9-13.7-10.4-16
					c-0.2-1.9-1.5-4.5-1.5-4.5s0.4-13.1-8.7-18.1c-9.1-4.9-15.4,2.9-15.4,2.9c-2.7-6.3-8.3-3.1-8.3-3.1c-0.9-6.5-7.3-9.4-10.4-3.3
					c0,0-3.3-9.3-10.5-3.3c-4.1-5-11.1-2.5-12.7,0.4c0.7-9.7-18.6-9.5-17.7,6.6c-4.9-2.2-8.3,1.1-9.1,4.7c-3-5.5-6.3,3.7-6.3,3.7
					c-7.5-7.8-20.1,8.4-8.7,18.5c-6.1,1.3-3.1,7.2-3.1,7.2c-5.2-1.8-4.8,3.5-4.8,3.5c-7.5-2.4-15,8.3-3.2,19.2
					c-6.1,1.7-5.1,8.9-2.5,9.8c-5.8,0.1-2.3,8.3,1.1,9.2c-10.1,5.5-0.4,17.8,9,16.5c-1.1,18.2,11.7,19,11.7,19
					c-4.8,13.1,12.5,15.4,20,8.6c2.4,7.5,10.5-0.2,10.5-0.2c0,9.2,17.8,8.8,24.8,2.6c2.6,12.3,19.7,6.9,20.8-1.3
					c0,0,11.3,9,20.9,2.4c8.6-6.2,6.7-11.4,5.7-14.8c4.4,0.4,9.5-8.2,8.8-12.3C488.7,560.5,514.5,541.6,497.9,525.8z M392.1,519.3
					c0.1,2.2-0.7,4.3-3.2,4.6c1.6,3.9,1.9,8.9,0.8,12.2c-1.4,4.5-7.2,6-8.5,1.6c-2.1,4.2-7.7,3.9-9.1-1.3c-1.7,1.8-4.7,3.7-6.7,1.5
					c-0.1-0.1-0.1-0.1-0.2-0.2c-1.2,1.3-2.7,2.5-4.3,2.9c-2,0.6-4.2-0.5-4.7-2.8c-0.6-2.8,1.3-5.1,3.8-5.6c-0.2-1.4,0-2.7,0.6-4
					c-3.2,0.9-6.8,0.2-7.3-4c-0.3-2.4,1.1-4.5,3.2-4.7c-1.4-3,1.6-5.4,4.4-6.2c-1.3-1.2-1.7-2.8-1.4-4.7c-4.2,0.1-9.4-4.4-7.3-9.1
					c2.5-5.7,6.8-2.1,10.1,0.7c0.1-1.6,0.8-3,2.2-3.2c-1.9-2.2-2.8-5.5-1.2-8.2c1.5-2.5,3.8-2.6,5.7-1c0.2-1.1,0.8-1.8,1.8-2.1
					c-2.7-2.1-1.4-5,1-7c-2.6,0.5-5.8,1-7.5-1.1c-1.4-1.7-0.6-2.9,1-3.1c-0.2-0.5-0.4-1-0.3-1.4c0.3-1.2,0.2-0.9-0.6-1.9
					c-1.1-1.2-1.1-3-0.7-4.5c0.8-2.5,3.4-3.6,4.6-1.2c0.1,0,0.1,0,0.2,0c2.4,0.1,3.3,3.4,3.4,5.6c2.4-1.7,5.5-1.1,6.3,1.8
					c1.2-2.2,3.1-3.8,5.5-3.5c-1.3-2.9-2.1-7,1.4-8.4c2.2-0.9,4.2,0.4,5,2.4c1.2-2.2,4.3-1.7,5.1,1.2c1.5-1.6,3.4-3.3,5.2-3.1
					c0.5-1.1,1.1-2.1,1.9-3c2.7-2.8,5.3-1.8,7.1,1c1.1-3.4,5-7,7.3-4.4c0.2-1.7,1.2-3.4,3-3.6c2.7-0.4,4.4,1.8,4.6,4.4
					c0.2,2.1-0.4,4.2-1.3,6.3c3.6-0.6,7.5,1.2,7.3,5.1c1.2-1.1,2.8-1.5,4.4-1.3c-0.2-2.9,1-6.7,4.5-5.7c3.5,1,3.7,4.5,2.7,7.5
					c2.1-1.3,4.6-0.2,5,2.6c1.4-2.1,3.7-4.6,6.2-3.9c2.6,0.8,4,3.2,3.6,5.9c-0.6,4.4-5.6,8.3-9.9,7.6c2.5,4.5-1.5,9.6-6.4,9.1
					c0.2,2.6-1,5.3-3.6,6.1c-1.5,0.4-2.6,0.1-3.4-0.7c-1.4,4.4-8.1,5.9-10.3,1.3c-1.2,0.8-4.1-0.3-5.1-2c-0.5-0.9-0.8-1.9-1-2.9
					c-1.2,0.7-2.7,0.8-4.2,0.5c1,1.7,1.7,3.8-0.1,5.1c-1.3,0.9-2.8,1-4.3,0.7c2.7,3,4.5,7.2,3.5,11.2c-0.8,3.4-4.7,7.5-7.1,4
					c-0.9,3.1-3.3,7.7-6.5,5.1c-0.1-0.1-0.1-0.1-0.2-0.2C397.1,519.4,394.4,520.5,392.1,519.3z M470.2,548.6c-3.1,1.6-10.1,2.5-12-1
					c-0.3,0.3-0.7,0.5-1.1,0.7c-0.3,0.1-0.6,0.2-0.8,0.3c0.1,0.2,0.2,0.4,0.2,0.6c1,3.3-0.6,7-2.9,9.3c-2.8,2.8-8.1,4.9-9.7,1.3
					c-1.1,4-3.9,7.1-8.4,5.8c-2.7-0.8-4.6-2.6-5.7-4.9c-1.9,1.2-4,1.5-5.1-0.9c-3,2.8-6.1,0.5-7-3.2c-1.2,2.3-2.9,4.7-5.6,4.9
					c-1.9,0.2-3.7-1.3-4.7-3c-1.3-2.2-1.9-5.6-0.7-7.7c-1.3,0.1-2.7-0.2-3.6-1.2c-0.4-0.4-0.5-0.9-0.6-1.4c-0.2-1,0-0.6-1-0.7
					c-1.2-0.1-2.5-0.5-3.3-1.6c-1.6-2.2-1.1-5.7,1.3-7.2c2-1.2,4.2-0.9,6.4-0.3c-3.3-4.9,4.5-13.7,10.4-8.1c0.7-1.4,2-2.7,3-1.9
					c0.8-4,6.2-8.6,8-4.5c0.3-0.2,0.5-0.4,0.8-0.5c2.7-1.3,5.3,0.8,6.7,3.1c1.3-3.6,3.7-6.4,7.6-5.9c0.5-5.4,7.3-8.4,10.9-3.9
					c2.2,2.8,1.1,7.1-1,10c3.2-1,5.9,0.8,7.1,4.4c0.9-2.2,2.4-4.2,4.8-4.5c2.3-0.4,4.8,0.6,6.5,2.3c1.6,1.6,2.9,4,2.1,6.4
					c-0.6,1.6-1.7,2.8-3,3.6c2,0.1,3.8,0.9,4.3,3.3C474.6,544.7,472.4,547.4,470.2,548.6z"/>
				<path opacity="0.3" fill="#549F31" d="M497.9,525.8c7.3-8.7,2.6-26.8-12.5-28.1c1.2-2.8-2.1-3.7-2.1-3.7s2.9-13.7-10.4-16
					c-0.2-1.9-1.5-4.5-1.5-4.5s0.4-13.1-8.7-18.1c-3.5-1.9-6.6-1.9-9-1.2c0.1,0.1,0.2,0.3,0.3,0.4c0.4,0.8,0.3,1.7,0,2.4
					c2.5-0.9,5.2-0.3,7.2,2.1c2.4,2.9,2,6.7,0.2,9.6c5.2-1.5,4.5,6.1,2,9.6c-1.8,2.5-4.2,4.5-6.8,6.1c1.1,0.1,2,0.5,2.8,1.5
					c0.8,1,0.8,2.2,0.4,3.4c2.1-0.9,4.6-0.9,4.5,1.1c1.5-1.4,3.4-2.3,5.3-1.8c2.6,0.8,3.1,4.1,2,6.4c-0.8,1.7-2.8,4.6-5.2,6.9
					c1.2,0.5,1.9,1.7,1.9,3.1c1.5-2,3.8-3.2,6.3-2.7c3,0.7,3.6,4.6,3.1,7.3c-0.4,2.1-1.3,4.3-2.7,6.5c1.3-0.7,2.6-1,3.8-0.5
					c1.6,0.8,2.3,2.3,2.1,3.8c3-2.8,8.4-5.8,9.2-0.4c0.3,2.2-0.5,4.7-1.8,6.8c1.6,0.4,3.2,1,4.2,2.3c1.6,2,1.4,5.2-0.1,7.3
					c-1.7,2.5-4.3,2.9-6.7,1.9c1.8,4.2-1.5,9.5-5.4,7.1c-0.8,3.6-3.1,6.9-6.2,8.7c-2.1,1.2-5.2,2.3-7.8,2.2c0.6,2.2,0.6,4.4-1,6.2
					c-2.2,2.5-5,1.4-6.8-0.7c0.8,4.2,1.2,8.8-2.7,11.4c-3.8,2.5-6.5-0.1-8.2-3.4c-0.4,3-1.5,5.8-3.3,7.7c-1.9,2-5,2.2-7.3,0.9
					c-1.8-1-2.4-3.2-2.3-5.3c-1.1,1.5-2.8,2.5-4.7,1.9c-2-0.6-3-2-3.4-3.8c-1,1.6-2.5,2.8-4.2,3.5c-3.5,1.4-6.8-1.6-6.7-5
					c-2.2,2.6-5.8,4.7-8.3,1.7c-0.6-0.7-0.9-1.4-1-2.2c-0.7,0.2-1.4,0.2-2.2,0.1c-3.1-0.4-5.4-3.6-4.9-6.7c-1.5,1.1-2.9,0.5-3.9-0.8
					c-0.8,4.5-3.8,8.9-7.4,10.4c-2.3,0.9-5.8-0.1-6.5-2.9c-0.5-2.1,0.1-4.1,1.1-5.9c-1.3,0.7-2.8,1-4,0.1c-0.6-0.5-1-1.1-1.3-1.6
					c-0.8,0.6-1.8,1.1-2.9,1.2c-3.4,0.4-3.2-3.5-2.4-6.2c-1.5,1.2-3.4,2.3-5.1,1.4c-1.7-0.9-2.3-2.9-2.5-4.7
					c-0.2-1.6,0.1-3.5,0.8-5.1c-2-1.2-2.4-3.5-2.1-5.7c-1.7,1.7-4.1,2.7-6.4,1.4c-0.8-0.4-1.3-0.9-1.7-1.5c-1.5,0.5-3,0.6-4.4-0.1
					c-2.1-0.9-3.4-3.5-3.7-6.1c-1.9,5.9,5.6,13.1,12.9,12.2c-1.1,18.2,11.7,19,11.7,19c-4.8,13.1,12.5,15.4,20,8.6
					c2.4,7.5,10.5-0.2,10.5-0.2c0,9.2,17.8,8.8,24.8,2.6c2.6,12.3,19.7,6.9,20.8-1.3c0,0,11.3,9,20.9,2.4c8.6-6.2,6.7-11.4,5.7-14.8
					c4.4,0.4,9.5-8.2,8.8-12.3C488.7,560.5,514.5,541.6,497.9,525.8z"/>
				<path fill="#AFC90C" d="M396.6,639.1c0,0,6-3.3,4.4-9.6c-1.7-6.3-9.3-5-10.8-4.1c2.2-5.7-2.3-8.2-4.6-7c0.1-1.8-0.9-1.9-1.6-1.7
					c1.1-3.7-3.8-7.6-7-3.4c-1.6-1.7-5.8-0.6-6.5,0.6c-0.1-2-2.7-1.9-4-0.8c0.4-5.3-11.7-4.5-10.7,5.1c-3.5-1.8-6.7,1.2-6.6,3
					c0,0-5.7-0.7-6.1,6.3c-0.4,7,6.8,7.9,6.8,7.9s-5.4,3.9,0.2,8.1c-2.1,1.8-0.2,7.4,6.1,6.2c-0.5,2.5,3.5,3.4,4.9,0.4
					c0.8,3.1,6.3,4.6,9.3,2.1c0.9,2.4,4.1,1.7,5.6-1.1c2.5,3.3,13.3,6,12.9-4.2C392,647.8,396.9,644.3,396.6,639.1z"/>
				<path opacity="0.6" fill="#AFC90C" d="M401,629.6c-1.7-6.3-9.3-5-10.8-4.1c2.2-5.7-2.3-8.2-4.6-7c0.1-1.8-0.9-1.9-1.6-1.7
					c1.1-3.7-3.8-7.6-7-3.4c-1.6-1.7-5.8-0.6-6.5,0.6c-0.1-2-2.7-1.9-4-0.8c0.4-5.3-11.7-4.5-10.7,5.1c-3.5-1.8-6.7,1.2-6.6,3
					c0,0-5.7-0.7-6.1,6.3c-0.4,7,6.8,7.9,6.8,7.9s-5.4,3.9,0.2,8.1c-2.1,1.8-0.2,7.4,6.1,6.2c-0.5,2.5,3.5,3.4,4.9,0.4
					c0.8,3.1,6.3,4.6,9.3,2.1c0.9,2.4,4.1,1.7,5.6-1.1c2.5,3.3,13.3,6,12.9-4.2c3.2,1.2,8-2.3,7.8-7.5
					C396.6,639.1,402.7,635.9,401,629.6z M374.8,626.2c1.3,2.6-1.4,4.9-4,5.3c1.3,5.2-0.8,11.8-5.8,13.5c-2.6,0.9-6.3,1-6.6-2.6
					c0,0,0-0.1,0-0.2c-2.1,0.9-4.2,1-5.2-1.5c-0.9-2.2,0.1-3.8,1.6-4.8c-1.2-0.6-1.9-2.1-1.9-3.8c-2.4,0.1-4.7-0.6-5.6-2.7
					c-2.4-5.6,3.6-7.7,7.7-6.3c0.1,0,0.1,0.1,0.1,0.1c0.4-1.2,1.1-2.3,2-2.9c0-0.4,0-0.7,0-1.1c0.3-1.8,1.4-3.5,2.7-4.6
					c1.1-0.9,2.6-1.9,4.1-1.6c1.2,0.2,1.7,1.4,1.7,2.6c2.3-0.9,4.4,0.4,5.1,2.4c3.4-1.4,8.8-1.9,9.1,2.7
					C380.2,623.7,377.5,626.4,374.8,626.2z"/>
				<path fill="#AFC90C" d="M401,629.6c-1.7-6.3-9.3-5-10.8-4.1c2.2-5.7-2.3-8.2-4.6-7c0.1-1.8-0.9-1.9-1.6-1.7
					c1.1-3.6-3.6-7.5-6.9-3.6c0,0.1,0,0.1,0,0.2c1.2-0.5,2.4-0.5,3.5,0.7c1.7,1.7,1.7,4.6,0.8,7c1.6-0.1,3.2,0.4,4.1,1.6
					c1.2,1.6,1.6,3.8,1.3,5.9c2.1-0.5,4.3-0.2,5.9,1.1c3.3,2.7-0.4,6.3-3.2,7.4c0,0,0,0,0,0c0.3,1.3,0,2.8-0.7,4
					c-0.8,1.3-2,2.1-3.2,2.3c-0.1,0.7-0.4,1.4-0.7,2.1c-1.7,3.3-5.7,4.7-7.9,2.4c-0.2,0.4-0.5,0.8-0.8,1.1c-0.9,0.9-2.3,1.7-3.5,1.2
					c-0.6-0.3-1.1-0.7-1.3-1.2c-3.4,2-7.9,1.9-9-1.2c-1.9,0.8-3.9,1-5.8,0.1c-0.9-0.4-1.7-1.5-2-2.6c-0.8,0-1.6-0.3-2.4-1
					c-1.1-1-1.5-2.3-0.9-3.5c-1.8,0.1-3-1.7-3-3.5c-0.9,1.5-1.3,3.8,1.9,6.2c-2.1,1.8-0.2,7.4,6.1,6.2c-0.5,2.5,3.5,3.4,4.9,0.4
					c0.8,3.1,6.3,4.6,9.3,2.1c0.9,2.4,4.1,1.7,5.6-1.1c2.5,3.3,13.3,6,12.9-4.2c3.2,1.2,8-2.3,7.8-7.5
					C396.6,639.1,402.7,635.9,401,629.6z"/>
				<path fill="#D2D600" d="M354.8,624.6c-0.6-0.8-1.7-1-2.6-0.8c-0.8,0.1-1.5,0.7-2,1.4c0,0,0,0,0,0c-0.2,0.2-0.4,0.4-0.6,0.6
					c-0.6,0.9-0.6,2,0,2.8c0.6,1,1.4,1.4,2.5,1.3C354.3,629.8,356.6,626.8,354.8,624.6z"/>
				<path fill="#D2D600" d="M357.9,628.3c-0.8-0.7-1.9,0.3-2.3,1.1c-0.2,0.4-0.2,0.9,0.1,1.2c0.1,0.1,0.2,0.2,0.3,0.2
					c0.2,0.2,0.5,0.3,0.8,0.1C357.5,630.5,358.8,629.1,357.9,628.3z"/>
				<path fill="#D2D600" d="M357.3,633.3C357.3,633.3,357.3,633.3,357.3,633.3c-0.5,0-1,0.3-1.3,0.7c-0.3,0.3-0.4,0.7-0.3,1.2
					c0.1,0.4,0.6,0.5,0.9,0.4c0.7-0.2,1.3-0.9,1.2-1.7C357.9,633.6,357.7,633.4,357.3,633.3z"/>
				<path fill="#D2D600" d="M382,641.6c-0.4-1.3-1.6-1.7-2.8-1.2c-0.9,0.4-1.6,1-2,1.9c-0.1,0.1-0.1,0.1-0.2,0.2
					c-0.6,0.8-0.7,1.9-0.4,2.8c0.2,0.8,1,1.4,1.8,1.4c1.2,0,2.2-0.8,2.9-1.7C382,644.1,382.3,642.8,382,641.6z"/>
				<path fill="#D2D600" d="M374.3,645.1c-0.3,0-0.7,0.7-0.3,0.7C374.3,645.8,374.7,645.1,374.3,645.1z"/>
				<path fill="#D2D600" d="M375.1,631.6c-0.1,0-0.1,0.1-0.2,0.1c-0.7,0.2-1.2,0.9-1.4,1.6c-0.2,0.8-0.1,1.9,0.9,2
					c1.4,0.2,2.5-1.6,2.5-2.8C376.9,631.7,375.8,631.3,375.1,631.6z"/>
				<path fill="#D2D600" d="M367.7,645.9c-0.5-0.1-1.1,0.3-1.5,0.7c-0.5,0.5-0.7,1.2-0.7,2c0,0.3,0.2,0.6,0.4,0.7
					c0.6,0.3,1.2,0.1,1.7-0.3c0,0,0,0,0,0c0.4-0.2,0.7-0.5,0.9-0.7C369,647.2,368.7,646.2,367.7,645.9z"/>
				<path fill="#D2D600" d="M394.4,637.8c-0.3-0.5-1-0.2-1.4,0c-0.3,0.2-0.5,0.4-0.6,0.7c-0.3,0.4-0.5,0.9-0.6,1.4
					c0,0.3,0.1,0.4,0.2,0.6c0,0-0.1,0-0.2,0c-0.5,0-1,1-0.4,1c0.4,0,0.9-0.7,0.6-0.9c0.2,0.2,0.4,0.3,0.6,0.3c0.5,0.1,1-0.2,1.4-0.6
					C394.7,639.6,394.9,638.5,394.4,637.8z"/>
				<path fill="#AFC90C" d="M337.3,596.2c-0.6-1-1.9-1-2.9-0.5c-1.3,0.6-2.3,1.9-2.5,3.4c-0.1,0.7,0,1.2,0.4,1.6
					c0.3,0.5,0.9,0.8,1.5,0.7c1.2-0.1,2.3-1,3-2c0.1-0.2,0.3-0.5,0.4-0.7c0.1-0.2,0.1-0.3,0.2-0.5c-0.1,0.4,0.1-0.3,0.1-0.4
					C337.5,597.3,337.5,596.6,337.3,596.2z"/>
				<path fill="#AFC90C" d="M333,603.7c-0.3-0.5-1.2,0-1.5,0.2c-0.4,0.3-0.9,0.9-0.8,1.5c0,0,0,0.1,0,0.1c0.1,0.4,0.3,0.7,0.7,0.7
					c0,0,0,0,0.1,0c0.5,0,0.9-0.2,1.2-0.6c0.2-0.3,0.5-0.7,0.5-1.1C333.2,604.2,333.2,604,333,603.7z"/>
				<path fill="#D2D600" d="M326.3,585.7c-0.8-0.1-1.6,0.3-2.2,0.8c-0.6,0.6-1.4,1.5-1.4,2.4c-0.3,0.7-0.3,1.4,0.1,2
					c0.8,1.2,2.5,0.2,3.3-0.5c0.9-0.8,1.5-2,1.5-3.2C327.7,586.3,327,585.8,326.3,585.7z"/>
				<path fill="#D2D600" d="M321.5,592.9c-0.1-0.1-0.1-0.3-0.2-0.4c-0.3-0.4-0.9,0-1.2,0.2c0,0-0.1,0.1-0.1,0.1
					c-0.2,0.2-0.4,0.5-0.4,0.8c0,0,0,0.1,0,0.1c-0.1,0.2-0.1,0.5,0.1,0.6c0.4,0.3,1-0.1,1.3-0.3
					C321.3,593.9,321.7,593.3,321.5,592.9z"/>
				<g opacity="0.4">
					<path fill="#96C01F" d="M312.8,561.9c-1.5-0.5-2.9,0.8-3.5,2.1c-0.3,0.8-0.4,1.8,0,2.6c0.2,0.9,0.7,1.7,1.9,1.4
						c1.3-0.3,2.3-1.4,2.7-2.6C314.4,564,314.2,562.4,312.8,561.9z"/>
					<path fill="#96C01F" d="M316.8,569.3c-1.2-1.2-2.9,0.5-3.3,1.7c-0.2,0.4-0.2,0.9,0.1,1.3c0.3,0.4,0.8,0.6,1.2,0.5
						c0.2,0,0.5,0,0.9-0.1C316.8,572.1,317.9,570.4,316.8,569.3z"/>
					<path fill="#96C01F" d="M311.3,575.9c-0.1,0.2-0.2,0.4-0.3,0.6l0,0c-0.1,0.3-0.1,0.6,0.2,0.6c0.1,0,0.2,0.1,0.3,0.1
						c0.6,0.1,1.3-0.7,1.3-1.4C312.9,574.8,311.6,575.4,311.3,575.9z"/>
					<path fill="#DDDA00" d="M330.7,546.8c-1.1-1.5-3.2-0.3-4.3,0.7c-0.4,0.4-0.8,0.8-1.1,1.3c-0.7,1-1.1,2.3-0.6,3.4
						c0,0.1,0.1,0.2,0.2,0.3c0.1,0.3,0.3,0.7,0.6,0.9c1.5,1.3,3.7-0.3,4.6-1.6C331,550.5,331.8,548.3,330.7,546.8z"/>
					<path fill="#96C01F" d="M335.2,549c-0.1-0.1-0.1-0.2-0.2-0.3c0,0,0,0,0,0c-0.2-0.3-0.7-0.3-1-0.1c-0.4,0.2-0.7,0.5-0.9,0.8
						c-0.4,0.7-0.4,1.9,0.7,1.7c0.5-0.1,0.9-0.4,1.2-0.9C335.1,549.9,335.4,549.4,335.2,549z"/>
					<path fill="#96C01F" d="M342.9,561.2c-0.5-1.1-1.6-1-2.5-0.5c-0.7,0.4-1.2,1.3-1.5,2c-0.5,1.3-0.7,3.6,1.2,3.5
						c0.1,0,0.1,0,0.2,0c1.1-0.1,2.1-1,2.5-2C343.3,563.3,343.3,562.2,342.9,561.2z"/>
				</g>
				<path opacity="0.4" fill="#AFC90C" d="M372.4,597.2c-0.3-1-1.2-1.3-2-1.2c-1.1,0.1-2,1.2-2.4,2.2c-0.3,0.6-0.5,1.6-0.1,2.2
					c0,0.1,0.1,0.1,0.1,0.2c0.1,0.4,0.4,0.7,0.7,0.8c1,0.3,1.9-0.4,2.6-1C372.1,599.6,372.7,598.3,372.4,597.2z"/>
				<path opacity="0.4" fill="#AFC90C" d="M367.1,603.9c-0.7,0-1.3,0.5-1.6,1.2c-0.2,0.5-0.1,1.4,0.6,1.4c0.7,0,1.3-0.5,1.6-1.2
					C367.8,604.7,367.8,603.9,367.1,603.9z"/>
				<path opacity="0.4" fill="#AFC90C" d="M380.3,601.4c-1.6,0.2-2.9,1.8-3.4,3.3c-0.3,0.7-0.4,1.5-0.1,2.3c0.3,0.9,1.3,1.3,2.1,1.1
					c0.7-0.2,1.2-0.5,1.7-1c1-0.7,1.7-1.8,2-2.9C383,602.6,381.8,601.2,380.3,601.4z"/>
				<path fill="#AFC90C" d="M348.7,588c-0.4,0.2-0.9,0.7-1.2,1.2c0,0-0.1,0.1-0.1,0.1c-0.3,0.4-0.3,0.9,0,1.3c0.4,0.5,1.1,0.3,1.5,0
					c0.7-0.4,1-1.3,1-2.1C350,587.9,349.2,587.8,348.7,588z"/>
				<path opacity="0.3" fill="#569132" d="M359.1,499.9c-0.2-0.3-0.5-0.5-0.9-0.6c0-0.1-0.1-0.2-0.1-0.2c-1.1-1.5-3-0.5-3.9,0.6
					c-0.9,1.2-0.7,2.8-0.3,4.1c0.6,1.8,2.2,2.3,3.8,1.8c1.1-0.4,2-1.8,2.2-2.9C360.1,501.7,359.7,500.7,359.1,499.9z"/>
				<path opacity="0.3" fill="#569132" d="M365.4,507.9c-0.4-0.5-1.2-0.3-1.7-0.1c-0.7,0.3-1.9,1.8-1.1,2.5c0,0,0.1,0.1,0.1,0.1
					c0,0.6,0.3,1.1,0.9,1.2c1.2,0,2-1.5,2-2.6C365.8,508.6,365.7,508.2,365.4,507.9z"/>
				<path opacity="0.5" fill="#82BA28" d="M363.4,515.9c-0.3-0.6-0.9-0.9-1.6-0.9c-1.1,0.1-2.1,0.7-2.7,1.7
					c-0.4,0.5-0.7,1.2-0.7,1.9c0,0.5,0,0.7,0.1,1.2c0,0.1,0.1,0.2,0.2,0.3c0.1,0.5,0.5,0.9,1.1,1.1c0.9,0.2,2.1-0.7,2.7-1.4
					C363.1,518.9,364,517.2,363.4,515.9z"/>
				<path fill="#569132" d="M357.9,522.1c-0.5-0.2-1,0.1-1.3,0.4c-0.4,0.4-0.7,0.9-0.5,1.4c0,0.1,0,0.1,0,0.2c0,0.3,0.3,0.6,0.6,0.6
					c0.5,0,0.9-0.3,1.2-0.7c0.2-0.2,0.2-0.4,0.3-0.7c0-0.1,0.1-0.3,0.1-0.4C358.3,522.6,358.2,522.2,357.9,522.1z"/>
				<path fill="#569132" d="M353.4,532.4c-0.8-0.8-2-0.3-2.6,0.5c-0.6,0.6-0.9,1.5-1.1,2.3c-0.3,1.4-0.2,3.4,1.6,3.2
					c0.8-0.1,1.5-0.7,1.9-1.4C354.3,535.6,354.6,533.5,353.4,532.4z"/>
				<path fill="#569132" d="M360.2,534c-0.8,0.2-2,1.6-1,2.3l0,0c0,0,0,0,0,0c0.1,0,0.1,0,0.1,0c0,0,0,0,0,0c0.4,0.2,1-0.2,1.3-0.5
					c0.3-0.3,0.5-0.7,0.5-1.2C361.1,534.2,360.7,534,360.2,534z"/>
				<path fill="#DDDA00" d="M395.8,456.3c0-0.2,0-0.3-0.3-0.3c-0.3,0.1-1.1,0.9-0.5,1.2C395.5,457.4,396,456.7,395.8,456.3z"/>
				<g>
					<path opacity="0.5" fill="#82BA28" d="M369.6,467.8c-0.1-0.5-0.6-0.9-1-0.9c-0.9,0.1-1.6,0.6-2,1.3c-0.3,0.6-0.5,1.2-0.5,1.8
						c0,0.6,0.4,1,0.9,1.2c0.6,0.4,1.4-0.1,1.9-0.5C369.7,470,369.9,468.8,369.6,467.8z"/>
					<path opacity="0.5" fill="#82BA28" d="M369.2,475.5c-0.1-0.3-0.3-0.4-0.5-0.5c-0.2-0.4-0.7-0.4-1.1-0.1c-0.4,0.3-1.3,1.4-0.9,2
						c0.3,0.4,0.6,0.7,1.1,0.6c0.5-0.1,1-0.4,1.3-0.9C369.2,476.3,369.4,475.9,369.2,475.5z"/>
					<path opacity="0.5" fill="#82BA28" d="M376.8,473.8c-0.1-0.6-0.9-0.5-1.3-0.3c0,0,0,0-0.1,0c-0.7,0.3-1.3,1.2-1.2,2
						c0,0,0,0.1,0,0.1c0,0.9,0.8,1.2,1.4,0.9C376.6,476,377,474.8,376.8,473.8z"/>
					<path opacity="0.5" fill="#82BA28" d="M388.1,471.7c-0.3-1.3-1.5-2.4-2.8-2c-1.1,0.4-2,1.1-2.7,2c-1.5,1.4-2.4,3.9-2.1,5.7
						c0.3,1.5,1.6,1.9,2.9,1.6c1.9-0.4,3.3-2.2,4.2-4C388.1,474,388.3,472.8,388.1,471.7z"/>
					<path opacity="0.5" fill="#82BA28" d="M387.9,463.4c-0.6-0.7-1.7-0.1-2.2,0.4c-0.6,0.6-1.1,1.3-1,2.2c0,0.7,0.7,1.1,1.3,0.9
						c0.6-0.1,1.2-0.6,1.5-1.1c0.1-0.1,0.2-0.3,0.3-0.5c0-0.1,0-0.1,0-0.2C388.2,464.7,388.4,463.9,387.9,463.4z"/>
					<path opacity="0.3" fill="#569132" d="M396.5,444.7c-1.7,0.2-3.2,1.9-4.1,3.4c-0.1,0.2-0.3,0.5-0.4,0.8
						c-0.2,0.3-0.4,0.5-0.6,0.8c-0.7,1.5-0.6,3.6,0.8,4.5c1.4,0.9,3.4-0.5,4.3-1.5c1.2-1.2,2.4-3,2.5-4.8
						C399.3,446.2,398.4,444.5,396.5,444.7z"/>
					<path opacity="0.5" fill="#82BA28" d="M401.2,462.5c-2.4,1.1-4.3,4.1-4.5,6.9c0,0.4,0.1,0.7,0.2,1c0.3,2.1,3.1,1.4,4.3,0.6
						c1.7-1.1,2.9-3.4,3.2-5.4C404.7,463.4,403.4,461.4,401.2,462.5z"/>
					<path opacity="0.5" fill="#82BA28" d="M408.9,460.7c-0.4-0.3-0.8-0.3-1.3-0.1c-0.5,0.2-1.1,0.9-0.8,1.5c0,0,0,0.1,0,0.1
						c0.1,0.2,0.3,0.4,0.5,0.4c0.7,0,1.3-0.5,1.6-1.1C409.1,461.3,409.1,460.8,408.9,460.7z"/>
					<path opacity="0.5" fill="#82BA28" d="M418.5,459.1L418.5,459.1c0.1-0.2,0.2-0.5,0.2-0.8c-0.1-0.7-0.6-0.9-1.2-0.8
						c-0.5,0-1,0.4-1.4,0.8c-0.6,0.7-0.9,2-0.1,2.3c0,0,0.1,0,0.1,0c0,0,0.1,0,0.1,0c0.3,0.1,0.6,0,0.9-0.1c0.5-0.2,0.8-0.6,1.1-1
						C418.3,459.4,418.4,459.2,418.5,459.1C418.5,459.1,418.5,459.1,418.5,459.1z"/>
				</g>
				<path opacity="0.5" fill="#82BA28" d="M414.4,531.7c-1.4-1.3-3.3-0.1-4.4,1c-0.6,0.6-1.3,1.7-1.5,2.8c-0.7,1-1,2.6,0,3.4
					c1.1,0.8,2.5,0.3,3.5-0.4c1.1-0.9,2-2,2.7-3.4C415.1,534.1,415.3,532.6,414.4,531.7z"/>
				<path fill="#569132" d="M405.2,540.1c-1.1,0.3-2.4,1.5-2.4,2.8c-0.1,0.2-0.1,0.4-0.1,0.6c0,0.8,0.6,1.4,1.3,1.5
					c0.7,0.1,1.3-0.3,1.8-0.8c0.5-0.5,0.8-1.2,1-1.8C407.1,541.3,406.6,539.8,405.2,540.1z"/>
				<path opacity="0.3" fill="#178137" d="M460.5,498.8c-1.1-0.6-2.4-0.4-3.6,0.3c0.2-1.6-0.3-3-2.5-2.7c-0.4,0.1-1.2,0.4-2.2,0.8
					l0.1-0.2c0.3-0.9-0.1-1.2-0.7-1.1c-0.5-0.7-1.6-0.8-3-0.5c-2.1,0.5-3.4,2.2-4,4.2c-1.4-0.5-2.9,0.2-4,1.3
					c-1.5-3.1-8.1-0.6-8.7,3.9c-0.7,0-1.3,0.1-1.9,0.5c-0.9-1.7-2.7-1.9-4-1.1c-0.1-1.9-0.9-3.8-3-3c-2.7,1-4,4.1-3.8,7.1
					c-0.9,0.7-1.8,1.6-2.1,2.6c-2.1,0.5-3.6,2.8-3.5,4.5c-1.8,0.1-3.5,0.5-5.3,1.6c-1.3,0.8-2.9,3-2,4.6c1.3,2.7,4.8,0.9,7-1
					c0.3,1.9,2.2,3.1,4.3,1.6c1.8-1.3,3.5-3.1,4.7-5.2c0.3,0.3,0.7,0.4,1.2,0.5c1.7,0.1,3.3-1.2,4.4-2.8c0.4,2.3,1.5,4.4,3.6,4.5
					c2.2,0,3.2-1.8,3.6-3.9c2.3,1.1,5-2,4.8-5.2c1.9,0,4-0.1,5.5-1.4c0.5-0.4,0.9-1,1.2-1.6c1.2,0.8,2.8,1.4,3.7,1.6
					c1.3,0.3,3.2,0.5,4.4-0.2c1.6-0.9,2.4-2.5,3.8-3.6C459.8,503.9,463.2,500.3,460.5,498.8z"/>
				<path opacity="0.3" fill="#178137" d="M463.5,508.3c-1.2-0.7-2.8,0.5-3.6,1.3c-0.9,0.8-1.7,2.3-1.6,3.6c0.2,2.1,2.6,1.7,3.8,0.8
					c0.1,0,0.1-0.1,0.2-0.1c0.7-0.5,1.4-1.1,1.7-1.7C464.7,510.9,464.8,509.1,463.5,508.3z"/>
				<path opacity="0.3" fill="#178137" d="M469.4,509.4L469.4,509.4c0.1-0.2,0.1-0.4,0.1-0.6c0-0.7-0.8-0.9-1.3-0.6
					c-0.4,0.2-0.6,0.4-0.9,0.7c-0.3,0.3-0.6,0.9-0.6,1.4c-0.1,0.4,0.1,0.7,0.5,0.8c0.1,0,0.2,0,0.2,0c0.5,0,1-0.3,1.3-0.6
					c0.2-0.2,0.3-0.4,0.4-0.6C469.2,509.7,469.3,509.6,469.4,509.4C469.3,509.5,469.4,509.4,469.4,509.4z"/>
				<g opacity="0.3">
					<path fill="#845819" d="M399,612.1c-6.2-5.8-12.7-11.4-19-17.2c-3.1-2.8-6.8-4.1-10.4-5.9c-4.9-2.4-9.2-5.9-13.1-9.8
						c-0.1-0.1-0.4,0.1-0.3,0.3c2.6,2.8,5.4,5.4,8.5,7.6c4.2,2.9,9.1,4.4,13.2,7.6c7.1,5.7,13.6,12.1,20.8,17.7
						C398.9,612.5,399.2,612.2,399,612.1z"/>
					<path fill="#845819" d="M387.8,599.3c-5.3-5.7-6.6-13.2-10.5-19.7c-0.1-0.2-0.4,0.1-0.4,0.2c2.9,6.6,4.4,15.6,10.4,20
						C387.6,600.1,388,599.6,387.8,599.3z"/>
					<path fill="#845819" d="M408.3,589.4c0-0.2-0.4,0.1-0.3,0.3c3.2,14.5,6.2,29.3,7.3,44.1c0,0.6,0.8,0,0.8-0.4
						C416.6,618.5,411.7,603.6,408.3,589.4z"/>
					<path fill="#845819" d="M414.2,639.2c-0.4-4.4-1.2-9-2.5-13.2c-1.2-3.8-4.5-6.9-7-9.7c-0.1-0.1-0.3,0.2-0.3,0.3
						c2.8,3.7,5.5,7.3,6.9,11.9c1.4,4.8,1.7,10.4,2,15.3c0.5,9.1,0.2,17.9,2,26.9c0.1,0.3,0.5,0,0.4-0.2
						C414.1,659.9,415.2,649.7,414.2,639.2z"/>
					<path fill="#845819" d="M418.7,590.6c0-0.2-0.2-0.1-0.2,0c-0.4,2.5-1.4,4.9-1.6,7.4c-0.2,3-0.2,6.1,0,9.2c0,0.4,0.6,0,0.6-0.3
						c0.1-2.7,0-5.4,0-8.1C417.5,596,418.4,593.3,418.7,590.6z"/>
					<path fill="#845819" d="M425,600.1c-3.9,14-0.9,28.2-2,42.5c-1,13.4-4.2,27.1-1.7,40.6c0,0.3,0.5,0,0.4-0.2
						c-1.9-14.6,1.9-28.2,3-42.6c1-13.6-2.3-26.9,1.2-40.4C426,599.2,425.1,599.6,425,600.1z"/>
					<path fill="#845819" d="M424.7,690.9c-0.6-3.8-0.8-7.6-1.2-11.4c0-0.2-0.3,0-0.3,0.1c0.2,3.9,0,7.8,0.5,11.7
						c0.6,4.1,1.7,7.9,2.5,12c0.1,0.3,0.4,0,0.4-0.2C426.4,699,425.4,695,424.7,690.9z"/>
					<path fill="#845819" d="M454.2,606.5c-7.2,9.5-17.5,15.3-24.8,24.8c-0.2,0.2,0.1,0.3,0.2,0.2c7.7-8.9,18-15,24.8-24.8
						C454.6,606.4,454.3,606.3,454.2,606.5z"/>
					<path fill="#845819" d="M471.5,614.4c-7.5,3-15.2,5.1-22.9,7.7c-0.1,0-0.2,0.3,0,0.3c7.6-1.8,16.1-3.3,23-7.5
						C471.9,614.8,471.9,614.3,471.5,614.4z"/>
					<path fill="#845819" d="M465.6,604.3c-2.1,0.5-4.2,1.1-6.3,1.4c-0.1,0-0.3,0.3-0.1,0.3c2.2,0,4.2-0.4,6.3-1
						C465.7,604.9,466.1,604.2,465.6,604.3z"/>
					<path fill="#845819" d="M407,654.8c-2.1-3.3-5.7-5.2-9.2-6.5c-0.2-0.1-0.5,0.3-0.3,0.4c3.6,1.4,6.4,3.6,9.1,6.5
						C406.8,655.4,407.1,655,407,654.8z"/>
				</g>
				<g>
					<path fill="#AFC90C" d="M480.1,580.6c-1.6-1.2-3.5-0.3-4.8,0.9c-1.3,1.1-2.3,3.5-1,5c0.9,0.9,2.3,0.7,3.4,0
						c0.9-0.3,1.6-1,2.2-1.8C480.8,583.6,481.4,581.5,480.1,580.6z"/>
					<path fill="#AFC90C" d="M471.5,587.8c-0.7-1.1-2.1-0.3-2.8,0.3c-0.6,0.6-1.5,1.9-1.1,2.8c0,0.8,0.9,1,1.5,0.9
						c0.7,0,1.4-0.7,1.8-1.2C471.6,589.9,472.2,588.7,471.5,587.8z"/>
					<path fill="#AFC90C" d="M460.4,590.4c0-0.1-0.1-0.1-0.1-0.2c-0.4-0.7-1.1-0.3-1.6,0.1c-0.1,0.1-0.1,0.1-0.2,0.2
						c-0.5,0.3-1,1-0.6,1.6c0.6,1,1.9,0,2.3-0.7C460.4,591.2,460.6,590.7,460.4,590.4z"/>
					<path fill="#AFC90C" d="M448.6,593.4c-0.3-1.3-1.9-0.9-2.7-0.5c-1.3,0.7-2.4,1.9-2.7,3.4c-0.4,2.2,2.4,2,3.4,0.9
						c0.1,0,0.1-0.1,0.2-0.1C448,596.3,448.9,594.9,448.6,593.4z"/>
					<path fill="#AFC90C" d="M507.4,588.6c-1.2-0.7-2.7,0.5-3.5,1.3c-0.9,0.9-1.7,2-2,3.3c-0.1,0.3,0,0.8,0.2,1
						c0.1,0.1,0.2,0.2,0.4,0.2c0.2,0.3,0.6,0.5,1.2,0.6c1.3,0.1,2.7-1,3.6-2C508.1,591.8,509,589.6,507.4,588.6z"/>
					<path fill="#AFC90C" d="M499,599.9c-0.3,0.1-0.5,0.2-0.8,0.3c-0.7,0.4-1.5,1.3-0.9,2.2c0.5,0.8,1.8,0.2,2.2-0.5
						c0.2-0.3,0.3-0.6,0.2-0.9C499.9,600.4,499.7,599.7,499,599.9z"/>
					<path fill="#AFC90C" d="M512.8,595.2c-0.9-0.5-2.3,0-3.2,0.5c-1.4,0.8-3.2,2.1-3,4c0,0.3,0.1,0.5,0.2,0.7
						c0.1,0.1,0.1,0.3,0.2,0.4c0.6,0.9,1.9,0.5,2.7,0.2c1-0.4,2-1,2.8-1.9C513.3,598.2,514.3,596,512.8,595.2z"/>
					<path fill="#AFC90C" d="M500.4,610c-0.1-0.1-0.3-0.2-0.5-0.2c-0.1-0.1-0.3-0.1-0.5,0c-0.5,0.3-1.1,1.1-0.4,1.6
						c0.2,0.2,0.5,0.2,0.7,0.1c0,0,0.1-0.1,0.1-0.1C500.2,611.1,500.9,610.4,500.4,610z"/>
				</g>
				<path opacity="0.3" fill="#178137" d="M396.2,549.4c0.4-1.7,0.1-3.3-2.1-3.7c-1.1-0.2-2.1,0.2-3.1,1c-0.2-1.2-0.9-2.2-2.4-2
					c-0.6,0.1-1.2,0.4-1.7,0.9c-0.2-0.8-0.8-1.4-1.8-1.2c-1.3,0.3-2,1-2.3,2c-1.4-0.7-3.3-0.6-4.5,0.7c-0.3,0.3-0.5,0.8-0.6,1.2
					c-1.4,0.2-2.7,1.1-3.1,2.6c-0.7,2.5,2.4,2.9,4.9,2.6c-1,1-1.7,2.2-0.8,3.1c1.8,1.8,4.4,0.9,6.5-0.6c0.1,0.6,0.4,1.2,1,1.6
					c0.4,0.3,0.9,0.4,1.3,0.4c-0.3,0.7-0.6,1.5-0.8,2.2c-0.4,1.6,0.9,3.4,2.6,2.9c2.8-1,4.2-3.8,5.1-6.6c0-0.2,0.1-0.4,0.2-0.6
					c2.3-0.1,5.5-1.3,5.8-3.6C400.8,549.2,398.4,548.8,396.2,549.4z"/>
				<path opacity="0.3" fill="#AFC90C" d="M499.8,581.4c-1.5-0.8-3.4-0.1-5,1.3c-0.2-0.4-0.4-0.9-0.6-1.2c-1.1-1.6-3.7-1-5,0
					c0.1-0.7,0.2-1.4,0.1-2c-0.1-1.8-2.1-2.2-3.3-1.4c-2.1,1.5-3.6,5.6-3.4,8.9c-1.7,0.2-3.4,2-3.8,3.7c-1.7,0.1-3.3,1.1-3.1,3.2
					c0.1,1.5,1.9,2,3.8,2c-0.4,0.7-0.7,1.5-0.8,2.4c0,1,0.4,1.5,1.1,1.7c-1.5,1.9-2.3,4.4-0.3,6.1c0.7,0.6,1.5,0.5,2.3,0.1
					c-0.2,1.3,0.1,2.4,1.3,2.9c1.1,0.5,2.8-1.1,3.3-2c0.5-0.8,0.8-1.6,1.1-2.4c0.9,0.1,1.9-0.6,2.5-1.2c1.2-1.2,1.5-3,1.7-4.6
					c1.3,1.1,2.7,1.2,3.9-0.7c0.8-1.3,0.9-2.7,0.6-4.1c1.9-0.5,3.1-4,2.8-6.4C500.9,586.1,502.3,582.8,499.8,581.4z"/>
				<path opacity="0.5" fill="#82BA28" d="M405.7,497.8c-0.1-0.7-0.4-1.4-1-2c-0.3-0.3-0.6-0.6-0.9-0.8c0.3-0.2,0.6-0.4,0.9-0.6
					c2.8-1.6,5.5-4.2,5.6-7.8c0.1-3.9-5-3.2-8.1-0.7c-0.2-0.7-0.6-1.4-1.2-2c-1.3-1.3-3.4-0.1-4.8,0.8c-0.1-2-0.9-3.8-3-4.9
					c-3.3-1.7-5.8,2.6-6.5,6.1c-2-2.1-4.2-4.2-6.9-1.5c-0.9,0.8-1.3,2-1.5,3.2c-1-0.7-2.2-1-3.4-0.3c-2.3,1.1-2.6,3.8-1.9,6.1
					c-0.9-0.1-1.8,0.1-2.4,0.8c-1.2,1.2-1.1,2.6-0.4,3.6c-1.2,0.1-2.3,0.6-3.4,1.6c-1.2,1.2-1.8,3.4-1.2,5c0.5,1.3,1.9,1.8,3.5,1.8
					c-0.9,2.2,1.1,3.4,3,3.7c-2.6,2.1-6,5.6-4.2,8.6c1.1,1.9,3.9,0.7,5.8-0.6c0.4,2.1,3.6,1.4,5.3,0.3c0.7-0.5,1.5-1.1,2.2-1.8
					c0.5,1.8,1.6,2.9,3.7,1.9c2.2-1,3.2-4.3,4-6.4c0.4-1,0.8-2.1,1.2-3.2c1,1.6,2.7,3.4,4.4,2.6c1.4-0.6,2.2-1.9,2.6-3.4
					c1.2,1.2,2.9,1.6,4.7,0.3c0.7-0.5,1.1-1.1,1.4-1.7c0.9-0.2,1.8-0.5,2.5-0.9c1.8-1,3.3-3,2.8-5.3
					C408.1,499,407,498.2,405.7,497.8z"/>
			</g>
		</g>
		<g>
			<path fill="#232121" d="M409.6,672.8c0.3,1.1,0.5,2.3,1,3.3c1.5,2.9,2.9,5.9,4.7,8.7c1.6,2.6,3.9,4.7,5.5,7.3
				c4.8,7.9,3.4,18.4-3.2,24.9c-3.7,3.7-11,4.5-15.4,1.7c-1.8-1.2-2.4-2.9-1.4-4.7c1.1-1.9,2.6-3.6,4.1-5.7
				c-4.8-7.1-14.3-7.4-20.6-13.4c-0.5,6-2,11.9-0.3,17.9c1.1,3.9,1.3,7.9-2,10.7c-3.1,2.6-6.8,4.4-10.3,6.3
				c-2.9,1.6-7.2,0.6-10.9,0.3c-2.2-0.2-3-2.6-2.3-4.2c2.5-5.7-0.6-9.5-3.7-13.6c-4.8-6.5-9.3-13.3-14.1-19.7
				c-1.1-1.5-3.1-2.3-4.7-3.5c3.7-1.1,7.8-1.5,10.5-5c7.5-9.8,8.2-21.3,7.5-33.2c-1.6,2.6-3.6,2.4-5.4,0.9c-2.3-1.8-4.5-3.7-6.4-6
				c-1.8-2.2-1.4-4.1,1.1-5.5c1.9-1.1,4.2-1.6,6.4-2.4c-2.6-3.2-6.3-3.8-10.2-4.1c-2.7-0.2-5.3-0.5-8-0.8c2.6-1.1,5.3-2.2,7.9-3.4
				c0.8,0.2,1.6,0.4,2.5,0.5c13.4,2.3,26.2,9.4,29,30.6c0.5,3.9,0.7,7.9,1,11.8c0.3,5.4,0.6,10.7,0.8,16c6,1.2,9.7,0,13.4-4.5
				c2.8-3.4,5.4-6.9,8.1-10.3c1.9-2.4,4.5-3.4,7.5-2.9C404.5,671.6,407.1,672.2,409.6,672.8z"/>
			<path fill="#FCFCFC" d="M409.6,672.8c-2.6-0.5-5.1-1.2-7.7-1.6c-3-0.5-5.5,0.5-7.5,2.9c-2.7,3.4-5.4,6.9-8.1,10.3
				c-3.7,4.5-7.5,5.8-13.4,4.5c-0.3-5.3-0.5-10.7-0.8-16c-0.2-3.9-0.5-7.9-1-11.8c-2.8-21.2-15.6-28.3-29-30.6
				c-0.8-0.1-1.6-0.4-2.5-0.5c3-1.1,6-3,9.1-3.1c9.8-0.4,19.6-0.8,29.3,0.2c16,1.7,28.4,15.5,30.3,32.6
				C408.9,664,409.2,668.4,409.6,672.8z"/>
			<path fill="#FBFBFA" d="M331.7,633.3c2.7,0.3,5.3,0.6,8,0.8c3.9,0.3,7.6,0.9,10.2,4.1c-2.2,0.8-4.4,1.3-6.4,2.4
				c-2.5,1.4-2.9,3.3-1.1,5.5c1.8,2.2,4.1,4.2,6.4,6c1.8,1.4,3.8,1.6,5.4-0.9c0.7,11.9,0,23.4-7.5,33.2c-2.6,3.4-6.7,3.9-10.5,5
				c-4,1-7.9,1.9-11.8,2.9c-1.6-1.2-3.3-2.3-4.9-3.5c-0.9-0.7-1.6-1.7-2.6-2.1c-5.2-2.3-7.5-6.6-8.2-12.1c-0.6-4.5-1.1-9.1-1.7-13.7
				c-0.5-4.9,1.8-8.6,4.5-12.2c1.7,3.4,2.7,3.9,5.9,2.6c2.6-1,5.4-2.3,5.9-5.5c0.5-3.4-2-5.3-4.4-7
				C322.4,634.9,326.2,632,331.7,633.3z M344,672c-1-1.3-1.9-3.7-3.3-3.9c-2.3-0.5-4.8,0.4-7.2,0.8c-0.3,0.1-0.7,1.1-0.6,1.5
				c1.3,2.8,2.4,5.7,4.3,8.1c1.2,1.6,4.2,0.6,5.2-1.3C343.1,675.7,343.3,674.2,344,672z M320.8,666.8c-3.1-0.2-7,5.8-5.6,8.7
				c0.2,0.5,0.9,0.9,1.5,1.2c3.6,1.6,6.2,0.3,7.8-3.8C325.6,669.7,324.1,667.1,320.8,666.8z M333.8,683c-3.1,0-5.7,0-8.3,0
				c-0.7,0-1.3,0.3-2,0.4c0.2,0.7,0.1,1.8,0.5,2.1c1.5,1,3.1,2.4,4.7,2.4C331.1,687.8,332.8,686,333.8,683z"/>
			<path fill="#232120" d="M307,660.6c0.6,4.6,1.1,9.1,1.7,13.7c0.7,5.4,3,9.8,8.2,12.1c1,0.4,1.7,1.4,2.6,2.1
				c1.6,1.2,3.3,2.4,4.9,3.5c0.9,8.2-0.6,15.7-5.3,22.5c-2.3,3.3-2.7,7.1-2.5,11.1c0.2,2.8-1.1,4.3-3.6,5
				c-5.3,1.4-10.6,0.9-15.8-0.4c-4.4-1.1-5-4.7-2.2-8.3c1.3-1.6,1.8-4.1,2.1-6.3c0.3-1.8-0.1-3.8-0.5-5.7c-0.7-3.7-0.3-7.2,0.8-10.8
				c1.2-3.7,1.8-7.6,2.7-11.4c1.7-7.1,3.3-14.2,5-21.3C305.6,664.3,306.4,662.5,307,660.6z"/>
			<path fill="#262323" d="M318.9,638.6c2.4,1.7,5,3.5,4.4,7c-0.5,3.2-3.3,4.4-5.9,5.5c-3.2,1.3-4.2,0.8-5.9-2.6
				c0-1.2,0-2.5,0.1-3.7C312.2,640.2,314.5,638.3,318.9,638.6z"/>
			<path fill="#272526" d="M344,672c-0.1,2.4-0.9,3.8-1.6,5.1c-1,2-4,2.9-5.2,1.3c-1.8-2.4-2.9-5.3-4.3-8.1
				c-0.2-0.3,0.3-1.4,0.6-1.5c2.4-0.4,4.9-1.3,7.2-0.8C342.1,668.3,344,670.3,344,672z"/>
			<path fill="#282526" d="M320.8,666.8c3.3,0.2,4.8,2.8,3.6,6c-1.6,4.2-4.2,5.5-7.8,3.8c-0.6-0.3-1.2-0.7-1.5-1.2
				C313.8,672.6,317.7,666.6,320.8,666.8z"/>
			<path fill="#2E2C2D" d="M333.8,683c-1,3-2.7,4.8-5.1,4.9c-1.6,0-3.2-1.4-4.7-2.4c-0.4-0.3-0.4-1.4-0.5-2.1c0.7-0.1,1.3-0.4,2-0.4
				C328.1,683,330.7,683,333.8,683z"/>
		</g>
		<g>
			<path fill="#232121" d="M411.6,717c0.1,0.5,0.2,1,0.4,1.4c0.6,1.3,1.2,2.5,2,3.7c0.7,1.1,1.6,2,2.3,3.1c2,3.4,1.4,7.9-1.3,10.6
				c-1.5,1.6-4.6,1.9-6.4,0.7c-0.8-0.5-1-1.2-0.6-2c0.4-0.8,1.1-1.5,1.7-2.4c-2-3-5.9-3.2-8.5-5.7c-0.2,2.6-0.8,5.1-0.1,7.6
				c0.4,1.7,0.5,3.4-0.8,4.6c-1.3,1.1-2.8,1.9-4.3,2.7c-1.2,0.7-3,0.3-4.5,0.1c-0.9-0.1-1.2-1.1-0.9-1.8c1-2.4-0.3-4-1.5-5.8
				c-2-2.8-3.8-5.7-5.8-8.4c-0.5-0.6-1.3-1-1.9-1.5c1.5-0.5,3.2-0.7,4.3-2.1c3.1-4.2,3.4-9.1,3.1-14.2c-0.7,1.1-1.5,1-2.2,0.4
				c-0.9-0.8-1.9-1.6-2.6-2.5c-0.7-0.9-0.6-1.7,0.4-2.3c0.8-0.5,1.7-0.7,2.6-1c-1.1-1.4-2.6-1.6-4.2-1.7c-1.1-0.1-2.2-0.2-3.3-0.3
				c1.1-0.5,2.2-1,3.3-1.4c0.3,0.1,0.7,0.2,1,0.2c5.5,1,10.8,4,12,13.1c0.2,1.7,0.3,3.4,0.4,5c0.1,2.3,0.2,4.6,0.3,6.8
				c2.5,0.5,4,0,5.5-1.9c1.1-1.4,2.2-2.9,3.4-4.4c0.8-1,1.9-1.5,3.1-1.3C409.5,716.5,410.6,716.7,411.6,717z"/>
			<path fill="#FCFCFC" d="M411.6,717c-1.1-0.2-2.1-0.5-3.2-0.7c-1.2-0.2-2.3,0.2-3.1,1.3c-1.1,1.5-2.2,3-3.4,4.4
				c-1.5,1.9-3.1,2.5-5.5,1.9c-0.1-2.3-0.2-4.5-0.3-6.8c-0.1-1.7-0.2-3.4-0.4-5c-1.1-9.1-6.4-12.1-12-13.1c-0.3-0.1-0.7-0.2-1-0.2
				c1.3-0.5,2.5-1.3,3.8-1.3c4-0.2,8.1-0.4,12.1,0.1c6.6,0.7,11.7,6.6,12.5,13.9C411.3,713.2,411.5,715.1,411.6,717z"/>
			<path fill="#FBFBFA" d="M379.4,700.1c1.1,0.1,2.2,0.2,3.3,0.3c1.6,0.1,3.1,0.4,4.2,1.7c-0.9,0.3-1.8,0.5-2.6,1
				c-1,0.6-1.2,1.4-0.4,2.3c0.8,1,1.7,1.8,2.6,2.5c0.8,0.6,1.6,0.7,2.2-0.4c0.3,5.1,0,10-3.1,14.2c-1.1,1.5-2.8,1.7-4.3,2.1
				c-1.6,0.4-3.3,0.8-4.9,1.2c-0.7-0.5-1.4-1-2-1.5c-0.4-0.3-0.7-0.7-1.1-0.9c-2.2-1-3.1-2.8-3.4-5.2c-0.3-1.9-0.5-3.9-0.7-5.8
				c-0.2-2.1,0.7-3.7,1.9-5.2c0.7,1.4,1.1,1.7,2.4,1.1c1.1-0.4,2.2-1,2.4-2.3c0.2-1.5-0.8-2.3-1.8-3
				C375.6,700.8,377.2,699.6,379.4,700.1z M384.5,716.6c-0.4-0.5-0.8-1.6-1.4-1.7c-0.9-0.2-2,0.2-3,0.4c-0.1,0-0.3,0.5-0.2,0.6
				c0.5,1.2,1,2.5,1.8,3.5c0.5,0.7,1.7,0.3,2.1-0.6C384.1,718.2,384.2,717.6,384.5,716.6z M374.9,714.4c-1.3-0.1-2.9,2.5-2.3,3.7
				c0.1,0.2,0.4,0.4,0.6,0.5c1.5,0.7,2.5,0.1,3.2-1.6C376.9,715.6,376.3,714.5,374.9,714.4z M380.3,721.3c-1.3,0-2.4,0-3.4,0
				c-0.3,0-0.5,0.1-0.8,0.2c0.1,0.3,0,0.8,0.2,0.9c0.6,0.4,1.3,1,1.9,1C379.2,723.4,379.9,722.6,380.3,721.3z"/>
			<path fill="#232120" d="M369.2,711.8c0.2,1.9,0.4,3.9,0.7,5.8c0.3,2.3,1.2,4.2,3.4,5.2c0.4,0.2,0.7,0.6,1.1,0.9
				c0.7,0.5,1.4,1,2,1.5c0.4,3.5-0.2,6.7-2.2,9.6c-0.9,1.4-1.1,3-1,4.7c0.1,1.2-0.4,1.8-1.5,2.1c-2.2,0.6-4.4,0.4-6.5-0.2
				c-1.8-0.5-2.1-2-0.9-3.5c0.5-0.7,0.7-1.8,0.9-2.7c0.1-0.8-0.1-1.6-0.2-2.4c-0.3-1.6-0.1-3.1,0.3-4.6c0.5-1.6,0.7-3.2,1.1-4.9
				c0.7-3,1.4-6.1,2.1-9.1C368.6,713.4,369,712.6,369.2,711.8z"/>
			<path fill="#262323" d="M374.1,702.4c1,0.7,2,1.5,1.8,3c-0.2,1.4-1.4,1.9-2.4,2.3c-1.3,0.5-1.7,0.3-2.4-1.1c0-0.5,0-1.1,0-1.6
				C371.4,703.1,372.3,702.3,374.1,702.4z"/>
			<path fill="#272526" d="M384.5,716.6c0,1-0.4,1.6-0.6,2.2c-0.4,0.8-1.6,1.3-2.1,0.6c-0.8-1-1.2-2.3-1.8-3.5
				c-0.1-0.1,0.1-0.6,0.2-0.6c1-0.2,2-0.5,3-0.4C383.7,715,384.5,715.9,384.5,716.6z"/>
			<path fill="#282526" d="M374.9,714.4c1.4,0.1,2,1.2,1.5,2.6c-0.7,1.8-1.7,2.3-3.2,1.6c-0.2-0.1-0.5-0.3-0.6-0.5
				C372,716.9,373.6,714.3,374.9,714.4z"/>
			<path fill="#2E2C2D" d="M380.3,721.3c-0.4,1.3-1.1,2.1-2.1,2.1c-0.6,0-1.3-0.6-1.9-1c-0.2-0.1-0.2-0.6-0.2-0.9
				c0.3-0.1,0.5-0.2,0.8-0.2C377.9,721.3,379,721.3,380.3,721.3z"/>
		</g>
		<g>
			<path fill="#FFFFFF" d="M310.5,315.6h14l12.3,40.3l13.4-40.5h11.2l13.4,40.5l12.3-40.3h13.7l-20.3,60h-11.4l-13.4-39l-13.4,39
				h-11.4L310.5,315.6z"/>
			<path fill="#FFFFFF" d="M410.2,315.6h14l12.3,40.3l13.4-40.5h11.2l13.4,40.5l12.3-40.3h13.7l-20.3,60h-11.4l-13.4-39l-13.4,39
				h-11.4L410.2,315.6z"/>
			<path fill="#FFFFFF" d="M514.5,315.6h45.4v11.9h-32.2v12.7H556v11.9h-28.4v23.1h-13.1V315.6z"/>
		</g>
		<g>
			<path fill="#FFFFFF" d="M339.8,421.9c-2.7-2.7-4.1-6.2-4.1-10.3c0-4.1,1.4-7.5,4.1-10.3c2.7-2.8,6.2-4.2,10.5-4.2
				c2.4,0,4.4,0.4,6.1,1.2c1.7,0.8,3.3,2,4.7,3.4l-3.7,4.2c-1.2-1.1-2.3-1.9-3.4-2.4c-1.1-0.5-2.4-0.7-3.8-0.7
				c-2.3,0-4.3,0.8-5.8,2.5c-1.5,1.7-2.3,3.8-2.3,6.3c0,2.5,0.8,4.5,2.3,6.2c1.5,1.7,3.5,2.6,5.8,2.6c1.5,0,2.8-0.3,3.9-0.8
				c1-0.5,2.2-1.3,3.5-2.5l3.9,4.2c-1.5,1.6-3.2,2.8-4.9,3.6c-1.8,0.8-4,1.2-6.6,1.2C345.9,426.1,342.5,424.7,339.8,421.9z"/>
			<path fill="#FFFFFF" d="M388.5,424c-1.4,1.4-4.3,2.1-8.5,2.1c-4.3,0-7.8-1.4-10.6-4.2c-2.8-2.8-4.2-6.2-4.2-10.3
				c0-4,1.4-7.4,4.3-10.3c2.8-2.8,6.4-4.2,10.6-4.2c4.2,0,7.8,1.4,10.6,4.2c2.8,2.8,4.2,6.2,4.2,10.3c0,4-1.4,7.4-4.2,10.2
				L388.5,424z M375.2,419.2c0.8,0.9,2.4,1.3,4.9,1.3c2.5,0,4.5-0.9,6-2.6c1.6-1.7,2.4-3.8,2.4-6.2c0-2.5-0.8-4.5-2.4-6.2
				c-1.6-1.7-3.6-2.6-6.1-2.6c-2.5,0-4.5,0.8-6,2.5c-1.6,1.7-2.4,3.8-2.4,6.3c0,2.5,0.8,4.5,2.4,6.2L375.2,419.2z"/>
			<path fill="#FFFFFF" d="M400.4,397.6h5.7l13.1,17.2v-17.2h6.1v28H420l-13.6-17.8v17.8h-6.1V397.6z"/>
			<path fill="#FFFFFF" d="M434.9,421.9c-2.7-2.7-4.1-6.2-4.1-10.3c0-4.1,1.4-7.5,4.1-10.3c2.7-2.8,6.2-4.2,10.5-4.2
				c2.4,0,4.4,0.4,6.1,1.2c1.7,0.8,3.3,2,4.7,3.4l-3.7,4.2c-1.2-1.1-2.3-1.9-3.4-2.4c-1.1-0.5-2.4-0.7-3.8-0.7
				c-2.3,0-4.3,0.8-5.8,2.5c-1.5,1.7-2.3,3.8-2.3,6.3c0,2.5,0.8,4.5,2.3,6.2c1.5,1.7,3.5,2.6,5.8,2.6c1.5,0,2.8-0.3,3.9-0.8
				c1-0.5,2.2-1.3,3.5-2.5l3.9,4.2c-1.5,1.6-3.2,2.8-4.9,3.6c-1.8,0.8-4,1.2-6.6,1.2C441,426.1,437.6,424.7,434.9,421.9z"/>
			<path fill="#FFFFFF" d="M461.5,397.6h21.1v5.5h-15v5.7h13.2v5.5h-13.2v5.9h15.2v5.5h-21.3V397.6z"/>
			<path fill="#FFFFFF" d="M488.3,397.6h11.4c3.3,0,5.9,0.9,7.8,2.7c1.9,1.8,2.9,4.1,2.9,7.1c0,3.1-1.1,5.5-3.2,7.2
				c-2.1,1.7-4.8,2.6-8.1,2.6h-4.7v8.4h-6.2V397.6z M499.4,411.8c1.5,0,2.7-0.4,3.6-1.2c0.9-0.8,1.3-1.8,1.3-3.1
				c0-1.3-0.4-2.4-1.3-3.2c-0.9-0.7-2.1-1.1-3.7-1.1h-4.8v8.6H499.4z"/>
			<path fill="#FFFFFF" d="M521.6,403.3H513v-5.7h23.2v5.7h-8.5v22.3h-6.2V403.3z"/>
		</g>
	</g>
</g>
</svg>
