<svg id="Calque" xmlns="http://www.w3.org/2000/svg" viewBox="0 0 1074.32 1178.47"><defs><style>.cls-1{fill:#6791e5;opacity:0.38;}.cls-2{fill:#5b80c9;opacity:0.69;}.cls-3{fill:#4e6ab1;}.cls-24,.cls-4{fill:#fff;}.cls-5{fill:#981a1c;}.cls-6{fill:none;}.cls-7{fill:#efb7a8;}.cls-8{fill:#875841;}.cls-9{fill:#573929;}.cls-10{fill:#6c4532;}.cls-11{fill:#fdefeb;}.cls-12{fill:#7f1820;}.cls-13{fill:#f4bb9f;}.cls-14{fill:#f6c5aa;}.cls-15{fill:#c1707a;}.cls-16{fill:#db2a3b;}.cls-17{fill:#450b0a;}.cls-18{fill:#f9f9f9;}.cls-19{fill:#fcfcfc;}.cls-20{fill:#0a0b0a;}.cls-21{fill:#f1a791;}.cls-22{fill:#d3d3d3;}.cls-23{fill:#7cb2bf;}.cls-24{stroke:#fff;stroke-miterlimit:10;}</style></defs><title>Plan de travail 1</title><path id="calque3" class="cls-1" d="M926.33,544.39C937.63,417.65,821.87,52.78,540.8,164.06,412.48,214.86,360,377.69,292.53,469.18-194.72,1129.4,539.22,1010.11,650.1,928.41S898,862.49,926.33,544.39Z"/><path id="calque2" class="cls-2" d="M540.24,1036.34C824.11,1073.94,1170.68,626,734,272.94,479.77,56.61,150.15,110.28,291.26,468.43,386.62,710.46,117,980.28,540.24,1036.34Z"/><g id="calque1"><path class="cls-3" d="M877.42,643c12.85-189.65-212.61-360.49-320.78-411.48C468.81,190,257.81,195.13,297.46,420.87c44,250.76-48.11,210.88-121.49,386.28-77.41,188,135.46,243.58,323.21,199.77C664.87,968.25,856.3,911.54,877.42,643Z"/><path class="cls-4" d="M451.67,491.67v-70h19.5v70Z"/><path class="cls-4" d="M494.67,491.67v-70h19.4v28.4l24.1-28.4h23l-26.5,30.1,27.4,39.9h-23.3l-17.6-26-7.1,7.9v18.1Z"/><path class="cls-4" d="M578.37,491.67v-70h56.3v16.5h-37.1v10.6h33.6v15.3h-33.6v11.1h37.6v16.5Z"/><path class="cls-4" d="M650.17,491.67l29.8-70.5h18.7l29.8,70.5h-20.8l-5.1-12.5h-27l-5,12.5Zm31.1-27.6H697l-7.8-19.9Z"/><path class="cls-4" d="M497.39,562.47v-41.3h17.7q7.91,0,12.54,3.86t4.63,10.77q0,7.08-4.9,11t-12.86,3.89h-5.66v11.8Zm11.45-20.77h5.43a7.21,7.21,0,0,0,4.81-1.48,5,5,0,0,0,1.74-4,4.86,4.86,0,0,0-1.74-4,7.63,7.63,0,0,0-4.87-1.39h-5.37Z"/><path class="cls-4" d="M537.1,562.47v-41.3h19.53q9,0,13.45,4.42,3.66,3.66,3.66,9.79,0,9.09-8.5,12.69l9.85,14.4H561.88L553.56,550h-5v12.51ZM548.54,541h7.55a6.94,6.94,0,0,0,4.51-1.33,4.5,4.5,0,0,0,1.62-3.69,4.32,4.32,0,0,0-1.62-3.66,7.39,7.39,0,0,0-4.57-1.24h-7.49Z"/><path class="cls-4" d="M579.75,562.47v-41.3h11.5v41.3Z"/><path class="cls-4" d="M598.81,562.47v-41.3h10.68l17,21.83V521.17h11.33v41.3h-10l-17.64-22.66v22.66Z"/><path class="cls-4" d="M655.21,562.47V531.2H642.82v-10H679v10H666.66v31.27Z"/><path class="cls-5" d="M217.06,812.47a8.2,8.2,0,0,0,.34,1.1,10.23,10.23,0,0,0,1.11,2.17,9.08,9.08,0,0,0,1.62,1.8,12.88,12.88,0,0,0,2,1.42c.67.37,1.35.7,2,1,.93.47,1.85,1,2.77,1.45.44.24.87.49,1.3.74l1.41.84,1.52.92c.5.3,1,.62,1.47.93.23.15.45.31.67.46l.86.6c.27.19.53.41.79.61l.52.4,1.36,1.15c.41.34.78.73,1.16,1.1s.73.74,1.09,1.12l1.09,1.16.68.72c.22.23.43.46.66.68,0,.16-.09.32-.11.48l-.05.41a1.54,1.54,0,0,0,2.31,1.33,1.63,1.63,0,0,0,.38-.31,1.13,1.13,0,0,0,1.09-1.89l-.28-.28,0-.08a7,7,0,0,1,.68-1.14,11.58,11.58,0,0,1,1.57-1.52c.72-.55,1.46-1.1,2.22-1.6.46-.3.91-.61,1.37-.9l1.37-.88c.9-.58,1.81-1.17,2.68-1.8.53-.39,1.07-.77,1.59-1.18s.87-.66,1.28-1,.84-.71,1.24-1.09l.73-.69c.17-.17.36-.33.53-.5l1.29-1.32c.33-.34.64-.7.94-1.05a20.91,20.91,0,0,0,1.58-2.1,14.57,14.57,0,0,0,1.1-2,14.76,14.76,0,0,0,.91-2.52c.09-.36.15-.72.21-1.08.08-.52.14-1,.16-1.57a14,14,0,0,0-.19-2.68,17,17,0,0,0-1.49-4.73,11.57,11.57,0,0,0-1.41-2.17,13.18,13.18,0,0,0-1.58-1.68,13.51,13.51,0,0,0-4.4-2.58,12,12,0,0,0-2.2-.55,17.88,17.88,0,0,0-2.65-.23h-.17a16.85,16.85,0,0,0-4.75.73,18.92,18.92,0,0,0-4.43,2.05c-.45.27-.88.58-1.32.87a25.33,25.33,0,0,0-2.15,1.62,20.84,20.84,0,0,0-2.69,2.66c-.37.44-.72.9-1,1.37a8.44,8.44,0,0,0-1-1.21c-.32-.33-.66-.63-1-.93-.55-.49-1.11-1-1.7-1.4a10.34,10.34,0,0,0-2.15-1.16,12.19,12.19,0,0,0-2.2-.69,8.43,8.43,0,0,0-1.29-.17h-.23a6.29,6.29,0,0,0-1.12.12,5.19,5.19,0,0,0-1,.3,6.9,6.9,0,0,0-1.18.59c-.35.23-.69.49-1,.74s-.63.51-.93.78a14.85,14.85,0,0,0-1.55,1.64,11.13,11.13,0,0,0-1.35,2,11.54,11.54,0,0,0-.86,2.36,16.57,16.57,0,0,0-.43,2.57,13.43,13.43,0,0,0,0,2.32A10,10,0,0,0,217.06,812.47Zm4.86,3.22a8.43,8.43,0,0,1-1.24-1.21,8.77,8.77,0,0,1-.92-1.59l-.12-.32a.66.66,0,0,0,.31-.26c.65-1,1.3-2.08,2-3.1l1-1.53c.13-.2.28-.4.42-.6l.63-.89.09-.13.65-.85v0c-.52,1-1,2-1.53,3-.31.64-.64,1.27-.93,1.91l-.6,1.34-.32.74c-.11.27-.23.53-.33.8s-.16.49-.23.73a.81.81,0,0,0,.37.91,1,1,0,0,0,.81.18,1.44,1.44,0,0,0,.58-.34,1.14,1.14,0,0,0,.12-.14c.09-.11.17-.22.24-.33s.19-.31.3-.45l-.07.09c.59-.77,1.13-1.57,1.69-2.36l1.29-1.8c.57-.79,1.15-1.57,1.73-2.36l.52-.65-.17.36-.88,1.88c-.46,1-.89,2-1.33,3-.37.83-.71,1.67-1.06,2.5L225,814c-.21.5-.39,1-.58,1.51-.08.22-.15.45-.23.67s-.08.25-.13.37l-.06.16a1.09,1.09,0,0,0-.05.2A13.12,13.12,0,0,1,221.91,815.69Zm3.85,1.58h0v0Zm29.47,3.19-1.15,1-1,.79c-.43.33-.89.64-1.33,1-.84.6-1.72,1.14-2.57,1.72-.46.31-.94.61-1.39.94s-.87.6-1.29.92c-.72.55-1.45,1.08-2.11,1.69a10.89,10.89,0,0,0-1.55,1.77l-.94-1.08c-.35-.4-.71-.79-1.07-1.18-.15-.17-.3-.34-.46-.5l-.61-.59-.67-.65c-.14-.13-.29-.25-.44-.37-.48-.41-1-.83-1.47-1.22l-1.47-1.13c-.18-.14-.37-.25-.55-.38l-.86-.59c-.45-.31-.93-.58-1.39-.87-.9-.56-1.82-1.08-2.73-1.6s-1.94-1.06-2.93-1.56l-1.1-.54.25-.2a6.12,6.12,0,0,0,.77-.78c.53-.61,1-1.24,1.51-1.88l1.14-1.53,2.06-2.74.48-.63.33-.41-.52,1.26c-.18.44-.37.88-.54,1.32l-.65,1.74c-.15.4-.28.81-.41,1.22l-.22.68c-.08.25-.14.51-.21.76l-.16.59-.11.41c0,.12-.07.25-.09.37a2,2,0,0,0,0,.47,4.13,4.13,0,0,0,.07.45,1.18,1.18,0,0,0,.82.82,1.18,1.18,0,0,0,1.15-.3l.39-.34a4.13,4.13,0,0,0,.36-.38c.3-.35.58-.73.85-1.1l.48-.67,1.28-1.79.11-.15-.06.14-.48,1c-.08.17-.16.33-.24.5-.25.59-.51,1.18-.75,1.77-.1.23-.2.46-.29.69a4.24,4.24,0,0,0-.19.7,1.32,1.32,0,0,0,2.2,1.28,8.75,8.75,0,0,0,.7-.71c.3-.36.57-.74.83-1.12l.77-1.18,1.07-1.6.94-1.41.17-.24-.41.84c-.23.46-.42.94-.63,1.41l-.15.35c-.1.23-.21.46-.29.69a2.59,2.59,0,0,0-.09.57,1.17,1.17,0,0,0,.12.55,1.19,1.19,0,0,0,1.46.83l.28-.12a1.19,1.19,0,0,0,.43-.43l0,0,.63-.83c.24-.32.46-.65.68-1s.59-.91.9-1.35l1-1.46c.57-.81,1.13-1.62,1.72-2.42l.14-.19-.13.23c-.19.33-.35.67-.52,1l-1.06,2c-.15.29-.3.58-.44.88l-.92,2c-.23.5-.43,1-.63,1.51l-.36.9c-.08.21-.15.42-.22.63s-.16.46-.24.69l-.16.51,0,.12-.07.25a3.52,3.52,0,0,0-.11.57c0,.09,0,.19,0,.29a1.17,1.17,0,0,0,1.77,1,4.67,4.67,0,0,0,.52-.39,3.2,3.2,0,0,0,.33-.37c.27-.34.5-.71.74-1.07l.34-.5.75-1.11-.2.43q-.16.36-.31.72a3,3,0,0,0-.15.57l0,.16a1.19,1.19,0,0,0,2,1.16c.24-.25.48-.48.69-.75s.55-.72.79-1.1.46-.71.69-1.06l1.09-1.6,1-1.51c.18-.26.38-.52.56-.78l.07-.09a2.51,2.51,0,0,0,0,.68,1.32,1.32,0,0,0,2,1.14l.44-.27a5.2,5.2,0,0,0,.61-.46,7.47,7.47,0,0,0,.8-.83l.08-.1,0,.12a1.5,1.5,0,0,0,.37.63,1.52,1.52,0,0,0,.76.45l.24,0-.31.3C256,819.72,255.65,820.11,255.23,820.46Zm2.73-2.65v0h0Zm.47-8.1,0,0v0ZM237.34,805a11.13,11.13,0,0,1,.79-1.18,19.94,19.94,0,0,1,3.4-3.33c.35-.27.71-.54,1.09-.78l1-.61c.26-.16.52-.33.78-.48a22.47,22.47,0,0,1,2.13-1.06,14.88,14.88,0,0,1,3.4-.91,15.32,15.32,0,0,1,3.6,0,10.44,10.44,0,0,1,5.31,2.21,12.34,12.34,0,0,1,1.87,1.91,11,11,0,0,1,1.2,2.06,16.88,16.88,0,0,1,1,3.74,12.33,12.33,0,0,1,0,2.76q-.08.53-.21,1a1.25,1.25,0,0,0-.87.13,2.45,2.45,0,0,0-.65.53l.47-.86c.31-.56.62-1.12.92-1.69a1.26,1.26,0,0,0-1.08-1.89,1.46,1.46,0,0,0-1.07.48,5.13,5.13,0,0,0-.42.59l-.4.51.85-1.44.52-.9.34-.58c.15-.26.27-.53.39-.79a1.24,1.24,0,0,0-1.07-1.87,1.22,1.22,0,0,0-.88.36c-.11.12-.21.26-.31.39l0,0c-.24.32-.46.66-.69,1l-.37.52-.92,1.25-2,2.7-.49.66.14-.23,1.09-1.78.39-.64c.19-.31.38-.62.55-.93a11.4,11.4,0,0,0,.56-1.24,1.19,1.19,0,0,0-.83-1.46,1.15,1.15,0,0,0-.92.12,3.23,3.23,0,0,0-.5.41,4.53,4.53,0,0,0-.41.55l-.25.35-.64.86-1,1.3-2,2.75c-1.15,1.56-2.29,3.13-3.43,4.7l.38-.69,1.12-2c.23-.4.45-.8.69-1.2q1.8-3,3.6-5.91c.32-.52.62-1,.93-1.57l.71-1.21.25-.45c.13-.23.25-.46.36-.7s.16-.36.23-.55a1.13,1.13,0,0,0,0-.17c0-.09,0-.19,0-.28a1.25,1.25,0,0,0-1.21-1.57,1.22,1.22,0,0,0-.89.37c-.42.47-.81,1-1.21,1.43L251.7,801c-.7.85-1.39,1.72-2.07,2.58l-.12.16-.32.41c.57-.94,1.14-1.87,1.67-2.83.21-.38.4-.78.62-1.16a2.19,2.19,0,0,0,.1-.21,3.25,3.25,0,0,0,.16-.39,2.1,2.1,0,0,0,.06-.42,1.33,1.33,0,0,0-.18-.8,1.78,1.78,0,0,0-.55-.54,1.3,1.3,0,0,0-.66-.18l-.35,0a1.3,1.3,0,0,0-.58.34c-.62.79-1.22,1.6-1.83,2.39l-1.3,1.7-1.73,2.22-1.08,1.38,0,0c.61-1,1.23-2.06,1.81-3.11a6.45,6.45,0,0,0,.28-.61,1.89,1.89,0,0,0,0-1,1.34,1.34,0,0,0-2.23-.59l-.33.42c-.56.71-1.13,1.42-1.69,2.14h0l-.07.09c-.64.82-1.29,1.63-1.92,2.46s-1.34,1.73-2,2.6l-1.27,1.71c-.25.34-.5.67-.74,1l-1.69,2.36.2-.53,1.25-3.17c.24-.6.48-1.2.7-1.8.11-.3.21-.59.31-.89a1,1,0,0,0,.4-.4C236.85,805.88,237.09,805.45,237.34,805Zm-18,3.17a12.65,12.65,0,0,1,.73-2.84,10.18,10.18,0,0,1,1.14-1.94,15.89,15.89,0,0,1,2.6-2.58,6.89,6.89,0,0,1,1.24-.76,5.46,5.46,0,0,1,1-.28,5.75,5.75,0,0,1,1.17,0,11.48,11.48,0,0,1,2.57.7q.49.22,1,.48a9.34,9.34,0,0,1,1,.63c.28.22.55.43.82.66a13.7,13.7,0,0,1,1.77,1.72,3.72,3.72,0,0,1,.23.37,2.29,2.29,0,0,0-.45.52l0,.07c-.58.73-1.19,1.45-1.77,2.19L231,808.77c-.31.4-.61.81-.92,1.22l-1.4,1.9c-.64.87-1.27,1.75-1.93,2.61.12-.29.24-.57.36-.85l.4-1c.44-1,.86-2,1.31-2.95.57-1.22,1.14-2.44,1.69-3.66.24-.52.45-1.05.67-1.58a6.28,6.28,0,0,0,.26-.74,3.74,3.74,0,0,0,.08-.49,3.52,3.52,0,0,0,0-.43.88.88,0,0,0-1.11-.84,1.6,1.6,0,0,0-.53.21,1.9,1.9,0,0,0-.41.4c-.1.12-.2.24-.31.36l-.51.56c-.34.39-.68.77-1,1.17l-.69.87c-.18.22-.36.44-.53.67l-1.07,1.47-.64.88L225,808l.8-1.57.81-1.6.58-1.15c.12-.23.23-.47.34-.71a6.33,6.33,0,0,0,.3-.75,3.57,3.57,0,0,0,.1-.78.71.71,0,0,0-.22-.52.72.72,0,0,0-.72-.19l-.18.07a1.24,1.24,0,0,0-.37.22,1.87,1.87,0,0,0-.32.35l-.28.34-.5.6c-.38.47-.77.93-1.13,1.4l-1.14,1.51c-.31.41-.59.84-.89,1.27-1,1.48-2,3-2.93,4.52A13.4,13.4,0,0,1,219.34,808.19Zm11.53-4.54h0Zm-3.47-1.51h0Z"/><path class="cls-6" d="M563.79,634a12.48,12.48,0,0,0-1.37-2.37,8.21,8.21,0,0,0-1.14-1.17,6.2,6.2,0,0,0-1-.58,7.2,7.2,0,0,0-1.36-.36,11.56,11.56,0,0,0-2.58.05,21.09,21.09,0,0,0-4.26,1.12l-2,.74-2,.85a22.92,22.92,0,0,0-2.18,1.1,22.65,22.65,0,0,0-2.41,1.56,21.51,21.51,0,0,0-2.21,2c-.74.77-1.46,1.56-2.18,2.35a1.48,1.48,0,0,1-2.52-1c-.37-.57-.76-1.13-1.17-1.67a12.87,12.87,0,0,0-2-2.09,13.13,13.13,0,0,0-2.65-1.49,16.48,16.48,0,0,0-3.88-1.1,10.23,10.23,0,0,0-1.22-.1,9.79,9.79,0,0,0-1.13.06,8.74,8.74,0,0,0-1.85.51,10.34,10.34,0,0,0-1.93,1.14,12.16,12.16,0,0,0-1.87,1.88,12.79,12.79,0,0,0-1.44,2.44,15,15,0,0,0-.85,3.34,14.07,14.07,0,0,0-.06,3.3,11.57,11.57,0,0,0,.69,2.51,13,13,0,0,0,1.46,2.47,21.63,21.63,0,0,0,3.53,3.47c.36.28.74.54,1.12.8.92.62,1.88,1.18,2.84,1.74.53.31,1.06.62,1.59.92l3.9,2.17c.61.34,1.21.7,1.81,1a19.53,19.53,0,0,1,2.14,1.47,15.93,15.93,0,0,1,2.07,1.92,17.15,17.15,0,0,1,1.9,2.5,15.35,15.35,0,0,1,.95,1.82c.18.4.36.81.52,1.23.12-.49.24-1,.4-1.45.1-.32.19-.65.32-1s.33-.92.54-1.37l.48-1c.13-.28.29-.54.44-.81s.27-.49.42-.72l.71-1.1c.16-.24.34-.47.52-.71s.5-.68.76-1c.43-.53.85-1.07,1.28-1.59.23-.28.46-.57.71-.84l.8-.89c.18-.2.38-.4.57-.59s.46-.48.7-.71c.49-.45,1-.9,1.49-1.33s1.11-.92,1.68-1.37c1.11-.88,2.23-1.77,3.33-2.67.5-.41,1-.85,1.47-1.27.25-.21.48-.44.72-.66s.46-.41.68-.63L560,646c.18-.18.37-.36.55-.55.63-.69,1.27-1.37,1.85-2.1a13,13,0,0,0,1.49-2.48,10.73,10.73,0,0,0,.63-2.29,9.66,9.66,0,0,0,0-2.14A11.58,11.58,0,0,0,563.79,634Zm-43.28,2a.85.85,0,1,1-.85.85A.86.86,0,0,1,520.51,636Zm0,13.95a.81.81,0,1,1,.81-.81A.82.82,0,0,1,520.54,650Zm1.8-5.69a.72.72,0,0,1-.19.32l-.09.07a4.85,4.85,0,0,0-.44.4.71.71,0,0,1-1.22-.5.74.74,0,0,1,.21-.5,4.23,4.23,0,0,1,.51-.48.72.72,0,0,1,.32-.19l.19,0,.19,0a.72.72,0,0,1,.51.89Zm0-3.1-.14.19-.19.24.15-.19-.54.7a.91.91,0,0,1-.67.28.94.94,0,0,1-.94-.94.94.94,0,0,1,.13-.48l.15-.19a6.63,6.63,0,0,1,.62-.71,1,1,0,0,1,.66-.26.9.9,0,0,1,.64.26.92.92,0,0,1,.14,1.11Zm10.46-3.79a.88.88,0,1,1-.88.88A.89.89,0,0,1,532.75,637.4Zm-1.25,2.52a.6.6,0,1,1-.6.6A.61.61,0,0,1,531.5,639.92ZM526,636.41a1,1,0,1,1-1,1A1,1,0,0,1,526,636.41Zm1.44,5.1a.67.67,0,1,1-.67-.67A.67.67,0,0,1,527.4,641.5Zm-1.19,11a1.29,1.29,0,1,1,1.29-1.29A1.3,1.3,0,0,1,526.2,652.47Zm1.07-7.1a1,1,0,1,1,1-1A1,1,0,0,1,527.27,645.37Zm.23-9.69a.9.9,0,1,1,.9-.9A.91.91,0,0,1,527.51,635.68Zm1.79,21.07a.67.67,0,1,1,.67-.67A.68.68,0,0,1,529.3,656.75Zm1.52-7.56a.6.6,0,1,1,.6-.6A.61.61,0,0,1,530.82,649.19Zm2.8,4c-.12.11-.23.22-.36.32a1.27,1.27,0,0,1-.92.38.87.87,0,0,1-.44-.12l-.18-.14a.87.87,0,0,1-.22-.38.86.86,0,0,1,.22-.85l.09-.08h0c.17-.15.33-.31.5-.47a1,1,0,0,1,.66-.27.93.93,0,0,1,.66,1.58Zm.53-6.81a1,1,0,1,1,1-1A1,1,0,0,1,534.15,646.41Zm9.42-8.57a4.87,4.87,0,0,1,.8-.09h0a.76.76,0,0,1,.51,1.3.78.78,0,0,1-.54.22h-.61a.74.74,0,0,1-.73-.73A.73.73,0,0,1,543.57,637.84Zm-7.72,18.67a.64.64,0,1,1,.64.64A.65.65,0,0,1,535.85,656.52Zm1.52,4.35a1,1,0,1,1,1-1A1,1,0,0,1,537.37,660.87Zm1.37-10.53a.64.64,0,1,1,.64-.64A.65.65,0,0,1,538.74,650.34Zm.81-7.33a1.24,1.24,0,1,1,1.24,1.24A1.25,1.25,0,0,1,539.55,643ZM541,665.39a1,1,0,1,1,1-1A1.05,1.05,0,0,1,541,665.39Zm-.11-6.11a.56.56,0,1,1,.56.56A.57.57,0,0,1,540.86,659.28Zm.77-3.69a.77.77,0,1,1,.77-.77A.77.77,0,0,1,541.63,655.59Zm.89-3.84a1.46,1.46,0,1,1,1.46-1.46A1.48,1.48,0,0,1,542.53,651.75Zm1.91,7.46a.72.72,0,1,1,.72-.72A.73.73,0,0,1,544.44,659.2Zm1.53-5.74-.26.32a.63.63,0,0,1-.46.19.65.65,0,0,1-.65-.65.7.7,0,0,1,.19-.46l.26-.32a.63.63,0,0,1,.46-.19.65.65,0,0,1,.65.65A.7.7,0,0,1,546,653.47Zm-.51-6.66a1,1,0,1,1,1-1A1,1,0,0,1,545.45,646.81Zm.91-11.61a.85.85,0,1,1,.85-.85A.86.86,0,0,1,546.36,635.2ZM556.75,633a.83.83,0,1,1-.83.83A.84.84,0,0,1,556.75,633Zm-7.78.85a.78.78,0,0,1,.28-.28,3.58,3.58,0,0,1,.46-.18.73.73,0,0,1,.21,0,.78.78,0,0,1,.21,1.54l-.28.09a.75.75,0,0,1-.6-.08.78.78,0,0,1-.28-1.06Zm-.67,5.68a.88.88,0,1,1,.88.88A.88.88,0,0,1,548.29,639.55Zm.7,4.1a.67.67,0,1,1,.67.67A.67.67,0,0,1,549,643.65Zm1.12,7.36a.77.77,0,1,1,.77-.77A.78.78,0,0,1,550.12,651ZM552,635.59a1.16,1.16,0,1,1,1.16-1.16A1.17,1.17,0,0,1,552,635.59Zm1.51,12.4a.54.54,0,1,1,.54-.54A.54.54,0,0,1,553.55,648Zm1-6.79a.66.66,0,1,1,.66-.66A.67.67,0,0,1,554.52,641.2Zm2.27,5.52a1.28,1.28,0,1,1,1.28-1.28A1.29,1.29,0,0,1,556.78,646.72Zm1.06-15a.7.7,0,1,1,.7-.7A.71.71,0,0,1,557.85,631.73Zm2.45,9.79a.77.77,0,1,1,.77-.77A.77.77,0,0,1,560.3,641.52Zm1-4.93a1.45,1.45,0,1,1,1.45-1.45A1.46,1.46,0,0,1,561.27,636.59Z"/><path class="cls-5" d="M567.21,636.85a11.7,11.7,0,0,0-.6-3.13,14.84,14.84,0,0,0-1.29-2.81,12.65,12.65,0,0,0-.94-1.34,8.11,8.11,0,0,0-1-1.06,7.9,7.9,0,0,0-1.25-.92,8.13,8.13,0,0,0-1.59-.69,9,9,0,0,0-1.65-.32,8.28,8.28,0,0,0-1.09-.07h-.43a18.5,18.5,0,0,0-3.23.45c-.46.1-.92.22-1.37.35s-.83.24-1.24.39l-2.19.82c-.74.28-1.45.62-2.17.94a29.35,29.35,0,0,0-3.6,1.88,22,22,0,0,0-2.54,1.85,23.48,23.48,0,0,0-2.12,2l-1.28,1.39c-.23-.34-.46-.67-.7-1a16.36,16.36,0,0,0-1.94-2.26,12.58,12.58,0,0,0-2.4-1.74,19.1,19.1,0,0,0-2.79-1.28,14.47,14.47,0,0,0-2.84-.74,11.62,11.62,0,0,0-1.64-.16h-.08a11.38,11.38,0,0,0-1.6.14,9.49,9.49,0,0,0-2.91,1,11.65,11.65,0,0,0-2.5,1.78,13.51,13.51,0,0,0-2,2.3,13.74,13.74,0,0,0-1.41,2.65,14.56,14.56,0,0,0-.79,2.87,19.11,19.11,0,0,0-.34,3.26,11,11,0,0,0,.08,1.39,14.06,14.06,0,0,0,.3,1.73,13.44,13.44,0,0,0,1.14,3,15.33,15.33,0,0,0,1.76,2.59,24.46,24.46,0,0,0,4.49,4.22c.94.69,1.93,1.31,2.92,1.92,1.14.71,2.3,1.39,3.45,2.08.73.43,1.47.85,2.19,1.3,1,.63,2.08,1.24,3,2a16.86,16.86,0,0,1,2.61,2.62,15.25,15.25,0,0,1,1,1.59c.25.44.47.9.68,1.37l.65,1.4.05.14.18.42a1.74,1.74,0,0,0,2,.8l.17-.06-.09.47a1.37,1.37,0,0,0,.13,1,1.31,1.31,0,0,0,1.8.47l.27-.21a1.31,1.31,0,0,0,.34-.58c.47-1.18.86-2.39,1.21-3.61.16-.55.3-1.1.47-1.64.08-.27.15-.53.24-.79l.33-.92.18-.4c.07-.17.14-.34.23-.51.23-.43.44-.89.7-1.3l.53-.84c.09-.14.18-.29.28-.43l.91-1.25c.33-.42.66-.85,1-1.26.49-.59,1-1.17,1.48-1.74s.89-.95,1.34-1.42c.26-.27.55-.51.82-.76l.56-.5c1.1-.93,2.21-1.84,3.33-2.74.55-.45,1.1-.91,1.64-1.37s1-.89,1.51-1.34.93-.89,1.4-1.33c.25-.24.49-.5.74-.75s.43-.42.62-.64c.6-.67,1.2-1.33,1.76-2a16.47,16.47,0,0,0,1.71-2.58,12.29,12.29,0,0,0,1.06-2.87A11.42,11.42,0,0,0,567.21,636.85Zm-2.72,1.77a10.73,10.73,0,0,1-.63,2.29,13,13,0,0,1-1.49,2.48c-.58.73-1.22,1.41-1.85,2.1-.17.19-.36.37-.55.55l-.86.85c-.22.22-.45.42-.68.63s-.47.45-.72.66c-.49.42-1,.86-1.47,1.27-1.1.9-2.21,1.78-3.33,2.67-.57.45-1.12.91-1.68,1.37s-1,.88-1.49,1.33c-.24.22-.47.47-.7.71s-.39.39-.57.59l-.8.89c-.24.27-.47.56-.71.84-.44.52-.86,1.06-1.28,1.59-.26.33-.51.68-.76,1s-.36.46-.52.71l-.71,1.1c-.15.23-.28.48-.42.72s-.31.54-.44.81l-.48,1c-.21.44-.36.91-.54,1.37s-.21.65-.32,1c-.15.48-.28,1-.4,1.45-.16-.42-.35-.82-.52-1.23a15.35,15.35,0,0,0-.95-1.82,17.15,17.15,0,0,0-1.9-2.5,15.93,15.93,0,0,0-2.07-1.92,19.53,19.53,0,0,0-2.14-1.47c-.6-.35-1.2-.71-1.81-1l-3.9-2.17c-.54-.3-1.06-.61-1.59-.92-1-.56-1.91-1.12-2.84-1.74-.38-.25-.75-.52-1.12-.8a21.63,21.63,0,0,1-3.53-3.47,13,13,0,0,1-1.46-2.47,11.57,11.57,0,0,1-.69-2.51,14.07,14.07,0,0,1,.06-3.3,15,15,0,0,1,.85-3.34,12.79,12.79,0,0,1,1.44-2.44,12.16,12.16,0,0,1,1.87-1.88,10.34,10.34,0,0,1,1.93-1.14,8.74,8.74,0,0,1,1.85-.51,9.79,9.79,0,0,1,1.13-.06,10.23,10.23,0,0,1,1.22.1,16.48,16.48,0,0,1,3.88,1.1,13.13,13.13,0,0,1,2.65,1.49,12.87,12.87,0,0,1,2,2.09c.41.54.8,1.1,1.17,1.67a1.48,1.48,0,0,0,2.52,1c.72-.79,1.44-1.58,2.18-2.35a21.51,21.51,0,0,1,2.21-2,22.65,22.65,0,0,1,2.41-1.56,22.92,22.92,0,0,1,2.18-1.1l2-.85,2-.74a21.09,21.09,0,0,1,4.26-1.12,11.56,11.56,0,0,1,2.58-.05,7.2,7.2,0,0,1,1.36.36,6.2,6.2,0,0,1,1,.58,8.21,8.21,0,0,1,1.14,1.17,12.48,12.48,0,0,1,1.37,2.37,11.58,11.58,0,0,1,.7,2.48A9.66,9.66,0,0,1,564.49,638.62Z"/><circle class="cls-5" cx="525.95" cy="637.4" r="0.99"/><path class="cls-5" d="M521.83,643.4l-.19,0-.19,0a.72.72,0,0,0-.32.19,4.23,4.23,0,0,0-.51.48.74.74,0,0,0-.21.5.71.71,0,0,0,1.22.5,4.85,4.85,0,0,1,.44-.4l.09-.07a.72.72,0,0,0,.19-.32.72.72,0,0,0-.51-.89Z"/><circle class="cls-5" cx="531.5" cy="640.52" r="0.6"/><circle class="cls-5" cx="520.51" cy="636.88" r="0.85"/><circle class="cls-5" cx="527.27" cy="644.38" r="0.98"/><path class="cls-5" d="M526.2,649.89a1.29,1.29,0,1,0,1.29,1.29A1.3,1.3,0,0,0,526.2,649.89Z"/><circle class="cls-5" cx="536.49" cy="656.52" r="0.64"/><circle class="cls-5" cx="534.15" cy="645.45" r="0.96"/><path class="cls-5" d="M533,651.64a1,1,0,0,0-.66.27c-.17.16-.33.32-.5.47h0l-.09.08a.86.86,0,0,0-.22.85.87.87,0,0,0,.22.38l.18.14a.87.87,0,0,0,.44.12,1.27,1.27,0,0,0,.92-.38c.13-.1.24-.21.36-.32a.93.93,0,0,0-.66-1.58Z"/><path class="cls-5" d="M542,643a1.24,1.24,0,1,0-1.24,1.24A1.25,1.25,0,0,0,542,643Z"/><circle class="cls-5" cx="532.75" cy="638.28" r="0.88"/><circle class="cls-5" cx="527.51" cy="634.77" r="0.9"/><circle class="cls-5" cx="538.74" cy="649.7" r="0.64"/><path class="cls-5" d="M543.76,639.28h.61a.78.78,0,0,0,.54-.22.76.76,0,0,0-.51-1.3h0a4.87,4.87,0,0,0-.8.09.73.73,0,0,0-.54.71A.74.74,0,0,0,543.76,639.28Z"/><path class="cls-5" d="M549.25,634.94a.75.75,0,0,0,.6.08l.28-.09a.78.78,0,0,0-.21-1.54.73.73,0,0,0-.21,0,3.58,3.58,0,0,0-.46.18.78.78,0,0,0,0,1.34Z"/><circle class="cls-5" cx="549.17" cy="639.55" r="0.88"/><circle class="cls-5" cx="546.36" cy="634.35" r="0.85"/><circle class="cls-5" cx="556.75" cy="633.86" r="0.83"/><circle class="cls-5" cx="560.3" cy="640.76" r="0.77"/><path class="cls-5" d="M561.27,633.7a1.45,1.45,0,1,0,1.45,1.45A1.46,1.46,0,0,0,561.27,633.7Z"/><circle class="cls-5" cx="554.52" cy="640.54" r="0.66"/><path class="cls-5" d="M552,633.28a1.16,1.16,0,1,0,1.16,1.16A1.17,1.17,0,0,0,552,633.28Z"/><circle class="cls-5" cx="553.55" cy="647.45" r="0.54"/><circle class="cls-5" cx="549.67" cy="643.65" r="0.67"/><circle class="cls-5" cx="545.45" cy="645.79" r="1.02"/><path class="cls-5" d="M545.5,652.36a.63.63,0,0,0-.46.19l-.26.32a.7.7,0,0,0-.19.46.65.65,0,0,0,.65.65.63.63,0,0,0,.46-.19l.26-.32a.7.7,0,0,0,.19-.46.65.65,0,0,0-.65-.65Z"/><circle class="cls-5" cx="550.12" cy="650.25" r="0.77"/><path class="cls-5" d="M542.53,648.82a1.46,1.46,0,1,0,1.46,1.46A1.48,1.48,0,0,0,542.53,648.82Z"/><circle class="cls-5" cx="541.42" cy="659.28" r="0.56"/><circle class="cls-5" cx="544.44" cy="658.48" r="0.72"/><circle class="cls-5" cx="541.63" cy="654.82" r="0.77"/><circle class="cls-5" cx="540.97" cy="664.35" r="1.04"/><circle class="cls-5" cx="537.37" cy="659.87" r="1"/><circle class="cls-5" cx="529.3" cy="656.08" r="0.67"/><circle class="cls-5" cx="520.54" cy="649.16" r="0.81"/><circle class="cls-5" cx="530.82" cy="648.59" r="0.6"/><path class="cls-5" d="M556.78,644.17a1.28,1.28,0,1,0,1.28,1.28A1.29,1.29,0,0,0,556.78,644.17Z"/><circle class="cls-5" cx="557.85" cy="631.03" r="0.7"/><path class="cls-5" d="M521.51,639.81a1,1,0,0,0-.66.26,6.63,6.63,0,0,0-.62.71l-.15.19a.94.94,0,0,0-.13.48.94.94,0,0,0,.94.94.91.91,0,0,0,.67-.28l.54-.7-.15.19.19-.24.14-.19a.92.92,0,0,0-.14-1.11A.9.9,0,0,0,521.51,639.81Z"/><circle class="cls-5" cx="526.73" cy="641.5" r="0.67"/><path class="cls-6" d="M420.27,861.62c-1.21-2.41-2.53-4.77-3.8-7.15-1.38-2.77-2.8-5.52-4.13-8.31,1.34,2.79,2.75,5.55,4.13,8.31C417.75,856.85,419.06,859.21,420.27,861.62Z"/><path class="cls-6" d="M352.24,779.37l-.83-1.39.16.34-.09.17.09-.17Z"/><path class="cls-6" d="M386.08,869.5l0-.07v0c0-.22,0-.46,0-.71,0,.17,0,.35,0,.52A1.26,1.26,0,0,1,386.08,869.5Z"/><path class="cls-6" d="M370.06,826h0a5.75,5.75,0,0,0-1.4-.41c-4.4-.14-8.8-.23-13.2-.34,0,1,0,2,0,2.95,0,2.27.33,2.52,2.46,1.85,3-.95,6.07-1.92,9.1-2.87.19.33.45.66.67,1-.22-.33-.48-.66-.67-1Z"/><circle class="cls-6" cx="370.12" cy="859.68"/><path class="cls-6" d="M407.47,873.18q-.13-.6-.29-1.2l-.65-5.86.65,5.86Q407.35,872.58,407.47,873.18Z"/><path class="cls-6" d="M469,766l-.07.19H469C469,766.13,469,766.06,469,766Z"/><path class="cls-6" d="M448.09,662.56l-.92-.47.9.46,0,0h0Z"/><path class="cls-6" d="M474.61,719.26c0-.09,0-.19,0-.28v.26s0,0,0,0c0,.62,0,1.23-.07,1.85,0-.62,0-1.25.07-1.87Z"/><path class="cls-6" d="M474.44,723c-.38,5.11-.78,10.22-1.18,15.32h0C473.66,733.22,474.06,728.11,474.44,723Z"/><path class="cls-6" d="M425,714.67l.16-.24A.83.83,0,0,0,425,714.67Z"/><path class="cls-6" d="M425,714.67c-.41,1.7-.83,3.39-1.2,5.09.37-1.7.8-3.4,1.2-5.09Z"/><path class="cls-6" d="M488.72,769.45c.9.81,1.75,1.7,2.63,2.54,1.9.64,3.78,1.32,5.68,1.93-1.9-.61-3.79-1.29-5.68-1.93C490.47,771.14,489.62,770.25,488.72,769.45Z"/><path class="cls-6" d="M452,701l-1,.61c-.71.26-1.37.86-2.14,1.07.78-.21,1.43-.8,2.14-1.07Z"/><path class="cls-6" d="M442.38,699.93a12.33,12.33,0,0,1-1.13,1.06A3.62,3.62,0,0,0,442.38,699.93Z"/><path class="cls-6" d="M448.89,719.23h0l-.49.25Z"/><path class="cls-6" d="M368.23,918.71q-.45.54-.92,1c.37-.34.73-.68,1.08-1l-.16,0Z"/><path class="cls-6" d="M385.76,870.25a7.59,7.59,0,0,1-.74.94A4.7,4.7,0,0,0,385.76,870.25Z"/><path class="cls-6" d="M373,886.67l0,.3c0-.08,0-.16,0-.24A.23.23,0,0,1,373,886.67Z"/><path class="cls-6" d="M334.66,884.49h0c.2-3,.38-5.9.58-8.85h0C335,878.59,334.86,881.54,334.66,884.49Z"/><circle class="cls-6" cx="273.61" cy="748.2" r="0.01" transform="translate(-445.01 404.33) rotate(-44.34)"/><polygon class="cls-6" points="424.67 589.82 424.67 589.82 424.67 589.82 424.67 589.82"/><path class="cls-6" d="M451.84,797.85s0-.1.05-.14l0,0s-1.36,1.26-2.44,2.39c.77-.81,1.62-1.55,2.41-2.34Z"/><path class="cls-6" d="M395.34,866.14a78.18,78.18,0,0,1,2.27-9.71A75.49,75.49,0,0,0,395.34,866.14Z"/><polygon class="cls-6" points="375.24 805.11 375.24 805.11 375.24 805.11 375.24 805.11"/><path class="cls-6" d="M391.89,838.66c-.8-2-1.67-4-2.58-6C390.22,834.63,391,836.67,391.89,838.66Z"/><path class="cls-6" d="M448.5,801.19c.19-.24.4-.47.6-.7C448.88,800.74,448.66,801,448.5,801.19Z"/><path class="cls-6" d="M340.06,749.48h0a1.22,1.22,0,0,1,0-.21c.08-.82.16-1.65.24-2.47-.08.86-.16,1.72-.25,2.58Z"/><path class="cls-6" d="M350.88,549.88a15.86,15.86,0,0,0,1.72,3c.23.3.48.6.73.88s.58.64.89.93l.79.75c.38.36.78.69,1.17,1l1.06.76c.42.3.88.57,1.31.85l4,2.37c.83.49,1.66,1,2.5,1.48l1.41.81c.46.26.92.51,1.37.78,1,.59,2,1.2,3,1.81.44.28.87.59,1.3.88s.87.63,1.3.95l1.19.89.62.49c.3.24.61.47.9.72l.31.27,0-.21a15.7,15.7,0,0,1,.44-1.6c.19-.6.46-1.19.71-1.77s.43-1,.66-1.41.5-1,.78-1.44.59-1,.89-1.44.59-.85.89-1.27.64-.87,1-1.31c1.06-1.42,2.1-2.84,3.17-4.25l.17-.23c.33-.45.66-.89,1-1.35.14-.2.29-.4.43-.6l.48-.76c.12-.19.25-.38.37-.58l.45-.79a26.37,26.37,0,0,0,1.34-2.62,16.22,16.22,0,0,0,.95-3.48,10.63,10.63,0,0,0,0-2.26,9.66,9.66,0,0,0-.45-1.89,9.14,9.14,0,0,0-.86-1.52,7.15,7.15,0,0,0-.92-1,8.73,8.73,0,0,0-1.51-.89,8.58,8.58,0,0,0-1.78-.51,9.23,9.23,0,0,0-2.06,0,10,10,0,0,0-2.15.59,8.82,8.82,0,0,0-1.61,1,16.14,16.14,0,0,0-2.51,2.62,17.94,17.94,0,0,0-2,3.56c-.29.74-.56,1.49-.83,2.24a1.38,1.38,0,0,1-.34.6l-.27.21a1.31,1.31,0,0,1-1,.14,1.35,1.35,0,0,1-.8-.63,1.39,1.39,0,0,1-.15-1c-.05-.16-.1-.31-.16-.46a7.75,7.75,0,0,0-.78-1.45,11,11,0,0,0-1.05-1.12l-.62-.59c-.5-.45-1-.9-1.51-1.32a12,12,0,0,0-2.39-1.4,11.2,11.2,0,0,0-2.46-.71,11.82,11.82,0,0,0-2.73,0,13.09,13.09,0,0,0-2.92.76,14.39,14.39,0,0,0-1.43.78,15.5,15.5,0,0,0-1.31.89,11.26,11.26,0,0,0-1.62,1.64,9.57,9.57,0,0,0-.93,1.65,9.93,9.93,0,0,0-.53,2,9,9,0,0,0,0,1.74A9.36,9.36,0,0,0,350.88,549.88Z"/><path class="cls-6" d="M372.47,872.1c0-.57-.05-1.08-.08-1.48C372.43,871.11,372.44,871.61,372.47,872.1Z"/><path class="cls-6" d="M340.34,701.81q.39,1.6.71,3.21-.32-1.6-.71-3.21c0,1.14,0,2.28-.05,3.42C340.32,704.09,340.32,702.95,340.34,701.81Z"/><path class="cls-6" d="M478.81,747.1c.17,1.56.37,3.11.55,4.66.19.52.36,1,.54,1.57-.18-.53-.35-1-.54-1.57C479.18,750.21,479,748.66,478.81,747.1Z"/><path class="cls-6" d="M359.82,1016.42c.1,1.23.21,2.69.33,4.12A21.5,21.5,0,0,0,359.82,1016.42Z"/><path class="cls-6" d="M359.63,1013.64c0-.09,0-.19,0-.28C359.62,1013.41,359.63,1013.51,359.63,1013.64Z"/><path class="cls-6" d="M362.4,646.58l-.56.12.54-.12h0Z"/><path class="cls-6" d="M509.12,743h0l-.31-.08.31.08Z"/><path class="cls-6" d="M526.86,768.81c-.27,1.05-.48,2.14-.69,3.23.22-1.08.43-2.17.69-3.23Z"/><path class="cls-6" d="M486.44,767.23a8.45,8.45,0,0,1-1-1.36A7,7,0,0,0,486.44,767.23Z"/><path class="cls-6" d="M516.68,789.62a9.73,9.73,0,0,1-1,.25h0A9.76,9.76,0,0,0,516.68,789.62Z"/><path class="cls-6" d="M514.88,788.25l.39.8Z"/><path class="cls-6" d="M492.5,760.73a8,8,0,0,0,.95,2.8A12.67,12.67,0,0,1,492.5,760.73Z"/><path class="cls-6" d="M376.65,645.68l.07,0,0,0Z"/><path class="cls-6" d="M385.79,637.85l-.22.14q.51-.3,1-.56l-.81.41Z"/><path class="cls-6" d="M489.67,730.45q0-.14,0-.29l0,.19Z"/><path class="cls-6" d="M468.72,684.74v0l0,0v0Z"/><path class="cls-6" d="M355,723.61a7.55,7.55,0,0,0,1.13,3.5,7.55,7.55,0,0,1-1.13-3.5Z"/><path class="cls-6" d="M383.6,696.81l.09-.07a2.56,2.56,0,0,0,.37-.84,2.61,2.61,0,0,1-.37.79Z"/><path class="cls-6" d="M366.8,715.3q.48-.06.95-.08-.47,0-.95.08l-1.36,2.29Z"/><path class="cls-6" d="M442.07,713a5,5,0,0,1-1.35-3.12c-.42-1-.56-1.73-.35-2.17-.21.44-.07,1.14.35,2.17A5,5,0,0,0,442.07,713Z"/><path class="cls-6" d="M381.29,698.55h0L382,698a5.88,5.88,0,0,0-.68.51Z"/><path class="cls-6" d="M406,759.87l.41,1-.41-1Z"/><path class="cls-6" d="M363.56,691.57l8.7,1C369.37,692.15,366.47,691.79,363.56,691.57Z"/><path class="cls-6" d="M369.36,718.6l.41-2.39-.41,2.39a6.25,6.25,0,0,0-.37,3.16A6.24,6.24,0,0,1,369.36,718.6Z"/><path class="cls-6" d="M364,708.81l-.14.14.14-.14Z"/><path class="cls-6" d="M355.87,712.16h0l.54.08Z"/><path class="cls-6" d="M360.49,730.63a5.38,5.38,0,0,0,1-.13c.42,0,.85,0,1.28,0-.43,0-.85,0-1.28,0A5.38,5.38,0,0,1,360.49,730.63Z"/><path class="cls-6" d="M424.15,720.4a2.8,2.8,0,0,0-.18-.25,2.79,2.79,0,0,1,.18.25h0Z"/><path class="cls-6" d="M360.87,716.78a3.47,3.47,0,0,0-1.38-2.17,3.46,3.46,0,0,1,1.38,2.18l5.94-1.48Z"/><path class="cls-6" d="M382.68,722.86h0l-2.65-3h0Z"/><path class="cls-6" d="M449.61,718.86h0a6.77,6.77,0,0,0,3.94-2.59A6.77,6.77,0,0,1,449.61,718.86Z"/><path class="cls-6" d="M374.67,723.4h0l-.57.43Z"/><path class="cls-5" d="M573.83,913.25c-.7-15.64-8.19-27.47-21.09-35.72-9.06-5.79-19-9.17-29.3-11.77-4.24-1.07-8.52-1.93-12.79-2.86-3.09-.67-6.18-1.31-9.27-2-.78.14-8.49,11.81-9.27,11.95A196.66,196.66,0,0,1,463.94,886c-16.75,6.15-33.92,10.21-51.73,11.15l-1.91,0-4.77.25c-7.2.35-14.3-.65-21.41-1.56-1.16,1.71-2.36,3.42-3.35,5.13-.63,1.08-9.65,17.18-12.35,17.78-.35.35-.72.69-1.08,1-.18.18-.36.36-.55.52a4.21,4.21,0,0,0-1.27,2.44c-1.07,9.35-2.1,18.71-3,28.07-.53,5.5-1,11-1.21,16.53-.63,15.35-1.12,30.71-1.65,46.07,0,.09,0,.19,0,.28,0,.51.09,1.53.19,2.78a26.88,26.88,0,0,0,.33,4.12c54.46,7.43,150.47-15.74,160.41-18.7a33.41,33.41,0,0,0-1.19-5.94c-1.81-5.16-3.18-10.48-4.76-15.73-.14-.46-.29-.93-.45-1.4l-.19.19-.75-.23c-.08-1-.11-2.07-.12-3.1v0h0c-.07-6.65,1.09-13.25,2.34-19.67,2.85-14.58,7.66-28.51,17.07-40.22l.59.25c-.8,1.94-1.7,3.83-2.37,5.82-1.69,5-3.58,9.91-4.82,15a117.43,117.43,0,0,0-3.13,28.94q4.15-4.24,8.27-8.49c2.94-3,5.69-6.28,8.67-9.27.63-.63,2.17-1.12,2.8-.76,1.31.74,1,2,0,3.15-4.58,5.62-19.59,29.73-18.4,36.93,1.05,6.37,1.48,6.76,3,13,0,0,31.19-8.09,43.33-11.44l1.11-20.79c.67-8.56,1.31-17.12,1.66-25.7C573.65,932.78,574.26,923,573.83,913.25Z"/><path class="cls-5" d="M334.66,884.49c.2-2.95.38-5.9.58-8.85C335,878.47,334.8,881.38,334.66,884.49Z"/><path class="cls-5" d="M330.49,916.65c1.72-7.12,2.47-14.51,3.29-21.83.19-1.73.36-3.47.5-5.2s.26-3.38.38-5.08l-4-2.55L329,879.62c-3.55-3.49-7.06-7.15-10.67-10.41-2.58-2.33-5.3-4.12-8-6.15l.17-.06c-3.09.61-6.18,1.25-9.25,2-9.85,2.32-19.45,5.46-28.35,10.54-12.85,7.34-21.37,18-23.87,33.18-1.63,9.84-1,19.79-.74,29.69.5,18.82,2.1,53.94,2.5,61.13,14.85,6,35.77,12.1,42.88,13,1.58-1.78,0-1,0-3.33,0-2,0-4.11,0-6.26a3.47,3.47,0,0,1,0-.5v-.06h0c0-.11,0-.22,0-.31.81-4.17,1.58-8.36,2.6-12.48.75-3,2.1-5.9,2.73-8.93a15.77,15.77,0,0,0-.09-6.2c-.66-3.24-1.82-6.38-2.65-9.59a1.67,1.67,0,0,1,0-.71L286,948.59c5.11,3.62,10.41,7.13,13.68,13.1h0c-.52-3.46-.39-3.6.18-4.14a47.8,47.8,0,0,1-1.7-4.74c-1.61-6.67-2.85-13.45-4.78-20a149.71,149.71,0,0,0-6.13-16.13,76.51,76.51,0,0,0-4.5-7.89c.59.24,1.06.28,1.29.54a75.12,75.12,0,0,1,12.23,17.75c2.59,5.53,5.25,11.07,7.27,16.83a91.53,91.53,0,0,1,3.19,14,3,3,0,0,1-.22,1.52,11.14,11.14,0,0,1,.24,2.84c-.15,4.65-.25,9.33-.82,13.94-.29,2.35-1.57,4.56-2.34,6.85-.9,2.7-1.83,5.4-2.54,8.16s-1.26,5.61-1.77,8.44c-.42,2.36-.71,4.75-1.07,7.32a7.88,7.88,0,0,1,.78,3.16c0,1,.15,2.42.11,3.41,2.12.53,5.46,1,6.08,1.17,2.8-10.41,5.27-19.26,8-29.7C319,962.29,324.95,939.52,330.49,916.65Z"/><path class="cls-7" d="M451.41,803.4c.14-1.11,0-4.4.43-5.55v-.07c-.79.79-1.63,1.54-2.41,2.34l-.33.36c-.21.23-.41.46-.6.7a88.86,88.86,0,0,1-15.79,15.67c-4.71,3.65-9.88,6.78-15.87,7.31a30.2,30.2,0,0,1-10.38-1.09c-3.71-1-7.19-2.93-10.8-4.37-.55-.22-20.24-12.55-20.42-13.6h0A19,19,0,0,1,371,802.5a112.84,112.84,0,0,1-.65,23.39l6.56-1.95c2.68-.78,5.33-1.68,8-2.31,3.54-.82,6.08,1,8.35,3.59s4.58,4.94,7,7.27a2.33,2.33,0,0,0,2.15,0,32.52,32.52,0,0,0,3.38-2.53c3.31-2.5,5.88-1,8,1.42a2,2,0,0,1,.24,1.12,20.68,20.68,0,0,1-1.05,8.48c-.41,1.05,0,2.35-1.11,3.28-.24.21.11,1.34.39,1.94,1.34,2.79,2.75,5.55,4.13,8.31,1.27,2.38,2.59,4.74,3.8,7.15a20.66,20.66,0,0,1,1.27,3.41,8.47,8.47,0,0,1,.13,1.88c-.59,0-1.18,0-1.77,0-.25,0-.51-.06-.76-.09a9,9,0,0,1-8-1.91c-1.79-1.42-3.41-3.07-5.26-4.77l.67,6,.65,5.86q.17.6.29,1.2t.22,1.2c.12.8.2,1.61.25,2.41.07,1.07.08,2.15.09,3.23,0,1.62,0,3.23.05,4.84l-.6.22L406,883.49c-3.2.37-6.42-2.53-7.42-5.59a32,32,0,0,0-1.57-3.35l-2.21,3.25c-1.2,1.76-2.43,3.52-3.6,5.3a3.46,3.46,0,0,0-.26,1.13c-1.74,2.65-2.83,5.3-4.57,7.95l-.05.09c-.67,1.17-1.44,2.33-2.23,3.5,7.11.91,14.22,1.91,21.41,1.56l4.77-.25,1.91,0c17.81-.94,35-5,51.73-11.15a196.66,196.66,0,0,0,28.17-13.14c.78-.14,8.49-11.81,9.27-11.95a2.14,2.14,0,0,0-.5-.27c-7.68-1.74-15.39-3.33-23-5.25-10-2.51-17.67-8.16-22.11-18-2.66-5.87-3.76-12.12-4.5-18.48h0Q451.32,811.12,451.41,803.4Zm-71.26,5.9-.16-.09.16.09Z"/><path class="cls-8" d="M468.72,684.75h0c.53.77,1.15,1.5,1.64,2.29a7.49,7.49,0,0,1,.45.81,54.77,54.77,0,0,1,4.28,14.75c.52,3.29,1.11,6.57,1.49,9.87a60.3,60.3,0,0,1,0,6.77h0c.14,3.78.16,7.57.47,11.33.45,5.53,1.14,11,1.74,16.54.17,1.56.37,3.11.55,4.66.19.52.36,1,.54,1.57.53,1.58,1,3.16,1.72,4.67,1.19,2.67,2.64,5.22,3.85,7.88a8.45,8.45,0,0,0,1,1.36c.39.46.85,1,1.35,1.44.32.25.63.51.93.77.9.81,1.75,1.7,2.63,2.54,1.9.64,3.78,1.32,5.68,1.93q1,.31,1.91.59a15,15,0,0,0,3.06.3c-2.37-2.95-4.74-5.85-7.05-8.8a13.11,13.11,0,0,1-1.5-2.48,8,8,0,0,1-.95-2.8l-.11-.43c-3.62-9.9-3.42-19.79-2.75-30l0-.19a23.17,23.17,0,0,1,.26-2.65c.93-7.87,2-15.72,3-23.58.27-5,.34-17.37-1.23-21.79a1.82,1.82,0,0,1-.22-.58c-.85-5.63-3.79-10.11-7.49-14.09a78.77,78.77,0,0,0-6.69-6.13c-1.13-1-2.33-1.67-2.77-2.46-1.76-1-3.34-2-4.94-2.87a22.61,22.61,0,0,0-4.4-2.24c-1.39-.41-3.56-.85-4.28-.12-1.16,1.16-2,2.62-3.69,3-.12,3.16-2.8,1.87-4.31,2.62a12.06,12.06,0,0,1-2.09,1,16.66,16.66,0,0,1-2.67.3v1.91h0l.85.54.6.38.75.49.7.46.73.5.68.47.85.61.54.39.82.63.53.41.78.62.55.44.67.57.62.54.61.56.64.59.65.64.56.55.68.72.49.52.57.66.54.63.46.58c.2.25.41.5.6.76s.33.45.49.68.35.47.52.72.28.42.42.63.37.54.54.82.28.47.42.7.33.53.48.81q.43.77.84,1.58c.49,1,1,2,1.43,3h0v0Z"/><path class="cls-9" d="M527.87,748.69c-2.92-1-6.1-1.24-9.08-2.11a72.32,72.32,0,0,1-7.75-3c-.57-.24-1.43-.09-1.92-.55h0l-.31-.08-.74-.19a1.91,1.91,0,0,1-.89-.44c-2.81-2.84-5.57-5.73-8.25-8.7a22.82,22.82,0,0,1-1.89-3.05c-.66-1-1.37-2-2.06-3a19.39,19.39,0,0,0,1.68,5.33,30.87,30.87,0,0,0,2.79,4.54,26.7,26.7,0,0,0,3.67,4.26,53.08,53.08,0,0,0,4.77,3.71v0h0l.2.14v0c10.49,7.48,19.4,6.06,18.73,22.85q0,.21,0,.41h0c-.27,1.05-.48,2.14-.69,3.23-.09.46-.19.93-.29,1.39a18,18,0,0,1-1.44,4.37c-2.11,4.11-5,7.82-7.55,11.66a.5.5,0,0,1-.21.17,9.76,9.76,0,0,1-1,.25h0l-.4-.82-.39-.8A27.13,27.13,0,0,0,516,777.77c-.31-2.82-.87-5.61-1.32-8.42l-1-.09a48,48,0,0,1-5,18,39.31,39.31,0,0,1-12.32,13.87,47.33,47.33,0,0,1-17.67,7.38c1.55-1.54,2.73-2.64,3.83-3.83a28.59,28.59,0,0,0,7.29-17.21c.51-3.13,1.14-6.24,1.5-9.38a56,56,0,0,0,.06-6.11c-.88-.84-1.72-1.73-2.63-2.54-.3-.27-.61-.53-.93-.77-.5-.49-1-1-1.35-1.44a7,7,0,0,1-1-1.36c-1.22-2.66-2.67-5.21-3.85-7.88-.67-1.51-1.19-3.09-1.72-4.67-.18-.53-.35-1-.54-1.57a12.7,12.7,0,0,1-.57,2.87A52.43,52.43,0,0,0,475,767.25q-.38,2.16-.61,4.35a66.63,66.63,0,0,0,.19,7.55c0,.63.06,1.23.08,1.79h0a9.48,9.48,0,0,0,.85,2.54c1.28,3.6,1.87,7,5.59,9-3.56.78-9.07-2.57-10.6-7.81-.4-3.28-1.63-7.7-1.87-11a42,42,0,0,1,.37-4.85c0-.34,0-1.57,0-2.64h-.06c-2.23,6-5.76,13-11.48,22.53h.07l-.29.39c-1.6,2.66-3.36,5.52-5.31,8.61,0,0,0,.09-.05.14-.39,1.15-.29,4.44-.43,5.55q-.09,7.72-.19,15.44h0a6.3,6.3,0,0,0,1.15-.06c13.31-3.14,26.63-6.2,39.9-9.5a45.86,45.86,0,0,0,15.28-6.77,26.74,26.74,0,0,0,4.61-3.56l6-6.26c1.17-1.13,9.17-6.72,10.22-8a6.75,6.75,0,0,0,.43-.66,56.58,56.58,0,0,0,5.78-30.22c-.49-.56-1-1.09-1.49-1.66C531.38,751,529.78,749.37,527.87,748.69Z"/><path class="cls-9" d="M334.63,813.45a36.74,36.74,0,0,1-10.46-7.36,33.7,33.7,0,0,1-7.8-12.92,41.16,41.16,0,0,1-1.09-5.47c-.14-.68-.33-1.35-.5-2l-.58.08a89.48,89.48,0,0,0,1,9.26,42.54,42.54,0,0,0,2.88,9.24c1.29,2.79,3.28,5.23,5,7.82l-.3.45-7.26-2.59a23,23,0,0,1-2.76-1.07,3,3,0,0,1-1.48-1.3c-.83-2.39-3.1-2.82-4.83-4a18,18,0,0,1-3.28-2.13c-3.13-3.3-6-6.49-8.12-10.6a2,2,0,0,0-.68-.45,1.57,1.57,0,0,1-.06-.23v0a7.25,7.25,0,0,0-.2-1.09l-.38-.41h0a3.47,3.47,0,0,0-.21-1.07l-.05-.18c-.42-1.45-1.22-3.61-1.41-3.54-1.58-6.31-2.82-12.71-2.6-19.33a3.67,3.67,0,0,0,0-.53c0-.36-.12-.72-.19-1.08,0-.17-.07-.34-.09-.51h0l-.45-1.59c.13-.24.33-.47.43-.7a.86.86,0,0,0,.07-.24c.21-1.68.28-3.39.53-5.07.52-3.47,1-6.94,1.7-10.39.47-2.49,1.11-4.94,1.75-7.39s1.37-4.83,2.06-7.24l-.55-.37c-1.68,2-3.5,3.91-5,6a42,42,0,0,0-2.63,5.13A32.1,32.1,0,0,0,283.44,752c-.37,1.54-.66,1.14-.82,1.4,0,0,0,.09,0,.14.09,3.22-.14,6.19-.14,6.75,0,3.67,0,7.35,0,11.3l-1.87-.81c.11,3,0,5.95.38,8.88.58,5,1.4,10,3.73,14.57l1.35,3.17c2.12,4.56,6.57,9.48,9.72,10.58-8-9.13-10.51-19.69-8.92-31.64l2.19,10.7.45,1.15c.44,1.34.82,2.71,1.34,4,4.45,11.12,12.57,18.32,23.19,22.84-3-3.08-5.91-6.16-7.55-10.4a60.1,60.1,0,0,0,32,18.71q0-4.27-.06-8.54C337.13,814.4,335.83,814,334.63,813.45Z"/><path class="cls-10" d="M282.48,760.33c0-.56.24-3.52.14-6.75,0,0,0-.09,0-.14.16-.26.46.14.82-1.4A32.1,32.1,0,0,1,287,740.61a42,42,0,0,1,2.63-5.13c1.51-2.14,3.32-4,5-6l.55.37c-.69,2.41-1.43,4.81-2.06,7.24s-1.28,4.91-1.75,7.39c-.65,3.45-1.18,6.92-1.7,10.39-.25,1.68-.32,3.38-.53,5.07a.86.86,0,0,1-.07.24c-.11.24-.3.47-.43.7l.45,1.59h0c0,.17.06.34.09.51.07.36.15.72.19,1.08a3.67,3.67,0,0,1,0,.53c-.23,6.62,1,13,2.6,19.33.18-.08,1,2.08,1.41,3.54l.05.18a3.47,3.47,0,0,1,.21,1.07l.38.41a7.25,7.25,0,0,1,.2,1.09v0a1.57,1.57,0,0,0,.06.23,2,2,0,0,1,.68.45c2.13,4.11,5,7.3,8.12,10.6a18,18,0,0,0,3.28,2.13c1.73,1.15,4,1.58,4.83,4a3,3,0,0,0,1.48,1.3,23,23,0,0,0,2.76,1.07l7.26,2.59.3-.45c-1.68-2.59-3.68-5-5-7.82a42.54,42.54,0,0,1-2.88-9.24,89.48,89.48,0,0,1-1-9.26l.58-.08c.17.67.36,1.34.5,2a41.16,41.16,0,0,0,1.09,5.47,33.7,33.7,0,0,0,7.8,12.92,36.74,36.74,0,0,0,10.46,7.36c1.21.58,2.51.95,3.76,1.41l0-2c-6.24-3.94-13.94-14.54-13.6-19.38a22.84,22.84,0,0,0,1.6,2.78c3,3.75,6.07,7.49,10.07,10.2a10,10,0,0,0,2.65.86L340.76,797c-.12-.29-.39-.61-.34-.87.71-4.37-1.54-8-2.74-11.87a36.26,36.26,0,0,1-1.82-8.85,76.1,76.1,0,0,1,.41-13.6c.54-4,2-8,3-11.91.06-.22.48-.34.73-.51.09-.86.17-1.72.25-2.58s.18-1.71.29-2.57c.16-1.19.35-2.38.53-3.57s.38-2.37.56-3.56h-.51l.62-.82a97.43,97.43,0,0,0,.43-23.76q-.24-2.15-.58-4.29-.26-1.61-.58-3.21t-.71-3.21c0,1.14,0,2.28-.05,3.42a64.34,64.34,0,0,1-.36,8.35c-.6,3.65-2.72,6.63-5.12,9.46,1.64-6.25,1.13-12.43-.31-18.67a64.87,64.87,0,0,1-6.21,22.51A38,38,0,0,1,312.18,744c.22-.74.23-1.14.43-1.35,4.64-5,7.17-11.17,8.94-17.77a84.38,84.38,0,0,0,3.05-22.78c0-3.09.29-6.18.34-9.27a77.4,77.4,0,0,1,4.93-25,58.87,58.87,0,0,1,8.41-15.8c4.56-6,10.14-10.33,17.58-11.7a3.63,3.63,0,0,1,2.54.31c.94.68,1.92,1.73.58,3.09a11.41,11.41,0,0,0-1.15,2c1.17-.14,1.9-.26,2.64-.3.52,0,1.14-.22,1.54,0a.8.8,0,0,1,.34.54,2.25,2.25,0,0,1,0,.5h0l10.36-.9.41.08a9.62,9.62,0,0,0,1.95.19,3.79,3.79,0,0,0,1.51-.27l.11-.06,0,0,0,0c1.55.5,5.23-5.42,8.87-7.68l.22-.14h0l.81-.41c.34-.17.69-.33,1-.48s.66-.27.94-.37.68-.22,1-.31a12.56,12.56,0,0,1,1.73-.34,11.8,11.8,0,0,1,1.67-.08l.82,0a12.53,12.53,0,0,1,2.38.46A14.8,14.8,0,0,1,398,637a23.31,23.31,0,0,1,5,3.06q1.17.91,2.36,1.78t2.41,1.68q.91.61,1.84,1.2,1.86,1.17,3.77,2.23a71.57,71.57,0,0,0,10,4.55l1.67.68,1.83.78c5,2.17,10.09,4.32,15.12,6.53.53.23,1,.47,1.57.73l.85.42.71.35.62.32,1.55.79.92.47v-1.91a16.66,16.66,0,0,0,2.67-.3,12.06,12.06,0,0,0,2.09-1c1.5-.76,4.19.53,4.31-2.62,1.73-.41,2.53-1.88,3.69-3,.73-.73,2.9-.29,4.28.12a22.61,22.61,0,0,1,4.4,2.24c1.6.9,3.19,1.85,4.94,2.87.44.79,1.64,1.49,2.77,2.46a78.77,78.77,0,0,1,6.69,6.13c3.7,4,6.64,8.46,7.49,14.09a1.82,1.82,0,0,0,.22.58c1.57,4.42,1.5,16.75,1.23,21.79-1,7.86-2,15.71-3,23.58a23.17,23.17,0,0,0-.26,2.65q0,.15,0,.29l0-.11c-.66,10.17-.87,20.06,2.75,30l.11.43a12.67,12.67,0,0,0,.95,2.8A13.11,13.11,0,0,0,495,766c2.31,2.95,4.68,5.85,7.05,8.8a15,15,0,0,1-3.06-.3q-1-.28-1.91-.59c-1.9-.61-3.79-1.29-5.68-1.93a56,56,0,0,1-.06,6.11c-.36,3.14-1,6.26-1.5,9.38a28.59,28.59,0,0,1-7.29,17.21c-1.1,1.19-2.29,2.29-3.83,3.83a47.33,47.33,0,0,0,17.67-7.38,39.31,39.31,0,0,0,12.32-13.87,48,48,0,0,0,5-18l1,.09c.45,2.8,1,5.6,1.32,8.42a27.13,27.13,0,0,1-1.13,10.48l.39.8.4.82h0a9.73,9.73,0,0,0,1-.25.5.5,0,0,0,.21-.17c2.59-3.84,5.44-7.55,7.55-11.66a18,18,0,0,0,1.44-4.37c.1-.46.2-.92.29-1.39.22-1.08.43-2.17.69-3.23h0q0-.21,0-.41c.67-16.79-8.24-15.37-18.73-22.85v0l-.2-.14h0v0a53.08,53.08,0,0,1-4.77-3.71,26.7,26.7,0,0,1-3.67-4.26,30.87,30.87,0,0,1-2.79-4.54,19.39,19.39,0,0,1-1.68-5.33c.69,1,1.4,2,2.06,3a22.82,22.82,0,0,0,1.89,3.05c2.68,3,5.44,5.86,8.25,8.7a1.91,1.91,0,0,0,.89.44l.74.19.31.08c.49.46,1.35.31,1.92.55a72.32,72.32,0,0,0,7.75,3c3,.87,6.16,1.08,9.08,2.11,1.92.68,3.51,2.3,5.25,3.5.47.57,1,1.1,1.49,1.66a8.18,8.18,0,0,1,1.15,1.58c1.85,3.51,1.88,7.32,1.28,11.2.18-.07.33-.08.41-.17a4.75,4.75,0,0,0,.45-.63c7.31-11.65,7-23.38.09-35a26,26,0,0,0-8.16-8.92l.49,0a19.2,19.2,0,0,1,13.56,9.47c3.08,5.08,4,10.7,3.65,16.6,2.11-6.26,2.78-12.52.11-18.8-.28-.85-.26-.77-.43-1.27-2-5-5.28-9-8.9-12.77-6.34-6.6-29.44-34.92-32.85-41.15-3.15-5.73-6.25-11.49-9.45-17.19-2.14-3.82-4.4-7.56-6.61-11.34l-1.19-1.63c-1.62-2.54-3.19-5.13-4.94-7.58a137.14,137.14,0,0,0-20.63-23.12c-6-4.67-12.7-10.5-19-14.68-4.33-2.87-14.9-7-18-8.26h0a2.58,2.58,0,0,0-.9-.34h0a2.86,2.86,0,0,0-1.1,0l-.06,0-51.16,1.85c-3.87,1.58-7.59,3.54-10.46,6.8l-2.94,2.17c-8.18-.84-15.34,1.76-21.57,6.86-11.88,9.73-17.88,23-22.63,37l-.15.48-.39,1.25a17.59,17.59,0,0,0-.66,1.64c-2.15,7.26-4.32,14.52-6.42,21.79-4.18,14.47-9.18,28.59-16.78,41.58-3.51,6-7.36,11.79-10.76,17.85-3.31,5.91-6,12.12-6.49,19.08h0l.5,0h0l-.65.8a25.56,25.56,0,0,0,7.67,21.81l1.87.81C282.48,767.68,282.48,764,282.48,760.33Z"/><path class="cls-7" d="M318.32,869.22c3.61,3.26,7.12,6.92,10.67,10.41l1.67,2.37,4,2.55v0h0c.14-3.12.35-6,.58-8.85h0c0-.56.07-1.12.11-1.69l.38-6.3c.24-3,.5-6,.69-9.07,0-.28-.44-.59-.67-.89.15-.62.33-1.24.48-1.85-3.09.7-17,3.85-25.71,7.16l-.17.06C313,865.09,315.74,866.89,318.32,869.22Z"/><path class="cls-11" d="M512.76,560.45c0-.08-.2-.1-.3-.15,0,.11-.15.24-.12.32s.2.1.3.15C512.68,560.66,512.79,560.53,512.76,560.45Z"/><path class="cls-11" d="M512,562.44l-.32-.14-.14.33c.11,0,.24.15.31.12S512,562.55,512,562.44Z"/><path class="cls-8" d="M273.09,748.18h0l-.15.82.65-.8Z"/><path class="cls-11" d="M506.77,568.08l-.16-.09.16.09Z"/><path class="cls-12" d="M527.13,1000.32c-1.52-6.29-1.94-6.74-3-13.11C523,980,538,955.91,542.55,950.29c.94-1.16,1.3-2.4,0-3.15-.63-.36-2.18.13-2.8.76-3,3-5.73,6.23-8.67,9.27q-4.11,4.26-8.27,8.49a117.43,117.43,0,0,1,3.13-28.94c1.25-5.1,3.14-10,4.82-15,.67-2,1.58-3.88,2.37-5.82l-.59-.25c-9.4,11.7-14.22,25.63-17.07,40.22-1.25,6.42-2.42,13-2.34,19.67h0v0c0,1,0,2.07.12,3.1l.75.23.19-.19c.16.47.31.93.45,1.4,1.58,5.25,2.95,10.57,4.76,15.73.78,2.22.51,3.72,1.18,6C520.56,1001.85,527.15,1000.35,527.13,1000.32Z"/><path class="cls-12" d="M299.11,1013.61c.39-2.81-.87-7.94-.41-10.52.55-3.1,1.14-6.2,1.93-9.24s1.8-6,2.78-8.93c.84-2.51,2.24-4.93,2.56-7.5.62-5,.73-10.16.89-15.26a12.19,12.19,0,0,0-.26-3.11,3.33,3.33,0,0,0,.24-1.67c-.93-5.17-1.77-10.45-3.49-15.37-2.21-6.3-5.12-12.36-8-18.41-3.38-7.23-9.5-13.45-14.73-19.37-.25-.29-.82.31-1.47.05,1.79,3.09,4.08,5.36,5.32,8.28,2.46,5.79,5.94,11.27,7.72,17.3,2.11,7.18,3.46,14.6,5.23,21.89a52.3,52.3,0,0,0,1.86,5.19c-.62.6-.76.75-.19,4.53,0,0-.16-1.14-.16-1.14-3.58-6.53-9.23-9.24-14.83-13.2l11.31,17a1.82,1.82,0,0,0,0,.77c.91,3.51,2.17,6.94,2.9,10.49a17.26,17.26,0,0,1,.1,6.78c-.69,3.33-2.17,6.47-3,9.78-1.12,4.51-2,9.09-2.84,13.66,0,.1,0,.22,0,.34h0s.13,6.35.13,6.37c0,.18,0-.18,0,0C295.41,1013,295.82,1013,299.11,1013.61Z"/><path class="cls-13" d="M386.38,892.18c1.74-2.65,2.83-5.3,4.57-7.95a3.46,3.46,0,0,1,.26-1.13c1.17-1.79,2.4-3.54,3.6-5.3l2.21-3.25a32,32,0,0,1,1.57,3.35c1,3.06,4.21,6,7.42,5.59q-.58-4.37-1.16-8.74c-.24-1.81.51-2.77,2.33-2.77l-.65-5.86-.67-6c1.85,1.69,3.47,3.35,5.26,4.77a9,9,0,0,0,8,1.91c-.87-1.41-1.77-2.81-2.61-4.23a33.59,33.59,0,0,1-2-3.55c-1-2.35-.53-3.44,1.89-4.55-1.38-2.77-2.79-5.52-4.13-8.31-.29-.6-.63-1.74-.39-1.94,1.08-.93.7-2.23,1.11-3.28a20.68,20.68,0,0,0,1.05-8.48,2,2,0,0,0-.24-1.12c-2.16-2.45-4.72-3.92-8-1.42a32.52,32.52,0,0,1-3.38,2.53,2.33,2.33,0,0,1-2.15,0c-2.42-2.33-4.79-4.74-7-7.27s-4.81-4.41-8.35-3.59c-2.71.63-5.37,1.52-8,2.31l-6.56,1.95a.29.29,0,0,0-.16,0,.3.3,0,0,0-.13.1h0l-3,1.18c.19.33.45.66.67,1a2.23,2.23,0,0,1,.43,1c.12,1.39.83,1.64,1.93,1.56,1.91-.13,3.84-.12,5.73-.43,4.25-.7,8.22,1.23,12.39,1.28.4,0,.93.62,1.15,1.08.91,2,1.78,4,2.58,6,1.18,2.65,6.45,14.16,5.72,17.77a78.18,78.18,0,0,0-2.27,9.71l0,.26A35.68,35.68,0,0,1,393,875a7.81,7.81,0,0,1-1,2.32v0h0a.7.7,0,0,1-.66.3,1.77,1.77,0,0,1-.57.25L390,876c-3.22.94-4.22-2.75-3.91-5.47,0-.29,0-.66,0-1.07v0l0,.07a1.26,1.26,0,0,0,0-.23c0-.17,0-.35,0-.52s0-.52,0-.8c.07-1.19.17-2.57.28-4l0-.4c.27-3.4.58-6.78.58-7.48-1.3,1.57-3.27,2.44-4,4.69a7.13,7.13,0,0,1-2.51,3.1,2.85,2.85,0,0,1-2.37,0c-2.49-1-4.91-2.24-7.35-3.38l-.77-.8h0a44,44,0,0,1,1.39,6.43c.22,1.51.77,3,.88,4.51,0,.41.06.91.08,1.48q.26,4.16.31,8.33c0,1.51.11,4.12.23,6.24a.23.23,0,0,0,0,.07c0,.08,0,.15,0,.24.21,3.55-.61,7.16-.51,10.73.05,2,1.07,4,1.68,5.92a.75.75,0,0,0,.6.41c1.18-.17-2.18,9.47-6.57,14.68h0l.16,0c2.71-.6,11.73-16.7,12.35-17.78,1-1.7,2.19-3.41,3.35-5.13.79-1.17,1.56-2.34,2.23-3.5Zm-1.36-21a7.59,7.59,0,0,0,.74-.94A4.7,4.7,0,0,1,385,871.19Z"/><polygon class="cls-10" points="293.67 788.68 293.67 788.68 293.67 788.67 293.67 788.68"/><path class="cls-9" d="M370.06,826h0a.3.3,0,0,1,.13-.1.29.29,0,0,1,.16,0A112.84,112.84,0,0,0,371,802.5c-5.87-4.58-12.89-13.48-18.77-23.13l-.68-1.06-.09.17a.86.86,0,0,0-.18.49,75.36,75.36,0,0,1,1.41,8.27c.17,3,.69,11,1.25,18.89,1,.61,2,1.22,3.06,1.81,2.17,1.24,4.31,2.53,6.53,3.65a41.08,41.08,0,0,0,4.18,1.61v.69c-1.46.06-2.93.14-4.39.17s-3.08.06-4.62,0-2.82-.2-4.22-.33c.41,5.55.77,10.12,1,11.52,4.4.11,8.8.2,13.2.34A5.75,5.75,0,0,1,370.06,826Z"/><path class="cls-9" d="M339.3,749.89c-1.08,4-2.51,7.87-3,11.91a76.1,76.1,0,0,0-.41,13.6,36.26,36.26,0,0,0,1.82,8.85c1.21,3.9,3.46,7.5,2.74,11.87,0,.26.22.58.34.87.05-3.29.24-6.59.14-9.88-.09-2.81-.22-5.63-.35-8.44-.76-2-.56-7.72-.45-9.86v-.1a15.67,15.67,0,0,1,.49-3.09l.61,0v0l.63,0,1.57,1.89v.89c1.23.73,2.52,1.37,3.81,2-4-7.84-6.77-15.43-7.15-20.89l0-.1C339.77,749.55,339.36,749.67,339.3,749.89Z"/><path class="cls-7" d="M370.12,859.68l.77.8c2.45,1.14,4.86,2.35,7.35,3.38a2.85,2.85,0,0,0,2.37,0,7.13,7.13,0,0,0,2.51-3.1c.69-2.25,2.66-3.13,4-4.69a1.51,1.51,0,0,0,0-.59c-1-2-2.07-3.95-3.19-5.86a1.63,1.63,0,0,0-1.26-.6c-2.45.06-4.9.31-7.35.29-1.36,0-5.62,8.85-5.13,10.34h0Z"/><path class="cls-9" d="M326.42,796.26a22.84,22.84,0,0,1-1.6-2.78c-.34,4.84,7.36,15.44,13.6,19.38l.72-5.54h0a10,10,0,0,1-2.65-.86C332.49,803.75,329.44,800,326.42,796.26Z"/><path class="cls-10" d="M363.34,814.05c1.47,0,2.93-.11,4.39-.17v-.69a41.08,41.08,0,0,1-4.18-1.61c-2.22-1.13-4.36-2.42-6.53-3.65-1-.59-2-1.2-3.06-1.81.18,2.6.37,5.18.54,7.59,1.41.12,2.81.27,4.22.33S361.8,814.08,363.34,814.05Z"/><path class="cls-14" d="M384.67,725.08l-2-2.22h0Z"/><path class="cls-8" d="M362.35,646.08a.8.8,0,0,0-.34-.54c-.4-.24-1,0-1.54,0-.74,0-1.47.16-2.64.3a11.41,11.41,0,0,1,1.15-2c1.33-1.36.35-2.4-.58-3.09a3.63,3.63,0,0,0-2.54-.31c-7.44,1.37-13,5.67-17.58,11.7a58.87,58.87,0,0,0-8.41,15.8,77.4,77.4,0,0,0-4.93,25c-.05,3.09-.37,6.18-.34,9.27a84.38,84.38,0,0,1-3.05,22.78c-1.77,6.6-4.3,12.72-8.94,17.77-.2.21-.2.61-.43,1.35a38,38,0,0,0,16.11-17.17,64.87,64.87,0,0,0,6.21-22.51c1.43,6.24,1.94,12.42.31,18.67,2.39-2.83,4.52-5.81,5.12-9.46a64.34,64.34,0,0,0,.36-8.35c0-1.14,0-2.28.05-3.42a67.5,67.5,0,0,1-.69-23c1.24-8.19,3.42-16,7.95-23,2-3.06,4.19-6,7.55-7.41.28-.12.57-.23.86-.33l.28-.09.6-.19.46-.12.44-.11.52-.12.39-.09.64-.13.28-.06.91-.18.35-.07.58-.12.36-.08.56-.12A2.25,2.25,0,0,0,362.35,646.08Z"/><path class="cls-8" d="M341.16,737.09h.51l.11-.83-.62.82Z"/><path class="cls-15" d="M414.58,859a33.59,33.59,0,0,0,2,3.55c.84,1.43,1.74,2.82,2.61,4.23.25,0,.5.09.76.09.59,0,1.18,0,1.77,0a8.47,8.47,0,0,0-.13-1.88,20.66,20.66,0,0,0-1.27-3.41c-1.21-2.41-2.53-4.77-3.8-7.15C414.05,855.57,413.55,856.67,414.58,859Z"/><path class="cls-15" d="M404.85,874.75q.57,4.37,1.16,8.74l1.47,1.59.6-.22c-.07-1.61,0-3.23-.05-4.84,0-1.08,0-2.15-.09-3.23-.05-.81-.13-1.61-.25-2.41q-.09-.6-.22-1.2t-.29-1.2C405.36,872,404.61,872.94,404.85,874.75Z"/><path class="cls-13" d="M360.32,789.8l-.24.43.37.43h0Z"/><path class="cls-16" d="M394.83,787.93c4.47,5.06,9.41,9.1,16.72,8.3,5-.55,9.73-1.55,13.3-5.64a46.72,46.72,0,0,0,8.25-14.3,21.76,21.76,0,0,1,1.64-2.8c-4.68-.89-9.3-1.94-14-2.57a11.81,11.81,0,0,0-5.59.8c-2.75,1.06-5.4,2.06-8.36,1.11a8,8,0,0,0-6,.51c-3.67,1.72-7.32,3.5-11,5.28-.93.46-1.82,1-2.36,1.32a15.66,15.66,0,0,1,2.43,1.9C391.62,783.81,393.11,786,394.83,787.93Zm12.8,4.68c-1.39-.55-2.8-1.07-4.15-1.71-.14-.06,0-.84.07-1.29l4.77.68,4.65.51C411.27,793.57,409.56,793.59,407.63,792.61Zm-15-12.78,2.87-.2c3.46.06,6.93,0,10.39.22,6.18.36,11.86-1.83,17.68-3.38,1.23-.33,2.49-.55,3.74-.82l3.45-.9a22.75,22.75,0,0,1-16.32,11.85c-8.45,1.62-16.1-.14-23-6.67Z"/><path class="cls-13" d="M399.46,759.7c.57-2.22,2-2.8,4.17-1.72a.27.27,0,0,0,.24.17l1.37,1.15.08.06.09,0,.59.41h0l-.06,0h0l0,.11h0l.41,1c.31,1.56,1.63,1.54,2.66,1.5,1.23,0,2.51-.44,2.68-2.11l.41-1.14.17-.48h0v0l.87-.87,1.41-1.77c1.54-.44,3-.64,3.89,1.19h0a3.41,3.41,0,0,0,2-1.26l.26-.31.28-.37a4.72,4.72,0,0,0,.82-1.8c.49-3-.74-5.42-2.1-7.71-1-.49-6.54-9.42-8-9.57-1.33-.13.77,9.22.89,10.36.55,5-.77,6.45-5.75,6.43-2.62,0-3.45-1.39-3.67-3.8-.13-1.49-.42-11.46-1.33-11.94-1.45-.78-6.4,12.16-7.41,15.24C393.59,755.15,396.63,759.51,399.46,759.7Z"/><path class="cls-17" d="M425,692.4c3.93-1.76,7.85-3.55,11.86-5.11,3.26-1.27,6.64-2,10.17-.94,4.87,1.44,8.85,4.35,12.82,7.52a8,8,0,0,0-1-1.79,90.23,90.23,0,0,0-7.72-7.63A13.59,13.59,0,0,0,438,681.9q-6.87,2.16-13.59,4.85c-2.64,1.06-5.1,2.59-7.74,4C420,693.85,421.28,694.06,425,692.4Z"/><path class="cls-17" d="M364.15,696.54c4.88.69,9.74,1.49,14.61,2.18a6.26,6.26,0,0,0,1.67-.07,1.23,1.23,0,0,0,.85-.1h0A5.88,5.88,0,0,1,382,698c.77-.49,1-.32,1.63-1.23l.09-.12a2.61,2.61,0,0,0,.37-.79,1.39,1.39,0,0,0,0-.17v0a.83.83,0,0,0-.29-.8c-.21-.39-2.9-1.17-2.9-1.17l-1.53-.4-7.12-.79-8.7-1c-10.44-.81-16.9,8.55-19.41,17.42a6,6,0,0,0,1.12-1.16c1.11-1.45,2.15-3,3.34-4.34C352.73,698.69,357.62,695.61,364.15,696.54Z"/><path class="cls-17" d="M452.5,705.19l0-.5,2.86-2.38-5.51,1.92-.23-.61,1.6-1.82-.21-.19c-.72.26-1.37.86-2.14,1.07a2.1,2.1,0,0,1-1.58-.19l1.42-1.91L445,702.09l.58-1.76-3.05,1.05,1-2.78h0l0,0c-.37.44-.74.87-1.1,1.31a3.62,3.62,0,0,1-1.13,1.06c-.46.19-.79-.19-1.26-1.18-.55.52-1,1.34-1.65,1.5-5.76,1.41-9,5.63-11.58,10.65a25,25,0,0,1-1.59,2.47l-.16.24h0c-.41,1.7-.83,3.39-1.2,5.09a.24.24,0,0,0,0,.14,1.25,1.25,0,0,0,.15.24,2.8,2.8,0,0,1,.18.25l1.36-2.83c.38-.77.79-1.5,1.22-2.22q.41-.69.86-1.34c.44-.65.9-1.29,1.4-1.88a20.15,20.15,0,0,1,1.41-1.53c.36-.35.74-.68,1.12-1a16.81,16.81,0,0,1,6.15-3.25c5.1-1.56,9.74-.41,14.06,2.56a4.24,4.24,0,0,1,1,5.24,30.66,30.66,0,0,1-3.17,4.73h0a6.77,6.77,0,0,0,3.94-2.59,13.66,13.66,0,0,0,2-4.45l1.23.94.29-.26L453.34,707l6-2.51-.11-.16Z"/><path class="cls-18" d="M452.78,714.13a4.24,4.24,0,0,0-1-5.24c0,3.61-1.05,6.65-4.57,8.14-4.25,1.8-8.57-.37-9.9-4.9-.09-.3-.16-.61-.24-.91s-.13-.54-.19-.81h0l.83-4.08a16.81,16.81,0,0,0-6.15,3.25c-.39.32-.76.65-1.12,1a20.15,20.15,0,0,0-1.41,1.53c-.5.59-1,1.23-1.4,1.88q-.44.65-.86,1.34c-.43.72-.84,1.45-1.22,2.22l-1.36,2.83h0a4.08,4.08,0,0,0,.51,1.47l.23.05h0c.16,0,9.27-.93,13.74-.87,3.25,0,6.52-1,9.78-1.57l.49-.25h0l-.06,0,.81-.45,0,.05h0A30.66,30.66,0,0,0,452.78,714.13Z"/><path class="cls-19" d="M382.68,722.86l-2.65-3a25.72,25.72,0,0,1-1,3.75,7.24,7.24,0,0,1-8.62,4.19,7.42,7.42,0,0,1-5.32-7.73c0-.85.22-1.68.34-2.53h0l1.36-2.29-5.94,1.48a43.8,43.8,0,0,0-4.06,3.24,6.24,6.24,0,0,0-.62.72c-.57.77-1,1.67-1.56,2.48h0l.39.37h0a7.55,7.55,0,0,0,1.13,3.5,8.31,8.31,0,0,0,5.3,3.39c.42,0,.85,0,1.28,0l1.35.06h.06c.45,0,.89,0,1.33,0a9.34,9.34,0,0,0,1.3-.15c3.82-.73,7.57-1.83,11.38-2.62,1.92-.4,3.91-.44,5.87-.64l1.16-1.54-.5-.56Z"/><path class="cls-17" d="M351.32,726l1.43-1.08a8.61,8.61,0,0,0,3.54,4.51,8.38,8.38,0,0,0,1.25.66,7.18,7.18,0,0,0,2,.54,6,6,0,0,0,1,0,5.38,5.38,0,0,0,1-.13,8.31,8.31,0,0,1-5.3-3.39,7.55,7.55,0,0,1-1.13-3.5l-.39-.37h0c.53-.81,1-1.71,1.56-2.48a6.24,6.24,0,0,1,.62-.72,43.8,43.8,0,0,1,4.06-3.24,3.46,3.46,0,0,0-1.38-2.18,3.47,3.47,0,0,1,1.38,2.17l5.94-1.48q.48-.06.95-.08t.93,0a14.28,14.28,0,0,1,3.53.49,15.93,15.93,0,0,1,1.66.54,19.11,19.11,0,0,1,2.39,1.13,29,29,0,0,1,3.76,2.55h0l2.65,3,2,2.22.5.56.54-.41-2.79-4.4a.29.29,0,0,0-.08-.11c-3.11-4.4-6.74-8.13-12-9.84-2-.17-4.07-.1-5.8-1.22l-.6-.45a5.35,5.35,0,0,1-.44-.4h0l-.14.14.76,1.73-.25.41-3.31-1.78,1.37,2.28H359.8l.25.58c-.35.22-.71.65-1,.63a4.7,4.7,0,0,1-.56-.08c-.56-.11-1.11-.3-1.67-.44h0a3,3,0,0,1-.23.27l1.49,1.84-4.09-.23,2.57,1.4-.11.73-5.86-.51,3.4,1.69,0,.51-6.39.67-.08.27,6.17.92Zm2-3.4a.88.88,0,0,1-.06-.22s.08,0,.13,0Z"/><path class="cls-8" d="M405.95,759.76h0l.06,0h0l-.59-.41-.09,0-.08-.06-1.37-1.15a.27.27,0,0,1-.24-.17c-2.2-1.08-3.6-.51-4.17,1.72,2.42-.24,4.79-.19,6.93,1.21l-.41-1Z"/><path class="cls-10" d="M414.61,756l-1.41,1.77-.87.87v0h0l-.17.48-.41,1.14a14.84,14.84,0,0,1,3.15-2.09,10.68,10.68,0,0,1,3.62-1h0C417.62,755.36,416.15,755.56,414.61,756Z"/><path class="cls-20" d="M451.2,701.8,452,701h0v0l0,.07-1,.61Z"/><path class="cls-9" d="M355.81,712.12v0h.07Z"/><path class="cls-9" d="M356.77,712.28h0l-.36,0-.54-.08.67.4a3,3,0,0,0,.23-.27Z"/><path class="cls-21" d="M380.15,809.3h0l-.16-.09Z"/><polygon class="cls-9" points="355.8 712.15 355.8 712.15 355.81 712.12 355.78 712.06 355.8 712.15"/><path class="cls-9" d="M364,708.81l-.36-.09.22.24.14-.14Z"/><polygon class="cls-20" points="443.52 698.6 443.52 698.6 443.5 698.55 443.48 698.62 443.51 698.6 443.52 698.6"/><polygon class="cls-20" points="445.92 699.61 445.97 699.75 446.03 699.62 445.92 699.61"/><path class="cls-13" d="M455.43,790.65l-.09.17Z"/><path class="cls-8" d="M475.63,714.7s0-.11-.07-.12-.1,0-.15,0l.1.2Z"/><path class="cls-9" d="M414.42,786.58a22.75,22.75,0,0,0,16.32-11.85l-3.45.9c-5.45,6.24-12.48,8.28-20.33,7.95-4.15-.18-8.13-1.15-11.47-4h0l-2.87.2-1.18.08C398.32,786.45,406,788.21,414.42,786.58Z"/><path class="cls-11" d="M407,783.58c7.85.34,14.88-1.71,20.33-7.95-1.25.27-2.51.49-3.74.82-5.81,1.55-11.5,3.75-17.68,3.38-3.45-.2-6.92-.15-10.39-.22h0C398.83,782.43,402.81,783.41,407,783.58Z"/><path class="cls-22" d="M403.55,789.62c0,.45-.21,1.22-.07,1.29,1.36.63,2.76,1.16,4.15,1.71,1.93,1,3.64,1,5.34-1.79l-4.65-.51Z"/><path class="cls-23" d="M436.84,710.41c.07.27.13.54.19.81s.15.61.24.91c1.33,4.53,5.64,6.7,9.9,4.9,3.51-1.49,4.55-4.54,4.57-8.14-4.32-3-9-4.12-14.06-2.56l-.83,4.08Zm3.53-2.73a1.1,1.1,0,0,1,.76-.55,5.39,5.39,0,0,1,1.37-.15,3.43,3.43,0,0,1,4.4.73,3.23,3.23,0,0,1,.26,4.34,4.78,4.78,0,0,1-3.41,1.51,2.74,2.74,0,0,1-1.31-.33,2.41,2.41,0,0,1-.38-.26,5,5,0,0,1-1.35-3.12C440.3,708.82,440.16,708.13,440.37,707.69Z"/><path class="cls-23" d="M365.44,717.59h0c-.12.84-.3,1.68-.34,2.53a7.42,7.42,0,0,0,5.32,7.73,7.24,7.24,0,0,0,8.62-4.19,25.72,25.72,0,0,0,1-3.75h0a29,29,0,0,0-3.76-2.55,19.11,19.11,0,0,0-2.39-1.13,15.93,15.93,0,0,0-1.66-.54,14.28,14.28,0,0,0-3.53-.49q-.46,0-.93,0t-.95.08Zm3.91,1,.41-2.39,2.34.62a7.67,7.67,0,0,1,1.87.63,4.51,4.51,0,0,1,.76.48c1.53,1.21,1.54,3.12-.08,5.46h0l-.57.43-3.76-.35h-.1l0-.1a2.85,2.85,0,0,1-1.21-1.63A6.25,6.25,0,0,1,369.36,718.6Z"/><path class="cls-9" d="M353.3,722.57l.08-.26s-.13,0-.13,0A.88.88,0,0,0,353.3,722.57Z"/><path class="cls-20" d="M442.84,709.24c-.29.47-1.38.43-2.13.61a5,5,0,0,0,1.35,3.12,2.41,2.41,0,0,0,.38.26,2.74,2.74,0,0,0,1.31.33,4.78,4.78,0,0,0,3.41-1.51,3.23,3.23,0,0,0-.26-4.34,3.43,3.43,0,0,0-4.4-.73C442.65,707.76,443.14,708.75,442.84,709.24Z"/><path class="cls-18" d="M440.72,709.86c.74-.18,1.84-.14,2.13-.61s-.19-1.48-.34-2.26a5.39,5.39,0,0,0-1.37.15,1.1,1.1,0,0,0-.76.55C440.16,708.13,440.3,708.82,440.72,709.86Z"/><path class="cls-20" d="M369.36,718.6a6.24,6.24,0,0,0-.37,3.16,2.85,2.85,0,0,0,1.21,1.63l.11,0,0,.12h0l3.76.35.57-.43h0c1.62-2.34,1.61-4.26.08-5.46a4.51,4.51,0,0,0-.76-.48,7.67,7.67,0,0,0-1.87-.63C371.71,719.08,371.37,719.3,369.36,718.6Z"/><path class="cls-19" d="M372.11,716.83l-2.34-.62-.41,2.39C371.37,719.3,371.71,719.08,372.11,716.83Z"/><polygon class="cls-10" points="370.31 723.37 370.19 723.39 370.23 723.49 370.33 723.48 370.33 723.48 370.31 723.37"/><path class="cls-10" d="M469,768.83a42,42,0,0,0-.37,4.85c.25,3.3,1.47,7.72,1.87,11,1.53,5.24,7,8.59,10.6,7.81-3.72-2-4.31-5.41-5.59-9a9.48,9.48,0,0,1-.85-2.54h0c0-.56,0-1.16-.08-1.79a66.63,66.63,0,0,1-.19-7.55q.23-2.19.61-4.35a52.43,52.43,0,0,1,3.82-12.62,12.7,12.7,0,0,0,.57-2.87c-.18-1.55-.38-3.11-.55-4.66-.6-5.51-1.28-11-1.74-16.54-.31-3.76-.33-7.55-.47-11.33h0a60.3,60.3,0,0,0,0-6.77c-.38-3.3-1-6.59-1.49-9.87a54.77,54.77,0,0,0-4.28-14.75,7.49,7.49,0,0,0-.45-.81c-.5-.79-1.11-1.52-1.64-2.29h0v0l0,.06c.28.79.52,1.59.78,2.38,3,9.71,4.58,22,5.08,31.78,0,.09,0,.19,0,.28h0c0,.62,0,1.25-.07,1.87s-.05,1.25-.1,1.87c-.38,5.11-.78,10.22-1.18,15.32h0l-.05.74,0,.8L471.67,751q-1.3,6.89-2.61,13.77A9.08,9.08,0,0,0,469,766c0,.07,0,.13,0,.2C468.95,767.26,469,768.5,469,768.83Zm6.6-54.26s0,.08.07.12l-.12.09-.1-.2C475.46,714.58,475.52,714.55,475.56,714.57Z"/><path class="cls-14" d="M341.19,765.58l-.61,0,.62,0Z"/><path class="cls-14" d="M340.58,765.62a15.67,15.67,0,0,0-.49,3.09v.1c0-.51,0-.82,0-.82Z"/><path class="cls-14" d="M359.83,1016.56c-.1-1.25-.17-2.28-.19-2.78,0-.13,0-.22,0-.28.53-15.36,1-30.71,1.65-46.07.23-5.52.68-11,1.21-16.53.91-9.37,1.94-18.72,3-28.07a4.21,4.21,0,0,1,1.27-2.44c.18-.16.37-.34.55-.52s.62-.65.92-1c4.39-5.21,7.75-14.85,6.57-14.68a.75.75,0,0,1-.6-.41c-.62-2-1.63-3.93-1.68-5.92-.1-3.57.71-7.18.51-10.73l0-.3c-.12-2.12-.21-4.73-.23-6.24q0-4.17-.31-8.33c0-.49,0-1-.08-1.48-.11-1.52-.66-3-.88-4.51a44,44,0,0,0-1.39-6.43h0c-.49-1.49,3.77-10.35,5.13-10.34,2.45,0,4.9-.23,7.35-.29a1.63,1.63,0,0,1,1.26.6c1.12,1.92,2.15,3.9,3.19,5.86a1.51,1.51,0,0,1,0,.59c0,.69-.31,4.08-.58,7.48l0,.4c-.11,1.4-.21,2.78-.28,4q0,.42,0,.8c0,.25,0,.48,0,.71,0,.41,0,.78,0,1.07-.31,2.72.69,6.41,3.91,5.47l0-.13.52-2q.86-3.26,1.72-6.53c.47-1.76,1.52-2.35,3.19-1.62,0,.22-.06.43-.09.65v0l0-.26a75.49,75.49,0,0,1,2.27-9.71c.73-3.61-4.53-15.12-5.72-17.77-.89-2-1.67-4-2.58-6-.21-.46-.75-1.08-1.15-1.08-4.17-.06-8.13-2-12.39-1.28-1.88.31-3.82.29-5.73.43-1.1.08-1.81-.17-1.93-1.56a2.23,2.23,0,0,0-.43-1c-.22-.33-.48-.66-.67-1-3,1-6.07,1.93-9.1,2.87-2.13.66-2.44.42-2.46-1.85,0-1,0-2,0-2.95-.18-1.4-.55-6-1-11.52-.18-2.41-.36-5-.54-7.59-.56-7.94-1.08-15.94-1.25-18.89a75.36,75.36,0,0,0-1.41-8.27.86.86,0,0,1,.18-.49l.09-.17-.16-.34.83,1.39c5.88,9.65,12.9,18.55,18.77,23.13a19,19,0,0,0,4.23,2.61h0c.18,1,19.87,13.38,20.42,13.6,3.61,1.44,7.08,3.36,10.8,4.37a30.2,30.2,0,0,0,10.38,1.09c6-.53,11.16-3.66,15.87-7.31a88.86,88.86,0,0,0,15.79-15.67c.16-.21.38-.45.6-.7l.33-.36c1.08-1.14,2.42-2.37,2.44-2.39l0,0c2-3.09,3.71-6,5.31-8.61l.29-.39h-.07c5.72-9.56,9.25-16.53,11.48-22.53l.07-.19a9.08,9.08,0,0,1,.09-1.24q1.31-6.88,2.61-13.77l1.5-11.12,0-.8.05-.74h0c.39-5.11.8-10.21,1.18-15.32,0-.62.08-1.24.1-1.87s0-1.23.07-1.85t0,0v-.26c-.49-9.81-2.08-22.06-5.08-31.78-.25-.79-.5-1.59-.78-2.38l0-.06,0,0h0c-.47-1-.93-2-1.43-3q-.4-.81-.84-1.58c-.16-.28-.32-.54-.48-.81s-.27-.47-.42-.7-.36-.55-.54-.82-.27-.43-.42-.63-.35-.48-.52-.72-.32-.46-.49-.68-.4-.5-.6-.76l-.46-.58L462,674l-.57-.66-.49-.52-.68-.72-.56-.55-.65-.64-.64-.59-.61-.56-.62-.54-.67-.57-.55-.44-.78-.62-.53-.41-.82-.63-.54-.39-.85-.61-.68-.47-.73-.5-.7-.46-.75-.49-.6-.38-.85-.54h0l0,0-.9-.46-1.55-.79-.62-.32-.71-.35-.85-.42c-.52-.25-1-.49-1.57-.73-5-2.21-10.07-4.36-15.12-6.53l-1.83-.78-1.67-.68a71.57,71.57,0,0,1-10-4.55q-1.91-1.06-3.77-2.23-.93-.59-1.84-1.2-1.22-.82-2.41-1.68t-2.36-1.78a23.31,23.31,0,0,0-5-3.06,14.8,14.8,0,0,0-1.75-.64,12.53,12.53,0,0,0-2.38-.46l-.82,0a11.8,11.8,0,0,0-1.67.08,12.56,12.56,0,0,0-1.73.34q-.5.13-1,.31c-.29.1-.61.23-.94.38s-.7.31-1,.48-.7.36-1,.56c-3.64,2.26-7.31,8.17-8.87,7.68l0,0-.07,0a3.79,3.79,0,0,1-1.51.27,9.62,9.62,0,0,1-1.95-.19l-.41-.08-10.36.9h-.05l-.54.12-.36.08-.58.12-.35.07-.91.18-.28.06-.64.13-.39.09-.52.12-.44.11-.46.12-.6.19-.28.09c-.29.1-.58.21-.86.33-3.37,1.42-5.58,4.35-7.55,7.41-4.52,7-6.71,14.85-7.95,23a67.5,67.5,0,0,0,.69,23q.39,1.6.71,3.21t.58,3.21q.35,2.14.58,4.29a97.43,97.43,0,0,1-.43,23.76l-.11.83h0c-.18,1.19-.38,2.37-.56,3.56s-.37,2.38-.53,3.57c-.12.85-.21,1.71-.29,2.57s-.16,1.65-.24,2.47a1.22,1.22,0,0,0,0,.21h0c.38,5.47,3.17,13.06,7.15,20.89-1.29-.65-2.58-1.28-3.81-2l0,10s-1.19,2.12-2.58.9a1.4,1.4,0,0,1-.33-.54c.14,2.81.27,5.62.35,8.44.1,3.29-.08,6.59-.14,9.88l-1.61,10.34h0l-.72,5.54,0,2q0,4.27.06,8.54c-.15,5.07-.17,10.15-.49,15.21-.34,5.3-.93,10.59-1.48,15.88a10,10,0,0,1-.25,1.35c-.15.62-.33,1.23-.48,1.85.24.3.69.61.67.89-.19,3-.45,6-.69,9.07l-.38,6.3c0,.56-.07,1.12-.11,1.69-.2,2.95-.38,5.9-.58,8.85v0c-.11,1.69-.24,3.39-.38,5.08s-.31,3.47-.5,5.2c-.82,7.31-1.56,14.71-3.29,21.83C325,939.66,319,962.43,313.16,985.21c-2.69,10.44-5.16,19.29-8,29.7,2.67.47,5.44,1,8.22,1.4,15.49,2.94,39,4.37,46.74,4.37C360,1019.25,359.93,1017.8,359.83,1016.56ZM455.35,791l.09-.17Zm-2-83.84,3.74,5.52-.29.26-1.23-.94a13.66,13.66,0,0,1-2,4.45,6.77,6.77,0,0,1-3.94,2.59h0l0-.05-.81.45.06,0h0l-.5.25c-3.26.56-6.53,1.61-9.78,1.57-4.47-.06-13.57.88-13.74.87h0l-.23-.05a4.08,4.08,0,0,1-.51-1.47h0a2.79,2.79,0,0,0-.18-.25,1.25,1.25,0,0,1-.15-.24.24.24,0,0,1,0-.14c.37-1.7.8-3.4,1.2-5.09h0a.83.83,0,0,1,.16-.24,25,25,0,0,0,1.59-2.47c2.58-5,5.82-9.24,11.58-10.65.63-.15,1.1-1,1.65-1.5.48,1,.8,1.36,1.26,1.18a12.33,12.33,0,0,0,1.13-1.06c.36-.44.73-.87,1.1-1.31l0-.07,0,0h0l-1,2.78,3.05-1.05-.58,1.76,3.67-1.51-1.42,1.91a2.1,2.1,0,0,0,1.58.19c.78-.21,1.43-.8,2.14-1.07l1-.61,0-.07v0h0l-.81.83-1.6,1.82.23.61,5.51-1.92-2.86,2.38,0,.5,6.74-.88.11.16Zm-7.42-7.37h.1l-.06.13Zm-21.49-12.86q6.7-2.68,13.59-4.85a13.59,13.59,0,0,1,13.09,2.55,90.23,90.23,0,0,1,7.72,7.63,8,8,0,0,1,1,1.79c-4-3.16-8-6.08-12.82-7.52-3.53-1-6.91-.33-10.17.94-4,1.56-7.93,3.35-11.86,5.11-3.71,1.66-5,1.45-8.29-1.7C419.35,689.47,421.81,687.94,424.45,686.88Zm-30,65.71c1-3.08,6-16,7.41-15.24.91.49,1.19,10.45,1.33,11.94.21,2.41,1,3.79,3.67,3.8,5,0,6.3-1.46,5.75-6.43-.13-1.14-2.22-10.49-.89-10.36,1.5.14,7,9.08,8,9.57,1.35,2.29,2.58,4.74,2.1,7.71a4.72,4.72,0,0,1-.82,1.8l-.28.37-.26.31a3.41,3.41,0,0,1-2,1.26,10.68,10.68,0,0,0-3.62,1,14.84,14.84,0,0,0-3.15,2.09c-.17,1.66-1.45,2.07-2.68,2.11-1,0-2.35.06-2.66-1.5-2.15-1.4-4.52-1.45-6.93-1.21C396.64,759.65,393.61,755.29,394.49,752.6Zm-4.62,26.15c3.65-1.78,7.29-3.56,11-5.28a8,8,0,0,1,6-.51c3,.95,5.61-.05,8.36-1.11a11.81,11.81,0,0,1,5.59-.8c4.68.63,9.3,1.68,14,2.57a21.76,21.76,0,0,0-1.64,2.8,46.72,46.72,0,0,1-8.25,14.3c-3.57,4.09-8.29,5.09-13.3,5.64-7.31.81-12.25-3.24-16.72-8.3-1.72-1.95-3.21-4.11-4.91-6.09a15.66,15.66,0,0,0-2.43-1.9C388.05,779.76,388.94,779.2,389.87,778.75ZM360.46,790.8l-.37-.43.24-.43.13.87h0ZM345.29,708a6,6,0,0,1-1.12,1.16c2.51-8.87,9-18.23,19.41-17.42,2.91.22,5.8.59,8.7,1l7.12.79,1.53.4s2.69.78,2.9,1.17a.83.83,0,0,1,.29.8v0a1.39,1.39,0,0,1,0,.17,2.56,2.56,0,0,1-.37.84l-.09.07c-.63.91-.86.74-1.63,1.23l-.68.52h0a1.23,1.23,0,0,1-.85.1,6.26,6.26,0,0,1-1.67.07c-4.88-.69-9.74-1.48-14.61-2.18-6.53-.93-11.42,2.15-15.54,6.94C347.44,705,346.4,706.52,345.29,708Zm2.24,10.83,6.39-.67,0-.51-3.4-1.69,5.86.51.11-.73L354,714.3l4.09.23-1.49-1.84-.67-.4h-.07v0h0l0-.09,0,.06.06,0,.55.08.36,0h0c.56.14,1.11.33,1.67.44a4.7,4.7,0,0,0,.56.08c.33,0,.69-.4,1-.63l-.25-.58h2.68l-1.37-2.28,3.31,1.78.25-.41-.76-1.73-.22-.24.36.09h0a5.35,5.35,0,0,0,.44.4l.6.45c1.73,1.12,3.8,1.05,5.8,1.22,5.21,1.71,8.85,5.44,12,9.84a.29.29,0,0,1,.08.11l2.79,4.4-.54.41L384,727.32c-2,.2-3.95.25-5.87.64-3.81.79-7.56,1.89-11.38,2.62a9.34,9.34,0,0,1-1.3.15c-.44,0-.88,0-1.33,0h-.06l-1.35-.06c-.43,0-.85,0-1.28,0a5.38,5.38,0,0,1-1,.13,6,6,0,0,1-1,0,7.18,7.18,0,0,1-2-.54,8.38,8.38,0,0,1-1.25-.66,8.61,8.61,0,0,1-3.54-4.51l-1.43,1.08,2.29-6.13-6.17-.92Z"/><path class="cls-14" d="M393,875c-.33.81-.68,1.59-1,2.32A7.81,7.81,0,0,0,393,875Z"/><path class="cls-14" d="M391.93,877.36a2.32,2.32,0,0,0-.66.3A.7.7,0,0,0,391.93,877.36Z"/><path class="cls-15" d="M391.28,877.66a2.32,2.32,0,0,1,.66-.3h0v0c.37-.73.71-1.51,1-2.32a35.68,35.68,0,0,0,2.29-8.6v0c0-.22.07-.43.09-.65-1.67-.72-2.72-.14-3.19,1.62q-.87,3.26-1.72,6.53l-.52,2,0,.13.7,1.92A1.77,1.77,0,0,0,391.28,877.66Z"/><path class="cls-15" d="M341.84,765.58l-.63,0-.62,0-.44,2.37s0,.31,0,.82c-.11,2.14-.31,7.9.45,9.86a1.4,1.4,0,0,0,.33.54c1.39,1.22,2.58-.9,2.58-.9l0-10v-.89Z"/><path class="cls-5" d="M347.4,550.62a17,17,0,0,0,2.32,4.27,21.46,21.46,0,0,0,1.67,2c.24.25.48.49.73.73l.69.68c.17.16.35.31.52.46s.59.53.91.77l.7.53c.19.14.37.29.56.42l.73.49c.84.57,1.71,1.1,2.57,1.63,1.86,1.14,3.71,2.31,5.57,3.46s3.52,2.14,5.22,3.31c.89.61,1.76,1.25,2.64,1.88l1.34,1c.37.27.73.54,1.11.79s.61.4.93.6l.87.5a1.54,1.54,0,0,0,1.89-.25,1.61,1.61,0,0,0,.4-.71l.05-.39a1.48,1.48,0,0,0,.27-.82c0-.37,0-.73.05-1.1a12.28,12.28,0,0,1,.31-1.43,14.35,14.35,0,0,1,.48-1.36c.4-.86.84-1.7,1.3-2.53.24-.43.51-.84.77-1.26s.49-.71.73-1.06c.55-.72,1.12-1.44,1.69-2.14.72-.88,1.44-1.77,2.15-2.66s1.48-1.79,2.18-2.72l.52-.7c.13-.18.28-.35.4-.53l.54-.81c.11-.17.23-.34.34-.51.31-.53.64-1.06.93-1.61a19.08,19.08,0,0,0,1.83-4.69c.08-.37.15-.74.21-1.11.08-.53.15-1.06.18-1.59a12.52,12.52,0,0,0-.21-2.73c-.06-.36-.14-.72-.22-1.07a9.35,9.35,0,0,0-.5-1.44,10.5,10.5,0,0,0-1.32-2.18,8.17,8.17,0,0,0-1.8-1.73,10.48,10.48,0,0,0-4.66-1.71,7.8,7.8,0,0,0-1-.06,9.5,9.5,0,0,0-1.25.09,12.46,12.46,0,0,0-2.5.56,9.62,9.62,0,0,0-2.2,1.08c-.37.25-.72.54-1.06.82s-.59.52-.87.8a17.28,17.28,0,0,0-1.51,1.72,20.55,20.55,0,0,0-2.18,3.48c-.26.54-.5,1.09-.72,1.64-.06-.12-.12-.25-.18-.37a8.22,8.22,0,0,0-.72-1.08c-.23-.31-.49-.6-.74-.89s-.63-.74-1-1.1-.49-.55-.75-.82a11.34,11.34,0,0,0-1.86-1.56,13.27,13.27,0,0,0-1.91-1.09,11.83,11.83,0,0,0-2.4-.86c-.46-.1-.94-.16-1.41-.21a10.3,10.3,0,0,0-1.13-.06h0a15,15,0,0,0-2.59.27,9.94,9.94,0,0,0-2.19.62,17,17,0,0,0-2.3,1.19,14.74,14.74,0,0,0-2.07,1.57,12.15,12.15,0,0,0-1.68,1.91,10.72,10.72,0,0,0-1.21,2.31,10,10,0,0,0-.61,2.11,10.91,10.91,0,0,0-.15,2.72A10,10,0,0,0,347.4,550.62Zm3-4.27a9.93,9.93,0,0,1,.53-2,9.57,9.57,0,0,1,.93-1.65,11.26,11.26,0,0,1,1.62-1.64,15.5,15.5,0,0,1,1.31-.89,14.39,14.39,0,0,1,1.43-.78,13.09,13.09,0,0,1,2.92-.76,11.82,11.82,0,0,1,2.73,0,11.2,11.2,0,0,1,2.46.71,12,12,0,0,1,2.39,1.4c.52.42,1,.87,1.51,1.32l.62.59a11,11,0,0,1,1.05,1.12,7.75,7.75,0,0,1,.78,1.45c.06.15.11.31.16.46a1.39,1.39,0,0,0,.15,1,1.35,1.35,0,0,0,.8.63,1.31,1.31,0,0,0,1-.14l.27-.21a1.38,1.38,0,0,0,.34-.6c.27-.75.53-1.5.83-2.24a17.94,17.94,0,0,1,2-3.56,16.14,16.14,0,0,1,2.51-2.62,8.82,8.82,0,0,1,1.61-1,10,10,0,0,1,2.15-.59,9.23,9.23,0,0,1,2.06,0,8.58,8.58,0,0,1,1.78.51,8.73,8.73,0,0,1,1.51.89,7.15,7.15,0,0,1,.92,1,9.14,9.14,0,0,1,.86,1.52,9.66,9.66,0,0,1,.45,1.89,10.63,10.63,0,0,1,0,2.26,16.22,16.22,0,0,1-.95,3.48,26.37,26.37,0,0,1-1.34,2.62l-.45.79c-.11.2-.24.38-.37.58l-.48.76c-.13.21-.28.4-.43.6-.32.46-.65.9-1,1.35l-.17.23c-1.06,1.41-2.11,2.83-3.17,4.25-.33.43-.66.86-1,1.31s-.61.83-.89,1.27-.61.95-.89,1.44-.52,1-.78,1.44-.46.94-.66,1.41-.51,1.17-.71,1.77a15.7,15.7,0,0,0-.44,1.6l0,.21-.31-.27c-.29-.25-.6-.48-.9-.72l-.62-.49-1.19-.89c-.43-.32-.86-.64-1.3-.95s-.86-.6-1.3-.88c-1-.61-2-1.21-3-1.81-.45-.27-.92-.52-1.37-.78l-1.41-.81c-.84-.48-1.66-1-2.5-1.48l-4-2.37c-.44-.28-.89-.54-1.31-.85l-1.06-.76c-.4-.33-.79-.66-1.17-1l-.79-.75c-.31-.29-.6-.61-.89-.93s-.5-.58-.73-.88a15.86,15.86,0,0,1-1.72-3,9.36,9.36,0,0,1-.5-1.79A9,9,0,0,1,350.4,546.35Z"/><path class="cls-24" d="M552.31,756.6l13-33.92h2.91l-15.35,38h-5.66l-1.38-35.34a7.9,7.9,0,0,0-6.83,3.42,10.84,10.84,0,0,0-1.58,3.42,14.42,14.42,0,0,0-.51,3.77,9.64,9.64,0,0,0,1.07,4.64,6.57,6.57,0,0,1-1.66-.2,3.38,3.38,0,0,1-1.4-.74,3.9,3.9,0,0,1-1-1.43,5.8,5.8,0,0,1-.38-2.27,12.22,12.22,0,0,1,1.12-5.15,13.11,13.11,0,0,1,3.19-4.31,15.53,15.53,0,0,1,5-3,18.24,18.24,0,0,1,6.48-1.1c.37,0,.74,0,1.1.05s.71.09,1,.15Z"/><path class="cls-24" d="M591.18,735.18l-3.72,17.34a9.44,9.44,0,0,0-.26,2.29,4,4,0,0,0,.31,1.58,1.24,1.24,0,0,0,1.27.71,3.41,3.41,0,0,0,2.47-1.48,16.47,16.47,0,0,0,2.37-4.08h1.89a26.74,26.74,0,0,1-2.45,5.07,13.14,13.14,0,0,1-2.37,2.83,5.84,5.84,0,0,1-2.19,1.25,7.31,7.31,0,0,1-1.86.28,3.64,3.64,0,0,1-2.78-1.17,6.22,6.22,0,0,1-1.3-3.82,10.71,10.71,0,0,1-3.24,3.54A7.68,7.68,0,0,1,574.8,761a6.88,6.88,0,0,1-2.4-.43,5.35,5.35,0,0,1-2.09-1.43,7.41,7.41,0,0,1-1.48-2.55,11.23,11.23,0,0,1-.56-3.8,19.79,19.79,0,0,1,.38-3.72,26.59,26.59,0,0,1,1.1-4,20.75,20.75,0,0,1,1.84-3.83,16.75,16.75,0,0,1,2.55-3.24,11.5,11.5,0,0,1,3.24-2.24,9.25,9.25,0,0,1,4-.84,6.18,6.18,0,0,1,2.5.56,3,3,0,0,1,1.68,2.14l.51-2.45Zm-14.23,21.93a3.76,3.76,0,0,0,1.68-.43,7.06,7.06,0,0,0,1.66-1.17,8.1,8.1,0,0,0,1.4-1.76,7.22,7.22,0,0,0,.87-2.19L585,740a3.13,3.13,0,0,0-.77-1.56,2.26,2.26,0,0,0-1.78-.69,5.3,5.3,0,0,0-3.72,1.53A13.44,13.44,0,0,0,576,743a19.76,19.76,0,0,0-1.68,4.69,20.3,20.3,0,0,0-.56,4.39q0,2.91.87,4A2.86,2.86,0,0,0,576.95,757.11Z"/><path class="cls-24" d="M609.89,725l-6,27.54a9.5,9.5,0,0,0-.25,2.29,4,4,0,0,0,.31,1.58,1.24,1.24,0,0,0,1.27.71,3.41,3.41,0,0,0,2.47-1.48,16.44,16.44,0,0,0,2.37-4.08H612a26.74,26.74,0,0,1-2.45,5.07,13.17,13.17,0,0,1-2.37,2.83A5.84,5.84,0,0,1,605,760.7a7.31,7.31,0,0,1-1.86.28,4.66,4.66,0,0,1-2.19-.46,3.71,3.71,0,0,1-1.38-1.22,5.25,5.25,0,0,1-.74-1.79,10,10,0,0,1-.23-2.19,14.48,14.48,0,0,1,.13-1.89q.13-1,.33-1.89l5.56-25.86Z"/><path class="cls-24" d="M633.45,740.17a8.52,8.52,0,0,1-3.38,7q-3.38,2.68-9.32,3.29a6.37,6.37,0,0,0-.05.79v.79a6,6,0,0,0,1,3.83,4.21,4.21,0,0,0,3.44,1.22,10.21,10.21,0,0,0,4.84-1.28,12.43,12.43,0,0,0,4.39-4.28H636a21.71,21.71,0,0,1-2.45,3.6,18.88,18.88,0,0,1-3.16,3,15.55,15.55,0,0,1-3.7,2.07,11,11,0,0,1-4,.77,8.84,8.84,0,0,1-2.84-.46,6.7,6.7,0,0,1-2.42-1.43,7,7,0,0,1-1.7-2.52,9.79,9.79,0,0,1-.64-3.75,21,21,0,0,1,.31-3.32,26.69,26.69,0,0,1,.94-3.88,23,23,0,0,1,1.68-3.93,16,16,0,0,1,2.47-3.44,11.52,11.52,0,0,1,3.29-2.42,9.38,9.38,0,0,1,4.21-.92,8.81,8.81,0,0,1,2,.23,4.54,4.54,0,0,1,1.73.82,4.09,4.09,0,0,1,1.22,1.61A6.37,6.37,0,0,1,633.45,740.17Zm-5-2.75a4.09,4.09,0,0,0-2.64,1,9.63,9.63,0,0,0-2.16,2.58,19.53,19.53,0,0,0-1.62,3.54,25.63,25.63,0,0,0-1,4,12.58,12.58,0,0,0,6.8-3,7.6,7.6,0,0,0,2.54-5.81,3.56,3.56,0,0,0-.33-1.56Q629.68,737.42,628.47,737.42Z"/><path class="cls-24" d="M648.35,735.18l-.82,3.83a12.15,12.15,0,0,1,1.94-2.14,9.12,9.12,0,0,1,1.86-1.25A6.13,6.13,0,0,1,653,735a9.2,9.2,0,0,1,1.45-.13,6.23,6.23,0,0,1,2.55.46,4.19,4.19,0,0,1,1.63,1.25,4.56,4.56,0,0,1,.84,1.84,10.37,10.37,0,0,1,.23,2.22,17.27,17.27,0,0,1-.38,3.52q-.38,1.84-.84,3.62t-.84,3.52a15.14,15.14,0,0,0-.38,3.26,4.54,4.54,0,0,0,.31,1.78,1.2,1.2,0,0,0,1.22.71q2.4,0,4.79-5.56h1.89a27.63,27.63,0,0,1-2.45,5.1,12.38,12.38,0,0,1-2.37,2.83,6.08,6.08,0,0,1-2.14,1.22,6.6,6.6,0,0,1-1.76.28,4.22,4.22,0,0,1-3.77-1.66,7.16,7.16,0,0,1-1.12-4.11,17.26,17.26,0,0,1,.38-3.52q.38-1.84.84-3.62t.84-3.44a13.59,13.59,0,0,0,.38-3,3.94,3.94,0,0,0-.46-2,1.91,1.91,0,0,0-1.79-.77q-3.16,0-5.66,5.46l-3.52,16.42h-5.1l5.41-25.5Z"/><path class="cls-24" d="M670.78,735.18h1.68l1.53-7,5.3-.71-1.68,7.75h3.93l-.36,1.84h-4l-3.31,15.52c-.07.27-.15.61-.23,1a5.74,5.74,0,0,0-.13,1.17,3.54,3.54,0,0,0,.38,1.65,1.58,1.58,0,0,0,1.56.74,4.19,4.19,0,0,0,2.86-1.48,15.17,15.17,0,0,0,2.75-4.08H683a29.7,29.7,0,0,1-2.65,4.64,17.47,17.47,0,0,1-2.55,2.91,7.5,7.5,0,0,1-2.37,1.48,6.25,6.25,0,0,1-2.07.41,5,5,0,0,1-2.35-.48,3.92,3.92,0,0,1-1.45-1.27,5.23,5.23,0,0,1-.77-1.83,9.85,9.85,0,0,1-.23-2.11,12.89,12.89,0,0,1,.15-2q.15-1,.31-1.76L672.11,737h-1.68Z"/><path class="cls-24" d="M695.16,735.18l-3.72,17.34a9.44,9.44,0,0,0-.26,2.29,4,4,0,0,0,.31,1.58,1.24,1.24,0,0,0,1.27.71,3.41,3.41,0,0,0,2.47-1.48,16.47,16.47,0,0,0,2.37-4.08h1.89a26.74,26.74,0,0,1-2.45,5.07,13.14,13.14,0,0,1-2.37,2.83,5.84,5.84,0,0,1-2.19,1.25,7.31,7.31,0,0,1-1.86.28,4.66,4.66,0,0,1-2.19-.46,3.71,3.71,0,0,1-1.38-1.22,5.27,5.27,0,0,1-.74-1.79,10,10,0,0,1-.23-2.19,14.31,14.31,0,0,1,.13-1.89q.13-1,.33-1.89L690,735.18Zm-4.74-7.34a3.37,3.37,0,0,1,1-2.4,3.17,3.17,0,0,1,2.4-1,3.48,3.48,0,0,1,3.42,3.42,3.18,3.18,0,0,1-1,2.4,3.37,3.37,0,0,1-2.4,1,3.31,3.31,0,0,1-3.37-3.37Z"/><path class="cls-24" d="M711.64,735.18l-.82,3.83a12.15,12.15,0,0,1,1.94-2.14,9.14,9.14,0,0,1,1.86-1.25,6.13,6.13,0,0,1,1.68-.56,9.17,9.17,0,0,1,1.45-.13,6.22,6.22,0,0,1,2.55.46,4.18,4.18,0,0,1,1.63,1.25,4.56,4.56,0,0,1,.84,1.84,10.31,10.31,0,0,1,.23,2.22,17.2,17.2,0,0,1-.38,3.52q-.38,1.84-.84,3.62t-.84,3.52a15.2,15.2,0,0,0-.38,3.26,4.54,4.54,0,0,0,.31,1.78,1.2,1.2,0,0,0,1.22.71q2.4,0,4.79-5.56h1.89a27.64,27.64,0,0,1-2.45,5.1,12.38,12.38,0,0,1-2.37,2.83,6.07,6.07,0,0,1-2.14,1.22,6.61,6.61,0,0,1-1.76.28,4.22,4.22,0,0,1-3.77-1.66,7.15,7.15,0,0,1-1.12-4.11,17.26,17.26,0,0,1,.38-3.52q.38-1.84.84-3.62t.84-3.44a13.58,13.58,0,0,0,.38-3,3.93,3.93,0,0,0-.46-2,1.91,1.91,0,0,0-1.78-.77q-3.16,0-5.66,5.46l-3.52,16.42h-5.1l5.41-25.5Z"/><path class="cls-24" d="M750.24,740.17a8.52,8.52,0,0,1-3.38,7q-3.38,2.68-9.32,3.29a6.37,6.37,0,0,0-.05.79v.79a6,6,0,0,0,1,3.83,4.18,4.18,0,0,0,3.43,1.22,8.52,8.52,0,0,0,6-2.45,7.83,7.83,0,0,1-1.12,3.11,6.58,6.58,0,0,1-1.94,1.94,7.32,7.32,0,0,1-2.52,1,15,15,0,0,1-2.93.28,8.74,8.74,0,0,1-2.83-.46,6.62,6.62,0,0,1-2.4-1.43,7,7,0,0,1-1.68-2.52,9.86,9.86,0,0,1-.64-3.75,21,21,0,0,1,.31-3.32,26.69,26.69,0,0,1,.94-3.88,23,23,0,0,1,1.68-3.93,16,16,0,0,1,2.47-3.44,11.52,11.52,0,0,1,3.29-2.42,9.38,9.38,0,0,1,4.21-.92,8.81,8.81,0,0,1,2,.23,4.54,4.54,0,0,1,1.73.82,4.09,4.09,0,0,1,1.22,1.61A6.37,6.37,0,0,1,750.24,740.17Zm-5-2.75a4.09,4.09,0,0,0-2.64,1,9.63,9.63,0,0,0-2.16,2.58,19.53,19.53,0,0,0-1.62,3.54,25.63,25.63,0,0,0-1,4,12.58,12.58,0,0,0,6.8-3,7.6,7.6,0,0,0,2.54-5.81,3.56,3.56,0,0,0-.33-1.56Q746.47,737.42,745.25,737.42Z"/><path class="cls-24" d="M762.48,725.95a3.12,3.12,0,0,1,1-2.55,3.54,3.54,0,0,1,2.32-.87,3,3,0,0,1,2.55,1,3.92,3.92,0,0,1,.76,2.37,7.6,7.6,0,0,1-.56,2.73,13.3,13.3,0,0,1-1.48,2.78,14.92,14.92,0,0,1-2.09,2.42,8.12,8.12,0,0,1-2.4,1.61,1,1,0,0,1-.46-.87,2.72,2.72,0,0,1,.31-1.22q.31-.61.69-1.22t.71-1.2a2.33,2.33,0,0,0,.33-1.15,1.5,1.5,0,0,0-.28-1q-.28-.31-.59-.59a3.17,3.17,0,0,1-.59-.77A3.11,3.11,0,0,1,762.48,725.95Z"/><path class="cls-24" d="M786.3,733.6q.25,4.9.48,8t.41,5q.18,1.94.28,3.14t.1,2.47a9.82,9.82,0,0,1-.79,4.18,8,8,0,0,1-2,2.73,7.34,7.34,0,0,1-2.65,1.48,9.35,9.35,0,0,1-2.7.43,8.63,8.63,0,0,1-3.34-.59,7.09,7.09,0,0,1-2.32-1.5,5.73,5.73,0,0,1-1.35-2.09,6.72,6.72,0,0,1-.43-2.35,5.18,5.18,0,0,1,.84-3,5.08,5.08,0,0,1,1.86-1.73,62.61,62.61,0,0,0,3.62-7.57q1.48-3.75,2.65-7.52Zm-4.08,18.62q0-1.07-.08-2t-.23-2.29q-.15-1.38-.36-3.47t-.41-5.41a47.55,47.55,0,0,1-1.71,5.46q-1,2.6-2.37,5.36a2,2,0,0,1,.51.66,2.29,2.29,0,0,1,.2,1,2.5,2.5,0,0,1-.69,1.89,2,2,0,0,1-1.4.66,1.32,1.32,0,0,1-1.22-.71,4.26,4.26,0,0,0,.82,2.78,3,3,0,0,0,2.5,1A4.59,4.59,0,0,0,781,756,5,5,0,0,0,782.22,752.21Z"/><path class="cls-24" d="M635.37,762.22,629,791.7a5.23,5.23,0,0,0,3.31,1.33,6,6,0,0,0,3.44-1,10.83,10.83,0,0,0,2.81-2.83,19.1,19.1,0,0,0,2.14-4.11,38.81,38.81,0,0,0,1.5-4.87,44.13,44.13,0,0,0,.92-5.15,42.39,42.39,0,0,0,.31-4.95,19.69,19.69,0,0,0-.56-5.07,8.26,8.26,0,0,0-1.68-3.34,6.32,6.32,0,0,0-2.83-1.84,12.68,12.68,0,0,0-4-.56,15.7,15.7,0,0,0-5.13.87,14.16,14.16,0,0,0-4.49,2.5,12.44,12.44,0,0,0-3.16,4,11.76,11.76,0,0,0-1.2,5.38,3.84,3.84,0,0,0,.66,2.42,9.38,9.38,0,0,0,1.07,1.2,6.62,6.62,0,0,1-4-1.07,4.27,4.27,0,0,1-1.45-3.67,9.4,9.4,0,0,1,1.53-5,15.39,15.39,0,0,1,4.11-4.31,21.79,21.79,0,0,1,6-3,22.69,22.69,0,0,1,7.17-1.12,16,16,0,0,1,6.4,1.15,11.19,11.19,0,0,1,4.28,3.19,12.77,12.77,0,0,1,2.4,4.77,22.49,22.49,0,0,1,.74,5.89,29.31,29.31,0,0,1-.56,5.66,33.07,33.07,0,0,1-1.58,5.51,35.67,35.67,0,0,1-2.37,5,22.42,22.42,0,0,1-2.93,4.05,14.13,14.13,0,0,1-3.31,2.7,6.92,6.92,0,0,1-3.47,1,7.52,7.52,0,0,1-3.11-.71,13.53,13.53,0,0,1-3.32-2.24l-.46,2.29h-5.61l7-32.69Z"/><path class="cls-24" d="M678.41,770.18l-3.72,17.34a9.45,9.45,0,0,0-.25,2.29,4,4,0,0,0,.31,1.58,1.24,1.24,0,0,0,1.28.71,3.41,3.41,0,0,0,2.47-1.48,16.44,16.44,0,0,0,2.37-4.08h1.89a26.75,26.75,0,0,1-2.45,5.07,13.14,13.14,0,0,1-2.37,2.83,5.83,5.83,0,0,1-2.19,1.25,7.31,7.31,0,0,1-1.86.28,3.64,3.64,0,0,1-2.78-1.17,6.22,6.22,0,0,1-1.3-3.82,10.73,10.73,0,0,1-3.24,3.54A7.68,7.68,0,0,1,662,796a6.89,6.89,0,0,1-2.4-.43,5.36,5.36,0,0,1-2.09-1.43,7.39,7.39,0,0,1-1.48-2.55,11.26,11.26,0,0,1-.56-3.8,19.71,19.71,0,0,1,.38-3.72,26.58,26.58,0,0,1,1.1-4,20.81,20.81,0,0,1,1.84-3.83,16.79,16.79,0,0,1,2.55-3.24,11.5,11.5,0,0,1,3.24-2.24,9.25,9.25,0,0,1,4-.84,6.17,6.17,0,0,1,2.5.56,3,3,0,0,1,1.68,2.14l.51-2.45Zm-14.23,21.93a3.75,3.75,0,0,0,1.68-.43,7.07,7.07,0,0,0,1.66-1.17,8.1,8.1,0,0,0,1.4-1.76,7.22,7.22,0,0,0,.87-2.19L672.24,775a3.12,3.12,0,0,0-.76-1.56,2.26,2.26,0,0,0-1.79-.69,5.29,5.29,0,0,0-3.72,1.53,13.4,13.4,0,0,0-2.75,3.72,19.72,19.72,0,0,0-1.68,4.69,20.36,20.36,0,0,0-.56,4.39q0,2.91.87,4A2.86,2.86,0,0,0,664.18,792.11Z"/><path class="cls-24" d="M694.88,770.18l-3.72,17.34a6.89,6.89,0,0,0-.2,1.68,3.13,3.13,0,0,0,.66,2.19,2.14,2.14,0,0,0,1.63.71,4.55,4.55,0,0,0,3-1.45,7.6,7.6,0,0,0,2.12-4.11l3.47-16.37H707l-6.27,29.58a25.57,25.57,0,0,1-1.25,4.44,9.15,9.15,0,0,1-1.53,2.63,4.28,4.28,0,0,1-1.86,1.28,7.42,7.42,0,0,1-2.29.33,7.23,7.23,0,0,1-4-1,3.88,3.88,0,0,1-1.63-3.54,4.15,4.15,0,0,1,.74-2.37,9.78,9.78,0,0,1,1.91-2.07,15.27,15.27,0,0,1,2.63-1.73,28.83,28.83,0,0,1,2.88-1.33l.66-3.21a8.6,8.6,0,0,1-2.68,2.17,6.17,6.17,0,0,1-2.73.69,5,5,0,0,1-2.19-.49,5.5,5.5,0,0,1-1.79-1.35,6.2,6.2,0,0,1-1.2-2.14,8.83,8.83,0,0,1-.43-2.86,12,12,0,0,1,.31-2.6l3.47-16.37ZM692,805.78a2.39,2.39,0,0,0,2.19-1.63,20.06,20.06,0,0,0,1.33-4.28l.36-1.63a13.42,13.42,0,0,0-4.31,2.7,4.21,4.21,0,0,0-1.45,2.86,2.11,2.11,0,0,0,.48,1.43A1.75,1.75,0,0,0,692,805.78Z"/></g></svg>