<svg version="1.1" id="Calque_1" class="wwf-svg svg4" xmlns="http://www.w3.org/2000/svg" xmlns:xlink="http://www.w3.org/1999/xlink" x="0px" y="0px"
        viewBox="0 0 519 346.6" style="enable-background:new 0 0 519 346.6;" xml:space="preserve">
    <g>
        <defs>
        <path id="SVGID_1_" class="wwf-path path4" d="M433.8,258.4c5.8-0.1,10.9-0.2,16-0.3c2.9-0.1,5.9,0,8.8-0.5c7.9-1.2,15.6-3.1,23.1-6
            c8.3-3.2,16-7.4,22.2-14c8.4-8.8,11.7-19.3,9.4-31.3c-2.3-12-8.8-21.8-17.4-30.2c-5.2-5-11.6-8-18.3-10.3
            c-8.4-2.8-17-4.3-25.7-5.8c-7.7-1.4-15.4-2.9-22.8-5.2c-9.7-3-18.5-7.5-26-14.4c-7.2-6.7-12.4-14.8-16.2-23.8
            C380.5,102,378,86.6,376.5,71c-0.4-4.5-0.9-9-1.7-13.4c-1.5-7.9-4.4-15.2-8.7-21.9c-6.7-10.2-15.9-17.2-26.9-22
            c-13.3-5.8-27.3-7.9-41.6-8.4c-9.5-0.3-19,0-28.5,1.2c-6.3,0.8-12.5,1.7-18.8,2.7c-13.1,2.2-26,5.6-38.7,9.7
            c-11.2,3.6-22,8.4-32.7,13.3c-10.7,4.8-21.3,9.8-32.1,14.3c-12.1,5.1-24.7,7.8-37.9,8.4c-7.2,0.3-14.4,0.1-21.6-0.4
            c-3.8-0.3-7.7-0.8-11.5-1c-7.2-0.4-14.3,0.5-21.2,2.8C42.9,60,33,66.6,24.7,75.6c-9.4,10.1-16,21.7-18.8,35.3
            c-1.4,6.8-1.5,13.6,0,20.4c2.4,10.9,8.5,19.4,17.5,25.8c5.7,4.1,12,6.8,18.4,9.6c5.7,2.5,11.5,4.9,17,7.8
            c8.5,4.4,14.3,11.3,17.5,20.3c2.7,7.4,3.8,15.2,4.1,23c0.2,4.3,0.1,8.6,0.1,12.8c-0.1,3.7-0.3,7.4-0.6,11.2
            c-0.2,3.4-0.6,6.8-0.9,10.2c-0.3,3-0.6,6.1-1.1,9.1c-1.3,7.3-2.5,14.6-2.7,22c-0.2,5.1,0,10.2,0.3,15.2c0.3,5.7,1.6,11.3,3.6,16.7
            c2.7,7.5,6.9,14,13.2,18.9c7.8,6.2,16.8,8.8,26.5,9.2c5.4,0.3,10.8-0.2,16.2-1.2c11.7-2.3,22.6-6.6,32.4-13.4
            c9.2-6.3,18.1-12.9,27.3-19.3c18.9-13.2,38.2-25.8,58.4-36.8c12.6-6.9,25.4-13,39.1-17.4c11.6-3.7,23.5-5.9,35.7-5.9
            c4.4,0,8.8,0.3,13.2,0.6c4.2,0.3,8.4,0.8,12.5,1.3c4.7,0.6,9.4,1.4,14.1,2c5.4,0.7,10.7,1.5,16.1,2.1c4.9,0.6,9.7,1.2,14.6,1.6
            c5.8,0.5,11.7,0.9,17.5,1.2C422.1,258.2,428.3,258.3,433.8,258.4z"/>
        </defs>
        <clipPath id="SVGID_2_">
        <use xlink:href="#SVGID_1_"  style="overflow:visible;"/>
        </clipPath>
        <g transform="matrix(1 0 0 1 0 0)" style="clip-path:url(#SVGID_2_);">
        <image style="overflow:visible;" width="1743" height="1233" xlink:href="../../images/WWF-3-shape.jpg"  transform="matrix(0.3102 0 0 0.3102 -11.1349 -17.078)">
        </image>
        </g>
    </g>
</svg>