<svg version="1.1" class="svg1" xmlns="http://www.w3.org/2000/svg" xmlns:xlink="http://www.w3.org/1999/xlink" x="0px" y="0px"
    viewBox="0 0 561 389" style="enable-background:new 0 0 561 389;" xml:space="preserve">
    <g>
        <defs>
            <path class="path1" id="SVGID_1_" d="M7.6,290.6c-8.6,21.4,3.9,85.8,84.6,59.9c80.7-25.9,77.8-17.2,129.2,19.4s166.6-5,187.3-29.5
                c33.9-40.1,29.8-64.5,98.6-82.4c31.4-8.2,65.7-89.3,35.4-122c-27.2-30.9-41.5-23.9-110.6-40.6c-58.3-14.9-62.1-42.6-82.1-61.1
                c-22.9-21.8-42.2-43.1-112.7-21.3c-72,30.7-110.7,75-168.5,78.3c-44.3,2.9-51.6,25-58.2,56.4C2.1,188.9,35.4,197,7.6,290.6z"/>
        </defs>
        <clipPath id="SVGID_2_">
            <use xlink:href="#SVGID_1_"  style="overflow:visible;"/>
        </clipPath>
        <g style="clip-path:url(#SVGID_2_);">
            <image style="overflow:visible;" width="800" height="566" xlink:href="../../images/WWF-3-shape.jpg"  transform="matrix(0.7244 0 0 0.7244 -9.7527 -11)">
            </image>
        </g>
    </g>
</svg>