<?xml version="1.0" encoding="utf-8"?>
<!-- Generator: Adobe Illustrator 21.1.0, SVG Export Plug-In . SVG Version: 6.00 Build 0)  -->
<svg version="1.1" id="Calque_1" xmlns="http://www.w3.org/2000/svg" xmlns:xlink="http://www.w3.org/1999/xlink" x="0px" y="0px"
	 viewBox="0 0 362.9 470.3" style="enable-background:new 0 0 362.9 470.3;" xml:space="preserve">
<g>
	<defs>
		<path id="SVGID_1_" d="M172.5,45.6c-10.4,16.8-16.9,35-45.5,64.8c-21.1,21.9-66.9,57.8-90.5,81.4c-59.2,59.2-7.4,104.9-5.2,109.3
			c2.2,4.5,27.6,31.6,35.6,43c7.7,11.1,11.9,21.5,11.1,52.9c1.3,21.9,5.9,34.6,18.8,50.5c12.8,15.7,52.7,30,79.2-17.3
			c5.2-6.3,17.3-50.4,24.5-67c8.5-18.6,22.7-35.4,57.1-38.8c18.3-3.7,44.8,2.8,67.8-2.5c17.5-4.7,35.1-18.7,26.5-62.6
			c-3.6-28.5-23.1-39.7-32.9-52.2c-10.5-15.3-22.2-39.9-13.4-74c14.7-49.7,32.3-63.9,33.9-85.1c0-2.7,0-25.2-38.8-36.1
			s-74.3-0.8-84.6,1.7C192.7,19.5,179.6,34.1,172.5,45.6z"/>
	</defs>
	<clipPath id="SVGID_2_">
		<use xlink:href="#SVGID_1_"  style="overflow:visible;"/>
	</clipPath>
	<g style="clip-path:url(#SVGID_2_);">
		
			<image style="overflow:visible;" width="800" height="1067" xlink:href="../images/img-about.jpg"  transform="matrix(0.4534 0 0 0.4534 5.917418e-02 -6.7452)">
		</image>
	</g>
	<g style="clip-path:url(#SVGID_2_);">
		
			<image style="overflow:visible;" width="1000" height="667" xlink:href="../images/HEINZ-2-shape.jpg"  transform="matrix(0.7057 0 0 0.7057 -171.6619 -0.1783)">
		</image>
	</g>
	<g style="clip-path:url(#SVGID_2_);">
		
			<image style="overflow:visible;" width="600" height="600" xlink:href="../images/GILLETTE-2-shape.jpg"  transform="matrix(0.8484 0 0 0.8484 -146.2032 0)">
		</image>
	</g>
</g>
</svg>
