<?xml version="1.0" encoding="utf-8"?>
<!-- Generator: Adobe Illustrator 21.1.0, SVG Export Plug-In . SVG Version: 6.00 Build 0)  -->
<svg version="1.1" id="Calque_1" xmlns="http://www.w3.org/2000/svg" xmlns:xlink="http://www.w3.org/1999/xlink" x="0px" y="0px"
	 viewBox="0 0 567 418" style="enable-background:new 0 0 567 418;" xml:space="preserve">
<g>
	<defs>
		<path id="SVGID_1_" d="M503.5,123.3c22,8,38.5,15.9,48.2,35.9c21.4,43.9,5.2,115-92.5,137.9C317,330.3,316.4,256.3,198.9,367
			S31.8,356.2,53.5,321.9c40.9-72.3,79.8-121.9-11.2-189.7C18.1,116.5-46.2,31.6,78.5,33.9c125.9,5.7,120.3-18.9,167-28.7
			c60.3-6,74.3,36.6,95.2,54.1C380,97.5,477.6,114,503.5,123.3z"/>
	</defs>
	<clipPath id="SVGID_2_">
		<use xlink:href="#SVGID_1_"  style="overflow:visible;"/>
	</clipPath>
	<g style="clip-path:url(#SVGID_2_);">
		
			<image style="overflow:visible;" width="1463" height="1094" xlink:href="../images/HEINZ-1-shape.jpg"  transform="matrix(0.3839 0 0 0.3839 4 -1)">
		</image>
	</g>
</g>
</svg>
